<svg width="25" height="24" viewBox="0 0 25 24" fill="none" xmlns="http://www.w3.org/2000/svg">
<path d="M11.75 5.99996V19.91C11.75 20.62 11.03 21.11 10.38 20.84C8.52 20.06 6.21 19.38 4.57 19.16L4.26 19.12C3.29 19 2.5 18.11 2.5 17.14V5.24996C2.5 4.04996 3.47 3.07996 4.67 3.07996H4.74C6.62 3.23996 9.39 4.11996 11.22 5.10996C11.55 5.28996 11.75 5.61996 11.75 5.99996Z" fill="#22505F"/>
<path d="M20.33 3.07996H20.27C20.03 3.09996 19.77 3.12996 19.5 3.17996C18.27 3.37996 16.81 3.79996 15.5 4.31996C14.88 4.56996 14.3 4.83996 13.79 5.10996C13.46 5.28996 13.25 5.62996 13.25 5.99996V19.91C13.25 20.62 13.97 21.11 14.62 20.84C16.48 20.06 18.79 19.38 20.43 19.16L20.74 19.12C21.71 19 22.5 18.11 22.5 17.14V5.24996C22.5 4.04996 21.53 3.07996 20.33 3.07996ZM19.77 13.73C19.77 14.12 19.49 14.29 19.15 14.1L18.09 13.51C17.98 13.45 17.8 13.45 17.68 13.51L16.62 14.1C16.28 14.29 16 14.12 16 13.73V10.66C16 10.2 16.38 9.81996 16.84 9.81996H18.94C19.4 9.81996 19.78 10.2 19.78 10.66V13.73H19.77Z" fill="#22505F"/>
</svg>
