<svg width="19" height="18" viewBox="0 0 19 18" fill="none" xmlns="http://www.w3.org/2000/svg">
<path d="M10.6025 5.55747L12.4475 4.64997C12.6725 4.53747 12.7325 4.24497 12.56 4.06497C11.8925 3.32997 11.2175 2.71497 10.6775 2.24997C10.43 2.03997 10.0625 2.21247 10.0625 2.53497V5.21997C10.0625 5.49747 10.355 5.67747 10.6025 5.55747Z" fill="#22505F"/>
<path d="M10.0625 14.805V16.0425C10.0625 16.2675 10.265 16.455 10.49 16.4175C12.5375 16.08 14.2475 14.7075 15.0575 12.8625C15.2 12.5475 14.855 12.2325 14.54 12.3825L10.2725 14.475C10.145 14.535 10.0625 14.6625 10.0625 14.805Z" fill="#22505F"/>
<path d="M8.93748 2.51997C8.93748 2.19747 8.56998 2.02497 8.32248 2.22747C6.55248 3.71247 3.40998 6.83997 3.42498 10.425C3.42498 13.44 5.62998 15.9375 8.50998 16.4175C8.73498 16.455 8.93748 16.2675 8.93748 16.0425V2.51997Z" fill="#22505F"/>
<path d="M10.5801 9.35258L14.5476 7.68758C14.7501 7.59758 14.8476 7.36508 14.7501 7.17008C14.4726 6.62258 14.1501 6.09008 13.7976 5.59508C13.6926 5.44508 13.4976 5.40008 13.3326 5.47508L10.2651 6.96758C10.1376 7.02758 10.0551 7.16258 10.0551 7.30508V9.00758C10.0626 9.27008 10.3326 9.45758 10.5801 9.35258Z" fill="#22505F"/>
<path d="M15.3725 10.7325C15.4925 10.6725 15.5675 10.56 15.5675 10.4325C15.5675 9.95254 15.5075 9.48004 15.4025 9.01504C15.35 8.79004 15.1025 8.67004 14.8925 8.76004L10.2875 10.725C10.1525 10.785 10.0625 10.92 10.0625 11.07V12.72C10.0625 12.9975 10.355 13.1775 10.6025 13.0575L15.0275 10.905L15.3725 10.7325Z" fill="#22505F"/>
</svg>
