<svg width="21" height="20" viewBox="0 0 21 20" fill="none" xmlns="http://www.w3.org/2000/svg">
<path d="M14.75 1.66663H11.25C8.7466 1.66663 7.53846 2.53228 7.246 4.61571C7.16858 5.16721 7.63004 5.62496 8.18695 5.62496H9.75005C13.25 5.62496 14.875 7.24996 14.875 10.75V12.3131C14.875 12.87 15.3328 13.3314 15.8843 13.254C17.9677 12.9615 18.8334 11.7534 18.8334 9.24996V5.74996C18.8334 2.83329 17.6667 1.66663 14.75 1.66663Z" fill="#22505F"/>
<path d="M9.74996 6.66663H6.24996C3.33329 6.66663 2.16663 7.83329 2.16663 10.75V14.25C2.16663 17.1666 3.33329 18.3333 6.24996 18.3333H9.74996C12.6666 18.3333 13.8333 17.1666 13.8333 14.25V10.75C13.8333 7.83329 12.6666 6.66663 9.74996 6.66663ZM10.7416 11.375L7.64996 14.4666C7.53329 14.5833 7.38329 14.6416 7.22496 14.6416C7.06663 14.6416 6.91663 14.5833 6.79996 14.4666L5.24996 12.9166C5.01663 12.6833 5.01663 12.3083 5.24996 12.075C5.48329 11.8416 5.85829 11.8416 6.09163 12.075L7.21663 13.2L9.89163 10.525C10.125 10.2916 10.5 10.2916 10.7333 10.525C10.9666 10.7583 10.975 11.1416 10.7416 11.375Z" fill="#22505F"/>
</svg>
