<svg width="21" height="20" viewBox="0 0 21 20" fill="none" xmlns="http://www.w3.org/2000/svg">
<path d="M8.83337 0.833374H3.83337C2.45004 0.833374 1.33337 1.95004 1.33337 3.33337V8.33337C1.33337 9.71671 2.45004 10.8334 3.83337 10.8334H7.58337C7.58337 8.76671 9.26671 7.08337 11.3334 7.08337V3.33337C11.3334 1.95004 10.2167 0.833374 8.83337 0.833374ZM3.64171 3.55837C4.28337 3.10004 5.15837 3.09171 5.81671 3.54171C6.10004 3.73337 6.17504 4.12504 5.98337 4.40837C5.79171 4.69171 5.40004 4.76671 5.11671 4.57504C4.89171 4.41671 4.58337 4.41671 4.35837 4.58337C4.25004 4.65837 4.12504 4.69171 4.00004 4.69171C3.80837 4.69171 3.60837 4.60004 3.49171 4.43337C3.29171 4.15004 3.35837 3.75837 3.64171 3.55837ZM8.22504 6.86671C8.00837 7.14171 7.61671 7.18337 7.35004 6.96671C7.05837 6.73337 6.70837 6.60837 6.33337 6.60837C5.50004 6.60837 4.80837 7.24171 4.71671 8.05837H6.46671C6.80837 8.05837 7.09171 8.34171 7.09171 8.68337C7.09171 9.02504 6.80837 9.30837 6.46671 9.30837H4.53337C3.94171 9.30837 3.45837 8.82504 3.45837 8.23337C3.45837 6.65004 4.75004 5.35837 6.33337 5.35837C6.98337 5.35837 7.62504 5.58337 8.13337 5.99171C8.40004 6.20837 8.44171 6.60004 8.22504 6.86671ZM9.31671 4.40837C9.12504 4.69171 8.73337 4.76671 8.45004 4.57504C8.22504 4.41671 7.91671 4.41671 7.69171 4.58337C7.58337 4.65837 7.45837 4.69171 7.33337 4.69171C7.14171 4.69171 6.94171 4.60004 6.82504 4.43337C6.62504 4.15004 6.69171 3.75837 6.97504 3.55837C7.61671 3.10004 8.49171 3.09171 9.15004 3.54171C9.43337 3.73337 9.50837 4.12504 9.31671 4.40837Z" fill="#22505F"/>
<path d="M15.6833 13.9C15.625 13.8334 15.5417 13.8 15.45 13.8H12.2167C12.125 13.8 12.0417 13.8334 11.9833 13.9C11.925 13.9667 11.8917 14.0584 11.9083 14.1417C12.0167 15.125 12.8417 15.875 13.8333 15.875C14.825 15.875 15.65 15.1334 15.7583 14.1417C15.7667 14.05 15.7417 13.9667 15.6833 13.9Z" fill="#22505F"/>
<path d="M16.3334 8.33337H11.3334C9.95837 8.33337 8.83337 9.45837 8.83337 10.8334V15.8334C8.83337 17.2084 9.95837 18.3334 11.3334 18.3334H16.3334C17.7084 18.3334 18.8334 17.2084 18.8334 15.8334V10.8334C18.8334 9.45837 17.7084 8.33337 16.3334 8.33337ZM10.9917 10.975C11.1917 10.6917 11.5834 10.625 11.8667 10.825C12.0917 10.9834 12.3917 10.9834 12.6167 10.8334C12.9 10.6334 13.2917 10.7084 13.4834 11C13.675 11.2834 13.6084 11.675 13.3167 11.8667C12.9917 12.0834 12.6167 12.2 12.2417 12.2C11.85 12.2 11.4667 12.0834 11.1417 11.85C10.8584 11.6417 10.7917 11.25 10.9917 10.975ZM13.8334 16.8084C12.25 16.8084 10.9584 15.5167 10.9584 13.9334C10.9584 13.3417 11.4417 12.8584 12.0334 12.8584H15.6334C16.225 12.8584 16.7084 13.3417 16.7084 13.9334C16.7084 15.5167 15.4167 16.8084 13.8334 16.8084ZM16.65 11.8584C16.325 12.075 15.95 12.1917 15.575 12.1917C15.1834 12.1917 14.8 12.075 14.475 11.8417C14.1917 11.6417 14.125 11.25 14.325 10.9667C14.525 10.6834 14.9167 10.6167 15.2 10.8167C15.425 10.975 15.725 10.975 15.95 10.825C16.2334 10.625 16.625 10.7 16.8167 10.9917C17.0084 11.2834 16.9334 11.6667 16.65 11.8584Z" fill="#22505F"/>
</svg>
