<svg width="19" height="18" viewBox="0 0 19 18" fill="none" xmlns="http://www.w3.org/2000/svg">
<path d="M13.4675 3.10503L13.415 5.94753C13.4075 6.33753 13.655 6.85503 13.97 7.08753L15.83 8.49753C17.0225 9.39753 16.8275 10.5 15.4025 10.95L12.98 11.7075C12.575 11.835 12.1475 12.2775 12.0425 12.69L11.465 14.895C11.0075 16.635 9.86746 16.8075 8.92246 15.2775L7.60246 13.14C7.36246 12.75 6.79246 12.4575 6.34246 12.48L3.83746 12.6075C2.04496 12.6975 1.53496 11.6625 2.70496 10.2975L4.18996 8.57253C4.46746 8.25003 4.59496 7.65003 4.46746 7.24503L3.70246 4.81503C3.25996 3.39003 4.05496 2.60253 5.47246 3.06753L7.68496 3.79503C8.05996 3.91503 8.62246 3.83253 8.93746 3.60003L11.2475 1.93503C12.5 1.04253 13.4975 1.56753 13.4675 3.10503Z" fill="#22505F"/>
<path d="M16.58 15.3526L14.3075 13.0801C14.09 12.8626 13.73 12.8626 13.5125 13.0801C13.295 13.2976 13.295 13.6576 13.5125 13.8751L15.785 16.1476C15.8975 16.2601 16.04 16.3126 16.1825 16.3126C16.325 16.3126 16.4675 16.2601 16.58 16.1476C16.7975 15.9301 16.7975 15.5701 16.58 15.3526Z" fill="#22505F"/>
</svg>
