<svg width="21" height="20" viewBox="0 0 21 20" fill="none" xmlns="http://www.w3.org/2000/svg">
<path fill-rule="evenodd" clip-rule="evenodd" d="M12.3085 0.00268132C12.159 0.00268132 12.0067 0.00804396 11.8571 0.0134066L11.8571 0.013519C9.52516 0.116005 7.39977 0.992651 5.73628 2.39172C5.7322 2.39575 5.72744 2.39977 5.72268 2.40379C5.71799 2.40775 5.71331 2.41171 5.70927 2.41567L5.70709 2.41322C3.54257 4.24724 2.16663 6.96342 2.16663 9.99868L2.16935 10.0014C2.16935 15.5249 6.71049 20 12.3094 20C14.9063 20 17.2721 19.0347 19.0668 17.4527L15.7466 13.715C14.8465 14.5274 13.65 15.0288 12.3339 15.0342C9.51404 15.0476 7.21627 12.8033 7.20268 10.0228C7.19452 8.47844 7.89602 7.09494 8.99994 6.16721L9.00209 6.1697C9.83962 5.46452 10.911 5.02746 12.0857 4.97652H12.083L12.083 4.97641C12.1096 4.9753 12.1362 4.9734 12.1627 4.97151L12.1627 4.97151C12.2028 4.96864 12.2426 4.9658 12.2814 4.9658C13.2059 4.96044 14.0706 5.20176 14.8184 5.62005L16.9585 1.11543C15.5635 0.404879 13.9836 0 12.3058 0L12.3085 0.00268132Z" fill="#22505F"/>
</svg>
