<svg width="25" height="24" viewBox="0 0 25 24" fill="none" xmlns="http://www.w3.org/2000/svg">
<path d="M18.03 7.77C17.96 7.76 17.89 7.76 17.82 7.77C16.27 7.72 15.04 6.45 15.04 4.89C15.04 3.3 16.33 2 17.93 2C19.52 2 20.82 3.29 20.82 4.89C20.81 6.45 19.58 7.72 18.03 7.77Z" fill="#22505F"/>
<path d="M21.29 14.7C20.17 15.45 18.6 15.73 17.15 15.54C17.53 14.72 17.73 13.81 17.74 12.85C17.74 11.85 17.52 10.9 17.1 10.07C18.58 9.87004 20.15 10.15 21.28 10.9C22.86 11.94 22.86 13.65 21.29 14.7Z" fill="#22505F"/>
<path d="M6.94003 7.77C7.01003 7.76 7.08003 7.76 7.15003 7.77C8.70003 7.72 9.93003 6.45 9.93003 4.89C9.93003 3.29 8.64003 2 7.04003 2C5.45003 2 4.16003 3.29 4.16003 4.89C4.16003 6.45 5.39003 7.72 6.94003 7.77Z" fill="#22505F"/>
<path d="M7.05 12.85C7.05 13.82 7.25999 14.74 7.64 15.57C6.23 15.72 4.76 15.42 3.68 14.71C2.1 13.66 2.1 11.95 3.68 10.9C4.75 10.18 6.25999 9.88998 7.68 10.05C7.27 10.89 7.05 11.84 7.05 12.85Z" fill="#22505F"/>
<path d="M12.62 15.87C12.54 15.86 12.45 15.86 12.36 15.87C10.52 15.81 9.05005 14.3 9.05005 12.44C9.06005 10.54 10.59 9 12.5 9C14.4 9 15.94 10.54 15.94 12.44C15.93 14.3 14.47 15.81 12.62 15.87Z" fill="#22505F"/>
<path d="M9.37005 17.94C7.86005 18.95 7.86005 20.61 9.37005 21.61C11.09 22.76 13.91 22.76 15.63 21.61C17.14 20.6 17.14 18.94 15.63 17.94C13.92 16.79 11.1 16.79 9.37005 17.94Z" fill="#22505F"/>
</svg>
