<svg width="21" height="20" viewBox="0 0 21 20" fill="none" xmlns="http://www.w3.org/2000/svg">
<path d="M16.6417 4.07498L11.7583 1.89998C11.0416 1.58331 9.95832 1.58331 9.24165 1.89998L4.35832 4.07498C3.12498 4.62498 2.94165 5.37498 2.94165 5.77498C2.94165 6.17497 3.12498 6.92498 4.35832 7.47498L9.24165 9.64997C9.59998 9.80831 10.05 9.89164 10.5 9.89164C10.95 9.89164 11.4 9.80831 11.7583 9.64997L16.6417 7.47498C17.875 6.92498 18.0583 6.17497 18.0583 5.77498C18.0583 5.37498 17.8833 4.62498 16.6417 4.07498Z" fill="#22505F"/>
<path d="M10.5 14.2C10.1834 14.2 9.86668 14.1333 9.57502 14.0083L3.95835 11.5083C3.10002 11.125 2.43335 10.1 2.43335 9.15829C2.43335 8.81663 2.70835 8.54163 3.05002 8.54163C3.39168 8.54163 3.66668 8.81663 3.66668 9.15829C3.66668 9.60829 4.04168 10.1916 4.45835 10.375L10.075 12.875C10.3417 12.9916 10.65 12.9916 10.9167 12.875L16.5334 10.375C16.95 10.1916 17.325 9.61663 17.325 9.15829C17.325 8.81663 17.6 8.54163 17.9417 8.54163C18.2834 8.54163 18.5584 8.81663 18.5584 9.15829C18.5584 10.0916 17.8917 11.125 17.0334 11.5083L11.4167 14.0083C11.1334 14.1333 10.8167 14.2 10.5 14.2Z" fill="#22505F"/>
<path d="M10.5 18.3334C10.1834 18.3334 9.86668 18.2667 9.57502 18.1417L3.95835 15.6417C3.03335 15.2334 2.43335 14.3084 2.43335 13.2917C2.43335 12.95 2.70835 12.675 3.05002 12.675C3.39168 12.675 3.66668 12.95 3.66668 13.2917C3.66668 13.8167 3.97502 14.2917 4.45835 14.5084L10.075 17.0084C10.3417 17.125 10.65 17.125 10.9167 17.0084L16.5334 14.5084C17.0084 14.3 17.325 13.8167 17.325 13.2917C17.325 12.95 17.6 12.675 17.9417 12.675C18.2834 12.675 18.5584 12.95 18.5584 13.2917C18.5584 14.3084 17.9584 15.225 17.0334 15.6417L11.4167 18.1417C11.1334 18.2667 10.8167 18.3334 10.5 18.3334Z" fill="#22505F"/>
</svg>
