<svg width="25" height="24" viewBox="0 0 25 24" fill="none" xmlns="http://www.w3.org/2000/svg">
<path d="M20.01 5.85L14.07 2.42C13.1 1.86 11.9 1.86 10.92 2.42L4.99004 5.85C4.02004 6.41 3.42004 7.45 3.42004 8.58V15.42C3.42004 16.54 4.02004 17.58 4.99004 18.15L10.93 21.58C11.9 22.14 13.1 22.14 14.08 21.58L20.02 18.15C20.99 17.59 21.59 16.55 21.59 15.42V8.58C21.58 7.45 20.98 6.42 20.01 5.85ZM12.5 7.34C13.79 7.34 14.83 8.38 14.83 9.67C14.83 10.96 13.79 12 12.5 12C11.21 12 10.17 10.96 10.17 9.67C10.17 8.39 11.21 7.34 12.5 7.34ZM15.18 16.66H9.82004C9.01004 16.66 8.54004 15.76 8.99004 15.09C9.67004 14.08 10.99 13.4 12.5 13.4C14.01 13.4 15.33 14.08 16.01 15.09C16.46 15.75 15.98 16.66 15.18 16.66Z" fill="#22505F"/>
</svg>
