<svg width="21" height="20" viewBox="0 0 21 20" fill="none" xmlns="http://www.w3.org/2000/svg">
<path d="M15.1084 6.47508C15.05 6.46675 14.9917 6.46675 14.9334 6.47508C13.6417 6.43341 12.6167 5.37508 12.6167 4.07508C12.6167 2.75008 13.6917 1.66675 15.025 1.66675C16.35 1.66675 17.4334 2.74175 17.4334 4.07508C17.425 5.37508 16.4 6.43341 15.1084 6.47508Z" fill="#22505F"/>
<path d="M17.825 12.2501C16.8917 12.8751 15.5834 13.1084 14.375 12.9501C14.6917 12.2668 14.8584 11.5084 14.8667 10.7084C14.8667 9.87509 14.6834 9.08343 14.3334 8.39176C15.5667 8.22509 16.875 8.45843 17.8167 9.08343C19.1334 9.95009 19.1334 11.3751 17.825 12.2501Z" fill="#22505F"/>
<path d="M5.86672 6.47508C5.92505 6.46675 5.98338 6.46675 6.04172 6.47508C7.33338 6.43341 8.35838 5.37508 8.35838 4.07508C8.35838 2.74175 7.28338 1.66675 5.95005 1.66675C4.62505 1.66675 3.55005 2.74175 3.55005 4.07508C3.55005 5.37508 4.57505 6.43341 5.86672 6.47508Z" fill="#22505F"/>
<path d="M5.95831 10.7083C5.95831 11.5167 6.13331 12.2833 6.44998 12.975C5.27498 13.1 4.04998 12.85 3.14998 12.2583C1.83331 11.3833 1.83331 9.95834 3.14998 9.08334C4.04164 8.48334 5.29998 8.24167 6.48331 8.37501C6.14164 9.07501 5.95831 9.86667 5.95831 10.7083Z" fill="#22505F"/>
<path d="M10.6 13.225C10.5333 13.2167 10.4583 13.2167 10.3833 13.225C8.85 13.175 7.625 11.9167 7.625 10.3667C7.63333 8.78333 8.90833 7.5 10.5 7.5C12.0833 7.5 13.3667 8.78333 13.3667 10.3667C13.3583 11.9167 12.1417 13.175 10.6 13.225Z" fill="#22505F"/>
<path d="M7.89163 14.95C6.63329 15.7916 6.63329 17.175 7.89163 18.0083C9.32496 18.9666 11.675 18.9666 13.1083 18.0083C14.3666 17.1666 14.3666 15.7833 13.1083 14.95C11.6833 13.9916 9.33329 13.9916 7.89163 14.95Z" fill="#22505F"/>
</svg>
