<svg width="21" height="20" viewBox="0 0 21 20" fill="none" xmlns="http://www.w3.org/2000/svg">
<path d="M7.99996 1.66675C5.81663 1.66675 4.04163 3.44175 4.04163 5.62508C4.04163 7.76675 5.71663 9.50008 7.89996 9.57508C7.96663 9.56675 8.03329 9.56675 8.08329 9.57508C8.09996 9.57508 8.10829 9.57508 8.12496 9.57508C8.13329 9.57508 8.13329 9.57508 8.14163 9.57508C10.275 9.50008 11.95 7.76675 11.9583 5.62508C11.9583 3.44175 10.1833 1.66675 7.99996 1.66675Z" fill="#22505F"/>
<path d="M12.2333 11.7917C9.9083 10.2417 6.11663 10.2417 3.77497 11.7917C2.71663 12.5 2.1333 13.4583 2.1333 14.4833C2.1333 15.5083 2.71663 16.4583 3.76663 17.1583C4.9333 17.9417 6.46663 18.3333 7.99997 18.3333C9.5333 18.3333 11.0666 17.9417 12.2333 17.1583C13.2833 16.45 13.8666 15.5 13.8666 14.4667C13.8583 13.4417 13.2833 12.4917 12.2333 11.7917Z" fill="#22505F"/>
<path d="M17.1583 6.11659C17.2916 7.73325 16.1416 9.14992 14.55 9.34159C14.5416 9.34159 14.5416 9.34159 14.5333 9.34159H14.5083C14.4583 9.34159 14.4083 9.34159 14.3666 9.35825C13.5583 9.39992 12.8166 9.14159 12.2583 8.66659C13.1166 7.89992 13.6083 6.74992 13.5083 5.49992C13.45 4.82492 13.2166 4.20825 12.8666 3.68325C13.1833 3.52492 13.55 3.42492 13.925 3.39159C15.5583 3.24992 17.0166 4.46659 17.1583 6.11659Z" fill="#22505F"/>
<path d="M18.825 13.8249C18.7583 14.6333 18.2417 15.3333 17.375 15.8083C16.5417 16.2666 15.4917 16.4833 14.45 16.4583C15.05 15.9166 15.4 15.2416 15.4667 14.5249C15.55 13.4916 15.0583 12.4999 14.075 11.7083C13.5167 11.2666 12.8667 10.9166 12.1583 10.6583C14 10.1249 16.3167 10.4833 17.7417 11.6333C18.5083 12.2499 18.9 13.0249 18.825 13.8249Z" fill="#22505F"/>
</svg>
