<svg width="21" height="20" viewBox="0 0 21 20" fill="none" xmlns="http://www.w3.org/2000/svg">
<path d="M18.5583 5.79163C18.025 3.98329 16.5167 2.47496 14.7083 1.94163C13.3333 1.54163 12.3833 1.57496 11.725 2.06663C10.9333 2.65829 10.8417 3.72496 10.8417 4.48329V6.55829C10.8417 8.60829 11.775 9.64996 13.6083 9.64996H16C16.75 9.64996 17.825 9.55829 18.4167 8.76663C18.925 8.11663 18.9667 7.16663 18.5583 5.79163Z" fill="#22505F"/>
<path d="M16.2584 11.1333C16.0417 10.8833 15.725 10.7417 15.4 10.7417H12.4167C10.95 10.7417 9.75837 9.55 9.75837 8.08334V5.1C9.75837 4.775 9.6167 4.45834 9.3667 4.24167C9.12504 4.025 8.7917 3.925 8.47504 3.96667C6.5167 4.21667 4.7167 5.29167 3.5417 6.90834C2.35837 8.53334 1.92504 10.5167 2.30004 12.5C2.8417 15.3667 5.13337 17.6583 8.00837 18.2C8.4667 18.2917 8.92504 18.3333 9.38337 18.3333C10.8917 18.3333 12.35 17.8667 13.5917 16.9583C15.2084 15.7833 16.2834 13.9833 16.5334 12.025C16.575 11.7 16.475 11.375 16.2584 11.1333Z" fill="#22505F"/>
</svg>
