<svg width="21" height="20" viewBox="0 0 21 20" fill="none" xmlns="http://www.w3.org/2000/svg">
<path d="M6.75 3.74996H6.54167V1.66663C6.54167 1.32496 6.25833 1.04163 5.91667 1.04163C5.575 1.04163 5.29167 1.32496 5.29167 1.66663V3.74996H5.08333C3.75833 3.74996 3 4.50829 3 5.83329V10.8333C3 12.1583 3.75833 12.9166 5.08333 12.9166H5.29167V18.3333C5.29167 18.675 5.575 18.9583 5.91667 18.9583C6.25833 18.9583 6.54167 18.675 6.54167 18.3333V12.9166H6.75C8.075 12.9166 8.83333 12.1583 8.83333 10.8333V5.83329C8.83333 4.50829 8.075 3.74996 6.75 3.74996Z" fill="#22505F"/>
<path d="M15.9166 7.08329H15.7083V1.66663C15.7083 1.32496 15.425 1.04163 15.0833 1.04163C14.7416 1.04163 14.4583 1.32496 14.4583 1.66663V7.08329H14.25C12.925 7.08329 12.1666 7.84163 12.1666 9.16663V14.1666C12.1666 15.4916 12.925 16.25 14.25 16.25H14.4583V18.3333C14.4583 18.675 14.7416 18.9583 15.0833 18.9583C15.425 18.9583 15.7083 18.675 15.7083 18.3333V16.25H15.9166C17.2416 16.25 18 15.4916 18 14.1666V9.16663C18 7.84163 17.2416 7.08329 15.9166 7.08329Z" fill="#22505F"/>
</svg>
