<svg width="21" height="20" viewBox="0 0 21 20" fill="none" xmlns="http://www.w3.org/2000/svg">
<path d="M12.1666 13.3334C12.1666 14.8084 11.525 16.1417 10.5 17.05C9.61663 17.85 8.44996 18.3334 7.16663 18.3334C4.40829 18.3334 2.16663 16.0917 2.16663 13.3334C2.16663 11.6804 2.97762 10.212 4.21838 9.3036C4.4632 9.12436 4.79908 9.24408 4.93721 9.51424C5.73284 11.0703 7.15928 12.2333 8.84996 12.6917C9.37496 12.8417 9.92496 12.9167 10.5 12.9167C10.874 12.9167 11.2335 12.884 11.5833 12.8235C11.8724 12.7734 12.1597 12.9581 12.1658 13.2514C12.1663 13.2788 12.1666 13.3062 12.1666 13.3334Z" fill="#22505F"/>
<path d="M15.5 6.66663C15.5 7.31663 15.375 7.94163 15.15 8.50829C14.575 9.95829 13.3417 11.075 11.8167 11.4916C11.4 11.6083 10.9583 11.6666 10.5 11.6666C10.0417 11.6666 9.6 11.6083 9.18333 11.4916C7.65833 11.075 6.425 9.95829 5.85 8.50829C5.625 7.94163 5.5 7.31663 5.5 6.66663C5.5 3.90829 7.74167 1.66663 10.5 1.66663C13.2583 1.66663 15.5 3.90829 15.5 6.66663Z" fill="#22505F"/>
<path d="M18.8333 13.3334C18.8333 16.0917 16.5916 18.3334 13.8333 18.3334C13.2535 18.3334 12.6943 18.2346 12.1759 18.0515C11.8544 17.9379 11.7947 17.5299 12.0116 17.2669C12.9164 16.1699 13.4166 14.7825 13.4166 13.3334C13.4166 13.05 13.3916 12.7667 13.35 12.5C13.3252 12.3463 13.4036 12.1952 13.5398 12.1198C14.6156 11.5243 15.499 10.6197 16.0629 9.51508C16.201 9.24462 16.5371 9.1246 16.7821 9.30402C18.0226 10.2125 18.8333 11.6806 18.8333 13.3334Z" fill="#22505F"/>
</svg>
