<svg width="20" height="20" viewBox="0 0 20 20" fill="none" xmlns="http://www.w3.org/2000/svg">
<mask id="mask0_856_12793" style="mask-type:alpha" maskUnits="userSpaceOnUse" x="0" y="0" width="20" height="20">
<circle cx="10" cy="10" r="9.5" fill="#F8FAFC" stroke="#F1F5F9"/>
</mask>
<g mask="url(#mask0_856_12793)">
<path d="M23.1158 0H-3.09914C-4.37451 0 -5.40833 1.02352 -5.40833 2.28618V17.7138C-5.40833 18.9764 -4.37451 19.9999 -3.09914 19.9999H23.1158C24.3911 19.9999 25.425 18.9764 25.425 17.7138V2.28618C25.425 1.02352 24.3912 0 23.1158 0Z" fill="#41479B"/>
<path d="M25.393 1.9083C25.211 0.825637 24.261 0 23.1158 0H22.515L12.6664 6.38825V5.95887e-05H7.35029V6.38831L-2.49831 5.95887e-05H-3.09914C-4.24437 5.95887e-05 -5.19436 0.825637 -5.37635 1.90836L3.04127 7.36849H-5.40833V12.6316H3.04127L-5.37635 18.0916C-5.19436 19.1743 -4.24437 19.9999 -3.09914 19.9999H-2.49831L7.35029 13.6117V19.9999H12.6664V13.6117L22.515 19.9999H23.1158C24.261 19.9999 25.211 19.1744 25.393 18.0916L16.9754 12.6315H25.425V7.36837H16.9754L25.393 1.9083Z" fill="#F5F5F5"/>
<path d="M11.6042 0H8.41447V8.42099H-5.40735V11.5789H8.41447V19.9999H11.6042V11.5789H25.426V8.42099H11.6042V0Z" fill="#FF4B55"/>
<path d="M-3.91178 19.8523L7.3245 12.6313H5.37164L-4.84937 19.2C-4.59927 19.4889 -4.27786 19.7154 -3.91178 19.8523Z" fill="#FF4B55"/>
<path d="M15.4518 12.6313H13.4989L24.3819 19.6252C24.6864 19.4272 24.9405 19.1598 25.1218 18.8457L15.4518 12.6313Z" fill="#FF4B55"/>
<path d="M-5.16187 1.26375L4.33685 7.3682H6.28971L-4.47378 0.450928C-4.76278 0.663895 -4.99927 0.942327 -5.16187 1.26375Z" fill="#FF4B55"/>
<path d="M14.6222 7.36834L24.8619 0.787625C24.609 0.499594 24.2851 0.274464 23.9165 0.140137L12.6693 7.36834H14.6222Z" fill="#FF4B55"/>
</g>
</svg>
