<svg width="19" height="18" viewBox="0 0 19 18" fill="none" xmlns="http://www.w3.org/2000/svg">
<path d="M8.75 12.1125V14.1375C8.75 15.825 8.075 16.5 6.3875 16.5H4.3625C2.675 16.5 2 15.825 2 14.1375V12.1125C2 10.425 2.675 9.75 4.3625 9.75H6.3875C8.075 9.75 8.75 10.425 8.75 12.1125Z" fill="#22505F"/>
<path d="M13.625 8.25C15.489 8.25 17 6.73896 17 4.875C17 3.01104 15.489 1.5 13.625 1.5C11.761 1.5 10.25 3.01104 10.25 4.875C10.25 6.73896 11.761 8.25 13.625 8.25Z" fill="#22505F"/>
<path d="M11.585 16.4999C11.3825 16.4999 11.195 16.3874 11.0975 16.2149C11 16.0349 11 15.8249 11.105 15.6449L11.8325 14.4299C11.99 14.1599 12.335 14.0774 12.605 14.2349C12.875 14.3924 12.9575 14.7374 12.8 15.0074L12.665 15.2324C14.5175 14.7524 15.8825 13.0724 15.8825 11.0774C15.8825 10.7699 16.1375 10.5149 16.445 10.5149C16.7525 10.5149 17 10.7699 17 11.0849C17 14.0699 14.57 16.4999 11.585 16.4999Z" fill="#22505F"/>
<path d="M2.5625 7.4775C2.255 7.4775 2 7.23 2 6.915C2 3.93 4.43 1.5 7.415 1.5C7.625 1.5 7.805 1.6125 7.91 1.785C8.0075 1.965 8.0075 2.175 7.9025 2.355L7.175 3.5625C7.01 3.8325 6.665 3.9225 6.4025 3.7575C6.1325 3.6 6.05 3.255 6.2075 2.985L6.3425 2.76C4.4975 3.24 3.125 4.92 3.125 6.915C3.125 7.23 2.87 7.4775 2.5625 7.4775Z" fill="#22505F"/>
</svg>
