<svg width="21" height="20" viewBox="0 0 21 20" fill="none" xmlns="http://www.w3.org/2000/svg">
<path d="M11.7917 16.8001C11.575 16.8917 11.3417 16.9751 11.0917 17.0584L9.77504 17.4917C6.46671 18.5584 4.72504 17.6667 3.65004 14.3584L2.58337 11.0667C1.51671 7.75839 2.40004 6.00839 5.70837 4.94172L6.99171 4.51672C6.83337 4.91672 6.70004 5.37506 6.57504 5.89172L5.75837 9.38339C4.84171 13.3084 6.18337 15.4751 10.1084 16.4084L11.5084 16.7417C11.6 16.7667 11.7 16.7834 11.7917 16.8001Z" fill="#22505F"/>
<path d="M14.8083 2.67505L13.4167 2.35005C10.6333 1.69171 8.97499 2.23338 7.99999 4.25005C7.74999 4.75838 7.54999 5.37505 7.38332 6.08338L6.56665 9.57505C5.74999 13.0584 6.82499 14.775 10.3 15.6L11.7 15.9334C12.1833 16.05 12.6333 16.125 13.05 16.1584C15.65 16.4084 17.0333 15.1917 17.7333 12.1834L18.55 8.70005C19.3667 5.21671 18.3 3.49171 14.8083 2.67505Z" fill="#22505F"/>
</svg>
