<svg width="21" height="20" viewBox="0 0 21 20" fill="none" xmlns="http://www.w3.org/2000/svg">
<path d="M6.87505 17.425C6.85005 17.425 6.81672 17.4417 6.79172 17.4417C5.17505 16.6417 3.85838 15.3167 3.05005 13.7C3.05005 13.675 3.06672 13.6417 3.06672 13.6167C4.08338 13.9167 5.13338 14.1417 6.17505 14.3167C6.35838 15.3667 6.57505 16.4084 6.87505 17.425Z" fill="#22505F"/>
<path d="M17.95 13.7084C17.125 15.3667 15.75 16.7084 14.075 17.5167C14.3916 16.4584 14.6583 15.3917 14.8333 14.3167C15.8833 14.1417 16.9166 13.9167 17.9333 13.6167C17.925 13.65 17.95 13.6834 17.95 13.7084Z" fill="#22505F"/>
<path d="M18.0166 6.42494C16.9666 6.10828 15.9083 5.84994 14.8333 5.66661C14.6583 4.59161 14.4 3.52494 14.075 2.48328C15.8 3.30828 17.1916 4.69994 18.0166 6.42494Z" fill="#22505F"/>
<path d="M6.87494 2.57505C6.57494 3.59172 6.35828 4.62505 6.18328 5.67505C5.10828 5.84172 4.04161 6.10838 2.98328 6.42505C3.79161 4.75005 5.13328 3.37505 6.79161 2.55005C6.81661 2.55005 6.84994 2.57505 6.87494 2.57505Z" fill="#22505F"/>
<path d="M13.4083 5.49163C11.475 5.27496 9.52501 5.27496 7.59167 5.49163C7.80001 4.34996 8.06667 3.20829 8.44167 2.10829C8.45834 2.04163 8.45001 1.99163 8.45834 1.92496C9.11667 1.76663 9.79167 1.66663 10.5 1.66663C11.2 1.66663 11.8833 1.76663 12.5333 1.92496C12.5417 1.99163 12.5417 2.04163 12.5583 2.10829C12.9333 3.21663 13.2 4.34996 13.4083 5.49163Z" fill="#22505F"/>
<path d="M5.99163 12.9083C4.84163 12.7 3.70829 12.4333 2.60829 12.0583C2.54163 12.0417 2.49163 12.05 2.42496 12.0417C2.26663 11.3833 2.16663 10.7083 2.16663 10C2.16663 9.30001 2.26663 8.61667 2.42496 7.96667C2.49163 7.95834 2.54163 7.95834 2.60829 7.94167C3.71663 7.57501 4.84163 7.30001 5.99163 7.09167C5.78329 9.02501 5.78329 10.975 5.99163 12.9083Z" fill="#22505F"/>
<path d="M18.8333 10C18.8333 10.7083 18.7333 11.3833 18.575 12.0417C18.5083 12.05 18.4583 12.0417 18.3916 12.0583C17.2833 12.425 16.15 12.7 15.0083 12.9083C15.225 10.975 15.225 9.02501 15.0083 7.09167C16.15 7.30001 17.2916 7.56667 18.3916 7.94167C18.4583 7.95834 18.5083 7.96667 18.575 7.96667C18.7333 8.62501 18.8333 9.30001 18.8333 10Z" fill="#22505F"/>
<path d="M13.4083 14.5083C13.2 15.6583 12.9333 16.7916 12.5583 17.8916C12.5417 17.9583 12.5417 18.0083 12.5333 18.075C11.8833 18.2333 11.2 18.3333 10.5 18.3333C9.79167 18.3333 9.11667 18.2333 8.45834 18.075C8.45001 18.0083 8.45834 17.9583 8.44167 17.8916C8.07501 16.7833 7.80001 15.6583 7.59167 14.5083C8.55834 14.6166 9.52501 14.6916 10.5 14.6916C11.475 14.6916 12.45 14.6166 13.4083 14.5083Z" fill="#22505F"/>
<path d="M13.6361 13.1361C11.5518 13.399 9.4481 13.399 7.36385 13.1361C7.10088 11.0518 7.10088 8.9481 7.36385 6.86385C9.4481 6.60088 11.5518 6.60088 13.6361 6.86385C13.899 8.9481 13.899 11.0518 13.6361 13.1361Z" fill="#22505F"/>
</svg>
