<svg width="21" height="20" viewBox="0 0 21 20" fill="none" xmlns="http://www.w3.org/2000/svg">
<path d="M18 13.5416H13C12.6583 13.5416 12.375 13.2583 12.375 12.9166C12.375 12.575 12.6583 12.2916 13 12.2916H18C18.3417 12.2916 18.625 12.575 18.625 12.9166C18.625 13.2583 18.3417 13.5416 18 13.5416Z" fill="#22505F"/>
<path d="M18 16.875H13C12.6583 16.875 12.375 16.5917 12.375 16.25C12.375 15.9083 12.6583 15.625 13 15.625H18C18.3417 15.625 18.625 15.9083 18.625 16.25C18.625 16.5917 18.3417 16.875 18 16.875Z" fill="#22505F"/>
<path d="M18.8333 7.09996V3.31663C18.8333 2.14163 18.3 1.66663 16.975 1.66663H13.6083C12.2833 1.66663 11.75 2.14163 11.75 3.31663V7.09163C11.75 8.27496 12.2833 8.74163 13.6083 8.74163H16.975C18.3 8.74996 18.8333 8.27496 18.8333 7.09996Z" fill="#22505F"/>
<path d="M9.24996 7.09996V3.31663C9.24996 2.14163 8.71663 1.66663 7.39163 1.66663H4.02496C2.69996 1.66663 2.16663 2.14163 2.16663 3.31663V7.09163C2.16663 8.27496 2.69996 8.74163 4.02496 8.74163H7.39163C8.71663 8.74996 9.24996 8.27496 9.24996 7.09996Z" fill="#22505F"/>
<path d="M9.24996 16.475V13.1083C9.24996 11.7833 8.71663 11.25 7.39163 11.25H4.02496C2.69996 11.25 2.16663 11.7833 2.16663 13.1083V16.475C2.16663 17.8 2.69996 18.3333 4.02496 18.3333H7.39163C8.71663 18.3333 9.24996 17.8 9.24996 16.475Z" fill="#22505F"/>
</svg>
