<svg width="60" height="48" viewBox="0 0 60 48" fill="none" xmlns="http://www.w3.org/2000/svg">
<g clip-path="url(#clip0_3626_5820)">
<path fill-rule="evenodd" clip-rule="evenodd" d="M57.7606 21.335C58.4856 21.335 59.1644 21.5837 59.6606 21.9256V20.2775C59.2856 20.09 58.4713 19.8556 57.4094 19.8556C54.8056 19.8556 53.7363 21.4262 53.7363 23.4218V32.7062H56.33V25.6625H58.16V24.1737H56.3313V23C56.3313 22.04 56.8575 21.3237 57.7613 21.3275M47.5963 23.8025C48.9963 23.7931 49.5925 25.0525 49.6194 27.6987C49.6463 30.3131 49.0519 31.5018 47.5963 31.5018C46.1406 31.5018 45.5806 30.3131 45.5806 27.6987C45.5806 24.9568 46.1431 23.8112 47.5963 23.8025ZM47.6138 32.99C50.0713 32.99 52.3638 31.5606 52.35 27.6931C52.3313 23.8025 50.2669 22.2968 47.6138 22.3181C45.0788 22.3306 42.84 23.8056 42.8463 27.6931C42.8588 31.5793 45.1619 32.99 47.6138 32.99ZM13.2388 29.8212C13.2388 28.645 14.3638 28.0525 15.51 27.7262L16.8213 27.3906V30.5468C16.4963 30.8456 15.66 31.2893 14.7638 31.2893C13.7981 31.2893 13.2438 30.8012 13.2388 29.8212ZM17.0094 31.9875L17.1875 32.695H19.6294C19.5044 32.2925 19.3981 31.5312 19.3981 30.5825V25.5625C19.3981 22.6043 17.1944 22.3293 15.2556 22.3293C11.9544 22.3293 11.0681 24.1218 11.0681 25.4712L13.4394 25.4668C13.4438 24.315 14.3244 23.715 15.2956 23.715C16.0969 23.715 16.8269 24.0775 16.8269 25.3762V26.0106L13.7606 26.75C11.8781 27.2 10.5644 28.1375 10.575 30.0787C10.5813 31.995 11.8894 33.0012 13.8281 33.0012C15.5781 32.9987 16.6781 32.22 17.0031 31.9981M4.14063 31.2962H3.21876V26.6687H4.14063C5.56876 26.665 6.57813 27.3356 6.60313 28.8837C6.61188 30.4362 5.84063 31.2962 4.14063 31.2962ZM3.21876 21.5475H3.92376C5.11626 21.5431 6.11126 21.9225 6.10938 23.3112C6.10626 24.6875 5.26251 25.2518 3.91251 25.25H3.22501V21.5412L3.21876 21.5475ZM9.58313 29.0712C9.58313 26.7925 7.54563 25.8881 6.21688 25.8212C7.54813 25.5318 8.92563 24.8387 8.92563 22.9362C8.92563 20.9575 7.34438 20.1512 5.57938 20.1468H0.41626V32.7062H5.02251C7.49751 32.7143 9.58313 31.5412 9.58313 29.0712Z" fill="#22505F"/>
<path fill-rule="evenodd" clip-rule="evenodd" d="M27.1032 26.2812V32.7075H29.6763V26.145C29.6763 24.52 29.395 22.3225 26.4925 22.3225C25.13 22.3225 23.9663 23.0912 23.5769 23.34V22.59H21.0032V32.7012H23.5769V24.9262C23.9844 24.5981 24.7194 24.0587 25.5407 24.0587C26.8032 24.0587 27.1069 24.8087 27.1032 26.275M31.2907 20.1356V32.7012H33.88V20.1419L31.2907 20.1356Z" fill="#22505F"/>
<path fill-rule="evenodd" clip-rule="evenodd" d="M36.5531 26.5513L39.8238 22.5963H37.605L33.875 27.0375L36.7644 32.7075H39.9519L36.5531 26.5513ZM14.2813 40.6113C14.4063 39.4144 14.765 37.8088 16.2625 37.8013C17.7575 37.8013 18.1469 39.3713 18.2156 40.6113H14.2813ZM16.2625 36.3225C13.6325 36.3256 11.5163 37.9913 11.5081 41.5338C11.5019 45.64 13.6625 46.995 16.2625 46.995C18.31 46.995 20.3088 46.0913 20.8438 43.2919L18.1469 43.2856C17.9925 44.5981 17.5106 45.5075 16.2625 45.5044C14.6988 45.4981 14.2525 44.1469 14.25 41.9594H20.9625C20.9681 41.8128 20.9706 41.6661 20.97 41.5194C20.9806 37.9769 18.805 36.3219 16.2638 36.3219L16.2625 36.3225ZM32.625 44.5513C32.2988 44.85 31.4656 45.3013 30.5706 45.3013C29.6038 45.3013 29.0519 44.8138 29.0475 43.8338C29.0463 42.6569 30.1725 42.065 31.3163 41.7388L32.625 41.4031V44.5594V44.5513ZM35.2081 39.5556C35.2081 36.5969 33.0006 36.3225 31.0644 36.3225C27.7644 36.3225 26.8644 38.1144 26.8644 39.4644L29.2375 39.4606C29.2394 38.3081 30.1125 37.7081 31.095 37.7081C31.895 37.7081 32.6238 38.0706 32.6238 39.3694V40.0038L29.58 40.75C27.6913 41.2 26.3825 42.1375 26.3925 44.0788C26.4038 45.995 27.705 47.0013 29.6513 47.0013C31.3994 46.9994 32.5 46.2213 32.82 45.9981L32.9994 46.7044H35.4419C35.3181 46.3025 35.2144 45.5406 35.2144 44.5919V39.5606L35.2081 39.5556ZM22.3981 46.7H24.9888V34.1356H22.3981V46.7ZM42.4169 36.3225C41.0544 36.3225 39.8906 37.0913 39.5 37.34V36.59H36.9294V46.7025H39.5V38.925C39.9125 38.5975 40.6438 38.0575 41.4638 38.0575C42.7263 38.0575 43.0281 38.8075 43.0281 40.2738V46.7H45.6006V40.1375C45.6006 38.5125 45.3225 36.315 42.4169 36.315M53.7375 44.3125C53.5475 44.6438 52.7225 45.4188 51.8575 45.4188C50.7113 45.4188 49.7294 44.7731 49.735 41.6175C49.7413 38.6031 50.7725 37.9219 51.8381 37.9219C52.7488 37.9219 53.4944 38.5938 53.7381 38.9994V44.3119L53.7375 44.3125ZM53.7375 37.275C53.1963 36.7906 52.3544 36.3375 51.1531 36.345C49.5944 36.345 46.9938 37.23 46.9888 41.6244C46.9788 45.8219 49.0469 47.0075 50.9988 47.0013C52.5375 46.9888 53.64 46.0294 53.7375 45.9438V46.7063H56.3313V34.1356H53.7375V37.2694V37.275ZM0.41626 46.7H3.21626V34.1356H0.41626V46.7ZM7.72063 37.8969V36.5894H5.12501L5.12688 46.7006H7.71313V40.9194C7.71313 38.4369 9.87813 38.2694 11.1113 38.3225V36.3519C9.12626 36.1206 7.94063 37.3444 7.71313 37.8975M38.4513 0.41626C38.4513 2.31751 30.13 2.52501 30.13 4.57063H29.9463C29.9463 2.52501 21.625 2.31751 21.625 0.41626H21.4388V2.40001C21.4388 4.77001 29.775 4.54751 29.9388 6.82626H30.1225C30.2931 4.54751 38.6225 4.76376 38.6225 2.40001V0.41626H38.4369H38.4513ZM38.4513 4.91876C38.4513 6.82001 30.13 7.02751 30.13 9.07313H29.9463C29.9463 7.02751 21.6256 6.82001 21.6256 4.91876H21.4394V6.90313C21.4394 9.27313 29.7756 9.05064 29.9394 11.3294H30.1231C30.2938 9.05064 38.6231 9.26688 38.6231 6.90313V4.91876H38.4375H38.4513ZM38.4513 9.42251C38.4513 11.3238 30.13 11.5306 30.13 13.5769H29.9463C29.9463 11.5306 21.6256 11.3238 21.6256 9.42251H21.4394V11.4069C21.4394 13.7819 29.7756 13.5544 29.9394 15.8331H30.1231C30.2938 13.5544 38.6231 13.7706 38.6231 11.4069V9.42251H38.4375H38.4513Z" fill="#22505F"/>
</g>
<defs>
<clipPath id="clip0_3626_5820">
<rect width="60" height="47.5" fill="white"/>
</clipPath>
</defs>
</svg>
