<svg width="200" height="24" viewBox="0 0 200 24" fill="none" xmlns="http://www.w3.org/2000/svg">
<path fill-rule="evenodd" clip-rule="evenodd" d="M73.5598 3.49125C73.4475 3.47101 73.3348 3.45242 73.2219 3.4355L73.0865 3.41729C72.8925 3.39022 72.6979 3.36746 72.5029 3.34904C72.3709 3.33766 72.2355 3.32856 72.1047 3.31945C71.785 3.30008 71.4647 3.29438 71.1445 3.30239C70.7085 3.31106 70.2733 3.34258 69.8407 3.39682L69.719 3.41388L69.5847 3.43436L69.4186 3.45939C69.3458 3.47191 69.2741 3.48328 69.2024 3.49693C69.1046 3.51514 69.0068 3.53562 68.9101 3.55496C68.0775 3.72956 67.2694 4.00542 66.5038 4.37638C66.1271 4.55897 65.763 4.76649 65.4139 4.99756C65.3206 5.06127 65.2251 5.12498 65.1363 5.18983C65.0578 5.24671 64.9804 5.30246 64.9054 5.36048C64.7461 5.48222 64.5936 5.60737 64.4503 5.73479C64.316 5.85425 64.1863 5.97371 64.0635 6.09544C63.9599 6.19897 63.8541 6.30478 63.7551 6.41627C63.6538 6.52911 63.5548 6.64404 63.4582 6.76099C63.2758 6.98779 63.1038 7.22277 62.9428 7.46522C62.616 7.96456 62.3426 8.4969 62.1271 9.05346C61.8036 9.89468 61.6143 10.7815 61.5662 11.6815C61.5455 11.9913 61.5425 12.302 61.5571 12.6122C61.5662 12.7487 61.5764 12.8841 61.5924 13.0183L61.6038 13.1116C61.6242 13.272 61.6493 13.4279 61.6788 13.5838L61.7153 13.7635C61.7791 14.0535 61.8574 14.3402 61.9496 14.6225C62.1095 15.1018 62.3124 15.5656 62.556 16.0082C62.6992 16.2774 62.8592 16.5373 63.035 16.7864C63.1328 16.9286 63.2341 17.064 63.3342 17.1926C63.4411 17.3314 63.5504 17.4576 63.6573 17.5816C63.7904 17.7364 63.9247 17.8752 64.0555 18.0049L64.126 18.0754C64.2341 18.1789 64.3502 18.2904 64.4844 18.4042C64.5766 18.4816 64.6721 18.5635 64.7745 18.6454C64.8701 18.7193 64.9702 18.7978 65.076 18.8741C65.3572 19.0765 65.6492 19.2634 65.9509 19.4338C66.6006 19.7965 67.2906 20.0817 68.0067 20.2837C68.5659 20.4447 69.1375 20.5592 69.7155 20.6261C70.1426 20.6777 70.5721 20.7069 71.0023 20.7137L71.2071 20.7171C71.7327 20.7171 72.2208 20.6967 72.6724 20.658L72.7612 20.65C72.9421 20.6352 73.115 20.6159 73.2822 20.5943C73.6746 20.5474 74.0645 20.4817 74.4506 20.3975C74.7984 20.321 75.1434 20.2322 75.4848 20.1312C75.6452 20.0823 75.8011 20.03 75.949 19.9799L76.0912 19.9299C76.1858 19.8964 76.2799 19.8615 76.3734 19.8252C76.5247 19.766 76.7056 19.6955 76.9138 19.6056C77.1751 19.4945 77.4331 19.3758 77.6874 19.2495L77.8535 19.1699V15.9547L77.7386 16.0241L77.519 16.1572C76.7351 16.6418 75.9037 17.0447 75.0377 17.3598C74.21 17.6599 73.3502 17.8626 72.4756 17.9639C72.1561 17.9966 71.8354 18.0148 71.5142 18.0185C70.9937 18.0205 70.4738 17.979 69.9602 17.8945C69.3686 17.7964 68.7903 17.6308 68.2365 17.4007C68.0009 17.3 67.7707 17.1869 67.5471 17.0617C67.4703 17.018 67.3948 16.9721 67.3207 16.9241C67.1456 16.8159 66.9766 16.6982 66.8144 16.5714C66.7291 16.502 66.6381 16.4292 66.563 16.3632L66.4572 16.2676L66.4037 16.2198L66.3718 16.1891L66.3332 16.1527C66.0476 15.8764 65.7945 15.5683 65.5789 15.2346C65.53 15.1595 65.4844 15.0821 65.4389 15.0082C65.2348 14.6583 65.0696 14.2871 64.9463 13.9012C64.7355 13.2309 64.6416 12.5293 64.6687 11.8272C64.6755 11.6429 64.6915 11.4108 64.729 11.1445C64.7899 10.7239 64.8975 10.3114 65.0498 9.91469C65.0794 9.83505 65.1147 9.75541 65.1488 9.67464C65.1966 9.56542 65.2489 9.45733 65.3047 9.34698C65.3468 9.26279 65.3946 9.18202 65.4435 9.09783C65.5937 8.83814 65.7649 8.59119 65.9555 8.35946C66.0249 8.27868 66.0954 8.19335 66.1716 8.11258C66.2092 8.07276 66.2467 8.02952 66.2865 7.9897C67.1877 7.08912 68.3292 6.46706 69.5745 6.19783C69.6871 6.17166 69.8009 6.14891 69.9135 6.12843C70.0387 6.10454 70.1627 6.08634 70.2855 6.06813C70.6368 6.02309 70.9906 5.9999 71.3447 5.99873L71.5689 5.99987C71.735 6.00555 71.8988 6.00897 72.0558 6.02035C72.1673 6.02831 72.2742 6.03514 72.3812 6.04424C72.7365 6.07595 73.0897 6.12761 73.4392 6.19897C73.6713 6.24561 73.8818 6.29681 74.0695 6.34459C74.1935 6.37645 74.3073 6.41171 74.4108 6.44243C74.6358 6.50998 74.8588 6.58358 75.0798 6.66314C75.2379 6.72003 75.3915 6.78261 75.544 6.84177C75.7488 6.92482 75.9444 7.01242 76.131 7.09775C76.2869 7.16829 76.4337 7.2411 76.5736 7.30936C76.6896 7.36511 76.7954 7.422 76.8967 7.47433C77.0708 7.56535 77.2198 7.64726 77.3427 7.71438L77.6715 7.89186V4.73475C77.6715 4.73475 77.4746 4.65397 77.1345 4.52427C76.9843 4.46739 76.8057 4.40141 76.6043 4.32859C76.4917 4.28991 76.3745 4.24554 76.2482 4.20345C76.1492 4.16932 76.0457 4.13404 75.9388 4.09991C75.8182 4.06123 75.6942 4.02028 75.5645 3.9816C75.4699 3.95216 75.3751 3.92371 75.28 3.89626L75.1947 3.87124L74.9091 3.79274C74.7933 3.76063 74.6768 3.73066 74.5599 3.70286C74.3591 3.65132 74.1569 3.60541 73.9535 3.56519C73.8261 3.53902 73.6929 3.51514 73.5598 3.49125ZM57.7731 0.208984H82.8321V23.7912H57.7731V0.208984ZM38.5142 13.2129V17.8479H41.5234L41.6827 17.8422C41.8221 17.8391 41.9613 17.8311 42.1002 17.8183C42.4278 17.7876 42.859 17.7273 43.2743 17.5862C43.6531 17.4599 44.0206 17.2676 44.3005 16.9878C44.4086 16.8785 44.4985 16.7671 44.5701 16.6521C44.7521 16.3623 44.8582 16.0313 44.8784 15.6897C44.8853 15.5964 44.8841 15.5417 44.8841 15.5417V15.4268C44.8798 15.2753 44.8592 15.1246 44.8227 14.9775C44.7416 14.6624 44.5801 14.3739 44.354 14.1401C44.2705 14.0546 44.1803 13.9758 44.0843 13.9046C43.9097 13.7802 43.722 13.6753 43.5246 13.5917C43.2344 13.4684 42.9309 13.3791 42.6201 13.3255C42.3289 13.2714 42.0343 13.2379 41.7384 13.2254C41.6327 13.2185 41.5269 13.2151 41.421 13.2152L38.5142 13.2129ZM38.5142 6.16825V10.5609H39.9716C39.9716 10.5609 40.0694 10.5609 40.1968 10.5564C40.2969 10.5541 40.4175 10.5473 40.5256 10.5416C40.8248 10.5177 41.2389 10.4778 41.6531 10.3607C41.7349 10.338 41.8161 10.313 41.8965 10.2856C42.2219 10.1695 42.5325 10.0012 42.7748 9.76224C42.9682 9.57225 43.0945 9.36177 43.1787 9.15812C43.2811 8.90555 43.3175 8.6655 43.3335 8.49484C43.3471 8.34239 43.346 8.24569 43.346 8.24569C43.346 8.24569 43.3494 8.17288 43.3437 8.05911C43.3323 7.78077 43.2637 7.50774 43.1423 7.25703C43.0628 7.10273 42.9591 6.96216 42.8351 6.84063C42.6677 6.68007 42.4722 6.55166 42.2583 6.46178C41.8488 6.28088 41.3789 6.20807 40.983 6.1819C40.8288 6.17163 40.6744 6.16708 40.5199 6.16825H38.5142Z" fill="#22505F"/>
<path fill-rule="evenodd" clip-rule="evenodd" d="M35.4742 3.51513V20.4987H41.8669C41.8669 20.4987 44.9831 20.5852 46.7056 18.8627C48.1061 17.4622 48.0071 15.841 48.0071 15.841C48.0071 15.841 48.1072 14.1492 46.8114 12.8511C46.1098 12.1719 45.2419 11.6892 44.2948 11.4517C44.2948 11.4517 44.9319 11.1525 45.4211 10.6633C45.6509 10.4335 46.4666 9.69511 46.4666 7.90665C46.4666 6.10454 45.2664 5.0681 45.2664 5.0681C45.2664 5.0681 43.9523 3.51513 40.9863 3.51513H35.4742ZM28.8994 0.208984H53.9572V23.7912H28.8994V0.208984ZM9.6416 13.2129V17.8479H12.6497L12.809 17.8422C12.9102 17.8399 13.0536 17.8342 13.2265 17.8183C13.5553 17.7876 13.9853 17.7273 14.4006 17.5862C14.7794 17.4599 15.1469 17.2676 15.4279 16.9878C15.536 16.8785 15.6259 16.7671 15.6976 16.6521C15.8791 16.3621 15.9851 16.0312 16.0059 15.6897C16.0127 15.5964 16.0116 15.5417 16.0116 15.5417C16.0116 15.5417 16.0139 15.4997 16.0116 15.4268C16.0073 15.2753 15.9867 15.1246 15.9501 14.9775C15.8754 14.6602 15.7134 14.3702 15.4825 14.1401C15.3988 14.0548 15.3087 13.9761 15.2129 13.9046C15.0388 13.7807 14.8519 13.6758 14.6554 13.5917C14.3647 13.4687 14.0609 13.3794 13.7498 13.3255C13.4583 13.2712 13.1633 13.2377 12.867 13.2254C12.7613 13.2185 12.6554 13.2151 12.5496 13.2152L9.6416 13.2129ZM9.6416 6.16825V10.5609H11.0979C11.0979 10.5609 11.1957 10.5609 11.3231 10.5564C11.4232 10.5541 11.5438 10.5473 11.6508 10.5416C12.0324 10.5183 12.4107 10.4577 12.7805 10.3607C12.8602 10.3379 12.9421 10.3129 13.0217 10.2856C13.3471 10.1695 13.6577 10.0012 13.9 9.76224C14.0746 9.59067 14.2121 9.38504 14.3039 9.15812C14.4074 8.90555 14.4438 8.6655 14.4586 8.49484C14.4723 8.34239 14.4711 8.24569 14.4711 8.24569C14.4711 8.24569 14.4745 8.17288 14.4689 8.05911C14.4575 7.78077 14.3889 7.50774 14.2675 7.25703C14.1879 7.10246 14.0838 6.96183 13.9592 6.84063C13.7917 6.68007 13.5962 6.55166 13.3824 6.46178C12.9739 6.28088 12.5029 6.20807 12.1081 6.1819C11.954 6.17163 11.7996 6.16708 11.6451 6.16825H9.6416Z" fill="#22505F"/>
<path fill-rule="evenodd" clip-rule="evenodd" d="M6.5995 3.51513V20.4987H12.9934C12.9934 20.4987 16.1118 20.5852 17.832 18.8627C19.2325 17.4622 19.1335 15.841 19.1335 15.841C19.1335 15.841 19.2336 14.1492 17.9367 12.8511C17.2351 12.1719 16.3672 11.6892 15.4201 11.4517C15.4201 11.4517 16.0572 11.1525 16.5475 10.6633C16.7762 10.4335 17.5931 9.69511 17.5931 7.90665C17.5931 6.10454 16.3928 5.0681 16.3928 5.0681C16.3928 5.0681 15.0799 3.51513 12.1117 3.51513H6.5995ZM0.0258789 0.208984H25.0837V23.7912H0.0258789V0.208984ZM114.222 3.51741H111.807L107.174 15.2221L102.44 3.51741H100.125L95.4174 15.2221L90.7357 3.51741H88.2942L95.1682 20.6512H95.6403L101.27 6.7553L106.849 20.6512H107.322L114.222 3.51741ZM118.242 9.09555C114.904 9.09555 112.339 11.586 112.339 14.8C112.339 18.237 114.806 20.7262 118.242 20.7262C121.828 20.7262 124.294 18.3348 124.294 14.8C124.294 11.4858 121.753 9.09555 118.242 9.09555ZM118.218 11.0877C120.435 11.0877 122.029 12.6565 122.029 14.8239C122.029 17.2392 120.561 18.7341 118.218 18.7341C116.076 18.7341 114.607 17.1641 114.607 14.8C114.607 12.6565 116.127 11.0877 118.218 11.0877ZM126.511 9.31854V20.5021H128.728V14.6475C128.728 12.7294 129.921 11.2105 131.444 11.2105C131.966 11.2105 132.837 11.6599 133.51 12.3073L134.68 10.3891C133.758 9.51649 132.911 9.09327 132.014 9.09327C130.969 9.09327 129.896 9.91469 128.776 11.8829H128.727V9.3174H126.511V9.31854ZM136.347 3.51741H138.565V20.5032H136.347V3.51741ZM150.953 3.51741H148.736V9.5438C147.84 9.21956 147.143 9.09441 146.395 9.09441C143.131 9.09441 140.816 11.4108 140.816 14.6475C140.816 18.2347 142.907 20.5021 146.246 20.5021H150.953V3.51741ZM148.736 18.6329H146.495C143.929 18.6329 143.082 17.0663 143.082 14.9729C143.082 12.6315 144.527 11.0877 146.668 11.0877C147.415 11.0877 147.988 11.2117 148.734 11.5097L148.736 18.6329ZM162.561 9.31854H160.917L158.08 16.0935L155.14 9.31854H152.773L157.755 20.7262H158.453L161.74 12.9068L165.052 20.7262H165.748L170.681 9.31854H168.314L165.401 16.0935L162.561 9.31854ZM172.691 20.5032H174.908V9.31968H172.691V20.5032ZM175.134 5.93274C175.134 5.20917 174.536 4.61302 173.814 4.61302C173.091 4.61302 172.494 5.20917 172.494 5.93274C172.494 6.65405 173.091 7.25248 173.814 7.25248C174.536 7.25248 175.134 6.65405 175.134 5.93274ZM187.8 3.51741H185.585V9.5438C184.687 9.21956 183.989 9.09441 183.242 9.09441C179.98 9.09441 177.663 11.4108 177.663 14.6475C177.663 18.2347 179.754 20.5021 183.091 20.5021H187.8V3.51741ZM185.585 18.6329H183.342C180.775 18.6329 179.929 17.0663 179.929 14.9729C179.929 12.6315 181.374 11.0877 183.515 11.0877C184.261 11.0877 184.835 11.2117 185.583 11.5097V18.6329H185.585ZM199.774 17.2642C198.478 18.1107 197.21 18.6101 195.865 18.6101C193.722 18.6101 192.452 17.4633 192.102 15.2471H199.973C199.973 11.1138 198.08 9.09555 195.115 9.09555C192.028 9.09555 189.886 11.388 189.886 14.7738C189.886 17.8627 191.828 20.7262 195.314 20.7262C197.207 20.7262 198.427 20.303 199.772 19.4065V17.2642H199.774ZM192.155 13.776C192.453 12.0092 193.474 11.0126 195.167 11.0126C196.736 11.0126 197.707 12.0831 197.783 13.776H192.155Z" fill="#22505F"/>
</svg>
