<svg width="101" height="30" viewBox="0 0 101 30" fill="none" xmlns="http://www.w3.org/2000/svg">
<g clip-path="url(#clip0_3626_5751)">
<path d="M13.5229 11.5284C13.5229 15.4638 9.72307 16.0218 6.21068 16.0218C4.7289 16.0289 3.24882 15.9206 1.78388 15.6978V3.08039C1.28395 3.156 0.785823 3.24302 0.289875 3.34139C7.52211e-05 2.56199 0.0738752 1.10279 0.649275 0.634188C2.40623 0.342891 4.18434 0.197993 5.96528 0.200988C9.78548 0.200988 12.7633 1.20479 12.7633 4.35299C12.7633 6.12179 12.0103 7.30679 10.1161 7.88939C12.2797 8.15159 13.5229 9.28079 13.5229 11.5284ZM3.67808 2.88179C4.45328 2.90459 5.04607 3.56579 5.04607 5.10659V6.86279H6.33608C8.66288 6.86279 9.54187 6.26879 9.54187 4.74179C9.54187 3.31439 8.29808 2.79539 5.77628 2.79539C5.08028 2.80199 4.37828 2.82539 3.67808 2.88179ZM10.2373 11.3334C10.2373 9.56579 8.94847 9.33719 6.83168 9.33719C6.37628 9.33719 5.64668 9.34919 5.04847 9.35999V13.434C5.6527 13.5259 6.2631 13.5713 6.87428 13.5696C8.97068 13.5696 10.2373 13.08 10.2373 11.3334ZM15.2341 8.16299C15.2341 2.21999 18.8161 0.0629883 22.5229 0.0629883C26.2297 0.0629883 29.8009 2.21999 29.8009 8.17199C29.8009 14.1234 26.2201 16.2702 22.5229 16.2702C18.8257 16.2702 15.2335 14.109 15.2335 8.16419L15.2341 8.16299ZM26.3107 8.16299C26.3107 5.12939 25.4209 2.79059 22.5229 2.79059C19.6249 2.79059 18.7249 5.12939 18.7249 8.16299C18.7249 11.1972 19.6153 13.5354 22.5229 13.5354C25.4305 13.5354 26.3107 11.1972 26.3107 8.16299ZM44.4145 15.5316C44.2219 15.8286 43.3765 16.0104 42.6307 16.0104C42.0571 16.0312 41.4838 15.9624 40.9315 15.8064C39.9528 14.0753 39.0767 12.2882 38.3077 10.4544C37.5208 10.5584 36.7288 10.6191 35.9353 10.6362V15.8046C35.4049 15.9534 34.8553 16.0218 34.3039 16.0086C33.7527 16.0272 33.2021 15.9584 32.6725 15.8046V3.09899C32.1865 3.16679 31.6801 3.26099 31.1773 3.34859C30.8821 2.56259 30.9613 1.10279 31.5313 0.634188C33.1303 0.340188 34.7533 0.195588 36.3793 0.200988C40.7029 0.200988 43.8049 1.43339 43.8049 5.08379C43.8049 7.36379 42.8317 8.79059 41.1811 9.62459C42.2371 11.6646 43.2403 13.4676 44.4145 15.5316ZM35.9287 4.91159V8.17439C39.2593 8.06099 40.6735 7.52639 40.6735 5.27639C40.6735 3.26939 39.0877 2.80199 36.3733 2.80199C35.8363 2.80199 35.2783 2.82479 34.6963 2.87039C35.3803 2.96099 35.9287 3.58859 35.9287 4.91159ZM60.1345 7.69439C60.1345 13.3704 56.9533 16.0344 51.5107 16.0344C50.0647 16.0398 48.6204 15.9379 47.1895 15.7296V3.24359C46.7107 3.31139 46.2085 3.37919 45.6955 3.46079C45.4057 2.56199 45.4771 1.10279 46.0543 0.622788C47.7595 0.352029 49.4829 0.211024 51.2095 0.200988C56.5771 0.200988 60.1345 2.23079 60.1345 7.69439ZM56.9185 7.95719C56.9185 4.04459 54.9343 2.96099 51.3181 2.96099C50.7925 2.96099 50.2459 2.98379 49.6525 3.01799C50.1193 3.28079 50.4505 3.88559 50.4505 4.91159V13.4106C50.9563 13.4904 51.4675 13.5282 51.9793 13.5246C55.4011 13.5246 56.9185 11.5962 56.9185 7.95719ZM74.7571 7.88939C76.6507 7.30739 77.4031 6.12179 77.4031 4.35239C77.4031 1.20479 74.4259 0.200988 70.6051 0.200988C68.8243 0.198026 67.0464 0.342924 65.2897 0.634188C64.7191 1.10219 64.6417 2.56199 64.9363 3.34859C65.4319 3.24838 65.9301 3.16135 66.4303 3.08759V15.7038C67.8943 15.927 69.3751 16.035 70.8571 16.0278C74.3695 16.0278 78.1687 15.4698 78.1687 11.5344C78.1627 9.28079 76.9171 8.15159 74.7571 7.88939ZM68.3239 2.88179C69.0219 2.82687 69.7219 2.80024 70.4221 2.80199C72.9439 2.80199 74.1877 3.31439 74.1877 4.74839C74.1877 6.27539 73.3087 6.86939 70.9819 6.86939H69.6925V5.10599C69.6847 3.56699 69.0907 2.90399 68.3155 2.88119L68.3239 2.88179ZM71.5135 13.5696C70.9023 13.5711 70.2919 13.5255 69.6877 13.4334V9.35999C70.2822 9.34766 70.8768 9.34006 71.4715 9.33719C73.5793 9.33719 74.8771 9.56579 74.8771 11.3334C74.8771 13.101 73.6087 13.5696 71.5135 13.5696ZM80.6743 0.520788V15.8058C81.2287 15.9595 81.8032 16.0283 82.3783 16.0098C82.9723 16.0098 83.6335 15.9648 84.0907 15.8058V0.520788C83.6335 0.358788 82.9717 0.314388 82.3783 0.314388C81.8019 0.295781 81.226 0.365385 80.6707 0.520788H80.6743ZM94.4581 0.394188C94.0021 0.190188 93.3061 0.0989883 92.6107 0.0989883C91.9147 0.0989883 91.2067 0.189588 90.7171 0.394188C91.0411 0.930588 91.3333 1.49039 91.6183 2.05919C90.9343 2.35619 90.2143 3.22379 89.4619 5.30279C88.218 8.66374 87.1356 12.0822 86.2183 15.5466C86.4355 15.8706 87.4849 15.9906 88.2145 15.9906C88.6228 16.0046 89.0299 15.9392 89.4133 15.798C89.6413 14.8248 89.8801 13.8924 90.1201 12.957H96.2563C96.5419 13.893 96.8269 14.8392 97.1011 15.798C97.4842 15.9391 97.8912 16.0046 98.2993 15.9906C99.0295 15.9906 100.083 15.8772 100.295 15.5466C98.7175 10.3524 96.6193 4.36379 94.4515 0.394188H94.4581ZM90.8305 10.4484C91.4636 8.32103 92.183 6.2203 92.9869 4.15139C93.9109 6.20759 94.7293 8.30939 95.4391 10.4484H90.8305ZM1.79408 29.7468V22.1256C1.97933 22.0535 2.17746 22.0204 2.37608 22.0284C2.57708 22.0206 2.77808 22.0536 2.96588 22.1256V29.7468C2.77755 29.8182 2.57673 29.8509 2.37548 29.8428C2.17698 29.8505 1.97959 29.8178 1.79408 29.7468ZM8.67248 26.4828C9.56288 26.1144 10.1011 25.4058 10.1011 24.2448C10.1011 22.557 8.87708 21.9846 6.91148 21.9846C6.25342 21.9816 5.59604 22.0271 4.94468 22.1208V29.742C5.13068 29.8122 5.32867 29.844 5.52847 29.838C5.72708 29.844 5.92567 29.8116 6.11168 29.742V26.8008C6.28688 26.8116 6.46387 26.817 6.62768 26.817C6.95288 26.8194 7.27808 26.799 7.60088 26.757C8.0394 27.7872 8.53353 28.7929 9.08108 29.7696C9.29228 29.8272 9.51128 29.8518 9.72968 29.8428C10.0297 29.8428 10.3297 29.7744 10.4095 29.6676C9.79405 28.6263 9.21471 27.564 8.67248 26.4828ZM6.64868 25.899C6.48668 25.899 6.30308 25.899 6.11048 25.8828V23.0154C6.41648 22.9734 6.72548 22.9554 7.03448 22.959C8.46187 22.959 8.96108 23.4 8.96108 24.3408C8.96288 25.4172 8.29328 25.899 6.64868 25.899ZM89.9143 26.4828C90.8023 26.1144 91.3411 25.4058 91.3411 24.2448C91.3411 22.557 90.1183 21.9846 88.1515 21.9846C87.4939 21.981 86.8375 22.0266 86.1859 22.1208V29.742C86.564 29.8695 86.9735 29.8695 87.3517 29.742V26.8008C87.5287 26.8116 87.7039 26.817 87.8677 26.817C88.1963 26.8198 88.5247 26.7998 88.8505 26.757C89.2864 27.7874 89.7785 28.7931 90.3247 29.7696C90.5359 29.8272 90.7543 29.8518 90.9727 29.8428C91.2745 29.8428 91.5745 29.7744 91.6543 29.6676C91.036 28.6273 90.4557 27.565 89.9143 26.4828ZM87.8923 25.899C87.7303 25.899 87.5467 25.899 87.3535 25.8828V23.0154C87.6597 22.9738 87.9685 22.9549 88.2775 22.959C89.7067 22.959 90.2047 23.4 90.2047 24.3408C90.2029 25.4172 89.5345 25.899 87.8917 25.899H87.8923ZM11.9659 29.7468V22.1256C12.3459 21.9958 12.7582 21.9958 13.1383 22.1256V29.7468C12.7579 29.8743 12.3463 29.8743 11.9659 29.7468ZM14.7781 29.304C14.7686 29.1262 14.7953 28.9483 14.8565 28.7811C14.9178 28.614 15.0124 28.461 15.1345 28.3314C15.8419 28.7496 16.4593 28.9542 17.1343 28.9542C18.0745 28.9542 18.5935 28.5744 18.5935 27.8046C18.5935 27.1818 18.1753 26.8314 17.1211 26.4162L16.8307 26.3022C15.6127 25.8162 14.8477 25.2666 14.8477 24.0468C14.8477 22.7496 15.7267 21.939 17.4601 21.939C18.1641 21.9327 18.8602 22.0875 19.4953 22.3914C19.5472 22.7635 19.4492 23.1409 19.2229 23.4408C18.6777 23.1054 18.0498 22.9283 17.4097 22.9296C16.4581 22.9296 16.0219 23.2932 16.0219 23.9268C16.0219 24.6246 16.5601 24.942 17.4097 25.281L17.7781 25.4286C19.0183 25.9326 19.7659 26.46 19.7659 27.7182C19.7659 29.1132 18.8431 29.9286 17.1259 29.9286C16.3008 29.9403 15.4884 29.7238 14.7781 29.304ZM27.0811 22.1208V29.742C26.7007 29.8695 26.2891 29.8695 25.9087 29.742V26.3124H22.5583V29.7468C22.3707 29.818 22.1707 29.8507 21.9703 29.8428C21.771 29.8506 21.5722 29.8179 21.3859 29.7468V22.1256C21.7659 21.9958 22.1782 21.9958 22.5583 22.1256V25.3314H25.9069V22.1208C26.2869 21.991 26.6992 21.991 27.0793 22.1208H27.0811ZM32.8105 23.0706V25.5486H35.5993C35.6533 25.7046 35.6779 25.8696 35.6725 26.0346C35.6785 26.205 35.6533 26.3748 35.5993 26.5362H32.8105V29.7402C32.6173 29.8062 32.4145 29.835 32.2105 29.8266C32.0069 29.8343 31.8037 29.8052 31.6105 29.7408V22.08H35.8585C35.9191 22.2396 35.9461 22.41 35.9383 22.581C35.9443 22.7472 35.9179 22.9122 35.8591 23.067L32.8105 23.0706ZM36.9373 25.9332C36.9373 23.3496 38.3485 21.939 40.4563 21.939C42.5647 21.939 43.9687 23.3496 43.9687 25.9332C43.9687 28.5162 42.5581 29.9292 40.4563 29.9292C38.3545 29.9292 36.9373 28.518 36.9373 25.9332ZM42.7171 25.9332C42.7171 23.9868 41.9059 22.9182 40.4563 22.9182C39.0067 22.9182 38.1859 23.9838 38.1859 25.9332C38.1859 27.882 38.9971 28.9476 40.4563 28.9476C41.9155 28.9476 42.7171 27.882 42.7171 25.9332ZM45.1783 25.9332C45.1783 23.3496 46.5895 21.939 48.6955 21.939C50.8021 21.939 52.2163 23.3514 52.2163 25.9332C52.2163 28.5144 50.8057 29.9292 48.7021 29.9292C46.5991 29.9292 45.1783 28.518 45.1783 25.9332ZM50.9581 25.9332C50.9581 23.9868 50.1469 22.9182 48.6961 22.9182C47.2441 22.9182 46.4257 23.9838 46.4257 25.9332C46.4257 27.882 47.2363 28.9476 48.6955 28.9476C50.1553 28.9476 50.9581 27.882 50.9581 25.9332ZM59.8381 25.701C59.8381 28.458 58.5115 29.877 55.7839 29.877C55.0783 29.8794 54.3739 29.829 53.6755 29.7246V22.1316C54.4117 22.0303 55.1541 21.9811 55.8973 21.9846C58.5409 21.9846 59.8381 23.0382 59.8381 25.701ZM58.6363 25.7742C58.6363 23.6502 57.8935 22.9818 55.8793 22.9818C55.5365 22.9806 55.1941 23.0033 54.8545 23.0496V28.8228C55.2126 28.8813 55.5752 28.9078 55.9381 28.902C57.8773 28.902 58.6429 27.837 58.6429 25.7742H58.6363ZM69.2059 27.6048C69.2059 29.5608 67.4725 29.8752 65.8753 29.8752C65.1974 29.8771 64.5205 29.8229 63.8515 29.7132V22.1208C64.5124 22.0304 65.1788 21.9862 65.8459 21.9888C67.9831 21.9888 68.9125 22.7268 68.9125 24.0246C68.9125 24.897 68.5495 25.5192 67.6363 25.8084C68.6335 25.9284 69.2059 26.5008 69.2059 27.6048ZM65.0077 22.9866V25.419H65.6317C66.7867 25.419 67.7497 25.287 67.7497 24.093C67.7497 23.22 66.9859 22.9314 65.9659 22.9314C65.6461 22.9314 65.3257 22.95 65.0077 22.9866ZM68.0401 27.6048C68.0401 26.5686 67.2745 26.3688 66.0505 26.3688H65.0077V28.8648C65.3587 28.917 65.7133 28.9434 66.0685 28.9446C67.2973 28.9428 68.0401 28.6542 68.0401 27.6048ZM70.2685 25.9332C70.2685 23.3496 71.6785 21.939 73.7869 21.939C75.8953 21.939 77.2993 23.3496 77.2993 25.9332C77.2993 28.5162 75.8917 29.9292 73.7839 29.9292C71.6755 29.9292 70.2685 28.518 70.2685 25.9332ZM76.0477 25.9332C76.0477 23.9868 75.2371 22.9182 73.7869 22.9182C72.3373 22.9182 71.5171 23.9838 71.5171 25.9332C71.5171 27.882 72.3271 28.9476 73.7869 28.9476C75.2467 28.9476 76.0543 27.882 76.0543 25.9332H76.0477ZM84.7981 29.676C84.7183 29.7942 84.3229 29.838 84.0505 29.838C83.8951 29.8437 83.7404 29.8165 83.5963 29.7582C83.4439 29.2038 83.2849 28.6656 83.1259 28.137H79.7095C79.5475 28.6638 79.3975 29.2068 79.2457 29.7582C79.1016 29.8165 78.9468 29.8437 78.7915 29.838C78.5191 29.838 78.1231 29.7924 78.0373 29.676C78.7231 27.1656 79.7047 24.264 80.6953 22.1172C81.174 21.9948 81.6758 21.9948 82.1545 22.1172C83.1373 24.2676 84.1117 27.1698 84.7981 29.676ZM82.8325 27.1752C82.3952 25.7979 81.9242 24.4315 81.4201 23.0772C80.9176 24.4299 80.4473 25.7942 80.0095 27.1692L82.8325 27.1752ZM99.3343 25.701C99.3343 28.458 98.0077 29.877 95.2801 29.877C94.5745 29.8794 93.8701 29.829 93.1717 29.7246V22.1316C93.9079 22.0303 94.6503 21.9811 95.3935 21.9846C98.0371 21.9846 99.3343 23.0382 99.3343 25.701ZM98.1325 25.7742C98.1325 23.6502 97.3897 22.9818 95.3755 22.9818C95.0327 22.9806 94.6903 23.0033 94.3507 23.0496V28.8228C94.7088 28.8813 95.0714 28.9078 95.4343 28.902C97.3669 28.902 98.1325 27.837 98.1325 25.7742Z" fill="#22505F"/>
</g>
<defs>
<clipPath id="clip0_3626_5751">
<rect width="100.8" height="30" fill="white"/>
</clipPath>
</defs>
</svg>
