<svg width="90" height="38" viewBox="0 0 90 38" fill="none" xmlns="http://www.w3.org/2000/svg">
<g clip-path="url(#clip0_3626_5420)">
<path d="M77.4258 16.5343C75.9215 16.8815 71.9486 17.0743 71.9486 17.0743L71.4601 18.6429C71.4601 18.6429 73.4272 18.4757 74.8672 18.6172C74.8672 18.6172 75.3301 18.5786 75.3815 19.1315C75.4072 19.6972 75.3429 20.2886 75.3429 20.2886C75.3429 20.2886 75.3044 20.6357 74.8286 20.7257C74.2758 20.8157 70.5472 20.9829 70.5472 20.9829L69.9429 23.0143C69.9429 23.0143 69.7244 23.4772 70.2258 23.3486C70.6886 23.22 74.5972 22.4743 75.1115 22.5772C75.6515 22.7057 76.2686 23.4515 76.0886 24.12C75.8829 24.93 71.9744 27.4243 69.6086 27.2572C69.6086 27.2572 68.3615 27.3343 67.3201 25.65C66.3172 24.0429 67.6672 21.0215 67.6672 21.0215C67.6672 21.0215 67.0629 19.6072 67.5129 19.0929C67.5129 19.0929 67.7701 18.8743 68.5415 18.81L69.5058 16.83C69.5058 16.83 68.4129 16.8943 67.7701 16.0972C67.1786 15.3257 67.1272 14.9915 67.5901 14.7857C68.0786 14.5286 72.6044 13.7186 75.7158 13.8215C75.7158 13.8215 76.8086 13.6929 77.7729 15.5829C77.7729 15.5829 78.2101 16.3543 77.4386 16.5343M65.7001 24.1457C65.3144 25.0843 64.2472 26.0743 62.9615 25.47C61.6501 24.8529 59.5801 20.6357 59.5801 20.6357C59.5801 20.6357 58.8086 19.0672 58.6544 19.1186C58.6544 19.1186 58.4872 18.81 58.3972 20.5329C58.2686 22.2429 58.4229 25.5729 57.7158 26.1C57.0729 26.6143 56.3015 26.3957 55.8644 25.7915C55.5044 25.1872 55.3501 23.7343 55.5558 21.2015C55.7872 18.6686 56.3658 15.9686 57.0986 15.1329C57.8701 14.2843 58.4872 14.9015 58.7186 15.1329C58.7186 15.1329 59.7086 16.0329 61.3801 18.6943L61.6629 19.1829C61.6629 19.1829 63.1801 21.7157 63.3344 21.7029C63.3344 21.7029 63.4629 21.8315 63.5658 21.7286C63.7201 21.69 63.6686 20.8672 63.6686 20.8672C63.6686 20.8672 63.3858 18.1286 61.9715 13.5C61.9715 13.5 61.7658 12.9086 61.9072 12.3429C62.0358 11.8286 62.5886 12.0857 62.5886 12.0857C62.5886 12.0857 64.7229 13.1143 65.7644 16.5857C66.7929 20.0572 66.0986 23.2072 65.7129 24.1457M55.2344 15.2357C55.0286 15.5957 54.9386 16.0972 54.0515 16.2386C54.0515 16.2386 45.4372 16.8429 45.0129 17.4472C45.0129 17.4472 44.7301 17.8072 45.1929 17.8972C45.6815 18 47.6358 18.2572 48.5615 18.3086C49.5644 18.3086 52.9329 18.3343 54.1672 19.8515C54.1672 19.8515 54.8744 20.5715 54.8486 22.2043C54.8229 23.8757 54.5272 24.4672 53.8715 25.0715C53.1901 25.6372 47.3529 28.26 43.5858 24.2486C43.5858 24.2486 41.8629 22.32 44.1901 20.8543C44.1901 20.8543 45.8615 19.8257 50.1429 21.0215C50.1429 21.0215 51.4286 21.4843 51.3772 21.96C51.3001 22.4743 50.3101 22.9886 48.8701 22.9629C47.4815 22.9243 46.4529 22.2557 46.6586 22.3715C46.8515 22.4357 45.1544 21.5486 44.6272 22.1529C44.1129 22.7186 44.2415 23.0529 44.7558 23.4C46.0415 24.1457 51.0944 23.8757 52.5986 22.1915C52.5986 22.1915 53.2029 21.51 52.2901 20.9572C51.3901 20.4429 48.7672 20.1215 47.7515 20.0829C46.7872 20.0315 43.1744 20.0829 42.6344 19.1443C42.6344 19.1443 42.1201 18.4757 42.6858 16.65C43.2772 14.7215 47.4815 13.9757 49.3072 13.8215C49.3072 13.8215 54.3215 13.6157 55.2601 14.6443C55.2601 14.6443 55.3886 14.8757 55.2344 15.2229M41.0144 26.5372C40.4101 26.9872 39.1244 26.7943 38.7515 26.28C38.3915 25.83 38.2629 24.0557 38.3272 21.2657C38.4172 18.4115 38.4558 14.9143 39.0986 14.3486C39.7415 13.7957 40.1272 14.2843 40.3844 14.6572C40.6415 15.0429 40.9758 15.4672 41.0272 16.3543C41.1044 17.2543 41.3229 21.8829 41.3229 21.8829C41.3229 21.8829 41.6058 26.1 41.0272 26.5372M42.3001 11.4943C40.5258 12.0986 39.3172 11.9057 38.2886 11.4557C37.8386 12.2657 37.5686 12.51 37.2344 12.5615C36.7201 12.6129 36.2701 11.79 36.2058 11.5329C36.1029 11.34 35.8586 10.9929 36.1544 10.2086C35.1515 9.30859 35.0744 8.10002 35.2544 7.29002C35.4858 6.33859 37.1829 2.76431 42.3258 2.34002C42.3258 2.34002 44.8458 2.16002 45.2829 3.49717H45.3601C45.3601 3.49717 47.8029 3.49717 47.7515 5.68288C47.7515 7.86859 45.0515 10.5943 42.3001 11.5329M44.5886 5.27145C42.9686 5.52859 40.4744 7.68859 39.2786 9.47574C41.1172 9.81002 44.3315 9.68145 45.7715 6.77574C45.7715 6.77574 46.4529 4.95002 44.5886 5.27145ZM37.4786 6.68574C36.9644 7.52145 36.9386 8.02288 37.1829 8.35717C37.7872 7.45717 38.8544 6.04288 40.4615 4.93717C39.2272 5.06574 38.1858 5.58002 37.4786 6.68574ZM81.2829 26.4472C80.1001 29.3529 79.0972 32.2972 78.5186 36.7072C78.5186 36.7072 78.3901 37.5686 77.6829 37.2857C76.9758 37.0286 75.8186 35.8715 75.5615 34.2386C75.3044 32.1043 76.2558 28.5043 78.1972 24.3643C77.6315 23.4643 77.2329 22.1272 77.5544 20.25C77.5544 20.25 78.0686 16.7786 81.5401 13.6415C81.5401 13.6415 81.9515 13.2943 82.1829 13.41C82.4658 13.5386 82.3501 14.6443 82.1186 15.21C81.9129 15.75 80.3701 18.4243 80.3701 18.4243C80.3701 18.4243 79.4058 20.25 79.6758 21.6772C81.5015 18.8743 85.6544 13.1915 88.2258 14.9915C89.8586 16.1486 89.8586 19.8772 88.6372 22.0372C87.6729 23.7472 84.9472 27.2829 81.3086 26.46M86.6572 17.7172C85.7058 18.7457 84.0086 20.7 82.6715 23.3486C84.0858 23.1943 85.4615 22.41 85.8858 22.0115C86.5672 21.4072 88.1358 19.7743 87.8915 17.6143C87.8915 17.6143 87.7372 16.4829 86.6572 17.7172ZM29.0572 27.9643C24.5058 29.3529 20.2115 28.71 17.8715 28.0929C17.8072 29.0443 17.7044 29.4429 17.5501 29.5972C17.3701 29.8029 15.8786 30.6515 15.0558 29.4429C14.6958 28.8643 14.5158 27.8229 14.4129 26.8715C9.1415 24.48 6.69865 20.9572 6.6215 20.8286C6.49293 20.7 5.29722 19.4529 6.49293 17.91C7.6115 16.5215 11.3144 15.12 14.6315 14.5672C14.7601 11.7386 15.0686 9.55288 15.4672 8.5886C15.9429 7.43145 16.5472 8.46002 17.0872 9.23145C17.5244 9.81002 17.7944 12.2915 17.8201 14.2715C19.9801 14.1686 21.2915 14.3229 23.6958 14.7857C26.8586 15.3257 28.9672 16.9457 28.8001 18.7715C28.6458 20.5715 27.0001 21.3172 26.3572 21.3686C25.7144 21.42 24.6858 20.9443 24.6858 20.9443C23.9658 20.61 24.6215 20.3015 25.4572 19.9415C26.3829 19.4915 26.1772 19.0415 26.1772 19.0415C25.8429 18.0129 21.7415 17.3315 17.6658 17.3315C17.6658 19.5815 17.7558 23.31 17.8201 25.4829C20.6744 26.0229 22.8086 25.9072 22.8086 25.9072C22.8086 25.9072 33.2229 25.6115 33.5186 18.9643C33.8401 12.3043 23.1044 5.92717 15.1972 3.92145C7.30293 1.85145 2.82865 3.31717 2.44293 3.51002C2.01865 3.71574 2.40436 3.79288 2.40436 3.79288C2.40436 3.79288 2.82865 3.85717 3.60007 4.11431C4.3715 4.37145 3.75436 4.75717 3.75436 4.75717C2.40436 5.22002 0.900075 4.95002 0.604361 4.33288C0.308646 3.72859 0.797218 3.17574 1.37579 2.36574C1.91579 1.53002 2.53293 1.55574 2.53293 1.55574C12.3044 -1.85141 24.2358 4.25574 24.2358 4.25574C35.3958 9.88717 37.2986 16.5086 37.0929 19.08C36.9129 21.6129 35.9358 25.8943 29.0572 27.9772M7.58579 18.7715C6.48007 19.2857 7.2515 20.1086 7.2515 20.1086C9.33436 22.3329 11.8801 23.7343 14.3229 24.6086C14.6058 20.7515 14.5801 19.3757 14.5801 17.4343C10.8001 17.6915 8.61436 18.3086 7.58579 18.7715Z" fill="#22505F"/>
</g>
<defs>
<clipPath id="clip0_3626_5420">
<rect width="90" height="37.8543" fill="white"/>
</clipPath>
</defs>
</svg>
