<svg width="120" height="60" viewBox="0 0 120 60" fill="none" xmlns="http://www.w3.org/2000/svg">
<path d="M26.517 53.3448C28.5686 53.3448 29.8777 55.0482 29.5607 57.1875H24.4001C24.5007 58.4307 25.5654 59.1446 26.4548 59.1446C27.3316 59.1446 28.0938 58.7503 28.3709 58.0364H29.4356C29.1228 59.2515 27.9055 60.0002 26.4423 60.0002C24.839 60.0002 23.4614 58.9833 23.4614 56.6998C23.4614 54.698 24.6517 53.3443 26.517 53.3443V53.3448ZM86.2019 53.3619C87.0139 53.3619 87.9219 53.7137 88.3624 54.3467H88.4039V53.4999H90.3279V54.2953H89.3197V59.0383H90.3279V59.8576H88.4039V59.004H88.3624C87.9219 59.6505 87.0139 59.9956 86.2019 59.9956C84.2333 59.9956 83.2148 58.4156 83.2148 56.665C83.2148 54.89 84.2805 53.3619 86.2019 53.3619ZM78.9751 53.3583C80.0129 53.3583 80.731 53.8496 81.0885 54.3586H81.116V53.4994H82.0141V55.7897H80.9805C80.7735 54.7883 79.9309 54.1983 79.0135 54.1983C77.5617 54.1983 76.8265 55.3434 76.8265 56.6645C76.8265 58.123 77.7065 59.1374 79.0587 59.1374C80.0134 59.1374 80.7948 58.521 81.1279 57.5154H82.0831C81.7754 58.9988 80.5011 59.9945 79.2766 59.9945C77.2401 59.9945 75.8972 58.5495 75.8972 56.678C75.8972 54.8064 76.9391 53.3578 78.9762 53.3578L78.9751 53.3583ZM47.7774 53.3619C49.7356 53.3619 50.8777 54.8754 50.8777 56.6785C50.8777 58.4815 49.7356 59.9951 47.7774 59.9951C45.8193 59.9951 44.6778 58.481 44.6778 56.6785C44.6778 54.876 45.8198 53.3619 47.7774 53.3619ZM58.1506 50.9305V59.0378H59.1411V59.857H57.2067V58.9625H57.1792C56.7252 59.5955 55.7897 59.9914 54.9917 59.9914C53.0242 59.9914 52.0077 58.536 52.0077 56.6785C52.0077 54.821 53.0237 53.3479 54.9917 53.3479C55.7897 53.3479 56.7424 53.7614 57.1689 54.3939H57.1829V51.7602H56.1701V50.9305H58.1506ZM102.787 50.9067V59.0274H103.777V59.857H101.836V59.017H101.809C101.354 59.65 100.425 59.9909 99.6274 59.9909C97.6599 59.9909 96.6331 58.467 96.6331 56.6095C96.6331 54.7519 97.8867 53.3448 99.5932 53.3448C100.621 53.3448 101.456 53.7645 101.768 54.4629H101.782V51.7809H100.773V50.9067H102.787ZM40.2005 53.3619C41.8499 53.3619 42.8311 54.5594 42.8311 56.3345V59.0378H43.8081V59.857H40.8444V59.0378H41.8629V56.5576C41.8629 55.0114 41.1433 54.204 40.0018 54.204C38.8904 54.204 38.1515 55.0965 38.1515 56.322V59.0378H39.1975V59.857H36.1959V59.0378H37.2419V54.2881H36.1959V53.4994H38.1105L38.11 54.4619L38.1562 54.3669C38.4685 53.7708 39.2152 53.3619 40.2005 53.3619ZM35.3361 53.5124V54.4531C34.0795 53.9871 32.8581 54.6611 32.8581 56.2219V59.0295H33.8371V59.8576H30.9035V59.0295H31.9282V54.3254H30.9087V53.4999H32.7626V54.3965H32.789C33.2296 53.4096 34.5034 53.1601 35.3367 53.5129L35.3361 53.5124ZM96.1319 53.5124V54.4531C94.8752 53.9871 93.6538 54.6611 93.6538 56.2219V59.0295H94.6329V59.8576H91.6997V59.0295H92.724V54.3254H91.7044V53.4999H93.5583V54.3965H93.5853C94.0253 53.4096 95.2991 53.1601 96.1324 53.5129L96.1319 53.5124ZM67.5202 50.9404C69.6205 50.9653 70.4881 52.1571 70.4881 53.5155C70.4881 55.2848 69.11 55.8758 68.2928 56.0019L69.744 59.0051H70.8855V59.857H69.0348L67.1949 56.0398H65.4686V59.0051H66.4467V59.857H63.3817V59.0051H64.4999V51.8162H63.3989V50.9404H67.5207H67.5202ZM19.461 50.9715C21.0134 50.9715 22.7838 51.5018 22.7838 53.7038C22.7838 55.7632 21.0617 56.5093 19.3417 56.5093H17.7711V59.0082H18.8835V59.857H15.6842V59.0082H16.7821V51.8204H15.6842V50.9715H19.461ZM74.0454 53.4844V59.0212H75.0504V59.8487H72.0971V59.0212H73.1104V54.3073H72.0935V53.4844H74.0454ZM55.0965 54.2045C53.598 54.2045 52.9417 55.4327 52.9417 56.6743C52.9417 57.916 53.598 59.1441 55.0965 59.1441C56.1669 59.1441 57.2228 58.2449 57.2228 56.6743C57.2228 55.1037 56.1669 54.2045 55.0965 54.2045ZM47.7494 54.2045C46.4403 54.2045 45.5764 55.2039 45.5764 56.6743C45.5764 58.1448 46.4403 59.1441 47.7494 59.1441C49.0585 59.1441 49.9229 58.1448 49.9229 56.6743C49.9229 55.2039 49.059 54.2045 47.7494 54.2045ZM86.3124 54.1983C84.8679 54.1983 84.156 55.4809 84.156 56.6645C84.156 57.889 84.8679 59.1374 86.3124 59.1374C87.3449 59.1374 88.421 58.371 88.421 56.6645C88.421 54.933 87.3449 54.1983 86.3124 54.1983ZM99.7172 54.1983C98.2198 54.1983 97.5437 55.4809 97.5437 56.6785C97.5437 58.0005 98.2727 59.1374 99.7172 59.1374C100.749 59.1374 101.88 58.3331 101.88 56.6785C101.88 55.0275 100.749 54.1983 99.7172 54.1983ZM26.5051 54.218C25.1628 54.218 24.4452 55.2786 24.4006 56.3386H28.6412C28.6859 55.2781 27.8609 54.218 26.5051 54.218ZM19.0895 51.8204H17.7711V55.66H19.337C21.4285 55.6231 21.7876 54.6383 21.7876 53.6909C21.7876 52.374 21.181 51.8204 19.0895 51.8204ZM67.2654 51.8162H65.4681V55.1598H67.2654C68.739 55.1598 69.4882 54.7504 69.4882 53.503C69.4882 52.2925 68.6129 51.8162 67.2654 51.8162ZM74.0672 50.9518V52.1592H72.9958V50.9518H74.0672ZM115.385 35.7963C116.541 35.7963 117.606 36.3743 118.034 37.1402V36.0142H119.02V38.7336H117.693C117.634 38.1841 117.003 36.983 115.395 36.983C114.292 36.983 113.281 37.4043 113.281 38.3766C113.281 40.7769 119.156 38.8913 119.156 42.4663C119.156 44.3928 117.544 45.1768 115.823 45.1768C114.757 45.1768 113.74 44.7918 113.01 43.9689V44.9351H111.935V42.2323H113.188C113.581 43.4854 114.688 44.0078 115.717 44.0078C116.465 44.0078 117.864 43.7411 117.864 42.5628C117.864 41.3798 116.537 41.2335 115.141 40.9943L114.842 40.9414C113.394 40.6736 111.97 40.2191 111.97 38.3221C111.97 36.5269 113.796 35.7968 115.385 35.7968V35.7963ZM65.8842 35.7963C67.0397 35.7963 68.1049 36.3743 68.533 37.1402V36.0142H69.5194V38.7336H68.1916C68.133 38.1841 67.5015 36.983 65.8941 36.983C64.7905 36.983 63.7802 37.4043 63.7802 38.3766C63.7802 40.7769 69.6548 38.8913 69.6548 42.4663C69.6548 44.3928 68.0432 45.1768 66.3221 45.1768C65.2564 45.1768 64.2389 44.7918 63.5094 43.9689V44.9351H62.4343V42.2323H63.6873C64.0801 43.4854 65.1874 44.0078 66.2158 44.0078C66.9634 44.0078 68.3633 43.7411 68.3633 42.5628C68.3633 41.3798 67.0356 41.2335 65.6404 40.9943L65.341 40.9414C63.8928 40.6736 62.4685 40.2191 62.4685 38.3221C62.4685 36.5269 64.2949 35.7968 65.8842 35.7968V35.7963ZM22.7646 35.7963C23.9201 35.7963 24.9853 36.3743 25.4134 37.1402V36.0142H26.3998V38.7336H25.072C25.0134 38.1841 24.3819 36.983 22.7745 36.983C21.6708 36.983 20.6606 37.4043 20.6606 38.3766C20.6606 40.7769 26.5352 38.8913 26.5352 42.4663C26.5352 44.3928 24.9236 45.1768 23.2025 45.1768C22.1368 45.1768 21.1193 44.7918 20.3898 43.9689V44.9351H19.3147V42.2323H20.5677C20.961 43.4854 22.0678 44.0078 23.0967 44.0078C23.8444 44.0078 25.2437 43.7411 25.2437 42.5628C25.2437 41.3798 23.916 41.2335 22.5207 40.9943L22.2214 40.9414C20.7732 40.6736 19.3489 40.2191 19.3489 38.3221C19.3489 36.5269 21.1748 35.7968 22.7646 35.7968V35.7963ZM98.4667 35.7906C101.343 35.7906 103.178 38.1779 102.734 41.1785H95.4983C95.6389 42.9213 97.1317 43.9222 98.3791 43.9222C99.6082 43.9222 100.677 43.3691 101.066 42.3688H102.559C102.12 44.0727 100.414 45.1224 98.3614 45.1224C96.1137 45.1224 94.182 43.696 94.182 40.4951C94.182 37.6876 95.8506 35.7906 98.4667 35.7906ZM73.7139 33.5419V36.0137H76.2485V37.1988H73.7139V42.4289C73.7139 43.6254 74.2581 43.9056 74.9124 43.9056C75.1745 43.9056 75.8023 43.752 76.069 43.641V44.9314C75.6202 45.0622 74.6976 45.1218 74.2301 45.1218C73.3263 45.1218 72.3788 44.4977 72.3788 42.6458V37.1993H70.9011V36.0142H72.3788V33.9492L73.7139 33.5419ZM49.9224 32.4585C53.3262 32.4585 55.3139 34.948 55.3139 38.6796C55.3139 41.9111 53.8061 44.9351 49.623 44.9351H44.3306V43.71H45.9049V33.6845H44.3306V32.459H49.9229L49.9224 32.4585ZM80.5286 36.0111V43.7749H81.9378V44.9356H77.7973V43.7749H79.218V37.1651H77.7916V36.0111H80.5286ZM91.4289 32.4611V43.7853H92.8692V44.9356H88.6545V43.7853H90.0975V33.6119H88.6919V32.4616L91.4289 32.4611ZM59.6252 36.0111V43.7749H61.0344V44.9356H56.8939V43.7749H58.3145V37.1651H56.8887V36.0111H59.6252ZM16.4988 36.0111V43.7749H17.908V44.9356H13.7675V43.7749H15.1882V37.1651H13.7623V36.0111H16.4988ZM12.5876 36.0397V37.3586C10.8256 36.7048 9.11331 37.6502 9.11331 39.8383V43.7749H10.4857V44.9356H6.37268V43.7749H7.80941V37.1791H6.37942V36.0215H8.97841V37.2787H9.01577C9.63321 35.8949 11.4197 35.5452 12.5876 36.0397ZM86.1116 32.4616V43.7858H87.5519V44.9361H83.3372V43.7858H84.7802V33.6119H83.3746V32.4616H86.1116ZM110.778 36.0397V37.3586C109.016 36.7048 107.304 37.6502 107.304 39.8383V43.7749H108.676V44.9356H104.563V43.7749H106V37.1791H104.57V36.0215H107.169V37.2787H107.206C107.824 35.8949 109.61 35.5452 110.778 36.0397ZM30.6503 32.4247V37.1231C31.3326 36.2809 32.319 35.828 33.3847 35.828C35.2827 35.828 37.1407 36.7962 37.1407 40.1771V43.7754H38.5059V44.9361H34.3903V43.7754H35.8306V40.341C35.8306 37.3244 33.902 37.0229 33.1912 37.0229C31.7472 37.0229 30.6508 38.0788 30.6508 40.2155V43.7759H32.0548V44.9366H27.8759V43.7759H29.3158V33.6477H27.8754V32.4247H30.6503ZM4.47675 32.4206V33.6944H2.91497V43.738H4.43991V44.9361H0.0274998V43.738H1.55503L1.56178 33.6944H0V32.4206H4.47675ZM49.7087 33.6659H47.2565V43.71H49.3423C52.7253 43.71 53.8876 41.6911 53.8876 38.6796C53.8876 35.4881 52.3855 33.6653 49.7081 33.6653L49.7087 33.6659ZM98.4491 37.0156C96.5667 37.0156 95.5611 38.5022 95.4983 39.9887H101.443C101.507 38.5022 100.35 37.0156 98.4491 37.0156ZM80.5592 32.4621V34.1552H79.0571V32.4621H80.5592ZM59.6563 32.4621V34.1552H58.1542V32.4621H59.6563ZM16.5299 32.4621V34.1552H15.0284V32.4621H16.5299ZM59.6153 21.4591L59.6257 21.4596C62.4042 21.4648 66.2542 22.5612 69.2044 25.9317C68.1273 26.8464 66.9178 27.6097 65.6082 28.1893C64.7375 26.3924 62.4727 24.5344 59.6153 24.5297C56.7616 24.5344 54.4993 26.3873 53.6261 28.1815C52.3268 27.6043 51.1174 26.8431 50.035 25.9213C52.9842 22.5586 56.8295 21.4648 59.6054 21.4596L59.6153 21.4591ZM72.9854 21.0373C72.3767 22.3059 71.5922 23.4738 70.6645 24.511C68.9071 22.6686 64.6182 20.7742 61.5289 21.2272C62.5827 20.8551 63.4943 20.1832 64.1626 19.3136C66.7673 19.0168 70.5177 19.3774 72.9859 21.0378L72.9854 21.0373ZM55.0924 19.3162C55.7705 20.1985 56.6909 20.8641 57.7412 21.2318C54.655 20.7586 50.3489 22.653 48.5775 24.4996C47.6519 23.4624 46.8684 22.295 46.2618 21.0274C48.7379 19.3712 52.4924 19.0152 55.0924 19.3162ZM74.4247 14.9811C74.396 16.3662 74.173 17.7404 73.7621 19.0635C71.5191 17.797 67.8471 17.5396 64.6255 18.6121C64.9974 17.9427 65.2302 17.2049 65.3098 16.4432C66.9785 15.4854 70.7382 14.0025 74.4247 14.9811ZM53.9431 16.4562C54.0277 17.235 54.2648 17.9682 54.6301 18.6209C51.4105 17.5417 47.7359 17.7928 45.4856 19.0536C45.083 17.7617 44.8578 16.3929 44.8261 14.9764C48.5236 14.0041 52.2884 15.5005 53.9431 16.4562Z" fill="#22505F"/>
<path d="M65.7477 1.1607C63.7553 4.40826 62.469 8.45332 62.2957 10.7742C61.5864 10.3991 60.7884 10.1728 59.9416 10.1267C59.8851 6.07122 60.9975 2.19375 61.8396 0C63.2141 0.206508 64.5242 0.604476 65.7477 1.1607ZM74.2633 12.4045C71.7531 12.2384 68.0504 13.2362 65.3389 15.7205C65.3256 14.9615 65.1607 14.2128 64.8537 13.5185C66.0404 11.5618 69.8877 8.79888 73.1031 8.51247C73.6683 9.74966 74.0589 11.0593 74.2638 12.4039L74.2633 12.4045ZM53.9083 15.7382C51.2019 13.2471 47.5009 12.2436 44.9844 12.4029C45.1919 11.0357 45.5894 9.7318 46.144 8.51455C49.3657 8.81133 53.2146 11.5841 54.3846 13.5382C54.0809 14.2325 53.9193 14.9804 53.9083 15.7382ZM47.6581 5.92334C48.4685 4.81246 49.4305 3.82039 50.5123 2.97464C53.6442 4.88665 55.7139 8.85077 56.3807 11.1208C55.6989 11.5914 55.1282 12.2073 54.7048 12.9218C53.3822 9.46562 50.0308 6.7281 47.6581 5.92334ZM68.7265 2.96738C69.8114 3.81411 70.7738 4.80715 71.586 5.91815C69.2174 6.71409 65.8619 9.44694 64.5305 12.9021C64.1045 12.1902 63.5327 11.5764 62.8504 11.1089C63.5218 8.83416 65.5936 4.8742 68.7265 2.96738ZM56.9322 10.7846C56.7621 8.46733 55.4768 4.41968 53.4839 1.169C54.7063 0.610702 56.0159 0.211177 57.3888 0.00363204C58.231 2.19739 59.3429 6.07433 59.2858 10.1287C58.439 10.178 57.6405 10.4063 56.9322 10.7851V10.7846Z" fill="#22505F"/>
</svg>
