<svg width="80" height="38" viewBox="0 0 80 38" fill="none" xmlns="http://www.w3.org/2000/svg">
<g clip-path="url(#clip0_3626_5753)">
<path d="M80 34.8801L0 37.2932V0H72.5317L80 34.8801Z" fill="#22505F"/>
<path d="M25.3883 14.2023V22.4091H23.78V14.5086L25.3883 14.2023Z" fill="white"/>
<path d="M27.2452 18.392C27.2452 17.5884 27.2323 17.3225 27.1931 16.7867L28.5922 16.4804L28.6446 17.6127H28.6966C29.0105 16.7724 29.7558 16.3464 30.4359 16.3464C30.5633 16.3452 30.6905 16.3575 30.815 16.3829V17.7955C30.6604 17.7636 30.5027 17.7473 30.3443 17.7467C29.9976 17.7385 29.6596 17.8492 29.3946 18.0579C29.1295 18.2666 28.9557 18.5587 28.9061 18.879C28.8735 19.0314 28.856 19.1863 28.8537 19.3418V22.4101H27.2452V18.392Z" fill="white"/>
<path d="M33.5589 14.8245C33.5646 14.9922 33.5164 15.1575 33.4207 15.2995C33.325 15.4414 33.186 15.5534 33.0215 15.6212C32.8571 15.6891 32.6748 15.7095 32.4978 15.68C32.3208 15.6505 32.1573 15.5724 32.0282 15.4557C31.8991 15.339 31.8103 15.189 31.7732 15.0249C31.736 14.8608 31.7522 14.6902 31.8197 14.5348C31.8872 14.3793 32.0029 14.2462 32.152 14.1525C32.301 14.0588 32.4767 14.0088 32.6565 14.0088C32.7745 14.0021 32.8927 14.0185 33.0035 14.0568C33.1143 14.0951 33.2154 14.1546 33.3003 14.2313C33.3852 14.308 33.452 14.4004 33.4965 14.5025C33.541 14.6047 33.5623 14.7143 33.5589 14.8245ZM31.8456 22.4103V16.7869L33.4674 16.4806V22.4103H31.8456Z" fill="white"/>
<path d="M34.8419 21.0334C35.3426 21.2949 35.9031 21.4411 36.4765 21.4594C37.1826 21.4594 37.4965 21.1916 37.4965 20.8018C37.4965 20.4001 37.235 20.1931 36.4505 19.9373C35.2082 19.5355 34.6852 18.9026 34.6981 18.2082C34.6981 17.1612 35.6265 16.3455 37.1043 16.3455C37.6884 16.3389 38.2661 16.4598 38.7912 16.6984L38.4773 17.7577C38.0652 17.5423 37.6025 17.4253 37.1303 17.417C36.5549 17.417 36.241 17.6724 36.241 18.038C36.241 18.4152 36.542 18.598 37.3526 18.8658C38.5033 19.2555 39.0395 19.8036 39.0526 20.6801C39.0526 21.7516 38.1503 22.5309 36.4634 22.5309C35.7917 22.5423 35.1273 22.4001 34.5281 22.1169L34.8419 21.0334Z" fill="white"/>
<path d="M39.9895 14.0715L41.6112 13.7653V17.2964H41.6372C41.8368 17.0096 42.1113 16.7749 42.4349 16.6143C42.7693 16.4363 43.1482 16.344 43.5333 16.3466C44.6184 16.3466 45.756 17.0164 45.756 18.9156V22.4103H44.1478V19.0862C44.1478 18.2216 43.8079 17.5764 42.9187 17.5764C42.6433 17.577 42.3751 17.6584 42.1521 17.8092C41.9291 17.96 41.7627 18.1724 41.6764 18.4164C41.6255 18.5616 41.6035 18.7143 41.6112 18.8669V22.4103H39.9895V14.0715Z" fill="white"/>
<path d="M49.697 14.5086L51.3053 14.2023V21.1551H54.9274V22.4091H49.697V14.5086Z" fill="white"/>
<path d="M57.5992 14.8245C57.6048 14.9922 57.5567 15.1575 57.461 15.2995C57.3652 15.4414 57.2263 15.5534 57.0618 15.6212C56.8974 15.6891 56.715 15.7095 56.538 15.68C56.3611 15.6505 56.1976 15.5724 56.0684 15.4557C55.9394 15.339 55.8506 15.189 55.8134 15.0249C55.7763 14.8608 55.7925 14.6902 55.86 14.5348C55.9275 14.3793 56.0432 14.2462 56.1922 14.1525C56.3414 14.0588 56.517 14.0088 56.6968 14.0088C56.8148 14.0021 56.9329 14.0185 57.0438 14.0568C57.1546 14.0951 57.2557 14.1546 57.3406 14.2313C57.4254 14.308 57.4923 14.4004 57.5368 14.5025C57.5814 14.6047 57.6026 14.7143 57.5992 14.8245ZM55.886 22.4103V16.7869L57.5076 16.4806V22.4103H55.886Z" fill="white"/>
<path d="M59.4164 22.4097V17.6001H58.5535V16.4801H59.4164V16.2242C59.4164 15.4573 59.6387 14.6899 60.1882 14.2029C60.6448 13.8247 61.2379 13.6204 61.8484 13.6307C62.1991 13.6251 62.5485 13.6744 62.8818 13.7767L62.7639 14.9335C62.5467 14.8581 62.3158 14.8209 62.0842 14.8239C61.2866 14.8239 61.0117 15.445 61.0117 16.1755V16.4801H62.4108V17.6001H61.0249V22.4097H59.4164Z" fill="white"/>
<path d="M64.3988 19.8652C64.4379 20.9368 65.3402 21.3995 66.3603 21.3995C66.9612 21.4143 67.5603 21.3233 68.1251 21.1315L68.3609 22.1665C67.6511 22.4182 66.8969 22.5422 66.1378 22.5318C64.0716 22.5318 62.856 21.3508 62.856 19.5364C62.856 17.8926 63.9278 16.3463 65.9681 16.3463C68.0337 16.3463 68.714 17.9291 68.714 19.2318C68.7158 19.444 68.6984 19.6558 68.6617 19.8652H64.3988ZM67.197 18.8181C67.2102 18.2701 66.9486 17.3691 65.8761 17.3691C64.8824 17.3691 64.4638 18.2091 64.3988 18.8181H67.197Z" fill="white"/>
<path d="M20.646 24.8255L20.5598 24.1028L20.646 23.2196L20.3836 23.0252C20.2041 23.1228 20.0213 23.2105 19.97 23.2373C19.8599 23.2992 18.8848 23.8677 18.8848 23.8677L18.133 23.6718L17.7289 23.5698L17.6948 23.302C17.6948 23.302 17.6087 21.5296 17.6182 21.467C17.6275 21.4033 17.349 19.5831 17.349 19.5831L17.1934 18.6038L17.3196 17.3399L17.5931 15.6661C17.5768 15.6203 17.6012 14.9903 17.6012 14.9903C17.6012 14.9903 17.5768 13.9702 17.5793 13.9265C17.5819 13.8827 17.6435 13.3115 17.6435 13.3115L17.941 12.58L18.0077 12.2945C18.006 12.2804 18.0002 12.2671 17.9909 12.2561C17.9092 12.1967 17.8136 12.1559 17.712 12.1372C17.6103 12.1184 17.5054 12.1221 17.4055 12.148C17.2438 12.1858 17.0957 12.2632 16.9766 12.372C16.9085 12.6243 16.8553 12.8797 16.8174 13.1373L16.738 14.0868L16.5932 15.1859C16.5932 15.1859 16.5324 15.5222 16.5197 15.565C16.4859 15.6791 16.3098 15.6203 16.3098 15.6203C16.29 15.5151 16.2796 15.4086 16.2785 15.3019C16.2885 15.2043 16.3528 14.6898 16.3528 14.6898C16.3549 14.6788 16.3558 14.6676 16.3555 14.6564C16.3407 14.4933 16.3122 14.3314 16.2702 14.1723C16.2399 14.1065 16.1889 14.0508 16.1241 14.0124C16.0592 13.9741 15.9834 13.9548 15.9067 13.9573C15.7493 13.947 15.5911 13.9591 15.4376 13.9932C15.3772 14.0069 15.3203 14.0319 15.2704 14.0666C15.2205 14.1013 15.1787 14.145 15.1473 14.1951C15.096 14.2876 15.0698 14.3905 15.0711 14.4946C15.0711 14.4946 15.1308 15.1346 15.1639 15.2371C15.205 15.3611 15.283 15.5954 15.283 15.5954C15.283 15.5954 15.2987 15.8318 15.072 15.7079C15.0635 15.7013 15.0553 15.6943 15.0476 15.6869L14.8027 15.2347L14.7887 15.1984L14.778 15.1585L14.6738 14.5514L14.6664 14.4987L14.6701 13.9861C14.6879 13.9245 14.8327 13.2369 15.024 12.9592L15.2462 12.6776C15.4808 12.4362 15.7013 12.1832 15.9067 11.9197C15.9284 11.891 15.9464 11.8599 15.9603 11.8271C16.0174 11.6674 16.7611 11.2858 17.0651 11.0727C17.2672 10.9168 17.4941 10.7913 17.7376 10.7006C17.8722 10.6653 18.1031 10.5856 18.1907 10.5529C18.2841 10.5245 18.374 10.4868 18.4588 10.4404C18.4696 10.4199 18.3764 10.3927 18.3764 10.3927L17.7919 10.3239C17.7919 10.3239 17.5656 10.2882 17.528 10.2265C17.3818 10.1173 17.2261 10.0196 17.0626 9.9344C16.8735 9.88146 16.6713 9.88579 16.4851 9.94679C16.2885 10.0009 16.0954 10.0654 15.9067 10.1399C15.9057 10.1407 15.9045 10.1413 15.9033 10.1418C15.7375 10.2432 15.5664 10.3367 15.3905 10.422C15.3521 10.4357 15.3155 10.4536 15.2817 10.4753L15.2028 10.3822C15.2028 10.3822 15.3265 10.1807 15.352 10.1338C15.3765 10.0871 15.5893 9.63533 15.5893 9.63533C15.673 9.44886 15.7396 9.25608 15.7885 9.05909C15.8753 8.72225 15.5043 8.34059 15.2216 8.17939C14.9395 8.0171 13.9884 8.0968 13.7833 8.12369C13.579 8.15058 12.7437 8.28387 12.6729 8.31076C12.6005 8.33764 11.6136 8.61722 11.5606 8.63118C11.5304 8.63912 11.3055 8.71431 11.0944 8.78835C11.0944 8.78835 10.2632 9.18498 10.0636 9.32435C9.73129 9.57548 9.37171 9.79346 8.99077 9.97482L8.6665 10.091L8.79132 10.2072C8.79132 10.2072 9.19041 10.2768 9.46482 10.3233C9.81453 10.3567 10.1674 10.3462 10.5141 10.2922C10.7225 10.2306 10.9185 10.1374 11.0944 10.0164C11.1625 9.97301 11.2356 9.93692 11.3125 9.90895C11.3231 9.90498 11.3502 9.89157 11.3645 9.88712C11.5414 9.84195 11.7232 9.81602 11.9065 9.80988C11.9241 9.81103 11.9416 9.81355 11.9588 9.81746C11.9972 9.8224 12.2463 9.91683 12.2892 10.0537C12.3217 10.244 12.2922 10.4391 12.2046 10.6136C12.0549 10.7953 11.8645 10.9444 11.6467 11.0505C11.5421 11.0902 11.3007 11.1767 11.0944 11.2564C10.736 11.3549 10.3685 11.4219 9.99673 11.4564H9.65183L9.56569 11.7776C9.54187 11.9659 9.55643 12.1566 9.60876 12.3397C9.70235 12.5587 9.83336 12.7621 9.99679 12.9419C10.0934 13.018 10.2153 13.0605 10.3417 13.0623L10.7297 12.6207L11.0945 12.3019L11.2889 12.1858C11.2889 12.1858 11.3603 12.1422 11.3808 12.1287C11.5476 12.0407 11.7262 11.9736 11.9117 11.9291C11.9782 11.9157 12.1816 11.8465 12.2735 11.8296C12.2983 11.8275 12.3233 11.8293 12.3476 11.8347C12.3476 11.8347 12.7101 11.9331 12.7101 12.1998C12.7078 12.3659 12.667 12.5296 12.5904 12.6795L12.5711 12.7179L12.5191 12.7726L12.1074 13.0527C12.1074 13.0527 12.0615 13.0776 12.0443 13.0875C11.919 13.1458 11.7875 13.192 11.6521 13.2254C11.2697 13.3166 10.7372 13.7847 10.7372 13.7847C10.4128 14.017 10.1135 14.5514 9.98879 14.6675C9.8641 14.7837 9.889 14.8766 9.889 14.8766C10.2839 14.7453 10.6864 14.6348 11.0945 14.5455L12.3784 14.2927C12.3784 14.2927 13.0009 14.1813 13.1789 14.045C13.3558 13.9272 13.5444 13.8255 13.7422 13.7414L13.765 14.9008L13.7777 14.9774L14.0184 15.7954C14.0184 15.7954 14.5943 17.2404 14.5665 17.6037C14.5377 17.9685 14.4473 19.4169 14.4473 19.4169C14.4473 19.4169 14.1044 21.0448 14.0989 21.2269C14.0951 21.4083 14.0305 22.2649 14.0305 22.2649L14.0136 22.6821L14.0132 23.3796C13.8477 23.4593 13.674 23.5231 13.4947 23.5698C13.0303 23.7288 12.5854 23.9335 12.1674 24.1804C12.0079 24.3066 11.7468 24.3643 11.7656 24.4342C11.7976 24.5176 11.836 24.5986 11.8805 24.6769C11.8805 24.6769 11.7185 24.8929 11.8392 24.9806C11.9451 25.057 13.0323 25.5567 13.2968 25.6751C13.32 25.6854 13.3445 25.6928 13.3697 25.6971L14.4768 25.9528L14.6071 25.9648C14.6071 25.9648 14.7055 25.9677 14.7551 25.9627C14.9683 25.9387 15.5285 25.8771 15.9067 25.8411C16.0298 25.8302 16.1322 25.8213 16.1985 25.8174C16.2354 25.8153 16.266 25.8065 16.2743 25.8083C16.3508 25.8284 17.8272 25.3067 18.0753 25.2363C18.3067 25.1441 18.5245 25.0247 18.7234 24.8809L19.6248 25.1246L19.7137 25.1585C19.7137 25.1585 20.0763 25.3156 20.3836 25.475C20.5099 25.4218 20.6274 25.3517 20.7322 25.2671L20.646 24.8255ZM15.9067 23.2971L15.07 23.2491L15.1426 21.8291C15.1426 21.8291 15.3629 20.5793 15.3629 20.4994C15.3629 20.4311 15.4708 19.8946 15.5021 19.7501C15.5052 19.7364 15.5117 19.7235 15.5209 19.7125L15.5545 19.6836L15.6982 19.599L15.833 19.5491L15.8725 19.5443C15.8725 19.5443 15.8866 19.5452 15.9067 19.5461C15.9636 19.5523 16.0193 19.5658 16.0723 19.5862C16.146 19.6238 16.2486 19.976 16.2486 19.976L16.4027 20.9435L16.4865 22.1138L16.5629 23.3367L15.9067 23.2971Z" fill="white"/>
</g>
<defs>
<clipPath id="clip0_3626_5753">
<rect width="80" height="37.2932" fill="white"/>
</clipPath>
</defs>
</svg>
