<svg width="120" height="26" viewBox="0 0 120 26" fill="none" xmlns="http://www.w3.org/2000/svg">
<g clip-path="url(#clip0_3611_28732)">
<path d="M0.0707869 23.9948C14.6055 22.1338 60.7373 16.5599 119.874 23.9138C120.119 23.9437 118.848 25.3521 118.603 25.3398C105.017 24.8997 66.7709 21.7518 1.55439 25.3979C1.30978 25.412 -0.177367 24.0264 0.0707869 23.9948Z" fill="#22505F"/>
<path d="M20.7828 4.88207C21.7577 4.88207 23.1651 4.37327 23.9131 3.75003L27.6797 0.607422H21.8694C20.8945 0.607422 19.4853 1.11622 18.7391 1.73946L14.9707 4.88207H20.7828Z" fill="#22505F"/>
<path d="M73.5349 15.2887L68.4797 11.5053C72.3615 10.9965 73.3878 8.52288 73.3878 6.19542C73.3152 3.35739 71.337 0.737671 64.9648 0.737671H52.8779V15.2887H58.2983L58.371 3.79401H63.646C66.2818 3.79401 67.9001 4.59506 67.9001 6.19542C67.9001 8.01408 65.9946 8.81338 63.8711 8.81338H60.631C59.7447 8.81338 59.5887 9.26584 60.2765 9.82042L67.0156 15.2887H73.5349Z" fill="#22505F"/>
<path d="M97.636 15.2887L92.5808 11.5053C96.4626 10.9965 97.4889 8.52288 97.4889 6.19542C97.4162 3.35739 95.4381 0.737671 89.0641 0.737671H76.979V15.2887H82.3994L82.4721 3.79401H87.74C90.3758 3.79401 91.9941 4.59506 91.9941 6.19542C91.9941 8.01408 90.0904 8.81338 87.9669 8.81338H84.7267C83.8404 8.81338 83.6845 9.26584 84.3722 9.82042L91.1078 15.2887H97.636Z" fill="#22505F"/>
<path d="M119.83 0.730713H113.09L108.769 6.11452L104.375 0.730713H97.6357L106.059 9.82578V15.2818H111.479V9.82578L119.83 0.730713Z" fill="#22505F"/>
<path d="M48.7761 0.730713H30.3896V15.2818H48.7761V12.0089H35.8827V9.24304H45.4065V6.33283H35.8827V3.78705H48.7761V0.730713Z" fill="#22505F"/>
<path d="M27.0203 15.2888L14.9672 4.88916L11.5214 7.81169C11.4401 7.87859 11.3931 7.97798 11.3931 8.08282C11.3931 8.18766 11.4401 8.28705 11.5214 8.35395L19.675 15.2888H27.0203Z" fill="#22505F"/>
<path d="M10.4647 0.730713H4.97168V15.2818H10.4647V0.730713Z" fill="#22505F"/>
</g>
<defs>
<clipPath id="clip0_3611_28732">
<rect width="120" height="25" fill="white" transform="translate(0 0.5)"/>
</clipPath>
</defs>
</svg>
