<svg width="160" height="34" viewBox="0 0 160 34" fill="none" xmlns="http://www.w3.org/2000/svg">
<g clip-path="url(#clip0_3611_28729)">
<path d="M135.885 9.52518C136.075 12.1276 137.395 15.7519 140.979 19.8534C140.994 19.8658 141.014 19.8727 141.034 19.8729C141.051 19.8727 141.067 19.868 141.081 19.8594C141.095 19.8507 141.106 19.8385 141.113 19.8239C141.945 13.795 140.105 8.77094 138.336 7.02068C136.368 5.06631 135.764 7.86974 135.885 9.52518ZM159.17 5.26288C156.716 -0.379157 128.165 -1.45933 126.591 4.47535C125.164 9.85488 125.322 25.0584 126.646 29.7772C127.983 34.5419 137.808 33.9384 139.202 32.3219C140.368 30.9704 140.974 26.5103 140.174 24.679C140.138 24.6464 140.094 24.5804 139.95 24.6483C137.795 26.002 135.327 26.7839 132.781 26.9191C131.938 26.9234 131.107 26.7149 130.368 26.3131C129.742 25.9746 129.243 25.4449 128.945 24.8025C128.647 24.1601 128.565 23.4394 128.712 22.7473C129.18 20.5706 131.73 19.697 133.355 19.5287C136.656 19.1865 139.176 21.3204 139.793 21.8342C140.002 22.0094 140.257 21.696 140.093 21.5371C134.145 16.6349 133.238 9.95034 133.61 7.557C134.463 2.08201 138.527 1.66439 141.473 6.34996C142.759 8.45177 143.57 10.8048 143.852 13.2475C144.134 15.6901 143.88 18.1644 143.107 20.5003C143.031 20.7251 143.462 20.8312 143.535 20.6296C145.818 13.8961 148.691 11.1611 151.389 10.1419C154.657 8.90973 157.384 9.77575 155.698 14.6007C155.024 16.5294 152.606 20.072 145.981 22.0615C145.947 22.0704 145.916 22.0872 145.89 22.1106C145.863 22.1339 145.843 22.1632 145.831 22.1958C145.819 22.2285 145.814 22.2636 145.818 22.2982C145.822 22.3329 145.835 22.366 145.854 22.395C145.909 22.5206 146.154 22.4276 146.514 22.3611C148.487 21.9949 153.727 21.0962 154.204 23.4393C154.786 26.2918 150.704 30.3255 144.878 24.8059C144.858 24.7912 144.836 24.7805 144.812 24.7746C144.789 24.7688 144.764 24.7678 144.74 24.7717C144.716 24.7756 144.693 24.7844 144.672 24.7976C144.652 24.8107 144.634 24.8278 144.621 24.848C143.628 27.0215 144.466 31.5626 146.161 32.467C148.873 33.9114 157.556 33.4241 158.749 29.7081C160.213 25.1588 160.444 8.2051 159.167 5.26351L159.17 5.26288ZM138.859 23.3715C139 23.2817 139.049 23.217 138.909 23.1442C137.98 22.5409 136.969 22.0742 135.906 21.7588C135.401 21.6157 134.878 21.5471 134.353 21.5553C133.734 21.5777 133.129 21.7451 132.588 22.0439C132.379 22.1521 132.193 22.3007 132.042 22.481C131.891 22.6613 131.778 22.8697 131.709 23.0939C131.667 23.2776 131.665 23.4681 131.704 23.6524C131.743 23.8366 131.822 24.0103 131.935 24.1616C132.225 24.4852 132.587 24.737 132.992 24.8967C133.398 25.0565 133.835 25.1198 134.27 25.0816C134.466 25.0754 134.662 25.0527 134.855 25.0138C136.258 24.6508 137.604 24.0985 138.856 23.3721L138.859 23.3715ZM145.725 20.3389L145.73 20.3351C145.677 20.4456 145.768 20.4513 145.82 20.4274C149.005 18.8448 152.892 15.4216 153.637 13.7033C154.478 11.7628 152.275 12.3424 151.238 13.0401C149.614 14.1279 147.423 16.5501 145.722 20.3395L145.725 20.3389ZM146.532 23.6466C146.505 23.6449 146.478 23.6537 146.458 23.6712C146.437 23.6887 146.424 23.7134 146.422 23.7402C146.422 23.7543 146.425 23.7683 146.432 23.781C148.538 26.6623 151.571 25.8967 151.74 24.3079C151.838 23.3803 149.361 23.185 146.532 23.6447V23.6466Z" fill="#22505F"/>
<path d="M24.2045 15.1371C28.201 14.7817 29.1849 16.5282 29.1849 18.8656C29.1849 21.6778 27.4847 23.4834 24.2045 23.0394V15.1371ZM24.2045 23.9293C24.8767 24.0179 25.5545 24.0576 26.2325 24.048C31.3919 24.048 33.2104 22.0057 33.2104 19.2236C33.2104 16.7078 31.6001 14.2215 25.8155 14.2215C25.3384 14.2215 22.9523 14.3107 22.4164 14.3107C21.9684 14.3107 19.8221 14.2215 19.3159 14.2215C18.7465 14.2215 18.5104 14.3107 18.5104 14.8131C18.5104 15.2872 18.63 15.2872 19.793 15.3155C20.6871 15.345 20.7175 15.4047 20.7175 16.7367V27.1051C20.7175 28.7323 20.7175 29.0582 19.5836 29.0582C18.8382 29.0582 18.5402 29.1756 18.5402 29.6498C18.535 29.7158 18.5448 29.7821 18.5689 29.8439C18.5929 29.9057 18.6306 29.9613 18.6792 30.0067C18.7277 30.0521 18.7859 30.0862 18.8495 30.1064C18.913 30.1265 18.9803 30.1323 19.0464 30.1233C19.4937 30.1233 21.6704 30.0354 22.1468 30.0354C22.7435 30.0354 25.6655 30.1233 26.323 30.1233C26.6216 30.1233 26.8602 30.0649 26.8602 29.6209C26.8602 29.0588 26.4426 29.0588 25.9364 29.0588C24.8031 29.0588 24.4747 28.9401 24.3254 28.6444C24.2219 27.9192 24.1819 27.1865 24.2058 26.4545L24.2045 23.9293ZM17.2045 29.5851C17.2093 29.4679 17.1791 29.3519 17.1178 29.2516C17.0275 29.1625 16.9188 29.0939 16.7991 29.0505C16.6795 29.0071 16.5518 28.9901 16.4249 29.0004C16.3408 28.9942 16.256 28.9898 16.1718 28.9772C16.0454 28.9591 15.9201 28.9339 15.7966 28.9018C15.7076 28.8794 15.6204 28.8502 15.5359 28.8145C14.3337 28.2895 8.33589 20.0777 8.33589 20.0777L10.3885 18.1641C13.2991 15.5095 12.8613 15.448 15.0076 15.3255C15.7915 15.2627 15.9719 15.2357 15.9719 14.7572C15.9719 14.3088 15.7004 14.2183 15.3695 14.2183C15.0076 14.2183 13.0517 14.3082 12.6297 14.3082C12.2077 14.3082 10.2493 14.2183 9.76653 14.2183C9.25464 14.2183 9.13378 14.4275 9.13378 14.7277C9.13378 15.2659 9.49571 15.2659 9.70325 15.2659C10.5777 15.2954 11.1503 15.3287 11.1503 15.8637C11.1516 16.2826 5.69481 20.8935 5.69481 20.8935L5.63153 17.3892C5.63153 15.6245 5.8125 15.355 6.71669 15.3255C7.37918 15.2954 7.74111 15.2954 7.74111 14.7572C7.74111 14.3088 7.43929 14.2183 7.07799 14.2183C6.62621 14.2183 4.48373 14.3082 4.00411 14.3082C3.49158 14.3082 1.08272 14.2183 0.539822 14.2183C0.329118 14.2183 -0.00244141 14.2183 -0.00244141 14.7572C-0.00244141 15.296 0.389228 15.3255 0.81127 15.3255C2.14004 15.355 2.16725 15.5943 2.16725 17.3892L2.23052 26.3251C2.23052 28.8673 2.35707 29.0469 1.33265 29.0469C0.489202 29.0469 0.217754 29.0469 0.217754 29.6121C0.217754 30.0605 0.549313 30.1208 0.787226 30.1208C1.05804 30.1208 3.16066 30.031 3.91363 30.031C4.87793 30.031 6.5294 30.1208 7.16278 30.1208C7.43422 30.1208 7.76578 30.058 7.76578 29.5229C7.76578 29.1637 7.61519 29.0444 7.04255 29.0444C5.56573 29.0142 5.75239 28.6557 5.72201 27.5183L5.69481 26.7145V21.9925C5.70556 22.0069 5.71632 22.0207 5.72644 22.0352L5.81819 22.157C5.86691 22.2198 5.91563 22.2864 5.96499 22.3511C6.02826 22.4365 6.09154 22.5225 6.15481 22.6073C6.23327 22.7109 6.3111 22.8152 6.38956 22.9213L6.65848 23.2799L6.9603 23.6755L7.27983 24.1032L7.61582 24.5535L7.96194 25.0176L8.31121 25.488L8.65859 25.9558L8.99711 26.4162C9.10552 26.5631 9.2133 26.7097 9.32044 26.8558L9.62226 27.269L9.89624 27.6458C9.97723 27.7582 10.057 27.8706 10.1373 27.9837C10.2044 28.0783 10.2712 28.1736 10.3379 28.2694C10.3891 28.3442 10.4417 28.4195 10.4917 28.4955C10.5265 28.5483 10.5613 28.601 10.5929 28.655C10.6606 28.7706 10.6922 28.9182 10.5296 28.9615C10.4446 28.9819 10.3584 28.997 10.2715 29.0067C10.1639 29.0205 10.0563 29.0325 9.94813 29.0444C9.84873 29.0595 9.74863 29.0695 9.6482 29.0745C9.31664 29.0745 9.04583 29.1047 9.04583 29.673C9.04583 30.1214 9.31728 30.1214 9.52798 30.1214C10.5828 30.1214 12.3538 30.0316 13.8307 30.0316C14.2824 30.0316 15.8181 30.1214 16.3616 30.1214C17.1741 30.1239 17.2171 29.9142 17.2045 29.5851ZM49.5739 14.8018C49.5739 14.1618 49.6099 13.6644 49.1082 13.6644C48.9645 13.6644 48.9291 13.7002 48.4995 14.0199C48.2863 14.1693 48.0407 14.2668 47.7826 14.3044C47.2947 14.25 46.8143 14.1426 46.35 13.9841C45.568 13.7704 44.7605 13.6629 43.9494 13.6644C40.4743 13.6644 38.8241 15.8688 38.8241 18.3224C38.8241 20.6335 40.3649 21.8782 43.5893 23.1229C47.4225 24.5805 47.2789 25.6827 47.2789 26.3942C47.2789 27.9944 45.8818 29.1078 44.019 29.1078C41.7974 29.1078 40.0415 27.2119 39.791 24.9002C39.7562 24.5447 39.7201 24.1528 39.1823 24.1528C38.609 24.1528 38.609 24.404 38.6805 25.8949C38.7166 26.8903 38.6805 28.4553 38.6805 29.4507C38.6805 29.7019 38.6805 30.0197 39.0747 30.0197C39.1581 30.0189 39.2401 29.9993 39.3147 29.9623C39.3893 29.9253 39.4543 29.8719 39.505 29.8062C39.9346 29.3088 40.1137 29.0595 40.3275 29.0595C40.5336 29.0818 40.7308 29.1553 40.9008 29.273C42.0258 29.9372 43.3179 30.2702 44.6264 30.2332C47.7433 30.2332 50.5021 28.1708 50.5021 24.7218C50.5021 23.0155 50.323 21.3079 45.3768 19.6732C41.8657 18.4995 41.6506 17.6102 41.6506 16.8284C41.6506 15.9749 42.2599 14.5882 44.2657 14.5882C46.2361 14.5882 47.5617 15.6559 48.2065 17.5751C48.4931 18.4285 48.6007 18.6427 48.9949 18.6427C49.4612 18.6427 49.4612 18.3224 49.496 17.5405L49.5739 14.8018ZM65.1875 21.5906C65.1875 19.2518 64.0859 17.8225 61.5176 17.8225C60.6068 17.8411 59.7203 18.1168 58.9617 18.6173C58.2031 19.1177 57.6038 19.8223 57.2339 20.6485V19.3128C57.2793 18.8958 57.2483 18.474 57.1421 18.068C57.1129 17.9953 57.0621 17.9331 56.9964 17.8897C56.9308 17.8463 56.8534 17.8238 56.7745 17.825C56.684 17.825 56.0709 17.9468 55.9519 17.9468C55.1845 18.1047 54.4082 18.2163 53.6272 18.2809C52.5554 18.372 52.4946 18.372 52.4946 18.919C52.4946 19.2832 52.6477 19.3743 53.1982 19.4044C54.0537 19.4673 54.0537 19.8302 54.0537 21.2571V27.5422C54.0537 28.8478 54.0537 29.0607 53.259 29.0909C52.6471 29.121 52.4022 29.1819 52.4022 29.6372C52.4022 29.972 52.5547 30.1233 52.9515 30.1233C53.3197 30.1233 55.0636 30.0323 55.4603 30.0323C55.857 30.0323 57.8173 30.1233 58.276 30.1233C58.6727 30.1233 58.7955 29.972 58.7955 29.6077C58.7955 29.1518 58.5519 29.1216 58.0925 29.0909C57.2351 29.0281 57.2351 28.9087 57.2351 27.8462V23.9286C57.1751 23.0746 57.2898 22.2173 57.5724 21.4084C57.9698 20.5292 59.0714 18.9485 60.54 18.9485C61.7333 18.9485 61.9175 20.1022 61.9175 21.7118V27.7551C61.9175 28.7568 61.9175 29.0909 61.2126 29.0909C60.6324 29.0909 60.3571 29.121 60.3571 29.6372C60.3571 30.063 60.6007 30.1233 60.876 30.1233C61.2746 30.1233 63.1096 30.0323 63.5379 30.0323C63.9359 30.0323 65.986 30.1233 66.4144 30.1233C66.7504 30.1233 66.8731 30.0021 66.8731 29.6077C66.8731 29.1518 66.6586 29.0909 66.1385 29.0909C65.221 29.0909 65.1894 29.0281 65.1894 27.9064L65.1875 21.5906ZM98.9762 23.7459V15.9743C98.9762 14.364 99.0394 14.1819 98.4864 14.1819C98.0283 14.1819 97.2019 14.4256 96.5882 14.5167C95.8232 14.6379 95.3328 14.6988 94.5678 14.7898C94.1084 14.8526 93.9863 14.9713 93.9863 15.3362C93.9863 15.7614 94.0787 15.8223 94.2926 15.8223C94.7267 15.7806 95.1649 15.8325 95.577 15.9743C95.8219 16.1564 95.8219 16.5206 95.8219 17.0061V27.0542C95.8219 28.9069 95.7295 29.1191 95.179 29.1191C94.2609 29.1191 94.1388 29.1819 94.1388 29.6661C94.1388 29.9996 94.3533 30.1214 94.6899 30.1214C95.0265 30.1214 96.8008 30.0304 97.1671 30.0304C97.5658 30.0304 99.3096 30.1214 99.7386 30.1214C100.228 30.1214 100.35 29.9393 100.35 29.5751C100.35 29.1499 100.106 29.1191 99.6462 29.1191C99.0957 29.1191 98.9724 28.8767 98.9724 27.8738V24.9918L100.021 23.9814L102.658 27.875C102.878 28.1638 103.034 28.4949 103.116 28.8472C103.116 29.0601 102.902 29.0909 102.444 29.1204C102.168 29.1204 101.893 29.2114 101.893 29.6366C101.893 30.0618 102.229 30.1227 102.473 30.1227C102.596 30.1227 104.707 30.0316 105.411 30.0316C106.084 30.0316 107.637 30.1227 108.217 30.1227C108.555 30.1227 108.677 30.0008 108.677 29.6366C108.677 29.2724 108.524 29.1819 108.095 29.0909C107.086 28.8472 106.78 28.574 105.495 26.9644L101.636 22.4095L102.952 21.1346C104.818 19.3134 105.614 19.13 106.073 19.13C106.501 19.13 106.896 19.0088 106.896 18.6138C106.896 18.1283 106.622 18.0674 106.315 18.0674C106.102 18.0674 104.571 18.1585 104.081 18.1585C103.286 18.1585 102.12 18.0674 101.787 18.0674C101.205 18.0674 101.022 18.1886 101.022 18.5836C101.022 18.9177 101.389 19.0396 101.755 19.13C102.154 19.2211 102.582 19.4032 102.582 19.7681C102.582 20.1329 102.123 20.5882 101.664 21.0436L98.9762 23.7459ZM75.2336 27.664C74.1921 28.4534 73.8561 28.5746 73.3986 28.5746C72.2667 28.5746 71.6852 27.5422 71.6852 26.5405C71.6852 24.5058 73.765 23.5945 75.326 23.4432L75.2336 27.664ZM79.945 28.4233C79.8533 28.4233 79.7312 28.5144 79.547 28.7272C79.3939 28.91 79.3332 29.0607 78.9662 29.0607C78.2619 29.0607 78.2619 28.5144 78.2923 27.3607L78.4189 21.3783C78.4492 19.8598 77.714 17.7044 73.4303 17.7044C73.2082 17.7044 71.1043 17.663 69.773 18.7306C69.5591 18.8954 69.3812 19.1016 69.25 19.3368C69.1189 19.5719 69.0372 19.831 69.0099 20.0984C68.9982 20.2724 69.0242 20.447 69.0861 20.6102C69.1479 20.7735 69.2443 20.9217 69.3687 21.045C69.493 21.1682 69.6425 21.2636 69.8071 21.3248C69.9717 21.386 70.1475 21.4115 70.3229 21.3996C71.5668 21.3996 71.6681 20.4633 71.7352 19.5282C71.7499 19.3745 71.778 19.2223 71.8193 19.0735C71.9737 18.7476 72.3413 18.4329 73.3082 18.4329C74.8375 18.4329 75.388 19.3121 75.3583 21.0147L75.3279 22.7153C69.6965 23.5047 68.6271 26.3289 68.6271 27.6653C68.6205 28.0382 68.6896 28.4086 68.8304 28.7545C68.9712 29.1003 69.1807 29.4144 69.4464 29.6782C69.7121 29.9419 70.0286 30.1498 70.3771 30.2896C70.7255 30.4293 71.0987 30.4979 71.4745 30.4913C72.852 30.4913 73.6473 29.8231 75.2988 28.4264C75.3905 29.0946 75.574 30.4913 77.8393 30.4913C79.7375 30.4913 80.3475 29.2768 80.3475 28.8215C80.3474 28.769 80.3369 28.717 80.3165 28.6686C80.2962 28.6202 80.2664 28.5762 80.2289 28.5392C80.1914 28.5022 80.1469 28.4729 80.098 28.453C80.049 28.4332 79.9966 28.423 79.9438 28.4233H79.945ZM92.3709 26.8677C92.2856 26.8719 92.2031 26.8997 92.1329 26.948C92.0627 26.9962 92.0075 27.0631 91.9735 27.1409C91.6813 27.7008 91.2368 28.1683 90.6905 28.4902C90.1441 28.8121 89.5178 28.9756 88.8826 28.9621C85.8846 28.9621 85.3639 26.0463 85.3639 23.6787C85.3639 20.3075 86.7407 18.4555 88.6991 18.4555C88.7472 18.4555 88.8054 18.4555 88.8668 18.4618C90.162 18.5504 90.0968 19.1752 90.1588 19.5527C90.2265 20.4878 90.3271 21.4235 91.5717 21.4235C91.747 21.4353 91.9228 21.4098 92.0874 21.3487C92.2519 21.2876 92.4014 21.1922 92.5257 21.069C92.6501 20.9458 92.7464 20.7977 92.8083 20.6345C92.8703 20.4713 92.8963 20.2969 92.8847 20.1229C92.8847 19.1181 91.8597 18.3318 90.3778 17.9475C89.6242 17.7684 88.8478 17.7028 88.0746 17.7528C86.3494 17.8626 84.7314 18.6216 83.5507 19.8748C82.3699 21.1281 81.7154 22.7812 81.7205 24.497C81.7205 27.1692 83.5257 30.5095 87.7481 30.5095C91.4496 30.5095 92.7967 27.9278 92.7967 27.2602C92.7947 27.2066 92.782 27.1539 92.7595 27.1052C92.7369 27.0564 92.7049 27.0125 92.6652 26.9761C92.6255 26.9396 92.579 26.9113 92.5283 26.8927C92.4776 26.8741 92.4237 26.8656 92.3696 26.8677H92.3709ZM118.314 18.3111C118.314 18.0674 118.222 17.8859 117.978 17.8859C117.855 17.8859 117.732 17.9161 117.487 18.1585C117.273 18.3714 117.151 18.4932 116.968 18.4932C116.713 18.4181 116.467 18.3162 116.233 18.1893C115.568 17.8636 114.834 17.6973 114.092 17.7038C113.573 17.6955 113.057 17.7915 112.576 17.9861C112.095 18.1806 111.658 18.4696 111.293 18.8358C110.927 19.202 110.639 19.6378 110.448 20.117C110.256 20.5962 110.164 21.109 110.176 21.6245C110.176 23.9016 111.768 24.6006 113.725 25.2079C115.347 25.7247 116.387 26.2403 116.387 27.6979C116.387 28.7913 115.592 29.5462 114.154 29.5462C113.664 29.5462 111.37 29.4834 111.125 26.4488C111.062 25.7203 110.941 25.5979 110.574 25.5979C110.054 25.5979 110.054 25.9018 110.054 26.57C110.054 26.9952 109.963 28.2098 109.902 28.8478C109.871 28.9992 109.779 29.6982 109.779 29.8526C109.774 29.9032 109.78 29.9542 109.796 30.0023C109.812 30.0505 109.838 30.0947 109.873 30.132C109.908 30.1693 109.95 30.1989 109.997 30.2189C110.044 30.2388 110.095 30.2486 110.146 30.2477C110.383 30.2032 110.605 30.0984 110.789 29.9437C111.156 29.6096 111.279 29.6096 111.37 29.6096C111.523 29.6096 111.584 29.6096 112.166 29.9136C112.905 30.3185 113.74 30.5179 114.583 30.4907C117.397 30.4907 119.02 28.7034 119.02 26.5167C119.02 23.8445 116.878 22.964 114.675 22.3869C113.389 22.0528 112.624 21.6276 112.624 20.4733C112.617 20.2224 112.661 19.9727 112.754 19.739C112.846 19.5054 112.985 19.2926 113.162 19.1136C113.34 18.9346 113.551 18.7929 113.785 18.6971C114.019 18.6013 114.27 18.5533 114.523 18.556C115.624 18.556 117.048 18.929 117.215 20.5437C117.297 21.3343 117.49 21.3946 117.735 21.3946C118.072 21.3946 118.237 21.2106 118.224 20.2793C118.212 19.6079 118.344 18.9793 118.314 18.3111Z" fill="#22505F"/>
</g>
<defs>
<clipPath id="clip0_3611_28729">
<rect y="0.5" width="160" height="33" fill="white"/>
</clipPath>
</defs>
</svg>
