<svg width="70" height="70" viewBox="0 0 70 70" fill="none" xmlns="http://www.w3.org/2000/svg">
<g clip-path="url(#clip0_3611_28746)">
<path d="M3.58405 42.9854L1.44238 45.1219L4.35061 46.0775L3.58405 42.9854Z" fill="#22505F"/>
<path d="M4.64258 47.1492L2.99365 49.4913L5.36484 49.6516L4.64258 47.1492Z" fill="#22505F"/>
<path d="M2.49409 39.0137L0.314453 40.92L3.29996 42.0291L2.49409 39.0137Z" fill="#22505F"/>
<path d="M7.02141 49.7819L2.13381 37.5441L0 36.4344L3.24647 34.3841L0.114482 31.9815L3.56823 30.283L0.652215 27.6652L4.45853 26.472L1.85782 23.5168L5.70919 22.6667L3.61484 19.4149L7.45906 19.0248L5.73348 15.4592L9.77648 15.5656L8.60942 12.0376L12.5696 12.367L11.7416 8.74734L15.4542 9.84907L15.171 5.96953L18.8624 7.53767L19.1312 3.80373L22.4691 5.88483L23.0747 2.0433L26.1359 4.44584L27.3037 0.85715L30.0203 3.61914L31.547 0.23667L33.9717 3.19858L35.8983 0L37.9311 3.23764L40.2029 0.33663L41.7533 3.79533L44.5612 1.10173L45.6439 4.85233L48.7052 2.55647L49.373 6.35117L52.6109 4.52214L52.741 8.45621L56.3022 6.92608L55.9788 10.935L59.8324 9.94021L58.8191 13.645L62.564 13.285L61.2438 16.7742L65.242 16.9283L63.3542 20.2423L67.1376 20.5316L64.7886 23.5633L68.5348 24.6642L65.9856 27.427L69.4544 29.0656L66.6077 31.4833L69.8771 33.6339L66.8379 35.402L69.8692 37.8357L66.4855 39.4197L69.2935 42.3284L65.6646 43.4839L67.9814 46.5375L64.3138 47.3705L66.4547 50.9681L62.3873 50.9603L64.0377 54.473L60.1851 54.3432L61.3742 58.0079L57.6615 57.1979L58.4895 61.0317L54.6674 59.9292L54.9449 63.6096L51.3982 62.1562L51.3217 66.1432L48.0459 64.1073L47.3315 67.7272L44.2775 65.4702L43.064 69.0588L40.2186 66.373L38.8286 69.7783L36.2579 66.8315L34.3394 70L32.2598 66.7096L29.9123 69.6249L28.3699 66.0057L25.6684 68.8211L24.5099 65.0346L21.3793 67.5124L20.8645 63.6026L17.6881 65.5851L17.6652 61.6972L13.9968 63.1747L14.4645 59.3323L10.5503 60.3044L11.5957 56.6689L7.74291 57.1437L9.02424 53.5459L5.09573 53.3548L7.02141 49.7819Z" fill="#22505F"/>
<path d="M61.5427 64.2608C61.5357 62.3167 63.1166 60.8856 64.9815 60.8783C66.8308 60.8783 68.4104 62.3097 68.4104 64.2608C68.419 66.2195 66.8379 67.6501 64.9888 67.6501C63.1246 67.6501 61.5427 66.2195 61.5427 64.2608ZM64.9888 67.0846C66.5234 67.0846 67.7353 65.8832 67.7353 64.2608C67.7353 62.6461 66.5161 61.4447 64.9816 61.4447C63.4306 61.4447 62.218 62.6535 62.218 64.2608C62.2179 65.8908 63.4306 67.0846 64.9888 67.0846ZM64.2672 66.2195H63.6766L63.6687 62.3167H65.1575C66.0864 62.3167 66.5462 62.6461 66.5462 63.4269C66.5462 64.1229 66.1086 64.429 65.5344 64.4973L66.6534 66.2195H65.9869L64.9514 64.529H64.2672V66.2195ZM64.9729 64.0318C65.4799 64.0318 65.9333 63.9852 65.9333 63.3807C65.9255 62.9065 65.4799 62.8153 65.0731 62.8153H64.2673V64.0318H64.9729Z" fill="#22505F"/>
<path d="M1.77344 36.3973L5.08049 35.5094L11.6721 45.2209L11.7172 45.2045L12.4394 33.5269L15.7079 32.6549L19.3913 46.3305L17.1589 46.9346L14.3186 36.3667L14.2728 36.3818L13.3832 47.9443L11.4575 48.4578L4.88823 38.9062H4.85026L7.68829 49.4683L5.44885 50.0645L1.77344 36.3973Z" fill="white"/>
<path d="M21.6394 31.0619L24.1494 30.405L33.0049 42.68L30.4879 43.3526L28.2475 40.0787L22.8837 41.5091L22.5905 45.4804L20.1665 46.1236L21.6394 31.0619ZM23.0368 39.5187L27.1412 38.4171L23.5351 33.0837H23.5194L23.4814 33.0986L23.0368 39.5187Z" fill="white"/>
<path d="M25.8843 29.9301L36.7647 27.0062L37.3253 29.073L33.0506 30.2217L36.1819 41.8223L33.8257 42.4575L30.6952 30.8556L26.4441 31.9968L25.8843 29.9301Z" fill="white"/>
<path d="M34.8086 27.5355L45.6977 24.6274L46.2498 26.6932L41.9759 27.8336L45.1072 39.4346L42.7501 40.0629L39.6274 28.4689L35.3763 29.6084L34.8086 27.5355Z" fill="white"/>
<path d="M46.5713 24.3968L55.9195 21.871L56.4787 23.9383L49.4716 25.8273L50.4398 29.4103L56.9005 27.6722L57.4225 29.6241L50.969 31.3607L52.043 35.3555L59.1717 33.4353L59.7401 35.509L50.2546 38.0569L46.5713 24.3968Z" fill="white"/>
<path d="M57.1238 21.5579L59.4722 20.9302L62.6019 32.5315L69.4323 30.7025L70.0001 32.7688L60.7993 35.2327L57.1238 21.5579Z" fill="white"/>
</g>
<defs>
<clipPath id="clip0_3611_28746">
<rect width="70" height="70" fill="white"/>
</clipPath>
</defs>
</svg>
