<svg width="120" height="26" viewBox="0 0 120 26" fill="none" xmlns="http://www.w3.org/2000/svg">
<g clip-path="url(#clip0_3611_28804)">
<path d="M120 11.7799V9.66955H117.379V6.38871L117.291 6.41587L114.829 7.16901L114.781 7.18376V9.66967H110.896V8.2848C110.896 7.63996 111.04 7.14649 111.324 6.8174C111.606 6.49225 112.01 6.32695 112.525 6.32695C112.895 6.32695 113.278 6.41413 113.664 6.58605L113.76 6.62923V4.40671L113.715 4.39C113.355 4.26068 112.866 4.19556 112.259 4.19556C111.495 4.19556 110.8 4.3619 110.195 4.69158C109.588 5.02172 109.112 5.49301 108.778 6.09223C108.445 6.69075 108.276 7.38203 108.276 8.14701V9.66955H106.451V11.7799H108.276V20.6706H110.896V11.7799H114.781V17.4298C114.781 19.7567 115.878 20.9358 118.043 20.9358C118.399 20.9358 118.773 20.8942 119.155 20.8126C119.544 20.7287 119.809 20.6451 119.965 20.5557L120 20.5352V18.4054L119.893 18.4758C119.751 18.5705 119.574 18.648 119.367 18.7055C119.158 18.7642 118.984 18.7935 118.849 18.7935C118.342 18.7935 117.967 18.6569 117.734 18.3872C117.499 18.1151 117.379 17.6393 117.379 16.9737V11.7799H120ZM100.601 18.7939C99.6503 18.7939 98.9006 18.4786 98.3723 17.8576C97.8408 17.2334 97.5715 16.3435 97.5715 15.2128C97.5715 14.0463 97.8408 13.1333 98.3725 12.4981C98.9012 11.8671 99.6436 11.5468 100.58 11.5468C101.488 11.5468 102.211 11.8527 102.729 12.4565C103.25 13.0633 103.514 13.969 103.514 15.1491C103.514 16.3437 103.265 17.2614 102.776 17.8752C102.289 18.4844 101.557 18.7939 100.601 18.7939ZM100.718 9.40453C98.9035 9.40453 97.4627 9.93608 96.4354 10.9844C95.4087 12.0329 94.8882 13.4838 94.8882 15.2972C94.8882 17.0197 95.3963 18.4051 96.3986 19.4145C97.4008 20.4241 98.7648 20.9356 100.452 20.9356C102.211 20.9356 103.623 20.3966 104.65 19.3338C105.676 18.2721 106.197 16.8349 106.197 15.0638C106.197 13.3144 105.708 11.9187 104.745 10.916C103.782 9.91298 102.426 9.40453 100.718 9.40453ZM90.6645 9.40453C89.4306 9.40453 88.4099 9.72016 87.6301 10.3425C86.8456 10.9685 86.4477 11.7896 86.4477 12.7831C86.4477 13.2996 86.5336 13.7583 86.7026 14.1474C86.8727 14.5378 87.1359 14.8815 87.4855 15.17C87.8325 15.4562 88.3681 15.7559 89.0778 16.0608C89.6745 16.3063 90.1194 16.514 90.4021 16.6777C90.6783 16.8381 90.8744 16.9994 90.9851 17.1564C91.0928 17.3101 91.1473 17.5205 91.1473 17.78C91.1473 18.5191 90.5938 18.8787 89.455 18.8787C89.0325 18.8787 88.5507 18.7905 88.0228 18.6166C87.4988 18.4454 87.0041 18.1946 86.5563 17.873L86.4475 17.795V20.3171L86.4874 20.3357C86.8581 20.5068 87.3254 20.6511 87.8762 20.7646C88.426 20.8783 88.9255 20.9361 89.3594 20.9361C90.6984 20.9361 91.7767 20.6189 92.5635 19.9929C93.3553 19.3626 93.7566 18.5221 93.7566 17.4942C93.7566 16.7527 93.5406 16.1168 93.1148 15.6039C92.6919 15.0953 91.9579 14.6283 90.9342 14.2155C90.1186 13.8881 89.5961 13.6164 89.3805 13.4078C89.1727 13.2062 89.0672 12.9213 89.0672 12.5604C89.0672 12.2404 89.1975 11.9841 89.4648 11.7766C89.7342 11.568 90.1093 11.4619 90.5797 11.4619C91.0161 11.4619 91.4627 11.5308 91.9068 11.6659C92.3506 11.8011 92.7404 11.982 93.0658 12.2034L93.1728 12.2765V9.88407L93.1317 9.86643C92.8316 9.73769 92.4357 9.62753 91.9549 9.53815C91.4763 9.44934 91.0421 9.40453 90.6645 9.40453ZM79.6185 18.7939C78.6679 18.7939 77.918 18.4786 77.3898 17.8576C76.8581 17.2334 76.5893 16.3437 76.5893 15.2128C76.5893 14.0463 76.8585 13.1333 77.3904 12.4981C77.9185 11.8671 78.6609 11.5468 79.5974 11.5468C80.5054 11.5468 81.2285 11.8527 81.7466 12.4565C82.2672 13.0633 82.5313 13.969 82.5313 15.1491C82.5313 16.3437 82.2828 17.2614 81.7929 17.8752C81.3064 18.4844 80.5752 18.7939 79.6185 18.7939ZM79.7352 9.40453C77.9207 9.40453 76.4798 9.93608 75.4531 10.9844C74.4264 12.0329 73.9056 13.4838 73.9056 15.2972C73.9056 17.0204 74.414 18.4051 75.4163 19.4145C76.4185 20.4241 77.7824 20.9356 79.4699 20.9356C81.2281 20.9356 82.6405 20.3966 83.6674 19.3338C84.6939 18.2721 85.2143 16.8349 85.2143 15.0638C85.2143 13.3144 84.7261 11.9187 83.7627 10.916C82.7989 9.91298 81.4437 9.40453 79.7352 9.40453ZM69.929 11.5747V9.66955H67.3413V20.6704H69.929V15.043C69.929 14.0861 70.146 13.3 70.5741 12.7063C70.9968 12.1196 71.56 11.8223 72.2477 11.8223C72.4808 11.8223 72.7424 11.8607 73.0258 11.9368C73.3062 12.0123 73.5094 12.0944 73.6292 12.1808L73.7379 12.2596V9.65075L73.696 9.63275C73.455 9.53037 73.1141 9.47871 72.6827 9.47871C72.0324 9.47871 71.4505 9.68766 70.9521 10.0991C70.5146 10.4607 70.1983 10.9564 69.9565 11.5747H69.929ZM62.7072 9.40453C61.52 9.40453 60.4611 9.6591 59.5604 10.1609C58.6579 10.6639 57.9599 11.382 57.485 12.2951C57.0122 13.206 56.7721 14.27 56.7721 15.4566C56.7721 16.496 57.0049 17.4499 57.4649 18.2905C57.9252 19.1326 58.5766 19.7914 59.4013 20.2483C60.2248 20.7046 61.1765 20.936 62.2303 20.936C63.4601 20.936 64.5101 20.6901 65.3519 20.2052L65.3859 20.1857V17.815L65.2771 17.8944C64.8958 18.1721 64.4697 18.3939 64.0111 18.5536C63.5538 18.7132 63.1368 18.7939 62.7711 18.7939C61.7558 18.7939 60.9406 18.4762 60.349 17.8498C59.756 17.2226 59.4554 16.3419 59.4554 15.2336C59.4554 14.1184 59.7689 13.2151 60.3868 12.5485C61.0029 11.8839 61.8195 11.5468 62.8139 11.5468C63.6644 11.5468 64.4932 11.8348 65.2774 12.4036L65.3859 12.4825V9.98448L65.3508 9.96475C65.0558 9.79956 64.6533 9.66317 64.1537 9.55974C63.6562 9.45654 63.1695 9.40453 62.7072 9.40453ZM54.9899 9.66967H52.4022V20.6704H54.9899V9.66967ZM53.7225 4.98329C53.2966 4.98329 52.9251 5.12828 52.6199 5.41559C52.3135 5.7037 52.1581 6.06646 52.1581 6.49457C52.1581 6.91595 52.3116 7.2721 52.6152 7.55255C52.9168 7.83219 53.2894 7.97393 53.7226 7.97393C54.1557 7.97393 54.5297 7.83219 54.8349 7.55302C55.1421 7.2721 55.2979 6.91607 55.2979 6.49457C55.2979 6.08144 55.1463 5.72239 54.8476 5.42719C54.5491 5.13258 54.1705 4.98329 53.7225 4.98329ZM47.266 8.85802V20.6704H49.9069V5.32005H46.2518L41.6059 16.7218L37.0974 5.32005H33.2935V20.6702H35.7752V8.85686H35.8604L40.6213 20.6704H42.4942L47.1808 8.85802H47.266Z" fill="#22505F"/>
<path d="M12.1734 12.3639H0V0.190552H12.1734V12.3639Z" fill="#22505F"/>
<path d="M25.614 12.3639H13.4409V0.190552H25.614V12.3639Z" fill="#22505F"/>
<path d="M12.173 25.8093H0V13.6361H12.173V25.8093Z" fill="#22505F"/>
<path d="M25.614 25.8093H13.4409V13.6361H25.614V25.8093Z" fill="#22505F"/>
</g>
<defs>
<clipPath id="clip0_3611_28804">
<rect width="120" height="25.632" fill="white" transform="translate(0 0.18396)"/>
</clipPath>
</defs>
</svg>
