<svg width="74" height="48" viewBox="0 0 74 48" fill="none" xmlns="http://www.w3.org/2000/svg">
<path fill-rule="evenodd" clip-rule="evenodd" d="M0.924019 33.105C3.0025 31.7777 6.92663 29.9694 11.101 29.9694C16.1711 29.9694 19.7947 31.4818 20.6049 31.845C23.381 33.0888 27.8347 34.7726 31.5937 34.7726C35.2522 34.7726 39.1809 33.5781 40.6708 32.9593C40.7115 32.9427 40.7501 32.9257 40.7875 32.9099C41.0904 32.8037 41.144 33.0872 40.9838 33.2108C40.8946 33.2843 40.7916 33.364 40.6767 33.4474C38.9248 34.7191 34.269 37.0325 30.2718 37.0325C25.7089 37.0325 21.9126 35.4396 20.6115 34.8212C19.195 34.1467 13.8917 31.9898 9.77459 31.9898C6.23228 31.9898 2.86098 32.8805 0.923604 33.6026C0.432206 33.796 0.473709 33.4163 0.655908 33.2843L0.924019 33.105ZM39.4677 0.393799C40.6567 0.481786 42.2106 1.15455 41.9189 3.03382L41.8238 3.5331H35.4049C34.7139 3.5331 33.9718 2.74454 34.1262 2.11494C34.2034 1.75511 34.4234 0.519139 34.4458 0.393799H39.4677ZM29.5434 30.2666C31.6219 28.9393 35.5469 27.131 39.7208 27.131C44.7905 27.131 48.4154 28.6438 49.2251 29.0066C52.0012 30.2508 56.4541 31.935 60.2139 31.935C63.8728 31.935 67.8011 30.7397 69.2902 30.1209C69.3317 30.1043 69.3695 30.0877 69.4077 30.0715C69.7103 29.9653 69.7634 30.2487 69.6032 30.3728C69.5034 30.4546 69.4013 30.5333 69.2969 30.609C67.5442 31.8815 62.8884 34.1945 58.892 34.1945C54.3292 34.1945 50.532 32.602 49.2313 31.9828C47.8152 31.3092 42.5115 29.1522 38.3944 29.1522C34.8521 29.1522 31.4808 30.0429 29.5438 30.7646C29.0516 30.9576 29.0931 30.5787 29.2761 30.4463L29.5434 30.2666ZM2.92157 7.30865L2.90538 7.42154C2.90538 8.14121 4.13845 8.25493 3.83215 9.9246L1.77359 22.1477C1.669 22.7113 1.93006 23.1056 2.41606 23.1056C3.46194 23.1197 7.08974 23.1056 7.08974 23.1056C7.93516 23.1056 8.20784 22.4872 8.26221 22.1564C8.27964 22.0842 8.32239 21.8576 8.38423 21.5136C8.8528 18.9179 10.4079 9.64321 10.4079 9.64321H12.6159C13.3505 9.64321 13.717 9.79968 13.5074 10.9435L11.68 21.5102L11.5675 22.1469C11.4621 22.7097 11.7232 23.1048 12.2092 23.1048C13.255 23.1185 17.0148 23.1048 17.0148 23.1048C17.8602 23.1048 18.1329 22.486 18.1873 22.1552C18.2047 22.083 18.2363 21.8584 18.2981 21.5152C18.7667 18.8665 20.326 9.64363 20.326 9.64363H22.4285C23.1635 9.64363 23.6886 9.69551 23.5308 10.7875L21.6557 21.5235L21.5482 22.1477C21.4432 22.7105 21.7047 23.1056 22.1903 23.1056C23.2366 23.1193 26.9304 23.1056 26.9304 23.1056C27.7762 23.1056 28.0493 22.4868 28.1028 22.156C28.1207 22.0838 28.1477 21.8659 28.2095 21.5219C28.6909 18.742 30.559 7.98142 30.559 7.98142C30.7686 6.5259 30.3793 5.0708 27.2827 5.0708H3.2399L2.92157 7.30865ZM33.1417 7.31281L33.1231 7.42154C33.1231 8.13 34.0515 8.31179 33.905 9.69385L31.8543 21.514L31.7477 22.1469C31.6426 22.7097 31.9037 23.1048 32.3897 23.1048C33.436 23.1185 37.2709 23.1048 37.2709 23.1048C38.1163 23.1048 38.3894 22.486 38.443 22.1552C38.4608 22.083 38.5052 21.8506 38.567 21.5069C39.0979 18.6959 40.8921 8.03289 40.8921 8.03289L40.9058 7.98101C41.1158 6.52549 40.7485 5.07039 37.6527 5.07039H33.5244L33.1417 7.31281ZM9.67498 41.3828C9.15992 41.1757 8.59091 41.1039 8.03934 41.1039C6.82869 41.1039 5.69025 41.6804 5.69025 43.0044C5.69025 44.6798 7.84137 44.4993 7.84137 45.634C7.84137 46.3097 7.24455 46.616 6.63943 46.616C6.09657 46.616 5.58193 46.4089 5.09385 46.1835L4.76805 47.2555C5.33789 47.4626 5.96127 47.6066 6.5668 47.6066C7.94886 47.6066 9.15992 47.0484 9.15992 45.5078C9.15992 43.7605 7.00923 43.8232 7.00923 42.8151C7.00923 42.2751 7.61476 42.0946 8.06673 42.0946C8.527 42.0946 9.00636 42.2295 9.37657 42.4187L9.67498 41.3828ZM12.7118 47.4987H13.9764L14.5549 44.7425H17.1028L16.5247 47.4987H17.7897L19.1087 41.2118H17.8441L17.3107 43.7522H14.7629L15.2958 41.2118H14.0312L12.7118 47.4987ZM25.8961 41.1039C24.8656 41.1039 23.989 41.4911 23.3022 42.2751C22.6613 43.0222 22.3082 43.9946 22.3082 44.9944C22.3082 46.4898 23.2391 47.6066 24.793 47.6066C25.8505 47.6066 26.8079 47.2825 27.4678 46.5533C28.1493 45.7864 28.5255 44.796 28.5249 43.7701C28.5249 42.0946 27.6036 41.1039 25.8961 41.1039ZM25.8592 42.0946C26.7722 42.0946 27.206 42.7968 27.206 43.6344C27.206 44.8874 26.4016 46.6164 24.9565 46.6164C24.0434 46.6164 23.6275 45.8863 23.6275 45.0671C23.6275 43.7967 24.3866 42.0946 25.8592 42.0946ZM32.8081 47.4987H34.3707L36.594 42.4731H36.6118L36.6753 47.4987H38.2566L41.2656 41.2118H39.9557L37.7233 46.0304H37.7054L37.6789 41.2118H35.9793L33.883 46.0304H33.8651L33.6759 41.2118H32.4105L32.8081 47.4987ZM43.4893 47.4987H47.2487L47.4653 46.5076H44.9718L45.3425 44.7425H47.5558L47.7546 43.7522H45.55L45.8758 42.2025H48.3415L48.5312 41.2118H44.8179L43.4893 47.4987ZM51.1529 47.4987H52.4183L52.9687 44.8869H53.4485C54.1341 44.8869 54.0984 45.3547 54.2428 46.0208L54.55 47.4987H55.8785L55.2729 44.9675C55.192 44.6255 54.9754 44.4088 54.6317 44.3906V44.3727C55.6618 44.3545 56.4749 43.7784 56.4749 42.6976C56.4749 41.1932 55.1277 41.2114 53.9627 41.2114H52.4719L51.1529 47.4987ZM53.5472 42.2025H54.0718C54.5865 42.2025 55.1555 42.2025 55.1555 42.8595C55.1555 43.6883 54.3337 43.8954 53.656 43.8954H53.1949L53.5472 42.2025ZM64.2094 41.3828C63.6948 41.1757 63.1258 41.1039 62.5746 41.1039C61.3635 41.1039 60.2255 41.6804 60.2255 43.0044C60.2255 44.6798 62.3762 44.4993 62.3762 45.634C62.3762 46.3097 61.7794 46.616 61.1743 46.616C60.6327 46.616 60.1172 46.4089 59.6291 46.1835L59.3033 47.2555C59.8732 47.4626 60.4965 47.6066 61.1021 47.6066C62.4841 47.6066 63.6952 47.0484 63.6952 45.5078C63.6952 43.7605 61.5445 43.8232 61.5445 42.8151C61.5445 42.2751 62.15 42.0946 62.6016 42.0946C63.0618 42.0946 63.542 42.2295 63.9114 42.4187L64.2094 41.3828ZM48.6536 21.5156C48.9723 19.6156 49.8555 14.2177 49.8555 14.2177C50.0664 12.6584 51.4202 9.69551 55.4601 9.64321H65.7695C66.6083 9.64321 66.5357 9.96943 66.4228 10.5791L66.1277 12.1384H56.7861C55.7892 12.1384 54.3731 12.2426 53.9004 14.6859L52.9554 20.0394C52.7981 20.9753 52.7632 23.106 55.5128 23.106H68.2232C69.2728 23.106 70.8997 23.0023 71.3725 20.0917L73.4186 8.34458C73.6286 6.88947 73.314 5.12185 70.2701 5.07039H55.0405C53.939 5.07039 51.8497 5.12185 50.9583 7.25304C50.6428 5.53813 49.6605 5.12185 47.9808 5.07039H43.7242L43.3312 7.42237C43.3312 8.09431 44.3638 8.16694 44.1434 9.65774L42.1073 21.5148L42.001 22.1477C41.8956 22.7105 42.1567 23.1056 42.6423 23.1056C43.6886 23.1193 47.3504 23.1056 47.3504 23.1056C48.1958 23.1056 48.5349 22.4868 48.5888 22.156C48.6067 22.083 48.5922 21.8589 48.6536 21.5156ZM60.221 15.9567H65.4462L65.2321 17.3047C65.1802 17.8758 64.9312 18.6112 63.6188 18.5598H60.0848C59.5312 18.5598 59.0701 18.4921 59.2452 17.7276L59.3506 16.7888C59.3502 16.2688 59.5914 15.9567 60.221 15.9567Z" fill="#22505F"/>
</svg>
