<svg width="120" height="52" viewBox="0 0 120 52" fill="none" xmlns="http://www.w3.org/2000/svg">
<path fill-rule="evenodd" clip-rule="evenodd" d="M56.5186 23.654L60.5942 29.3403V26.2941C60.5942 24.2969 60.4272 23.6035 60.0096 23.0617C60.3102 22.6725 60.8617 22.4357 61.3794 22.4357C62.6322 22.4357 63.0331 22.9943 63.0331 24.6527C63.0331 27.005 62.9996 33.1481 62.9996 33.1481C62.6824 33.351 62.0809 33.5373 61.3626 33.5373C60.3937 33.5373 60.0265 33.2496 59.642 32.7081L55.366 26.5988V28.7141C55.366 31.5912 55.533 32.4374 56.0175 32.9113C55.6834 33.2496 55.0988 33.5036 54.3973 33.5036C53.3281 33.5036 53.0273 32.8435 53.0273 31.5066L53.0106 24.6866C53.0106 24.2803 52.8103 24.0266 51.925 24.1113C51.925 23.1634 52.6766 22.3679 54.2467 22.3679C55.3325 22.3679 55.8504 22.6897 56.5186 23.654Z" fill="#22505F"/>
<path fill-rule="evenodd" clip-rule="evenodd" d="M68.1559 30.0512C67.2537 30.0512 66.8697 30.3388 66.8697 30.9819C66.8697 31.4727 67.1535 31.8112 67.972 31.8112C68.7905 31.8112 69.3587 31.3201 69.3587 30.1527C68.8907 30.0683 68.6904 30.0512 68.1559 30.0512ZM72.215 31.2528C72.215 31.6586 72.499 31.8958 73.3842 31.8112C73.3842 32.7589 72.6156 33.5542 71.1625 33.5542C70.0935 33.5542 69.659 33.1142 69.659 32.1666V31.8281C69.392 33.0464 68.4565 33.5542 66.9365 33.5542C65.0991 33.5542 64.0967 32.6235 64.0967 31.2528C64.0967 29.5605 65.2826 28.6804 67.7548 28.6804C68.3228 28.6804 68.8405 28.7141 69.392 28.7819V28.3758C69.392 27.3772 68.7739 27.0726 67.7715 27.0726C66.7526 27.0726 65.7506 27.4957 65.0991 28.274C64.698 28.0035 64.5476 27.6818 64.5476 27.1065C64.5476 25.9896 65.8841 24.9912 68.6235 24.9912C71.1792 24.9912 72.2982 25.9387 72.2649 27.7327L72.215 31.2528Z" fill="#22505F"/>
<path fill-rule="evenodd" clip-rule="evenodd" d="M74.3713 31.202C74.3713 29.5432 74.4044 27.0387 74.4044 27.0387H73.3523C73.2519 26.8865 73.2019 26.6665 73.2019 26.4804C73.2019 25.8205 73.5861 25.1263 74.488 25.0589C74.5717 23.8742 75.173 22.808 76.5928 22.808C76.8266 22.808 77.1107 22.8419 77.3611 22.9095C77.2776 23.6203 77.2609 24.3819 77.2609 25.1094H77.5616C78.4635 25.1094 79.0318 25.0248 79.399 24.8048C79.5661 25.0248 79.6327 25.2959 79.6327 25.5666C79.6327 26.5817 78.6809 27.0557 77.9126 27.0557H77.2609V30.7957C77.2609 31.3036 77.4448 31.4558 78.0126 31.4558C78.6642 31.4558 79.2989 31.219 79.8501 30.8635C79.9836 31.0664 80.0503 31.2695 80.0503 31.5742C80.0503 32.691 78.9148 33.5541 77.1609 33.5541C75.223 33.5541 74.3713 32.9451 74.3713 31.202Z" fill="#22505F"/>
<path fill-rule="evenodd" clip-rule="evenodd" d="M82.5243 24.2463C81.4553 24.2463 81.0044 23.891 81.0044 23.1801C81.0044 22.4866 81.4553 22.0634 82.6247 22.0634C83.6936 22.0634 84.1447 22.4866 84.1447 23.1465C84.1447 23.7725 83.8608 24.2463 82.5243 24.2463ZM80.1357 26.768C80.1357 25.8205 80.8875 25.0248 82.4575 25.0248C83.6767 25.0248 84.1447 25.5157 84.1447 26.2602V33.3173C83.8104 33.5036 83.2928 33.5373 82.7082 33.5373C81.8395 33.5373 81.2716 33.351 81.2382 32.7081C81.2047 32.0987 81.1881 31.1849 81.1881 29.6619C81.1881 28.0034 81.2047 27.4788 81.2047 27.3433C81.2047 26.9374 81.0044 26.6835 80.1357 26.768Z" fill="#22505F"/>
<path fill-rule="evenodd" clip-rule="evenodd" d="M89.8625 26.9374C88.743 26.9374 88.3923 27.7327 88.3923 29.4247C88.3923 31.1003 88.7764 31.7097 89.9791 31.7097C91.0148 31.7097 91.4993 31.0496 91.4993 29.222C91.4993 27.7835 91.1486 26.9374 89.8625 26.9374ZM89.8125 33.5712C87.1393 33.5712 85.4355 32.4035 85.4355 29.6112C85.4355 26.6667 87.1562 24.9575 90.0626 24.9575C92.7521 24.9575 94.3891 26.1758 94.3891 28.985C94.3891 32.0987 92.5184 33.5712 89.8125 33.5712Z" fill="#22505F"/>
<path fill-rule="evenodd" clip-rule="evenodd" d="M98.7218 26.6666C99.039 25.5497 99.9077 24.9913 101.228 24.9913C103.048 24.9913 104.301 25.6676 104.301 27.6311C104.301 28.3928 104.267 30.1696 104.267 31.2528C104.267 31.6587 104.468 31.8957 105.337 31.8113C105.337 32.7588 104.585 33.5542 103.015 33.5542C101.962 33.5542 101.361 33.1313 101.361 32.0311C101.361 31.2867 101.394 29.1371 101.394 28.5449C101.394 27.5636 100.96 27.0725 99.8244 27.0725C99.106 27.0725 98.7718 27.3939 98.7718 28.1218V33.3172C98.4377 33.5037 97.8866 33.5372 97.3351 33.5372C96.3165 33.5372 95.882 33.2665 95.8653 32.7082C95.8151 32.0988 95.8151 31.3711 95.8151 30.4742C95.8151 28.8156 95.8653 27.3434 95.8653 27.3434C95.8653 26.9373 95.665 26.6835 94.7798 26.7681C94.7798 25.8204 95.5313 25.0249 97.1012 25.0249C98.2038 25.0249 98.7218 25.4988 98.7218 26.6666Z" fill="#22505F"/>
<path fill-rule="evenodd" clip-rule="evenodd" d="M109.915 30.0512C109.013 30.0512 108.629 30.3388 108.629 30.9819C108.629 31.4727 108.913 31.8112 109.731 31.8112C110.55 31.8112 111.118 31.3201 111.118 30.1527C110.65 30.0683 110.45 30.0512 109.915 30.0512ZM113.974 31.2528C113.974 31.6586 114.258 31.8958 115.143 31.8112C115.143 32.7589 114.375 33.5542 112.922 33.5542C111.853 33.5542 111.418 33.1142 111.418 32.1666V31.8281C111.151 33.0464 110.216 33.5542 108.696 33.5542C106.858 33.5542 105.856 32.6235 105.856 31.2528C105.856 29.5605 107.042 28.6804 109.514 28.6804C110.082 28.6804 110.6 28.7141 111.151 28.7819V28.3758C111.151 27.3772 110.533 27.0726 109.531 27.0726C108.512 27.0726 107.51 27.4957 106.858 28.274C106.457 28.0035 106.307 27.6818 106.307 27.1065C106.307 25.9896 107.643 24.9912 110.383 24.9912C112.938 24.9912 114.057 25.9387 114.024 27.7327L113.974 31.2528Z" fill="#22505F"/>
<path fill-rule="evenodd" clip-rule="evenodd" d="M115.88 26.1927C115.863 24.3142 115.78 23.5696 115.512 22.8756C115.93 22.4866 116.598 22.2833 117.199 22.2833C118.352 22.2833 118.87 22.7912 118.87 23.7559V31.2528C118.87 31.6586 119.07 31.8958 119.939 31.8112C119.939 32.7587 119.187 33.5542 117.617 33.5542C116.565 33.5542 115.93 33.1311 115.93 32.031L115.88 26.1927Z" fill="#22505F"/>
<path fill-rule="evenodd" clip-rule="evenodd" d="M60.9699 37.6781L60.9532 45.1243H61.9556C63.7093 45.1243 65.0124 44.8197 65.3965 44.4303C65.5801 44.6332 65.6303 44.8703 65.6303 45.1921C65.6303 46.2579 64.5948 47.138 61.6882 47.138C58.4477 47.138 58.0969 46.9858 57.9633 46.2916C57.9131 45.8518 57.8964 44.5149 57.8964 42.2135V38.3553C57.8964 37.9486 57.696 37.6953 56.8105 37.7798C56.8105 36.8318 57.5623 36.0366 59.1325 36.0366C60.3686 36.0366 60.9699 36.5104 60.9699 37.6781Z" fill="#22505F"/>
<path fill-rule="evenodd" clip-rule="evenodd" d="M70.5411 40.6056C69.4218 40.6056 69.0711 41.4011 69.0711 43.0933C69.0711 44.7689 69.4554 45.3781 70.6579 45.3781C71.6937 45.3781 72.1781 44.7181 72.1781 42.8901C72.1781 41.4518 71.8274 40.6056 70.5411 40.6056ZM70.4911 47.2395C67.8184 47.2395 66.1145 46.0719 66.1145 43.2796C66.1145 40.3353 67.835 38.626 70.7415 38.626C73.4309 38.626 75.0679 39.8444 75.0679 42.6535C75.0679 45.7671 73.197 47.2395 70.4911 47.2395Z" fill="#22505F"/>
<path fill-rule="evenodd" clip-rule="evenodd" d="M76.6194 44.8704C76.6194 43.2117 76.653 40.7071 76.653 40.7071H75.6006C75.5 40.5548 75.4502 40.3352 75.4502 40.1491C75.4502 39.4892 75.8343 38.7948 76.7361 38.7274C76.8198 37.5429 77.4213 36.4763 78.8413 36.4763C79.075 36.4763 79.359 36.5104 79.6094 36.5782C79.5257 37.289 79.5092 38.0504 79.5092 38.7781H79.8097C80.712 38.7781 81.2799 38.6935 81.6475 38.4735C81.8144 38.6935 81.8812 38.9646 81.8812 39.2353C81.8812 40.2502 80.929 40.7242 80.1607 40.7242H79.5092V44.464C79.5092 44.9719 79.6929 45.1243 80.2608 45.1243C80.9123 45.1243 81.5472 44.8871 82.0984 44.532C82.232 44.7347 82.2986 44.938 82.2986 45.2426C82.2986 46.3595 81.1629 47.2226 79.4092 47.2226C77.4713 47.2226 76.6194 46.6136 76.6194 44.8704Z" fill="#22505F"/>
<path fill-rule="evenodd" clip-rule="evenodd" d="M83.6132 44.8704C83.6132 43.2117 83.6467 40.7071 83.6467 40.7071H82.5944C82.4939 40.5548 82.4438 40.3352 82.4438 40.1491C82.4438 39.4892 82.8282 38.7948 83.73 38.7274C83.8136 37.5429 84.4151 36.4763 85.8348 36.4763C86.0687 36.4763 86.353 36.5104 86.6032 36.5782C86.5199 37.289 86.503 38.0504 86.503 38.7781H86.8037C87.706 38.7781 88.2739 38.6935 88.6409 38.4735C88.8084 38.6935 88.8752 38.9646 88.8752 39.2353C88.8752 40.2502 87.923 40.7242 87.1545 40.7242H86.503V44.464C86.503 44.9719 86.6869 45.1243 87.2546 45.1243C87.9063 45.1243 88.5412 44.8871 89.0922 44.532C89.2255 44.7347 89.2926 44.938 89.2926 45.2426C89.2926 46.3595 88.1569 47.2226 86.403 47.2226C84.4652 47.2226 83.6132 46.6136 83.6132 44.8704Z" fill="#22505F"/>
<path fill-rule="evenodd" clip-rule="evenodd" d="M95.3459 41.7563C95.3459 41.0456 94.8282 40.5548 93.9928 40.5548C93.1078 40.5548 92.8738 41.164 92.8069 42.0607H95.3291C95.3459 41.9594 95.3459 41.8746 95.3459 41.7563ZM98.052 41.7395C98.052 42.9412 97.785 43.4149 97.2004 43.4149H92.7904C92.8069 44.684 93.4919 45.2595 95.0452 45.2595C96.0474 45.2595 97.0998 44.8871 97.835 44.1257C98.0689 44.3457 98.1357 44.6503 98.1357 44.9208C98.1357 46.2916 96.6824 47.2226 94.043 47.2226C91.3704 47.2226 89.7668 46.0548 89.7668 43.313C89.7668 40.4704 91.2536 38.6259 94.3104 38.6259C96.7659 38.6259 98.052 39.9626 98.052 41.7395Z" fill="#22505F"/>
<path fill-rule="evenodd" clip-rule="evenodd" d="M102.392 40.3352C102.609 39.2352 103.06 38.6935 104.146 38.6935C105.699 38.6935 106.05 39.9967 105.348 41.6041C103.026 40.9779 102.575 41.4349 102.575 42.7886V47.0024C102.241 47.1887 101.556 47.2056 101.139 47.2056C100.187 47.2056 99.7027 46.9856 99.669 46.3766C99.6357 45.7501 99.6188 45.0393 99.6188 44.1425C99.6188 42.4838 99.6357 41.0118 99.6357 41.0118C99.6357 40.6055 99.4349 40.3519 98.5664 40.4367C98.5664 39.489 99.3183 38.6935 100.889 38.6935C101.924 38.6935 102.442 39.1842 102.392 40.3352Z" fill="#22505F"/>
<path fill-rule="evenodd" clip-rule="evenodd" d="M107.002 41.0626C106.818 40.5043 106.751 40.369 106.116 40.4366C106.116 39.4891 106.868 38.6936 108.438 38.6936C109.123 38.6936 109.407 38.9811 109.607 39.6076L111.128 44.3285L111.779 42.7209C112.431 41.0796 112.497 40.3353 112.197 39.1676C112.497 38.8797 112.898 38.7106 113.466 38.7106C114.452 38.7106 115.036 39.2015 115.036 40.149C115.036 40.9274 114.652 41.9088 113.884 43.6181C113.299 44.955 112.13 47.2058 111.612 48.1196C110.342 50.3196 109.29 50.9793 107.904 50.9793C106.651 50.9793 105.983 50.4549 105.983 49.4393C105.983 48.932 106.217 48.5257 106.584 48.2548C106.818 48.6779 107.386 49.0841 108.088 49.0841C108.588 49.0841 108.822 48.7459 109.791 47.1379C109.273 47.1042 108.973 46.7827 108.722 46.0721L107.002 41.0626Z" fill="#22505F"/>
<path fill-rule="evenodd" clip-rule="evenodd" d="M7.40045 3.70667C7.40045 3.70667 8.40841 4.36527 8.85715 4.78308C8.85715 4.78308 10.533 4.54173 10.9727 4.53225C10.9727 4.53225 10.8626 5.22823 9.97432 6.31431C9.97432 6.31431 10.3955 7.4002 10.1573 8.37435C10.1573 8.37435 9.269 7.65996 8.34363 7.33476C8.34363 7.33476 7.00623 7.80834 6.08122 7.86412C6.08122 7.86412 6.51215 7.0564 6.65825 6.62055C6.65825 6.62055 5.55979 6.11926 5.17456 5.9891L7.15305 5.2656C7.15305 5.2656 7.55609 4.52314 7.40045 3.70667Z" fill="#22505F"/>
<path fill-rule="evenodd" clip-rule="evenodd" d="M4.62912 1.02979C4.62912 1.02979 5.13094 1.35809 5.35441 1.56571C5.35441 1.56571 6.1891 1.44577 6.40771 1.44103C6.40771 1.44103 6.35319 1.78756 5.91075 2.32841C5.91075 2.32841 6.12018 2.8689 6.00179 3.35397C6.00179 3.35397 5.55971 2.99814 5.09891 2.83681C5.09891 2.83681 4.433 3.07197 3.97274 3.09986C3.97274 3.09986 4.18704 2.69773 4.25973 2.4808C4.25973 2.4808 3.71257 2.23107 3.52148 2.16636L4.50605 1.80597C4.50605 1.80597 4.70685 1.43629 4.62912 1.02979Z" fill="#22505F"/>
<path fill-rule="evenodd" clip-rule="evenodd" d="M10.0774 0.556519C10.0774 0.556519 10.703 0.966121 10.9819 1.22479C10.9819 1.22479 12.0233 1.07568 12.297 1.06948C12.297 1.06948 12.2284 1.50205 11.6768 2.1767C11.6768 2.1767 11.9382 2.85099 11.7903 3.45619C11.7903 3.45619 11.2381 3.01195 10.6636 2.8107C10.6636 2.8107 9.83251 3.10455 9.25818 3.139C9.25818 3.139 9.52573 2.63771 9.61677 2.36665C9.61677 2.36665 8.93359 2.0553 8.69482 1.97472L9.92391 1.5252C9.92391 1.5252 10.174 1.06383 10.0774 0.556519Z" fill="#22505F"/>
<path fill-rule="evenodd" clip-rule="evenodd" d="M14.6916 3.12695C14.6916 3.12695 15.099 3.39364 15.2805 3.56226C15.2805 3.56226 15.9589 3.4651 16.137 3.46072C16.137 3.46072 16.0924 3.74254 15.7329 4.18186C15.7329 4.18186 15.9029 4.62081 15.8066 5.0151C15.8066 5.0151 15.4471 4.72599 15.0729 4.59492C15.0729 4.59492 14.532 4.78615 14.1581 4.80875C14.1581 4.80875 14.3321 4.48227 14.3915 4.30545C14.3915 4.30545 13.9469 4.10293 13.7913 4.05025L14.5914 3.75749C14.5914 3.75749 14.755 3.4569 14.6916 3.12695Z" fill="#22505F"/>
<path fill-rule="evenodd" clip-rule="evenodd" d="M19.0134 4.80664C19.0134 4.80664 19.2671 4.97252 19.3799 5.07734C19.3799 5.07734 19.8013 5.017 19.9119 5.01427C19.9119 5.01427 19.8842 5.18945 19.6611 5.46233C19.6611 5.46233 19.7667 5.73558 19.707 5.98022C19.707 5.98022 19.4839 5.80048 19.2509 5.719C19.2509 5.719 18.9146 5.83803 18.6823 5.8517C18.6823 5.8517 18.7906 5.649 18.8272 5.53908C18.8272 5.53908 18.551 5.41348 18.4543 5.3803L18.9515 5.19856C18.9515 5.19856 19.0528 5.0119 19.0134 4.80664Z" fill="#22505F"/>
<path fill-rule="evenodd" clip-rule="evenodd" d="M0.615793 0.221313C0.615793 0.221313 0.869491 0.387379 0.981946 0.492012C0.981946 0.492012 1.40298 0.431675 1.51399 0.429123C1.51399 0.429123 1.48628 0.604302 1.26317 0.877188C1.26317 0.877188 1.36861 1.15026 1.30923 1.39489C1.30923 1.39489 1.08594 1.21515 0.852938 1.13403C0.852938 1.13403 0.516652 1.25289 0.284365 1.26656C0.284365 1.26656 0.392682 1.06403 0.429207 0.953932C0.429207 0.953932 0.153018 0.828335 0.0563965 0.795341L0.553537 0.613417C0.553537 0.613417 0.654837 0.426753 0.615793 0.221313Z" fill="#22505F"/>
<path fill-rule="evenodd" clip-rule="evenodd" d="M15.9637 13.877C15.9637 13.877 16.2174 14.0428 16.3298 14.1478C16.3298 14.1478 16.7512 14.0873 16.8619 14.0848C16.8619 14.0848 16.8345 14.2599 16.6111 14.5328C16.6111 14.5328 16.7169 14.8059 16.6571 15.0507C16.6571 15.0507 16.4338 14.8708 16.2008 14.7897C16.2008 14.7897 15.8646 14.9083 15.6323 14.9222C15.6323 14.9222 15.7406 14.7197 15.7771 14.6098C15.7771 14.6098 15.5013 14.484 15.4043 14.4508L15.9014 14.2689C15.9014 14.2689 16.0031 14.0824 15.9637 13.877Z" fill="#22505F"/>
<path fill-rule="evenodd" clip-rule="evenodd" d="M2.36177 18.7612C2.36177 18.7612 2.61583 18.9269 2.72828 19.0317C2.72828 19.0317 3.14968 18.9714 3.26033 18.969C3.26033 18.969 3.23298 19.1442 3.00951 19.4169C3.00951 19.4169 3.11513 19.69 3.05539 19.935C3.05539 19.935 2.83192 19.7551 2.59928 19.6738C2.59928 19.6738 2.26299 19.7924 2.0307 19.8063C2.0307 19.8063 2.13938 19.6038 2.1759 19.4937C2.1759 19.4937 1.89972 19.3681 1.80273 19.3351L2.29988 19.153C2.29988 19.153 2.40117 18.9665 2.36177 18.7612Z" fill="#22505F"/>
<path fill-rule="evenodd" clip-rule="evenodd" d="M7.21264 17.2485C7.21264 17.2485 7.62378 17.5181 7.8073 17.688C7.8073 17.688 8.49175 17.5903 8.67132 17.5858C8.67132 17.5858 8.62706 17.8703 8.26414 18.3135C8.26414 18.3135 8.43561 18.7573 8.33899 19.1547C8.33899 19.1547 7.9759 18.8631 7.59751 18.7311C7.59751 18.7311 7.05143 18.924 6.6743 18.9462C6.6743 18.9462 6.84991 18.617 6.90928 18.4383C6.90928 18.4383 6.4609 18.2344 6.30347 18.1804L7.1117 17.8851C7.1117 17.8851 7.27634 17.5818 7.21264 17.2485Z" fill="#22505F"/>
<path fill-rule="evenodd" clip-rule="evenodd" d="M4.80188 9.19971C4.80188 9.19971 5.21338 9.46913 5.39726 9.63939C5.39726 9.63939 6.08099 9.54113 6.26092 9.53694C6.26092 9.53694 6.21666 9.82149 5.85338 10.265C5.85338 10.265 6.02521 10.7085 5.92823 11.1061C5.92823 11.1061 5.5655 10.8141 5.18711 10.6819C5.18711 10.6819 4.64085 10.8748 4.2639 10.8972C4.2639 10.8972 4.43951 10.568 4.49924 10.3891C4.49924 10.3891 4.0505 10.1852 3.89307 10.1317L4.70094 9.83626C4.70094 9.83626 4.86558 9.53293 4.80188 9.19971Z" fill="#22505F"/>
<path fill-rule="evenodd" clip-rule="evenodd" d="M9.03264 9.30615C9.03264 9.30615 10.7142 10.407 11.4627 11.1021C11.4627 11.1021 14.2594 10.7019 14.9928 10.6837C14.9928 10.6837 14.811 11.8465 13.3281 13.6574C13.3281 13.6574 14.0301 15.4704 13.6327 17.0943C13.6327 17.0943 12.1515 15.9021 10.6059 15.362C10.6059 15.362 8.37338 16.1502 6.83338 16.2417C6.83338 16.2417 7.55147 14.8966 7.79491 14.1667C7.79491 14.1667 5.96127 13.3333 5.31982 13.1133L8.62042 11.907C8.62042 11.907 9.29227 10.6677 9.03264 9.30615Z" fill="#22505F"/>
<path fill-rule="evenodd" clip-rule="evenodd" d="M13.3366 7.25989C13.3366 7.25989 14.3381 7.91522 14.7841 8.32956C14.7841 8.32956 16.4499 8.09112 16.8868 8.08037C16.8868 8.08037 16.7788 8.77307 15.8954 9.85167C15.8954 9.85167 16.3132 10.9315 16.0767 11.899C16.0767 11.899 15.1942 11.1889 14.2735 10.867C14.2735 10.867 12.9436 11.3366 12.0266 11.3911C12.0266 11.3911 12.4542 10.5898 12.5989 10.1548C12.5989 10.1548 11.5067 9.65862 11.1248 9.52756L13.0906 8.80898C13.0906 8.80898 13.4908 8.07071 13.3366 7.25989Z" fill="#22505F"/>
<path fill-rule="evenodd" clip-rule="evenodd" d="M41.3716 47.3415C41.3716 47.3415 30.1135 42.6469 10.9055 43.9315C10.9055 43.9315 4.07558 43.9841 10.8461 47.9668C12.3839 48.8914 14.9119 49.9958 29.36 48.8529C32.9407 48.5691 41.3716 47.3415 41.3716 47.3415Z" fill="white"/>
<path fill-rule="evenodd" clip-rule="evenodd" d="M41.3639 47.3401C41.3639 47.3401 30.169 42.6704 11.0626 43.9472C11.0626 43.9472 4.26924 43.9991 11.0007 47.9606C12.5297 48.8806 15.0435 49.9791 29.4153 48.8429C32.9769 48.5613 41.3639 47.3401 41.3639 47.3401Z" fill="white"/>
<path fill-rule="evenodd" clip-rule="evenodd" d="M41.3561 47.339C41.3561 47.339 30.2245 42.6936 11.2196 43.9625C11.2196 43.9625 4.46245 44.0137 11.1552 47.9546C12.6753 48.8695 15.1748 49.9623 29.4703 48.8329C33.0134 48.5527 41.3561 47.339 41.3561 47.339Z" fill="white"/>
<path fill-rule="evenodd" clip-rule="evenodd" d="M41.3485 47.338C41.3485 47.338 30.2801 42.717 11.3768 43.978C11.3768 43.978 4.65615 44.0287 11.3097 47.9487C12.8211 48.8586 15.3064 49.9456 29.5256 48.8233C33.0497 48.5446 41.3485 47.338 41.3485 47.338Z" fill="white"/>
<path fill-rule="evenodd" clip-rule="evenodd" d="M41.3404 47.3366C41.3404 47.3366 30.3356 42.7405 11.5339 43.9937C11.5339 43.9937 4.84936 44.0435 11.4642 47.9425C12.967 48.8475 15.4378 49.9289 29.5808 48.8135C33.0858 48.5367 41.3404 47.3366 41.3404 47.3366Z" fill="white"/>
<path fill-rule="evenodd" clip-rule="evenodd" d="M41.3326 47.3355C41.3326 47.3355 30.391 42.7637 11.6909 44.0091C11.6909 44.0091 5.04312 44.0585 11.6188 47.9365C13.1123 48.8368 15.5693 49.9121 29.6362 48.8034C33.1223 48.5282 41.3326 47.3355 41.3326 47.3355Z" fill="white"/>
<path fill-rule="evenodd" clip-rule="evenodd" d="M41.3247 47.334C41.3247 47.334 30.4465 42.7872 11.8475 44.0244C11.8475 44.0244 5.23623 44.0731 11.773 47.9301C13.2581 48.8259 15.7001 49.895 29.691 48.7934C33.1584 48.52 41.3247 47.334 41.3247 47.334Z" fill="white"/>
<path fill-rule="evenodd" clip-rule="evenodd" d="M41.3167 47.333C41.3167 47.333 30.5021 42.8102 12.0046 44.04C12.0046 44.04 5.42988 44.0877 11.9276 47.924C13.4036 48.8148 15.8315 49.8783 29.7461 48.7838C33.1946 48.5119 41.3167 47.333 41.3167 47.333Z" fill="white"/>
<path fill-rule="evenodd" clip-rule="evenodd" d="M41.3089 47.3316C41.3089 47.3316 30.5575 42.8334 12.1617 44.0553C12.1617 44.0553 5.6231 44.1027 12.0822 47.918C13.5495 48.8037 15.963 49.8615 29.8016 48.7738C33.2309 48.5037 41.3089 47.3316 41.3089 47.3316Z" fill="white"/>
<path fill-rule="evenodd" clip-rule="evenodd" d="M41.3012 47.3305C41.3012 47.3305 30.6131 42.8569 12.3188 44.071C12.3188 44.071 5.8167 44.1176 12.2369 47.9118C13.6948 48.793 16.0944 49.8448 29.8567 48.7638C33.267 48.4959 41.3012 47.3305 41.3012 47.3305Z" fill="white"/>
<path fill-rule="evenodd" clip-rule="evenodd" d="M41.2935 47.3294C41.2935 47.3294 30.6686 42.8805 12.4759 44.0867C12.4759 44.0867 6.01002 44.1322 12.3912 47.9058C13.8408 48.7821 16.226 49.828 29.912 48.7538C33.3037 48.4877 41.2935 47.3294 41.2935 47.3294Z" fill="white"/>
<path fill-rule="evenodd" clip-rule="evenodd" d="M41.2854 47.328C41.2854 47.328 30.7242 42.9035 12.633 44.102C12.633 44.102 6.20323 44.1473 12.5457 47.8999C13.9866 48.771 16.3573 49.8113 29.9672 48.7442C33.3398 48.4793 41.2854 47.328 41.2854 47.328Z" fill="white"/>
<path fill-rule="evenodd" clip-rule="evenodd" d="M41.2778 47.3269C41.2778 47.3269 30.7798 42.927 12.7902 44.1177C12.7902 44.1177 6.39718 44.1622 12.7006 47.8937C14.1323 48.7603 16.4888 49.7946 30.0224 48.7344C33.3761 48.4712 41.2778 47.3269 41.2778 47.3269Z" fill="white"/>
<path fill-rule="evenodd" clip-rule="evenodd" d="M41.2699 47.3258C41.2699 47.3258 30.8352 42.9502 12.9471 44.1329C12.9471 44.1329 6.59059 44.1768 12.855 47.8877C14.2778 48.7493 16.6201 49.7778 30.0775 48.7244C33.4121 48.463 41.2699 47.3258 41.2699 47.3258Z" fill="white"/>
<path fill-rule="evenodd" clip-rule="evenodd" d="M41.2622 47.3244C41.2622 47.3244 30.8907 42.9737 13.1042 44.1486C13.1042 44.1486 6.78391 44.1916 13.0092 47.8813C14.4235 48.7383 16.7516 49.7611 30.1326 48.7144C33.4487 48.4548 41.2622 47.3244 41.2622 47.3244Z" fill="white"/>
<path fill-rule="evenodd" clip-rule="evenodd" d="M41.2542 47.3233C41.2542 47.3233 30.9463 42.9969 13.2613 44.1639C13.2613 44.1639 6.97752 44.2062 13.164 47.8751C14.5692 48.7275 16.8831 49.7443 30.1879 48.7047C33.4849 48.4466 41.2542 47.3233 41.2542 47.3233Z" fill="white"/>
<path fill-rule="evenodd" clip-rule="evenodd" d="M41.2464 47.322C41.2464 47.322 31.0018 43.0203 13.4184 44.1797C13.4184 44.1797 7.17073 44.2212 13.3185 47.8692C14.7151 48.7165 17.0144 49.7276 30.2431 48.6948C33.521 48.4385 41.2464 47.322 41.2464 47.322Z" fill="white"/>
<path fill-rule="evenodd" clip-rule="evenodd" d="M41.2387 47.3209C41.2387 47.3209 31.0573 43.0438 13.5755 44.1952C13.5755 44.1952 7.364 44.2362 13.4729 47.8632C14.8605 48.7056 17.146 49.7109 30.2982 48.6848C33.5574 48.4303 41.2387 47.3209 41.2387 47.3209Z" fill="white"/>
<path fill-rule="evenodd" clip-rule="evenodd" d="M41.2309 47.3194C41.2309 47.3194 31.1129 43.067 13.7325 44.2105C13.7325 44.2105 7.55776 44.2508 13.6275 47.857C15.0064 48.6945 17.2773 49.6941 30.3534 48.6751C33.5939 48.4221 41.2309 47.3194 41.2309 47.3194Z" fill="white"/>
<path fill-rule="evenodd" clip-rule="evenodd" d="M41.2232 47.3184C41.2232 47.3184 31.1683 43.0906 13.8893 44.2259C13.8893 44.2259 7.75107 44.2658 13.7821 47.851C15.1519 48.6837 17.4083 49.6774 30.4085 48.6653C33.6301 48.4139 41.2232 47.3184 41.2232 47.3184Z" fill="white"/>
<path fill-rule="evenodd" clip-rule="evenodd" d="M41.2153 47.3173C41.2153 47.3173 31.224 43.1136 14.0465 44.2416C14.0465 44.2416 7.94478 44.2804 13.9366 47.8451C15.2979 48.6728 17.54 49.6607 30.4638 48.6553C33.6664 48.4058 41.2153 47.3173 41.2153 47.3173Z" fill="white"/>
<path fill-rule="evenodd" clip-rule="evenodd" d="M41.2075 47.3159C41.2075 47.3159 31.2794 43.1371 14.2036 44.2573C14.2036 44.2573 8.138 44.2954 14.0911 47.8389C15.4434 48.6618 17.6713 49.6439 30.5191 48.6453C33.7025 48.3976 41.2075 47.3159 41.2075 47.3159Z" fill="white"/>
<path fill-rule="evenodd" clip-rule="evenodd" d="M41.1998 47.3148C41.1998 47.3148 31.3351 43.1603 14.3607 44.2726C14.3607 44.2726 8.33166 44.3103 14.2457 47.8325C15.5892 48.6506 17.8029 49.6273 30.5742 48.6357C33.7391 48.3894 41.1998 47.3148 41.1998 47.3148Z" fill="white"/>
<path fill-rule="evenodd" clip-rule="evenodd" d="M41.192 47.3138C41.192 47.3138 31.3904 43.1838 14.5177 44.2881C14.5177 44.2881 8.52483 44.3248 14.4004 47.8265C15.7347 48.6399 17.9342 49.6106 30.6293 48.6257C33.7752 48.3811 41.192 47.3138 41.192 47.3138Z" fill="white"/>
<path fill-rule="evenodd" clip-rule="evenodd" d="M41.1838 47.3123C41.1838 47.3123 31.446 43.207 14.6747 44.3035C14.6747 44.3035 8.71835 44.3397 14.5545 47.8204C15.8804 48.629 18.0656 49.5938 30.6843 48.6157C33.8113 48.3729 41.1838 47.3123 41.1838 47.3123Z" fill="white"/>
<path fill-rule="evenodd" clip-rule="evenodd" d="M41.1762 47.3113C41.1762 47.3113 31.5015 43.2304 14.8319 44.3192C14.8319 44.3192 8.91192 44.3548 14.7092 47.8144C16.0265 48.6179 18.1971 49.5771 30.7397 48.6063C33.8478 48.3647 41.1762 47.3113 41.1762 47.3113Z" fill="white"/>
<path fill-rule="evenodd" clip-rule="evenodd" d="M41.1685 47.3099C41.1685 47.3099 31.5571 43.2536 14.989 44.3345C14.989 44.3345 9.10553 44.3694 14.8639 47.8082C16.1718 48.6068 18.3285 49.5604 30.7949 48.5963C33.8839 48.3566 41.1685 47.3099 41.1685 47.3099Z" fill="white"/>
<path fill-rule="evenodd" clip-rule="evenodd" d="M41.1606 47.3088C41.1606 47.3088 31.6126 43.2771 15.1459 44.3502C15.1459 44.3502 9.29861 44.3843 15.018 47.8022C16.3176 48.5963 18.4598 49.5437 30.8498 48.5863C33.9203 48.3484 41.1606 47.3088 41.1606 47.3088Z" fill="white"/>
<path fill-rule="evenodd" clip-rule="evenodd" d="M41.1526 47.3074C41.1526 47.3074 31.668 43.3007 15.3031 44.3654C15.3031 44.3654 9.49228 44.399 15.1726 47.7963C16.463 48.5852 18.5912 49.5269 30.9051 48.5763C33.9565 48.3402 41.1526 47.3074 41.1526 47.3074Z" fill="white"/>
<path fill-rule="evenodd" clip-rule="evenodd" d="M41.145 47.3063C41.145 47.3063 31.7238 43.3237 15.4603 44.3812C15.4603 44.3812 9.68569 44.414 15.3275 47.7901C16.6091 48.5742 18.7229 49.5102 30.9604 48.5667C33.9929 48.3321 41.145 47.3063 41.145 47.3063Z" fill="white"/>
<path fill-rule="evenodd" clip-rule="evenodd" d="M41.1371 47.3053C41.1371 47.3053 31.779 43.3472 15.6172 44.3965C15.6172 44.3965 9.87911 44.4289 15.4819 47.7838C16.7547 48.5634 18.8541 49.4935 31.0154 48.5567C34.0292 48.3239 41.1371 47.3053 41.1371 47.3053Z" fill="white"/>
<path fill-rule="evenodd" clip-rule="evenodd" d="M41.129 47.3038C41.129 47.3038 31.8347 43.3704 15.7743 44.4122C15.7743 44.4122 10.0725 44.4435 15.6361 47.7778C16.9003 48.5525 18.9856 49.4767 31.0707 48.5467C34.0654 48.3157 41.129 47.3038 41.129 47.3038Z" fill="white"/>
<path fill-rule="evenodd" clip-rule="evenodd" d="M41.1213 47.3028C41.1213 47.3028 31.8901 43.394 15.9314 44.4275C15.9314 44.4275 10.2662 44.4583 15.7908 47.7716C17.046 48.5414 19.117 49.46 31.1257 48.5369C34.1016 48.3075 41.1213 47.3028 41.1213 47.3028Z" fill="white"/>
<path fill-rule="evenodd" clip-rule="evenodd" d="M41.1136 47.3013C41.1136 47.3013 31.9457 43.4169 16.0882 44.443C16.0882 44.443 10.4595 44.4732 15.9455 47.7656C17.1917 48.5303 19.2484 49.4428 31.1814 48.5272C34.1378 48.2997 41.1136 47.3013 41.1136 47.3013Z" fill="white"/>
<path fill-rule="evenodd" clip-rule="evenodd" d="M41.1058 47.3002C41.1058 47.3002 32.0011 43.4404 16.2452 44.4587C16.2452 44.4587 10.653 44.4878 16.0996 47.7596C17.3373 48.5195 19.3795 49.426 31.2364 48.5172C34.1741 48.2913 41.1058 47.3002 41.1058 47.3002Z" fill="white"/>
<path fill-rule="evenodd" clip-rule="evenodd" d="M41.0982 47.2991C41.0982 47.2991 32.0569 43.4636 16.4024 44.474C16.4024 44.474 10.8464 44.5028 16.2545 47.7534C17.4831 48.5086 19.511 49.4093 31.2918 48.5071C34.2108 48.2831 41.0982 47.2991 41.0982 47.2991Z" fill="white"/>
<path fill-rule="evenodd" clip-rule="evenodd" d="M41.09 47.2977C41.09 47.2977 32.1123 43.4871 16.5593 44.4897C16.5593 44.4897 11.0398 44.5174 16.4089 47.7474C17.6286 48.4975 19.6424 49.3926 31.3469 48.4972C34.2468 48.2749 41.09 47.2977 41.09 47.2977Z" fill="white"/>
<path fill-rule="evenodd" clip-rule="evenodd" d="M41.0825 47.2967C41.0825 47.2967 32.1679 43.5105 16.7166 44.5051C16.7166 44.5051 11.2333 44.5325 16.5637 47.7413C17.7748 48.4868 19.774 49.3759 31.4022 48.4876C34.2832 48.2668 41.0825 47.2967 41.0825 47.2967Z" fill="white"/>
<path fill-rule="evenodd" clip-rule="evenodd" d="M41.0747 47.2953C41.0747 47.2953 32.2235 43.5337 16.8737 44.5206C16.8737 44.5206 11.4267 44.5474 16.718 47.7349C17.9201 48.4759 19.9054 49.3591 31.4574 48.4776C34.3193 48.2586 41.0747 47.2953 41.0747 47.2953Z" fill="white"/>
<path fill-rule="evenodd" clip-rule="evenodd" d="M41.0667 47.2942C41.0667 47.2942 32.279 43.5573 17.0308 44.536C17.0308 44.536 11.6204 44.562 16.8726 47.729C18.0661 48.4649 20.0369 49.3424 31.5125 48.4676C34.3559 48.2505 41.0667 47.2942 41.0667 47.2942Z" fill="white"/>
<path fill-rule="evenodd" clip-rule="evenodd" d="M41.0589 47.2931C41.0589 47.2931 32.3346 43.5804 17.1879 44.5517C17.1879 44.5517 11.8136 44.577 17.0272 47.7228C18.2115 48.4537 20.1682 49.3256 31.5677 48.4581C34.392 48.2423 41.0589 47.2931 41.0589 47.2931Z" fill="white"/>
<path fill-rule="evenodd" clip-rule="evenodd" d="M41.0511 47.2917C41.0511 47.2917 32.3899 43.604 17.3448 44.567C17.3448 44.567 12.0071 44.5915 17.1815 47.7168C18.3573 48.443 20.2996 49.3089 31.6228 48.4481C34.4281 48.2341 41.0511 47.2917 41.0511 47.2917Z" fill="white"/>
<path fill-rule="evenodd" clip-rule="evenodd" d="M41.0433 47.2907C41.0433 47.2907 32.4455 43.627 17.5019 44.5828C17.5019 44.5828 12.2003 44.6065 17.336 47.7108C18.5028 48.4322 20.4309 49.2922 31.6779 48.4382C34.4642 48.226 41.0433 47.2907 41.0433 47.2907Z" fill="white"/>
<path fill-rule="evenodd" clip-rule="evenodd" d="M41.0356 47.2891C41.0356 47.2891 32.5009 43.6505 17.659 44.5978C17.659 44.5978 12.3939 44.6213 17.4908 47.7046C18.6486 48.421 20.5625 49.2754 31.7331 48.4281C34.501 48.2177 41.0356 47.2891 41.0356 47.2891Z" fill="white"/>
<path fill-rule="evenodd" clip-rule="evenodd" d="M41.0275 47.2882C41.0275 47.2882 32.5565 43.6738 17.8161 44.6136C17.8161 44.6136 12.5872 44.6361 17.6453 47.6987C18.7945 48.4103 20.6938 49.2589 31.7882 48.4185C34.5371 48.2096 41.0275 47.2882 41.0275 47.2882Z" fill="white"/>
<path fill-rule="evenodd" clip-rule="evenodd" d="M41.0199 47.2871C41.0199 47.2871 32.612 43.6973 17.9732 44.629C17.9732 44.629 12.7811 44.651 17.7996 47.6927C18.94 48.3994 20.8255 49.2422 31.8435 48.4086C34.5734 48.2015 41.0199 47.2871 41.0199 47.2871Z" fill="white"/>
<path fill-rule="evenodd" clip-rule="evenodd" d="M41.0121 47.2856C41.0121 47.2856 32.6675 43.7202 18.1302 44.6446C18.1302 44.6446 12.9742 44.6659 17.9543 47.6861C19.0858 48.3883 20.9567 49.2253 31.8987 48.3985C34.6095 48.1932 41.0121 47.2856 41.0121 47.2856Z" fill="white"/>
<path fill-rule="evenodd" clip-rule="evenodd" d="M41.004 47.2845C41.004 47.2845 32.7232 43.7438 18.2874 44.6603C18.2874 44.6603 13.1679 44.6806 18.1089 47.6801C19.2313 48.3772 21.0882 49.2086 31.9538 48.3887C34.6461 48.1849 41.004 47.2845 41.004 47.2845Z" fill="white"/>
<path fill-rule="evenodd" clip-rule="evenodd" d="M40.9961 47.2831C40.9961 47.2831 32.7785 43.7673 18.4443 44.6755C18.4443 44.6755 13.361 44.6956 18.263 47.6742C19.3771 48.3665 21.2195 49.1919 32.0089 48.3791C34.6821 48.1767 40.9961 47.2831 40.9961 47.2831Z" fill="white"/>
<path fill-rule="evenodd" clip-rule="evenodd" d="M40.9885 47.2821C40.9885 47.2821 32.8342 43.7905 18.6012 44.6912C18.6012 44.6912 13.5547 44.7102 18.4178 47.668C19.5229 48.3556 21.3506 49.1751 32.0641 48.3691C34.7184 48.1685 40.9885 47.2821 40.9885 47.2821Z" fill="white"/>
<path fill-rule="evenodd" clip-rule="evenodd" d="M40.9808 47.2811C40.9808 47.2811 32.8896 43.8139 18.7582 44.7066C18.7582 44.7066 13.748 44.7252 18.5724 47.662C19.6685 48.3445 21.4822 49.1585 32.1193 48.3591C34.7546 48.1604 40.9808 47.2811 40.9808 47.2811Z" fill="white"/>
<path fill-rule="evenodd" clip-rule="evenodd" d="M40.973 47.2796C40.973 47.2796 32.9452 43.8371 18.9153 44.7223C18.9153 44.7223 13.9417 44.74 18.7269 47.6559C19.8142 48.3334 21.6135 49.1417 32.1746 48.3491C34.7913 48.1522 40.973 47.2796 40.973 47.2796Z" fill="white"/>
<path fill-rule="evenodd" clip-rule="evenodd" d="M40.965 47.2785C40.965 47.2785 33.0007 43.8605 19.0724 44.7375C19.0724 44.7375 14.135 44.7545 18.8814 47.6498C19.9599 48.3228 21.7451 49.1249 32.2297 48.3394C34.8275 48.144 40.965 47.2785 40.965 47.2785Z" fill="white"/>
<path fill-rule="evenodd" clip-rule="evenodd" d="M40.9551 47.2775C40.9551 47.2775 33.0199 43.872 19.1433 44.7453C19.1433 44.7453 14.2239 44.7621 18.953 47.6466C20.0271 48.3171 21.8057 49.1164 32.2518 48.3342C34.8401 48.1397 40.9551 47.2775 40.9551 47.2775Z" fill="white"/>
<path fill-rule="evenodd" clip-rule="evenodd" d="M40.945 47.2764C40.945 47.2764 33.0394 43.8831 19.2142 44.7528C19.2142 44.7528 14.3132 44.7696 19.024 47.6435C20.0944 48.3114 21.8667 49.1079 32.2741 48.3288C34.8525 48.1352 40.945 47.2764 40.945 47.2764Z" fill="white"/>
<path fill-rule="evenodd" clip-rule="evenodd" d="M40.9349 47.2753C40.9349 47.2753 33.0589 43.8944 19.2849 44.7603C19.2849 44.7603 14.4018 44.7767 19.0954 47.6402C20.162 48.3056 21.9275 49.0993 32.2962 48.3235C34.8652 48.1304 40.9349 47.2753 40.9349 47.2753Z" fill="white"/>
<path fill-rule="evenodd" clip-rule="evenodd" d="M40.9249 47.2743C40.9249 47.2743 33.0785 43.9058 19.3557 44.7682C19.3557 44.7682 14.491 44.7842 19.1666 47.6371C20.2293 48.3004 21.9882 49.0908 32.3183 48.3186C34.8777 48.1263 40.9249 47.2743 40.9249 47.2743Z" fill="white"/>
<path fill-rule="evenodd" clip-rule="evenodd" d="M40.9146 47.2728C40.9146 47.2728 33.0977 43.9168 19.4262 44.7756C19.4262 44.7756 14.5798 44.7916 19.2378 47.6337C20.2967 48.2945 22.0488 49.0822 32.3403 48.3131C34.8899 48.1215 40.9146 47.2728 40.9146 47.2728Z" fill="white"/>
<path fill-rule="evenodd" clip-rule="evenodd" d="M40.9045 47.2718C40.9045 47.2718 33.1171 43.9283 19.4969 44.7832C19.4969 44.7832 14.6687 44.7992 19.3096 47.6311C20.364 48.2893 22.1098 49.0741 32.3625 48.3079C34.9027 48.1174 40.9045 47.2718 40.9045 47.2718Z" fill="white"/>
<path fill-rule="evenodd" clip-rule="evenodd" d="M40.8947 47.2707C40.8947 47.2707 33.1363 43.9394 19.568 44.7909C19.568 44.7909 14.7576 44.8062 19.381 47.6278C20.4313 48.2837 22.1704 49.0652 32.3846 48.3025C34.9153 48.1127 40.8947 47.2707 40.8947 47.2707Z" fill="white"/>
<path fill-rule="evenodd" clip-rule="evenodd" d="M40.8846 47.27C40.8846 47.27 33.1561 43.9507 19.6387 44.7983C19.6387 44.7983 14.8467 44.8136 19.4525 47.6245C20.4989 48.2778 22.2315 49.0569 32.4069 48.2975C34.9277 48.1085 40.8846 47.27 40.8846 47.27Z" fill="white"/>
<path fill-rule="evenodd" clip-rule="evenodd" d="M40.8747 47.2685C40.8747 47.2685 33.1754 43.962 19.7093 44.8058C19.7093 44.8058 14.936 44.8211 19.5238 47.6214C20.5661 48.2722 22.2919 49.0484 32.4291 48.2921C34.9403 48.1038 40.8747 47.2685 40.8747 47.2685Z" fill="white"/>
<path fill-rule="evenodd" clip-rule="evenodd" d="M40.8646 47.2674C40.8646 47.2674 33.1948 43.9731 19.7803 44.8137C19.7803 44.8137 15.0249 44.8286 19.5951 47.6182C20.6337 48.2668 22.3527 49.0398 32.4511 48.2868C34.953 48.0994 40.8646 47.2674 40.8646 47.2674Z" fill="white"/>
<path fill-rule="evenodd" clip-rule="evenodd" d="M40.8543 47.2665C40.8543 47.2665 33.2144 43.9845 19.851 44.8212C19.851 44.8212 15.1136 44.8358 19.6664 47.615C20.7009 48.2612 22.4135 49.0314 32.4733 48.2814C34.9653 48.095 40.8543 47.2665 40.8543 47.2665Z" fill="white"/>
<path fill-rule="evenodd" clip-rule="evenodd" d="M40.8444 47.2654C40.8444 47.2654 33.2336 43.9958 19.9214 44.8287C19.9214 44.8287 15.2025 44.8433 19.7376 47.6121C20.768 48.2555 22.4741 49.0228 32.4953 48.2761C34.9778 48.0902 40.8444 47.2654 40.8444 47.2654Z" fill="white"/>
<path fill-rule="evenodd" clip-rule="evenodd" d="M40.8342 47.2643C40.8342 47.2643 33.2529 44.007 19.9924 44.8366C19.9924 44.8366 15.2915 44.8508 19.8089 47.609C20.8354 48.2497 22.535 49.0143 32.517 48.2707C34.9902 48.086 40.8342 47.2643 40.8342 47.2643Z" fill="white"/>
<path fill-rule="evenodd" clip-rule="evenodd" d="M40.8245 47.2632C40.8245 47.2632 33.2723 44.0183 20.0631 44.844C20.0631 44.844 15.3805 44.8582 19.8805 47.6057C20.903 48.2444 22.5958 49.0057 32.5393 48.2658C35.0029 48.0813 40.8245 47.2632 40.8245 47.2632Z" fill="white"/>
<path fill-rule="evenodd" clip-rule="evenodd" d="M40.8143 47.2621C40.8143 47.2621 33.2921 44.0298 20.1341 44.8517C20.1341 44.8517 15.4695 44.8654 19.9518 47.6025C20.9706 48.2387 22.6567 48.9975 32.5616 48.2605C35.0154 48.0772 40.8143 47.2621 40.8143 47.2621Z" fill="white"/>
<path fill-rule="evenodd" clip-rule="evenodd" d="M40.8041 47.261C40.8041 47.261 33.3114 44.0411 20.2049 44.8592C20.2049 44.8592 15.5586 44.8727 20.0232 47.5992C21.0378 48.233 22.7174 48.9886 32.5836 48.2551C35.0281 48.0724 40.8041 47.261 40.8041 47.261Z" fill="white"/>
<path fill-rule="evenodd" clip-rule="evenodd" d="M40.7942 47.26C40.7942 47.26 33.3308 44.0521 20.2754 44.8668C20.2754 44.8668 15.6474 44.8802 20.0944 47.5962C21.105 48.2274 22.7782 48.9805 32.6057 48.2499C35.0403 48.0683 40.7942 47.26 40.7942 47.26Z" fill="white"/>
<path fill-rule="evenodd" clip-rule="evenodd" d="M40.784 47.259C40.784 47.259 33.3501 44.0636 20.3464 44.8746C20.3464 44.8746 15.7364 44.8874 20.1657 47.5929C21.1722 48.222 22.8391 48.9718 32.6279 48.2444C35.053 48.0636 40.784 47.259 40.784 47.259Z" fill="white"/>
<path fill-rule="evenodd" clip-rule="evenodd" d="M40.7742 47.2579C40.7742 47.2579 33.3698 44.0749 20.417 44.8821C20.417 44.8821 15.8254 44.8949 20.2374 47.5896C21.2398 48.2164 22.8998 48.9632 32.6501 48.2395C35.0656 48.0592 40.7742 47.2579 40.7742 47.2579Z" fill="white"/>
<path fill-rule="evenodd" clip-rule="evenodd" d="M40.7639 47.2567C40.7639 47.2567 33.389 44.0858 20.4876 44.8895C20.4876 44.8895 15.9142 44.9023 20.3086 47.5869C21.307 48.2108 22.9602 48.9546 32.672 48.234C35.0781 48.0546 40.7639 47.2567 40.7639 47.2567Z" fill="white"/>
<path fill-rule="evenodd" clip-rule="evenodd" d="M40.7537 47.2557C40.7537 47.2557 33.4084 44.0974 20.5586 44.8971C20.5586 44.8971 16.003 44.9095 20.3801 47.5837C21.3742 48.2053 23.0209 48.9463 32.6942 48.2288C35.0905 48.0501 40.7537 47.2557 40.7537 47.2557Z" fill="white"/>
<path fill-rule="evenodd" clip-rule="evenodd" d="M40.744 47.2547C40.744 47.2547 33.4278 44.1088 20.6294 44.9048C20.6294 44.9048 16.0921 44.9171 20.4516 47.5805C21.4419 48.1997 23.082 48.9376 32.7166 48.2234C35.1033 48.0459 40.744 47.2547 40.744 47.2547Z" fill="white"/>
<path fill-rule="evenodd" clip-rule="evenodd" d="M40.7337 47.2536C40.7337 47.2536 33.4474 44.1198 20.7002 44.9122C20.7002 44.9122 16.1813 44.9244 20.5228 47.5771C21.5092 48.1938 23.1425 48.929 32.7385 48.218C35.1158 48.041 40.7337 47.2536 40.7337 47.2536Z" fill="white"/>
<path fill-rule="evenodd" clip-rule="evenodd" d="M40.7237 47.2526C40.7237 47.2526 33.4668 44.1312 20.7709 44.9202C20.7709 44.9202 16.2704 44.9318 20.5942 47.5741C21.5765 48.1886 23.2035 48.9205 32.7608 48.2127C35.1283 48.0369 40.7237 47.2526 40.7237 47.2526Z" fill="white"/>
<path fill-rule="evenodd" clip-rule="evenodd" d="M40.7134 47.2511C40.7134 47.2511 33.4861 44.1425 20.8416 44.9276C20.8416 44.9276 16.3591 44.9389 20.6655 47.5708C21.6439 48.1828 23.2642 48.9123 32.7829 48.2078C35.1409 48.0322 40.7134 47.2511 40.7134 47.2511Z" fill="white"/>
<path fill-rule="evenodd" clip-rule="evenodd" d="M40.7036 47.25C40.7036 47.25 33.5054 44.1537 20.9126 44.9352C20.9126 44.9352 16.4481 44.9465 20.7368 47.5676C21.7113 48.1772 23.3251 48.9038 32.8051 48.2025C35.1536 48.0281 40.7036 47.25 40.7036 47.25Z" fill="white"/>
<path fill-rule="evenodd" clip-rule="evenodd" d="M40.6937 47.2493C40.6937 47.2493 33.525 44.165 20.9831 44.943C20.9831 44.943 16.5369 44.9539 20.808 47.5646C21.7787 48.1718 23.3859 48.8952 32.827 48.197C35.1657 48.0233 40.6937 47.2493 40.6937 47.2493Z" fill="white"/>
<path fill-rule="evenodd" clip-rule="evenodd" d="M40.6836 47.248C40.6836 47.248 33.5444 44.1764 21.0538 44.9504C21.0538 44.9504 16.6259 44.9615 20.8796 47.5617C21.846 48.1661 23.4466 48.8867 32.8493 48.1918C35.1785 48.019 40.6836 47.248 40.6836 47.248Z" fill="white"/>
<path fill-rule="evenodd" clip-rule="evenodd" d="M40.6732 47.2468C40.6732 47.2468 33.5635 44.1874 21.1244 44.9578C21.1244 44.9578 16.7147 44.9685 20.9508 47.5583C21.9132 48.1604 23.507 48.8781 32.871 48.1863C35.1906 48.0144 40.6732 47.2468 40.6732 47.2468Z" fill="white"/>
<path fill-rule="evenodd" clip-rule="evenodd" d="M40.6632 47.2458C40.6632 47.2458 33.5831 44.1988 21.1956 44.9657C21.1956 44.9657 16.8041 44.9761 21.0223 47.5551C21.9809 48.1547 23.5683 48.8696 32.8932 48.1815C35.2038 48.0097 40.6632 47.2458 40.6632 47.2458Z" fill="white"/>
<path fill-rule="evenodd" clip-rule="evenodd" d="M40.6533 47.2447C40.6533 47.2447 33.6026 44.2101 21.266 44.9732C21.266 44.9732 16.8929 44.9836 21.0935 47.5518C22.0484 48.1494 23.629 48.861 32.9157 48.176C35.216 48.0055 40.6533 47.2447 40.6533 47.2447Z" fill="white"/>
<path fill-rule="evenodd" clip-rule="evenodd" d="M40.6431 47.2436C40.6431 47.2436 33.6222 44.2213 21.337 44.9807C21.337 44.9807 16.9819 44.9911 21.1648 47.5488C22.1154 48.1436 23.6898 48.8525 32.9375 48.1707C35.2287 48.0008 40.6431 47.2436 40.6431 47.2436Z" fill="white"/>
<path fill-rule="evenodd" clip-rule="evenodd" d="M40.6332 47.2426C40.6332 47.2426 33.6414 44.2327 21.4075 44.9886C21.4075 44.9886 17.0707 44.9981 21.236 47.5456C22.1828 48.138 23.7502 48.844 32.9596 48.1654C35.2409 47.9964 40.6332 47.2426 40.6332 47.2426Z" fill="white"/>
<path fill-rule="evenodd" clip-rule="evenodd" d="M40.6231 47.2415C40.6231 47.2415 33.6608 44.2441 21.4788 44.996C21.4788 44.996 17.1598 45.0055 21.3079 47.5426C22.2501 48.1327 23.811 48.8358 32.9818 48.1604C35.2537 47.992 40.6231 47.2415 40.6231 47.2415Z" fill="white"/>
<path fill-rule="evenodd" clip-rule="evenodd" d="M40.6133 47.2404C40.6133 47.2404 33.6805 44.2554 21.5494 45.0039C21.5494 45.0039 17.2489 45.013 21.3793 47.5395C22.3175 48.1268 23.8719 48.8272 33.004 48.1551C35.2664 47.9877 40.6133 47.2404 40.6133 47.2404Z" fill="white"/>
<path fill-rule="evenodd" clip-rule="evenodd" d="M40.6031 47.2394C40.6031 47.2394 33.6998 44.2664 21.62 45.0112C21.62 45.0112 17.3376 45.0205 21.4507 47.5363C22.3851 48.1213 23.9328 48.8187 33.0262 48.1497C35.2791 47.9831 40.6031 47.2394 40.6031 47.2394Z" fill="white"/>
<path fill-rule="evenodd" clip-rule="evenodd" d="M40.5928 47.2383C40.5928 47.2383 33.719 44.278 21.6905 45.0188C21.6905 45.0188 17.4264 45.0277 21.5219 47.5331C22.4521 48.1155 23.9934 48.8102 33.0481 48.1445C35.2913 47.9786 40.5928 47.2383 40.5928 47.2383Z" fill="white"/>
<path fill-rule="evenodd" clip-rule="evenodd" d="M40.5831 47.2372C40.5831 47.2372 33.7384 44.2888 21.7617 45.0266C21.7617 45.0266 17.5158 45.0351 21.5933 47.5298C22.5196 48.1102 24.0544 48.8016 33.0704 48.139C35.304 47.9742 40.5831 47.2372 40.5831 47.2372Z" fill="white"/>
<path fill-rule="evenodd" clip-rule="evenodd" d="M40.5728 47.2362C40.5728 47.2362 33.758 44.3004 21.8322 45.0341C21.8322 45.0341 17.6046 45.0427 21.6645 47.5267C22.587 48.1046 24.115 48.7931 33.0925 48.1341C35.3165 47.9695 40.5728 47.2362 40.5728 47.2362Z" fill="white"/>
<path fill-rule="evenodd" clip-rule="evenodd" d="M40.5627 47.2351C40.5627 47.2351 33.7775 44.3117 21.9033 45.0416C21.9033 45.0416 17.6935 45.0501 21.736 47.5234C22.6543 48.0987 24.176 48.7845 33.1146 48.1286C35.329 47.9653 40.5627 47.2351 40.5627 47.2351Z" fill="white"/>
<path fill-rule="evenodd" clip-rule="evenodd" d="M40.5528 47.234C40.5528 47.234 33.7967 44.3227 21.9738 45.0495C21.9738 45.0495 17.7823 45.0573 21.8072 47.5202C22.7215 48.0932 24.2362 48.776 33.1367 48.1234C35.3415 47.9606 40.5528 47.234 40.5528 47.234Z" fill="white"/>
<path fill-rule="evenodd" clip-rule="evenodd" d="M40.5427 47.2329C40.5427 47.2329 33.8161 44.3341 22.0445 45.0569C22.0445 45.0569 17.8714 45.0647 21.8786 47.5174C22.7892 48.0878 24.2976 48.7678 33.159 48.1181C35.3543 47.956 40.5427 47.2329 40.5427 47.2329Z" fill="white"/>
<path fill-rule="evenodd" clip-rule="evenodd" d="M40.5327 47.2319C40.5327 47.2319 33.8356 44.3455 22.1154 45.0643C22.1154 45.0643 17.9605 45.0722 21.9499 47.5143C22.8565 48.0821 24.358 48.7593 33.181 48.1127C35.3667 47.9518 40.5327 47.2319 40.5327 47.2319Z" fill="white"/>
<path fill-rule="evenodd" clip-rule="evenodd" d="M40.5226 47.2308C40.5226 47.2308 33.855 44.3568 22.1861 45.0721C22.1861 45.0721 18.0496 45.0792 22.0213 47.511C22.9237 48.0764 24.4187 48.7507 33.2031 48.1078C35.3792 47.9472 40.5226 47.2308 40.5226 47.2308Z" fill="white"/>
<path fill-rule="evenodd" clip-rule="evenodd" d="M40.5124 47.2297C40.5124 47.2297 33.8743 44.368 22.2567 45.0796C22.2567 45.0796 18.1383 45.0868 22.0926 47.5077C22.9912 48.071 24.4795 48.7422 33.2253 48.1024C35.3918 47.9429 40.5124 47.2297 40.5124 47.2297Z" fill="white"/>
<path fill-rule="evenodd" clip-rule="evenodd" d="M40.5026 47.2283C40.5026 47.2283 33.8938 44.3793 22.3277 45.0871C22.3277 45.0871 18.2273 45.0942 22.164 47.5046C23.0584 48.0654 24.5403 48.7336 33.2475 48.0971C35.4045 47.9383 40.5026 47.2283 40.5026 47.2283Z" fill="white"/>
<path fill-rule="evenodd" clip-rule="evenodd" d="M40.4924 47.2276C40.4924 47.2276 33.9135 44.3904 22.3983 45.095C22.3983 45.095 18.3163 45.1017 22.2357 47.5014C23.1258 48.0595 24.6012 48.7251 33.2696 48.0916C35.4168 47.9339 40.4924 47.2276 40.4924 47.2276Z" fill="white"/>
<path fill-rule="evenodd" clip-rule="evenodd" d="M40.4822 47.2262C40.4822 47.2262 33.9328 44.4019 22.469 45.1026C22.469 45.1026 18.4052 45.109 22.3066 47.4986C23.1933 48.0544 24.6618 48.7166 33.2914 48.0865C35.4294 47.9293 40.4822 47.2262 40.4822 47.2262Z" fill="white"/>
<path fill-rule="evenodd" clip-rule="evenodd" d="M40.4723 47.2251C40.4723 47.2251 33.9521 44.4132 22.54 45.1099C22.54 45.1099 18.4941 45.1164 22.3781 47.4953C23.2604 48.0487 24.7227 48.7081 33.3135 48.081C35.4417 47.9251 40.4723 47.2251 40.4723 47.2251Z" fill="white"/>
<path fill-rule="evenodd" clip-rule="evenodd" d="M40.4621 47.2241C40.4621 47.2241 33.9714 44.4243 22.6105 45.1177C22.6105 45.1177 18.5832 45.1239 22.4497 47.4922C23.3277 48.0429 24.7833 48.6995 33.3357 48.0761C35.4543 47.9204 40.4621 47.2241 40.4621 47.2241Z" fill="white"/>
<path fill-rule="evenodd" clip-rule="evenodd" d="M40.4523 47.2229C40.4523 47.2229 33.9911 44.4355 22.6815 45.1251C22.6815 45.1251 18.6722 45.1311 22.521 47.4888C23.3953 48.0371 24.8443 48.6912 33.3581 48.0705C35.467 47.9161 40.4523 47.2229 40.4523 47.2229Z" fill="white"/>
<path fill-rule="evenodd" clip-rule="evenodd" d="M40.4422 47.2219C40.4422 47.2219 34.0105 44.4469 22.7524 45.133C22.7524 45.133 18.7612 45.1383 22.5924 47.4856C23.4626 48.0318 24.905 48.6824 33.38 48.0653C35.4798 47.9115 40.4422 47.2219 40.4422 47.2219Z" fill="white"/>
<path fill-rule="evenodd" clip-rule="evenodd" d="M40.4319 47.2208C40.4319 47.2208 34.0297 44.4584 22.8229 45.1406C22.8229 45.1406 18.8501 45.1458 22.6636 47.4826C23.5298 48.0262 24.9658 48.6742 33.4021 48.0601C35.492 47.907 40.4319 47.2208 40.4319 47.2208Z" fill="white"/>
<path fill-rule="evenodd" clip-rule="evenodd" d="M40.4221 47.2197C40.4221 47.2197 34.049 44.4693 22.8939 45.148C22.8939 45.148 18.9391 45.1533 22.735 47.4793C23.5974 48.0205 25.0267 48.6656 33.4242 48.0546C35.5047 47.9026 40.4221 47.2197 40.4221 47.2197Z" fill="white"/>
<path fill-rule="evenodd" clip-rule="evenodd" d="M40.4119 47.2187C40.4119 47.2187 34.0687 44.4807 22.9644 45.1556C22.9644 45.1556 19.0278 45.1609 22.8063 47.4765C23.6649 48.0148 25.087 48.6572 33.4463 48.0498C35.5173 47.8981 40.4119 47.2187 40.4119 47.2187Z" fill="white"/>
<path fill-rule="evenodd" clip-rule="evenodd" d="M40.4016 47.2177C40.4016 47.2177 34.0879 44.4923 23.0349 45.1635C23.0349 45.1635 19.1166 45.168 22.8775 47.4733C23.7318 48.0095 25.1478 48.6487 33.4684 48.0444C35.5295 47.8938 40.4016 47.2177 40.4016 47.2177Z" fill="white"/>
<path fill-rule="evenodd" clip-rule="evenodd" d="M40.3918 47.2167C40.3918 47.2167 34.1072 44.5033 23.1061 45.1709C23.1061 45.1709 19.206 45.1756 22.949 47.4703C23.7993 48.0038 25.2085 48.6402 33.4906 48.0392C35.5422 47.8891 40.3918 47.2167 40.3918 47.2167Z" fill="white"/>
<path fill-rule="evenodd" clip-rule="evenodd" d="M40.3817 47.2154C40.3817 47.2154 34.1267 44.5146 23.1768 45.1785C23.1768 45.1785 19.295 45.1829 23.0204 47.4668C23.867 47.998 25.2695 48.6314 33.5128 48.0335C35.5549 47.8848 40.3817 47.2154 40.3817 47.2154Z" fill="white"/>
<path fill-rule="evenodd" clip-rule="evenodd" d="M40.3717 47.2144C40.3717 47.2144 34.1462 44.526 23.2473 45.1861C23.2473 45.1861 19.3839 45.1903 23.0916 47.4636C23.9341 47.9926 25.3301 48.6228 33.5349 48.0283C35.5671 47.8801 40.3717 47.2144 40.3717 47.2144Z" fill="white"/>
<path fill-rule="evenodd" clip-rule="evenodd" d="M40.3617 47.2133C40.3617 47.2133 34.1657 44.5369 23.3184 45.1935C23.3184 45.1935 19.4728 45.1974 23.1631 47.4603C24.0016 47.9869 25.3911 48.6144 33.5572 48.0232C35.5799 47.8759 40.3617 47.2133 40.3617 47.2133Z" fill="white"/>
<path fill-rule="evenodd" clip-rule="evenodd" d="M40.3514 47.2123C40.3514 47.2123 34.1851 44.5485 23.3888 45.2014C23.3888 45.2014 19.5616 45.2049 23.2343 47.4573C24.069 47.9813 25.4517 48.606 33.5791 48.018C35.5925 47.8712 40.3514 47.2123 40.3514 47.2123Z" fill="white"/>
<path fill-rule="evenodd" clip-rule="evenodd" d="M40.3415 47.2113C40.3415 47.2113 34.2044 44.5599 23.46 45.209C23.46 45.209 19.6505 45.2125 23.3056 47.4541C24.1362 47.976 25.5126 48.5976 33.6013 48.0126C35.6048 47.8668 40.3415 47.2113 40.3415 47.2113Z" fill="white"/>
<path fill-rule="evenodd" clip-rule="evenodd" d="M40.3314 47.2101C40.3314 47.2101 34.2241 44.5709 23.5306 45.2164C23.5306 45.2164 19.7395 45.2195 23.3773 47.4511C24.2035 47.9703 25.5733 48.5891 33.6235 48.0073C35.6174 47.8623 40.3314 47.2101 40.3314 47.2101Z" fill="white"/>
<path fill-rule="evenodd" clip-rule="evenodd" d="M40.3212 47.209C40.3212 47.209 34.2434 44.5822 23.6012 45.2241C23.6012 45.2241 19.8286 45.227 23.4488 47.448C24.2711 47.9646 25.6342 48.5804 33.6455 48.0023C35.6301 47.8578 40.3212 47.209 40.3212 47.209Z" fill="white"/>
<path fill-rule="evenodd" clip-rule="evenodd" d="M40.3114 47.208C40.3114 47.208 34.2627 44.5936 23.6722 45.2317C23.6722 45.2317 19.9176 45.2346 23.5201 47.4448C24.3383 47.9589 25.6951 48.5719 33.6674 47.997C35.6428 47.8535 40.3114 47.208 40.3114 47.208Z" fill="white"/>
<path fill-rule="evenodd" clip-rule="evenodd" d="M40.3013 47.2069C40.3013 47.2069 34.2822 44.6047 23.7431 45.239C23.7431 45.239 20.0067 45.242 23.5916 47.4415C24.4057 47.9535 25.7559 48.5633 33.6896 47.9916C35.6552 47.8487 40.3013 47.2069 40.3013 47.2069Z" fill="white"/>
<path fill-rule="evenodd" clip-rule="evenodd" d="M40.2913 47.2055C40.2913 47.2055 34.3017 44.6161 23.8135 45.247C23.8135 45.247 20.0955 45.2492 23.6628 47.4383C24.4732 47.9478 25.8163 48.5548 33.7117 47.9862C35.6677 47.8446 40.2913 47.2055 40.2913 47.2055Z" fill="white"/>
<path fill-rule="evenodd" clip-rule="evenodd" d="M40.2812 47.2045C40.2812 47.2045 34.3211 44.6275 23.8845 45.2546C23.8845 45.2546 20.1845 45.2566 23.7341 47.4353C24.5404 47.9423 25.8771 48.5464 33.7338 47.9811C35.6804 47.84 40.2812 47.2045 40.2812 47.2045Z" fill="white"/>
<path fill-rule="evenodd" clip-rule="evenodd" d="M40.271 47.2034C40.271 47.2034 34.3404 44.6386 23.9551 45.262C23.9551 45.262 20.2732 45.264 23.8054 47.4323C24.6077 47.9367 25.9379 48.5377 33.756 47.9759C35.6927 47.8354 40.271 47.2034 40.271 47.2034Z" fill="white"/>
<path fill-rule="evenodd" clip-rule="evenodd" d="M40.261 47.2023C40.261 47.2023 34.3595 44.6498 24.0257 45.2696C24.0257 45.2696 20.362 45.2715 23.8766 47.429C24.6751 47.931 25.9984 48.5295 33.778 47.9706C35.7052 47.831 40.261 47.2023 40.261 47.2023Z" fill="white"/>
<path fill-rule="evenodd" clip-rule="evenodd" d="M40.2509 47.2013C40.2509 47.2013 34.3793 44.6613 24.0968 45.2772C24.0968 45.2772 20.4515 45.2787 23.948 47.4259C24.7424 47.9255 26.0595 48.521 33.8001 47.9652C35.718 47.8265 40.2509 47.2013 40.2509 47.2013Z" fill="white"/>
<path fill-rule="evenodd" clip-rule="evenodd" d="M40.2408 47.2001C40.2408 47.2001 34.3987 44.6723 24.1675 45.2846C24.1675 45.2846 20.5405 45.2861 24.0196 47.4227C24.8098 47.9196 26.1202 48.5124 33.8224 47.9599C35.7304 47.8221 40.2408 47.2001 40.2408 47.2001Z" fill="white"/>
<path fill-rule="evenodd" clip-rule="evenodd" d="M40.2308 47.1991C40.2308 47.1991 34.4178 44.6837 24.2382 45.2926C24.2382 45.2926 20.6292 45.2936 24.0907 47.4195C24.8771 47.9144 26.1809 48.5039 33.8444 47.9545C35.7428 47.8176 40.2308 47.1991 40.2308 47.1991Z" fill="white"/>
<path fill-rule="evenodd" clip-rule="evenodd" d="M40.2208 47.1981C40.2208 47.1981 34.4374 44.6953 24.309 45.3001C24.309 45.3001 20.7182 45.3008 24.1622 47.4163C24.9449 47.9087 26.242 48.4954 33.8668 47.9493C35.7557 47.8133 40.2208 47.1981 40.2208 47.1981Z" fill="white"/>
<path fill-rule="evenodd" clip-rule="evenodd" d="M40.2108 47.197C40.2108 47.197 34.4569 44.7062 24.3796 45.3075C24.3796 45.3075 20.807 45.3083 24.2334 47.4132C25.0117 47.903 26.3025 48.4868 33.8887 47.9444C35.7678 47.8085 40.2108 47.197 40.2108 47.197Z" fill="white"/>
<path fill-rule="evenodd" clip-rule="evenodd" d="M40.2006 47.196C40.2006 47.196 34.4764 44.7176 24.4506 45.3155C24.4506 45.3155 20.896 45.3159 24.3047 47.41C25.0793 47.8974 26.3635 48.4784 33.9109 47.939C35.7805 47.8041 40.2006 47.196 40.2006 47.196Z" fill="white"/>
<path fill-rule="evenodd" clip-rule="evenodd" d="M40.1903 47.195C40.1903 47.195 34.4956 44.7291 24.5211 45.323C24.5211 45.323 20.9848 45.3234 24.3759 47.4071C25.1467 47.892 26.424 48.4699 33.933 47.9338C35.7931 47.7998 40.1903 47.195 40.1903 47.195Z" fill="white"/>
<path fill-rule="evenodd" clip-rule="evenodd" d="M40.1806 47.1937C40.1806 47.1937 34.515 44.7399 24.5918 45.3305C24.5918 45.3305 21.0742 45.3302 24.4478 47.4037C25.2138 47.8862 26.4846 48.4612 33.955 47.9281C35.8054 47.7951 40.1806 47.1937 40.1806 47.1937Z" fill="white"/>
<path fill-rule="evenodd" clip-rule="evenodd" d="M40.1705 47.1927C40.1705 47.1927 34.5348 44.7513 24.6629 45.3381C24.6629 45.3381 21.1631 45.3378 24.5193 47.4007C25.2814 47.8805 26.5454 48.4531 33.9774 47.923C35.818 47.7908 40.1705 47.1927 40.1705 47.1927Z" fill="white"/>
<path fill-rule="evenodd" clip-rule="evenodd" d="M40.1605 47.1917C40.1605 47.1917 34.5539 44.7629 24.7335 45.3457C24.7335 45.3457 21.2519 45.3453 24.5904 47.3975C25.3488 47.8753 26.6062 48.4446 33.9994 47.9179C35.8307 47.7863 40.1605 47.1917 40.1605 47.1917Z" fill="white"/>
<path fill-rule="evenodd" clip-rule="evenodd" d="M40.1504 47.1906C40.1504 47.1906 34.5734 44.7738 24.8042 45.3535C24.8042 45.3535 21.3409 45.3527 24.6619 47.3942C25.416 47.8696 26.667 48.436 34.0216 47.9126C35.8435 47.7819 40.1504 47.1906 40.1504 47.1906Z" fill="white"/>
<path fill-rule="evenodd" clip-rule="evenodd" d="M40.1403 47.1895C40.1403 47.1895 34.5927 44.7853 24.8752 45.361C24.8752 45.361 21.4299 45.3599 24.7332 47.391C25.4835 47.8638 26.7279 48.4275 34.0434 47.9074C35.8558 47.7774 40.1403 47.1895 40.1403 47.1895Z" fill="white"/>
<path fill-rule="evenodd" clip-rule="evenodd" d="M40.1303 47.1883C40.1303 47.1883 34.6123 44.7965 24.9457 45.3684C24.9457 45.3684 21.5188 45.3673 24.8044 47.3878C25.551 47.8584 26.7887 48.4188 34.0655 47.9018C35.8684 47.7729 40.1303 47.1883 40.1303 47.1883Z" fill="white"/>
<path fill-rule="evenodd" clip-rule="evenodd" d="M40.1201 47.1874C40.1201 47.1874 34.6315 44.8077 25.0164 45.3764C25.0164 45.3764 21.6075 45.3749 24.8757 47.385C25.6179 47.8528 26.8493 48.4104 34.0876 47.8967C35.8808 47.7686 40.1201 47.1874 40.1201 47.1874Z" fill="white"/>
<path fill-rule="evenodd" clip-rule="evenodd" d="M40.11 47.1863C40.11 47.1863 34.651 44.8191 25.0875 45.3836C25.0875 45.3836 21.6969 45.3824 24.9471 47.3817C25.6855 47.8471 26.9103 48.4018 34.1098 47.8916C35.8932 47.7638 40.11 47.1863 40.11 47.1863Z" fill="white"/>
<path fill-rule="evenodd" clip-rule="evenodd" d="M40.1003 47.1853C40.1003 47.1853 34.6704 44.8305 25.1581 45.3912C25.1581 45.3912 21.7859 45.3894 25.0187 47.3787C25.7532 47.8416 26.9711 48.3934 34.132 47.8864C35.906 47.7595 40.1003 47.1853 40.1003 47.1853Z" fill="white"/>
<path fill-rule="evenodd" clip-rule="evenodd" d="M40.0899 47.1842C40.0899 47.1842 34.6899 44.8414 25.2286 45.399C25.2286 45.399 21.8748 45.3968 25.0899 47.3754C25.82 47.8361 27.0319 48.3847 34.1541 47.8809C35.9185 47.7549 40.0899 47.1842 40.0899 47.1842Z" fill="white"/>
<path fill-rule="evenodd" clip-rule="evenodd" d="M40.0802 47.1828C40.0802 47.1828 34.7093 44.853 25.2998 45.4066C25.2998 45.4066 21.9636 45.4044 25.1613 47.3722C25.8877 47.8305 27.0926 48.3766 34.1762 47.8757C35.9311 47.7506 40.0802 47.1828 40.0802 47.1828Z" fill="white"/>
<path fill-rule="evenodd" clip-rule="evenodd" d="M40.0699 47.1816C40.0699 47.1816 34.7285 44.8642 25.3703 45.4139C25.3703 45.4139 22.0524 45.4114 25.2325 47.3688C25.9551 47.8245 27.153 48.3679 34.1983 47.8701C35.9434 47.746 40.0699 47.1816 40.0699 47.1816Z" fill="white"/>
<path fill-rule="evenodd" clip-rule="evenodd" d="M40.0597 47.1807C40.0597 47.1807 34.7481 44.8753 25.4413 45.422C25.4413 45.422 22.1414 45.4191 25.3038 47.3659C26.0221 47.8194 27.2138 48.3596 34.2205 47.8654C35.9561 47.7418 40.0597 47.1807 40.0597 47.1807Z" fill="white"/>
<path fill-rule="evenodd" clip-rule="evenodd" d="M40.0499 47.1796C40.0499 47.1796 34.7677 44.8867 25.5119 45.4292C25.5119 45.4292 22.2307 45.4265 25.3751 47.363C26.0896 47.8138 27.2746 48.351 34.2427 47.8599C35.9684 47.7372 40.0499 47.1796 40.0499 47.1796Z" fill="white"/>
<path fill-rule="evenodd" clip-rule="evenodd" d="M40.0398 47.1784C40.0398 47.1784 34.7871 44.8979 25.5826 45.4366C25.5826 45.4366 22.3197 45.4339 25.4467 47.3596C26.1572 47.8078 27.3356 48.3423 34.2648 47.8545C35.9811 47.7323 40.0398 47.1784 40.0398 47.1784Z" fill="white"/>
<path fill-rule="evenodd" clip-rule="evenodd" d="M40.0295 47.1773C40.0295 47.1773 34.8064 44.9095 25.6537 45.4445C25.6537 45.4445 22.4085 45.441 25.5183 47.3563C26.2242 47.8022 27.3963 48.3338 34.287 47.8492C35.9938 47.728 40.0295 47.1773 40.0295 47.1773Z" fill="white"/>
<path fill-rule="evenodd" clip-rule="evenodd" d="M40.0196 47.1764C40.0196 47.1764 34.8256 44.9206 25.7241 45.4522C25.7241 45.4522 22.4973 45.4485 25.5896 47.3535C26.2916 47.797 27.457 48.3254 34.309 47.844C36.0063 47.7237 40.0196 47.1764 40.0196 47.1764Z" fill="white"/>
<path fill-rule="evenodd" clip-rule="evenodd" d="M40.0095 47.1752C40.0095 47.1752 34.8454 44.9318 25.7949 45.4595C25.7949 45.4595 22.5864 45.4559 25.661 47.35C26.3593 47.7912 27.5179 48.3167 34.3312 47.8389C36.0187 47.7192 40.0095 47.1752 40.0095 47.1752Z" fill="white"/>
<path fill-rule="evenodd" clip-rule="evenodd" d="M39.9997 47.1742C39.9997 47.1742 34.8648 44.9434 25.8659 45.4674C25.8659 45.4674 22.6754 45.4634 25.7324 47.3468C26.4263 47.7856 27.5788 48.3082 34.3534 47.8335C36.0314 47.7147 39.9997 47.1742 39.9997 47.1742Z" fill="white"/>
<path fill-rule="evenodd" clip-rule="evenodd" d="M39.9894 47.1731C39.9894 47.1731 34.884 44.9543 25.9363 45.4749C25.9363 45.4749 22.7642 45.4705 25.8036 47.3437C26.4938 47.7801 27.6394 48.3 34.3755 47.8282C36.044 47.7103 39.9894 47.1731 39.9894 47.1731Z" fill="white"/>
<path fill-rule="evenodd" clip-rule="evenodd" d="M39.9793 47.172C39.9793 47.172 34.9033 44.9658 26.0071 45.4828C26.0071 45.4828 22.8534 45.478 25.8749 47.3408C26.5613 47.7745 27.7003 48.2915 34.3977 47.8228C36.0563 47.7058 39.9793 47.172 39.9793 47.172Z" fill="white"/>
<path fill-rule="evenodd" clip-rule="evenodd" d="M39.9695 47.171C39.9695 47.171 34.923 44.9771 26.0781 45.4901C26.0781 45.4901 22.9423 45.4855 25.9462 47.3376C26.6287 47.7687 27.761 48.2829 34.4194 47.8175C36.069 47.7014 39.9695 47.171 39.9695 47.171Z" fill="white"/>
<path fill-rule="evenodd" clip-rule="evenodd" d="M39.9594 47.1698C39.9594 47.1698 34.9424 44.988 26.1488 45.4975C26.1488 45.4975 23.0314 45.493 26.0178 47.3343C26.696 47.763 27.8219 48.2743 34.4417 47.8124C36.0817 47.6968 39.9594 47.1698 39.9594 47.1698Z" fill="white"/>
<path fill-rule="evenodd" clip-rule="evenodd" d="M39.949 47.1688C39.949 47.1688 34.9615 44.9996 26.2196 45.5054C26.2196 45.5054 23.1201 45.5001 26.0889 47.3312C26.7633 47.7576 27.8823 48.2656 34.4637 47.8072C36.0938 47.6922 39.949 47.1688 39.949 47.1688Z" fill="white"/>
<path fill-rule="evenodd" clip-rule="evenodd" d="M39.9392 47.1678C39.9392 47.1678 34.9809 45.011 26.2904 45.513C26.2904 45.513 23.2092 45.5077 26.1603 47.3281C26.8307 47.7521 27.9431 48.2574 34.4858 47.802C36.1066 47.6881 39.9392 47.1678 39.9392 47.1678Z" fill="white"/>
<path fill-rule="evenodd" clip-rule="evenodd" d="M39.929 47.1667C39.929 47.1667 35.0006 45.0219 26.361 45.5205C26.361 45.5205 23.2979 45.515 26.2316 47.3248C26.8979 47.7464 28.0039 48.2488 34.5079 47.7965C36.1192 47.6833 39.929 47.1667 39.929 47.1667Z" fill="white"/>
<mask id="mask0_3626_5438" style="mask-type:luminance" maskUnits="userSpaceOnUse" x="6" y="44" width="36" height="7">
<path d="M6.32422 50.3581H41.4968V44.7563H6.32422V50.3581Z" fill="#FEFEFE"/>
</mask>
<g mask="url(#mask0_3626_5438)">
<path fill-rule="evenodd" clip-rule="evenodd" d="M41.4968 48.3699C41.4968 48.3699 29.6832 43.7 9.52788 44.9778C9.52788 44.9778 2.36136 45.0302 9.46557 48.9918C11.0796 49.9115 13.7321 51.0102 28.8929 49.8732C32.6502 49.5909 41.4968 48.3699 41.4968 48.3699Z" fill="white"/>
</g>
<path fill-rule="evenodd" clip-rule="evenodd" d="M41.4854 48.3681C41.4854 48.3681 29.765 43.7327 9.75943 44.9994C9.75943 44.9994 2.64672 45.0511 9.69354 48.9834C11.2944 49.8963 13.9259 50.9867 28.9743 49.8595C32.7035 49.5797 41.4854 48.3681 41.4854 48.3681Z" fill="#FCFCFD"/>
<path fill-rule="evenodd" clip-rule="evenodd" d="M41.4737 48.3663C41.4737 48.3663 29.8467 43.7651 9.99088 45.0214C9.99088 45.0214 2.93179 45.0716 9.92121 48.9746C11.509 49.8811 14.1196 50.9629 29.0557 49.8456C32.7569 49.5683 41.4737 48.3663 41.4737 48.3663Z" fill="#F9FAFB"/>
<path fill-rule="evenodd" clip-rule="evenodd" d="M41.4623 48.3645C41.4623 48.3645 29.9288 43.798 10.2228 45.043C10.2228 45.043 3.21735 45.0925 10.1494 48.9661C11.7242 49.8657 14.3134 50.9395 29.1371 49.8318C32.8108 49.5565 41.4623 48.3645 41.4623 48.3645Z" fill="#F7F9FA"/>
<path fill-rule="evenodd" clip-rule="evenodd" d="M41.4507 48.3631C41.4507 48.3631 30.0104 43.8307 10.4542 45.0646C10.4542 45.0646 3.50236 45.113 10.3772 48.9577C11.9389 49.8505 14.5072 50.9162 29.2184 49.8179C32.864 49.5454 41.4507 48.3631 41.4507 48.3631Z" fill="#F5F8F9"/>
<path fill-rule="evenodd" clip-rule="evenodd" d="M41.439 48.3613C41.439 48.3613 30.0925 43.8631 10.6858 45.0862C10.6858 45.0862 3.78773 45.1339 10.6052 48.9492C12.1537 49.8349 14.7008 50.8928 29.2997 49.8041C32.9175 49.5339 41.439 48.3613 41.439 48.3613Z" fill="#F4F6F8"/>
<path fill-rule="evenodd" clip-rule="evenodd" d="M41.4277 48.3596C41.4277 48.3596 30.1744 43.8958 10.9176 45.108C10.9176 45.108 4.073 45.1544 10.833 48.9407C12.3687 49.8198 14.8949 50.8695 29.3812 49.7904C32.9711 49.5226 41.4277 48.3596 41.4277 48.3596Z" fill="#F2F5F7"/>
<path fill-rule="evenodd" clip-rule="evenodd" d="M41.4161 48.3577C41.4161 48.3577 30.2565 43.9283 11.1492 45.1292C11.1492 45.1292 4.35842 45.1753 11.0609 48.9322C12.5835 49.8046 15.0886 50.8461 29.4626 49.7764C33.0247 49.5108 41.4161 48.3577 41.4161 48.3577Z" fill="#F0F4F6"/>
<path fill-rule="evenodd" clip-rule="evenodd" d="M41.4044 48.356C41.4044 48.356 30.3382 43.961 11.3807 45.1512C11.3807 45.1512 4.64349 45.1958 11.2885 48.9237C12.7982 49.7892 15.2824 50.8228 29.5439 49.7627C33.0779 49.4996 41.4044 48.356 41.4044 48.356Z" fill="#EFF3F5"/>
<path fill-rule="evenodd" clip-rule="evenodd" d="M41.3931 48.3545C41.3931 48.3545 30.4202 43.9934 11.6125 45.1728C11.6125 45.1728 4.92916 45.2167 11.5166 48.9152C13.0133 49.774 15.4762 50.7992 29.6255 49.7488C33.1315 49.4882 41.3931 48.3545 41.3931 48.3545Z" fill="#EDF2F4"/>
<path fill-rule="evenodd" clip-rule="evenodd" d="M41.3814 48.3528C41.3814 48.3528 30.5019 44.0262 11.844 45.1945C11.844 45.1945 5.21424 45.2372 11.7443 48.9068C13.2279 49.7585 15.6699 50.7759 29.7067 49.7351C33.185 49.4765 41.3814 48.3528 41.3814 48.3528Z" fill="#ECF1F3"/>
<path fill-rule="evenodd" clip-rule="evenodd" d="M41.37 48.351C41.37 48.351 30.584 44.059 12.0758 45.2161C12.0758 45.2161 5.49945 45.2581 11.9723 48.8983C13.4431 49.7432 15.8637 50.7525 29.788 49.7213C33.2387 49.4653 41.37 48.351 41.37 48.351Z" fill="#EAF0F3"/>
<path fill-rule="evenodd" clip-rule="evenodd" d="M41.3583 48.3492C41.3583 48.3492 30.6658 44.0915 12.3073 45.238C12.3073 45.238 5.78477 45.2786 12.2004 48.8896C13.6578 49.7278 16.0574 50.7291 29.8694 49.7073C33.292 49.4539 41.3583 48.3492 41.3583 48.3492Z" fill="#E9EFF2"/>
<path fill-rule="evenodd" clip-rule="evenodd" d="M41.347 48.3479C41.347 48.3479 30.7477 44.1243 12.5391 45.2598C12.5391 45.2598 6.07004 45.2997 12.4283 48.8809C13.8728 49.7128 16.2513 50.7056 29.951 49.6938C33.3456 49.4426 41.347 48.3479 41.347 48.3479Z" fill="#E8EEF1"/>
<path fill-rule="evenodd" clip-rule="evenodd" d="M41.3352 48.3461C41.3352 48.3461 30.8293 44.1568 12.7705 45.2813C12.7705 45.2813 6.35523 45.3203 12.6559 48.8723C14.0874 49.6976 16.445 50.6822 30.032 49.6798C33.3989 49.4308 41.3352 48.3461 41.3352 48.3461Z" fill="#E7EDF0"/>
<path fill-rule="evenodd" clip-rule="evenodd" d="M41.3237 48.3443C41.3237 48.3443 30.9115 44.1894 13.0022 45.3029C13.0022 45.3029 6.6405 45.3411 12.884 48.8638C14.3022 49.6823 16.6387 50.6587 30.1136 49.666C33.4527 49.4195 41.3237 48.3443 41.3237 48.3443Z" fill="#E5ECEF"/>
<path fill-rule="evenodd" clip-rule="evenodd" d="M41.3123 48.3426C41.3123 48.3426 30.9934 44.2219 13.2338 45.3244C13.2338 45.3244 6.92593 45.3618 13.1118 48.8554C14.5172 49.6668 16.8327 50.6355 30.1949 49.6523C33.5061 49.4083 41.3123 48.3426 41.3123 48.3426Z" fill="#E4EBEF"/>
<path fill-rule="evenodd" clip-rule="evenodd" d="M41.3007 48.3411C41.3007 48.3411 31.075 44.2545 13.4652 45.3459C13.4652 45.3459 7.21112 45.3822 13.3394 48.8468C14.7318 49.6515 17.0263 50.6118 30.2762 49.6383C33.5595 49.3968 41.3007 48.3411 41.3007 48.3411Z" fill="#E3EAEE"/>
<path fill-rule="evenodd" clip-rule="evenodd" d="M41.2889 48.3393C41.2889 48.3393 31.1569 44.287 13.697 45.3679C13.697 45.3679 7.49634 45.4031 13.5674 48.8383C14.9466 49.6361 17.2202 50.5885 30.3577 49.6245C33.6128 49.3852 41.2889 48.3393 41.2889 48.3393Z" fill="#E2E9ED"/>
<path fill-rule="evenodd" clip-rule="evenodd" d="M41.2776 48.3376C41.2776 48.3376 31.239 44.3201 13.9286 45.3896C13.9286 45.3896 7.78161 45.4236 13.7955 48.8299C15.1617 49.621 17.4141 50.5652 30.4391 49.6109C33.6665 49.3739 41.2776 48.3376 41.2776 48.3376Z" fill="#E0E8EC"/>
<path fill-rule="evenodd" clip-rule="evenodd" d="M41.2662 48.3358C41.2662 48.3358 31.3209 44.3526 14.1604 45.4111C14.1604 45.4111 8.067 45.4445 14.0233 48.8214C15.3766 49.6058 17.6077 50.5418 30.5206 49.5969C33.72 49.3624 41.2662 48.3358 41.2662 48.3358Z" fill="#DFE7EC"/>
<path fill-rule="evenodd" clip-rule="evenodd" d="M41.2546 48.3342C41.2546 48.3342 31.4028 44.3854 14.3919 45.4329C14.3919 45.4329 8.35238 45.4656 14.2513 48.813C15.5914 49.5908 17.8015 50.5186 30.6019 49.5833C33.7735 49.3512 41.2546 48.3342 41.2546 48.3342Z" fill="#DEE6EB"/>
<path fill-rule="evenodd" clip-rule="evenodd" d="M41.2429 48.3324C41.2429 48.3324 31.4845 44.4179 14.6234 45.4545C14.6234 45.4545 8.63747 45.4861 14.479 48.8045C15.8063 49.5752 17.9952 50.4949 30.683 49.5694C33.8271 49.3396 41.2429 48.3324 41.2429 48.3324Z" fill="#DDE5EA"/>
<path fill-rule="evenodd" clip-rule="evenodd" d="M41.2315 48.3309C41.2315 48.3309 31.5665 44.4505 14.855 45.4764C14.855 45.4764 8.92285 45.5065 14.707 48.7958C16.021 49.5597 18.189 50.4714 30.7645 49.5555C33.8805 49.3282 41.2315 48.3309 41.2315 48.3309Z" fill="#DBE4E9"/>
<path fill-rule="evenodd" clip-rule="evenodd" d="M41.22 48.3291C41.22 48.3291 31.6485 44.4829 15.0868 45.498C15.0868 45.498 9.20814 45.5274 14.9349 48.7873C16.2361 49.5445 18.3829 50.448 30.8461 49.5416C33.9341 49.3167 41.22 48.3291 41.22 48.3291Z" fill="#DAE3E9"/>
<path fill-rule="evenodd" clip-rule="evenodd" d="M41.2086 48.3274C41.2086 48.3274 31.7304 44.5158 15.3184 45.5198C15.3184 45.5198 9.49353 45.5481 15.1629 48.779C16.4509 49.5295 18.5768 50.4247 30.9276 49.528C33.9877 49.3053 41.2086 48.3274 41.2086 48.3274Z" fill="#D9E2E8"/>
<path fill-rule="evenodd" clip-rule="evenodd" d="M41.1967 48.3257C41.1967 48.3257 31.812 44.5482 15.55 45.5414C15.55 45.5414 9.77852 45.5689 15.3906 48.7704C16.6656 49.5142 18.7704 50.4013 31.0087 49.5142C34.041 49.2939 41.1967 48.3257 41.1967 48.3257Z" fill="#D8E2E7"/>
<path fill-rule="evenodd" clip-rule="evenodd" d="M41.1854 48.3241C41.1854 48.3241 31.8941 44.5806 15.7816 45.5627C15.7816 45.5627 10.064 45.5893 15.6185 48.7618C16.8804 49.4989 18.9642 50.3778 31.09 49.5002C34.0944 49.2824 41.1854 48.3241 41.1854 48.3241Z" fill="#D7E1E6"/>
<path fill-rule="evenodd" clip-rule="evenodd" d="M41.1739 48.3224C41.1739 48.3224 31.9761 44.6137 16.0133 45.5847C16.0133 45.5847 10.3492 45.6103 15.8466 48.7534C17.0955 49.4832 19.1581 50.3545 31.1716 49.4869C34.1482 49.2711 41.1739 48.3224 41.1739 48.3224Z" fill="#D5E0E5"/>
<path fill-rule="evenodd" clip-rule="evenodd" d="M41.1622 48.3206C41.1622 48.3206 32.0577 44.6462 16.2448 45.6063C16.2448 45.6063 10.6344 45.6308 16.0741 48.7449C17.3102 49.468 19.3517 50.3311 31.2528 49.4729C34.2015 49.2595 41.1622 48.3206 41.1622 48.3206Z" fill="#D4DFE5"/>
<path fill-rule="evenodd" clip-rule="evenodd" d="M41.1507 48.3187C41.1507 48.3187 32.1396 44.6788 16.4765 45.6278C16.4765 45.6278 10.9197 45.6516 16.3022 48.7363C17.5251 49.4528 19.5456 50.3077 31.3342 49.4591C34.2552 49.248 41.1507 48.3187 41.1507 48.3187Z" fill="#D3DEE4"/>
<path fill-rule="evenodd" clip-rule="evenodd" d="M41.1392 48.3172C41.1392 48.3172 32.2217 44.7115 16.7081 45.6497C16.7081 45.6497 11.2051 45.6724 16.5301 48.7281C17.7401 49.4378 19.7395 50.2842 31.4158 49.4456C34.3086 49.2369 41.1392 48.3172 41.1392 48.3172Z" fill="#D2DDE3"/>
<path fill-rule="evenodd" clip-rule="evenodd" d="M41.1276 48.3157C41.1276 48.3157 32.3034 44.7441 16.9397 45.6712C16.9397 45.6712 11.4901 45.6932 16.7579 48.7191C17.9547 49.4225 19.9331 50.2608 31.4968 49.4316C34.3619 49.2256 41.1276 48.3157 41.1276 48.3157Z" fill="#D1DCE2"/>
<path fill-rule="evenodd" clip-rule="evenodd" d="M41.1161 48.3139C41.1161 48.3139 32.3853 44.7766 17.1713 45.6932C17.1713 45.6932 11.7756 45.7137 16.9858 48.7106C18.1695 49.4068 20.127 50.2372 31.5784 49.4178C34.4155 49.2138 41.1161 48.3139 41.1161 48.3139Z" fill="#D0DBE2"/>
<path fill-rule="evenodd" clip-rule="evenodd" d="M41.1047 48.3121C41.1047 48.3121 32.4674 44.8092 17.4029 45.7147C17.4029 45.7147 12.061 45.7345 17.2138 48.7019C18.3845 49.3915 20.3209 50.2138 31.6599 49.404C34.4693 49.2024 41.1047 48.3121 41.1047 48.3121Z" fill="#CFDAE1"/>
<path fill-rule="evenodd" clip-rule="evenodd" d="M41.0931 48.3104C41.0931 48.3104 32.5493 44.8422 17.6348 45.7365C17.6348 45.7365 12.3462 45.7552 17.4418 48.6936C18.5993 49.3764 20.5145 50.1906 31.7412 49.3902C34.5227 49.1911 41.0931 48.3104 41.0931 48.3104Z" fill="#CDD9E0"/>
<path fill-rule="evenodd" clip-rule="evenodd" d="M41.0815 48.3089C41.0815 48.3089 32.631 44.8748 17.8662 45.758C17.8662 45.758 12.6315 45.776 17.6694 48.685C18.8141 49.3612 20.7082 50.1672 31.8225 49.3764C34.576 49.1798 41.0815 48.3089 41.0815 48.3089Z" fill="#CCD9DF"/>
<path fill-rule="evenodd" clip-rule="evenodd" d="M41.07 48.3071C41.07 48.3071 32.7129 44.9073 18.0978 45.7796C18.0978 45.7796 12.9168 45.7965 17.8975 48.6765C19.029 49.346 20.9021 50.1438 31.9039 49.3625C34.6297 49.1681 41.07 48.3071 41.07 48.3071Z" fill="#CBD8DF"/>
<path fill-rule="evenodd" clip-rule="evenodd" d="M41.0549 48.3059C41.0549 48.3059 32.7422 44.9234 18.2041 45.7907C18.2041 45.7907 13.0504 45.8074 18.0045 48.6723C19.1302 49.3378 20.9935 50.1318 31.9371 49.3552C34.6483 49.1619 41.0549 48.3059 41.0549 48.3059Z" fill="#CAD7DE"/>
<path fill-rule="evenodd" clip-rule="evenodd" d="M41.0398 48.304C41.0398 48.304 32.7713 44.9391 18.3102 45.8012C18.3102 45.8012 13.1839 45.8179 18.1118 48.6678C19.2314 49.33 21.0847 50.1195 31.9704 49.3474C34.6672 49.1554 41.0398 48.304 41.0398 48.304Z" fill="#C9D6DD"/>
<path fill-rule="evenodd" clip-rule="evenodd" d="M41.0247 48.3025C41.0247 48.3025 32.8003 44.9554 18.4165 45.8122C18.4165 45.8122 13.3175 45.8281 18.2188 48.663C19.3324 49.3218 21.1758 50.1073 32.0036 49.3399C34.6861 49.149 41.0247 48.3025 41.0247 48.3025Z" fill="#C8D5DC"/>
<path fill-rule="evenodd" clip-rule="evenodd" d="M41.0094 48.3009C41.0094 48.3009 32.8294 44.9716 18.5225 45.8229C18.5225 45.8229 13.4509 45.8388 18.3257 48.6587C19.4334 49.3142 21.2669 50.0955 32.0367 49.3325C34.7046 49.1428 41.0094 48.3009 41.0094 48.3009Z" fill="#C6D4DB"/>
<path fill-rule="evenodd" clip-rule="evenodd" d="M40.9943 48.2994C40.9943 48.2994 32.8585 44.9873 18.6289 45.8337C18.6289 45.8337 13.5843 45.849 18.4329 48.6543C19.5344 49.306 21.358 50.0833 32.0698 49.325C34.7234 49.1362 40.9943 48.2994 40.9943 48.2994Z" fill="#C5D3DB"/>
<path fill-rule="evenodd" clip-rule="evenodd" d="M40.9795 48.2979C40.9795 48.2979 32.8879 45.0036 18.7353 45.8447C18.7353 45.8447 13.7181 45.8596 18.5403 48.6495C19.6359 49.2981 21.4495 50.0711 32.1032 49.3175C34.7427 49.1302 40.9795 48.2979 40.9795 48.2979Z" fill="#C4D2DA"/>
<path fill-rule="evenodd" clip-rule="evenodd" d="M40.9644 48.2963C40.9644 48.2963 32.9172 45.0197 18.8414 45.8554C18.8414 45.8554 13.8518 45.8703 18.6474 48.6455C19.7369 49.2903 21.5407 50.0593 32.1365 49.3103C34.7614 49.1239 40.9644 48.2963 40.9644 48.2963Z" fill="#C3D1D9"/>
<path fill-rule="evenodd" clip-rule="evenodd" d="M40.9492 48.2948C40.9492 48.2948 32.9461 45.0354 18.9476 45.8663C18.9476 45.8663 13.985 45.8808 18.7543 48.6408C19.838 49.2821 21.6318 50.0468 32.1696 49.3024C34.7801 49.1175 40.9492 48.2948 40.9492 48.2948Z" fill="#C2D0D8"/>
<path fill-rule="evenodd" clip-rule="evenodd" d="M40.9341 48.2933C40.9341 48.2933 32.9753 45.0517 19.0537 45.8769C19.0537 45.8769 14.1186 45.8911 18.8615 48.6362C19.939 49.2743 21.723 50.0348 32.2028 49.2948C34.799 49.1111 40.9341 48.2933 40.9341 48.2933Z" fill="#C1CFD7"/>
<path fill-rule="evenodd" clip-rule="evenodd" d="M40.919 48.2917C40.919 48.2917 33.0045 45.0679 19.16 45.888C19.16 45.888 14.2521 45.9018 18.9686 48.6317C20.0402 49.2663 21.8144 50.0228 32.236 49.2875C34.8179 49.1047 40.919 48.2917 40.919 48.2917Z" fill="#C0CED7"/>
<path fill-rule="evenodd" clip-rule="evenodd" d="M40.9039 48.2901C40.9039 48.2901 33.0336 45.0835 19.2664 45.8985C19.2664 45.8985 14.3857 45.912 19.0757 48.6272C20.1413 49.258 21.9056 50.0105 32.2693 49.2799C34.8366 49.0982 40.9039 48.2901 40.9039 48.2901Z" fill="#BFCED6"/>
<path fill-rule="evenodd" clip-rule="evenodd" d="M40.8887 48.2884C40.8887 48.2884 33.0627 45.0996 19.3726 45.9096C19.3726 45.9096 14.5193 45.9227 19.1828 48.6228C20.2424 49.2504 21.9967 49.9987 32.3023 49.2727C34.8554 49.0921 40.8887 48.2884 40.8887 48.2884Z" fill="#BDCDD5"/>
<path fill-rule="evenodd" clip-rule="evenodd" d="M40.8736 48.2871C40.8736 48.2871 33.0918 45.116 19.4786 45.9202C19.4786 45.9202 14.6529 45.9334 19.29 48.6182C20.3435 49.2423 22.0879 49.9863 32.3354 49.265C34.8742 49.0856 40.8736 48.2871 40.8736 48.2871Z" fill="#BCCCD4"/>
<path fill-rule="evenodd" clip-rule="evenodd" d="M40.8585 48.2855C40.8585 48.2855 33.1211 45.1316 19.585 45.9311C19.585 45.9311 14.7864 45.9434 19.3971 48.6138C20.4446 49.2342 22.1793 49.9742 32.3689 49.2572C34.8932 49.0791 40.8585 48.2855 40.8585 48.2855Z" fill="#BBCBD4"/>
<path fill-rule="evenodd" clip-rule="evenodd" d="M40.8436 48.2838C40.8436 48.2838 33.1502 45.1478 19.6913 45.9418C19.6913 45.9418 14.9199 45.9541 19.5043 48.6093C20.5458 49.2266 22.2705 49.9622 32.4021 49.2499C34.912 49.073 40.8436 48.2838 40.8436 48.2838Z" fill="#BACAD3"/>
<path fill-rule="evenodd" clip-rule="evenodd" d="M40.8284 48.2825C40.8284 48.2825 33.1791 45.1642 19.7972 45.9528C19.7972 45.9528 15.0532 45.9649 19.6112 48.6047C20.6466 49.2185 22.3615 49.9501 32.4352 49.2426C34.9308 49.0665 40.8284 48.2825 40.8284 48.2825Z" fill="#B9C9D2"/>
<path fill-rule="evenodd" clip-rule="evenodd" d="M40.8134 48.2809C40.8134 48.2809 33.2085 45.1798 19.9037 45.9633C19.9037 45.9633 15.187 45.9753 19.7186 48.6004C20.748 49.2105 22.453 49.938 32.4686 49.235C34.9496 49.06 40.8134 48.2809 40.8134 48.2809Z" fill="#B8C8D1"/>
<path fill-rule="evenodd" clip-rule="evenodd" d="M40.7981 48.2792C40.7981 48.2792 33.2374 45.1959 20.0098 45.9744C20.0098 45.9744 15.3203 45.9858 19.8255 48.5958C20.849 49.2025 22.5439 49.926 32.5016 49.2276C34.9683 49.0537 40.7981 48.2792 40.7981 48.2792Z" fill="#B7C7D0"/>
<path fill-rule="evenodd" clip-rule="evenodd" d="M40.7832 48.2778C40.7832 48.2778 33.2667 45.2123 20.1163 45.9853C20.1163 45.9853 15.4542 45.9964 19.9327 48.5914C20.9504 49.1948 22.6353 49.9136 32.5349 49.2202C34.9874 49.0474 40.7832 48.2778 40.7832 48.2778Z" fill="#B5C6D0"/>
<path fill-rule="evenodd" clip-rule="evenodd" d="M40.7679 48.2762C40.7679 48.2762 33.2957 45.228 20.2222 45.9959C20.2222 45.9959 15.5875 46.0064 20.0398 48.5869C21.0512 49.1865 22.7262 49.9015 32.5679 49.2123C35.0059 49.0409 40.7679 48.2762 40.7679 48.2762Z" fill="#B4C5CF"/>
<path fill-rule="evenodd" clip-rule="evenodd" d="M40.7529 48.2746C40.7529 48.2746 33.3249 45.2441 20.3284 46.0069C20.3284 46.0069 15.7211 46.0173 20.1468 48.5823C21.1524 49.1787 22.8176 49.8895 32.6011 49.205C35.0247 49.0346 40.7529 48.2746 40.7529 48.2746Z" fill="#B3C4CE"/>
<path fill-rule="evenodd" clip-rule="evenodd" d="M40.7379 48.2731C40.7379 48.2731 33.3542 45.2604 20.4346 46.0176C20.4346 46.0176 15.8546 46.0277 20.2541 48.5777C21.2534 49.1705 22.9088 49.8775 32.6343 49.1975C35.0436 49.0282 40.7379 48.2731 40.7379 48.2731Z" fill="#B2C3CD"/>
<path fill-rule="evenodd" clip-rule="evenodd" d="M40.7227 48.2713C40.7227 48.2713 33.3833 45.2761 20.5408 46.0285C20.5408 46.0285 15.9883 46.0381 20.3611 48.5734C21.3546 49.1627 23 49.8653 32.6675 49.1899C35.0625 49.0218 40.7227 48.2713 40.7227 48.2713Z" fill="#B1C3CD"/>
<path fill-rule="evenodd" clip-rule="evenodd" d="M40.7077 48.27C40.7077 48.27 33.4122 45.2923 20.6472 46.0392C20.6472 46.0392 16.1218 46.0488 20.4682 48.5688C21.4558 49.1547 23.0914 49.853 32.7008 49.1826C35.0812 49.0155 40.7077 48.27 40.7077 48.27Z" fill="#B0C2CC"/>
<path fill-rule="evenodd" clip-rule="evenodd" d="M40.6926 48.2685C40.6926 48.2685 33.4417 45.3085 20.7535 46.0502C20.7535 46.0502 16.2553 46.0592 20.5754 48.5643C21.5568 49.1469 23.1826 49.841 32.7342 49.1748C35.1003 49.0091 40.6926 48.2685 40.6926 48.2685Z" fill="#AFC1CB"/>
<path fill-rule="evenodd" clip-rule="evenodd" d="M40.6774 48.2667C40.6774 48.2667 33.4706 45.3243 20.8597 46.0607C20.8597 46.0607 16.3888 46.0696 20.6826 48.5599C21.6579 49.1387 23.2737 49.8288 32.7673 49.1673C35.1191 49.0027 40.6774 48.2667 40.6774 48.2667Z" fill="#AEC0CA"/>
<path fill-rule="evenodd" clip-rule="evenodd" d="M40.6624 48.2654C40.6624 48.2654 33.4998 45.3404 20.9659 46.0717C20.9659 46.0717 16.5224 46.0802 20.7897 48.5555C21.7592 49.1309 23.3649 49.817 32.8005 49.1601C35.1378 48.9963 40.6624 48.2654 40.6624 48.2654Z" fill="#ADBFC9"/>
<path fill-rule="evenodd" clip-rule="evenodd" d="M40.6472 48.2639C40.6472 48.2639 33.5291 45.3567 21.0721 46.0827C21.0721 46.0827 16.6559 46.0909 20.8969 48.5508C21.8602 49.1227 23.4561 49.8048 32.8337 49.1524C35.1567 48.9899 40.6472 48.2639 40.6472 48.2639Z" fill="#ACBEC8"/>
<path fill-rule="evenodd" clip-rule="evenodd" d="M40.6321 48.2621C40.6321 48.2621 33.5581 45.3725 21.1783 46.0932C21.1783 46.0932 16.7896 46.101 21.004 48.5464C21.9614 49.1149 23.5475 49.7927 32.8669 49.145C35.1756 48.9836 40.6321 48.2621 40.6321 48.2621Z" fill="#AABDC8"/>
<path fill-rule="evenodd" clip-rule="evenodd" d="M40.6168 48.2608C40.6168 48.2608 33.5872 45.3886 21.2844 46.1043C21.2844 46.1043 16.9229 46.1117 21.1108 48.542C22.0624 49.1069 23.6385 49.7805 32.9 49.1377C35.1941 48.9772 40.6168 48.2608 40.6168 48.2608Z" fill="#A9BCC7"/>
<path fill-rule="evenodd" clip-rule="evenodd" d="M40.6019 48.2594C40.6019 48.2594 33.6164 45.4046 21.3908 46.115C21.3908 46.115 17.0567 46.1225 21.2182 48.5374C22.1636 49.0991 23.7299 49.7684 32.9333 49.13C35.2133 48.9709 40.6019 48.2594 40.6019 48.2594Z" fill="#A8BBC6"/>
<path fill-rule="evenodd" clip-rule="evenodd" d="M40.5868 48.2575C40.5868 48.2575 33.6455 45.4206 21.4971 46.1258C21.4971 46.1258 17.1901 46.1325 21.3255 48.5331C22.2647 49.0909 23.8212 49.7563 32.9666 49.1224C35.232 48.9643 40.5868 48.2575 40.5868 48.2575Z" fill="#A7BBC5"/>
<path fill-rule="evenodd" clip-rule="evenodd" d="M40.5717 48.2561C40.5717 48.2561 33.6746 45.4366 21.6032 46.1366C21.6032 46.1366 17.3234 46.1433 21.4323 48.5284C22.3656 49.0831 23.9122 49.7442 32.9996 49.1149C35.2507 48.958 40.5717 48.2561 40.5717 48.2561Z" fill="#A6BAC5"/>
<path fill-rule="evenodd" clip-rule="evenodd" d="M40.5566 48.2548C40.5566 48.2548 33.7038 45.4528 21.7093 46.1476C21.7093 46.1476 17.4571 46.154 21.5394 48.5239C22.4668 49.0753 24.0034 49.7323 33.0327 49.1076C35.2696 48.9518 40.5566 48.2548 40.5566 48.2548Z" fill="#A5B9C4"/>
<path fill-rule="evenodd" clip-rule="evenodd" d="M40.5415 48.2529C40.5415 48.2529 33.7329 45.4688 21.8156 46.158C21.8156 46.158 17.5906 46.164 21.6466 48.5193C22.568 49.0671 24.0946 49.7202 33.0659 49.1001C35.2884 48.9452 40.5415 48.2529 40.5415 48.2529Z" fill="#A4B8C3"/>
<path fill-rule="evenodd" clip-rule="evenodd" d="M40.5263 48.2515C40.5263 48.2515 33.7619 45.4848 21.9218 46.1691C21.9218 46.1691 17.7242 46.1748 21.7536 48.515C22.6691 49.0589 24.1858 49.7077 33.0991 49.0923C35.3071 48.9389 40.5263 48.2515 40.5263 48.2515Z" fill="#A3B7C2"/>
<path fill-rule="evenodd" clip-rule="evenodd" d="M40.5112 48.2502C40.5112 48.2502 33.7911 45.5009 22.028 46.1798C22.028 46.1798 17.8577 46.1855 21.8609 48.5106C22.7702 49.0513 24.2772 49.6959 33.1325 49.0851C35.326 48.9327 40.5112 48.2502 40.5112 48.2502Z" fill="#A2B6C1"/>
<path fill-rule="evenodd" clip-rule="evenodd" d="M40.4962 48.2483C40.4962 48.2483 33.8206 45.517 22.1343 46.1906C22.1343 46.1906 17.9913 46.1957 21.968 48.5058C22.8714 49.0434 24.3684 49.6837 33.1658 49.0773C35.3449 48.9261 40.4962 48.2483 40.4962 48.2483Z" fill="#A1B5C0"/>
<path fill-rule="evenodd" clip-rule="evenodd" d="M40.481 48.2469C40.481 48.2469 33.8495 45.533 22.2405 46.2014C22.2405 46.2014 18.1248 46.2063 22.0751 48.5015C22.9725 49.0353 24.4595 49.6716 33.1989 49.07C35.3635 48.9198 40.481 48.2469 40.481 48.2469Z" fill="#A0B4BF"/>
<path fill-rule="evenodd" clip-rule="evenodd" d="M40.466 48.2456C40.466 48.2456 33.8787 45.5491 22.3467 46.2124C22.3467 46.2124 18.2584 46.2169 22.1823 48.4971C23.0736 49.0275 24.5508 49.6598 33.2323 49.0627C35.3825 48.9136 40.466 48.2456 40.466 48.2456Z" fill="#9EB3BF"/>
<path fill-rule="evenodd" clip-rule="evenodd" d="M40.451 48.2437C40.451 48.2437 33.9079 45.5653 22.453 46.2231C22.453 46.2231 18.3921 46.2271 22.2893 48.4923C23.1748 49.0192 24.6421 49.6475 33.2653 49.0551C35.4015 48.907 40.451 48.2437 40.451 48.2437Z" fill="#9EB3BE"/>
<path fill-rule="evenodd" clip-rule="evenodd" d="M40.436 48.2423C40.436 48.2423 33.937 45.5812 22.5591 46.2339C22.5591 46.2339 18.5256 46.2377 22.3966 48.488C23.2758 49.0115 24.7334 49.6353 33.2985 49.0472C35.4205 48.9007 40.436 48.2423 40.436 48.2423Z" fill="#9CB2BD"/>
<path fill-rule="evenodd" clip-rule="evenodd" d="M40.4209 48.2407C40.4209 48.2407 33.9661 45.5973 22.6656 46.245C22.6656 46.245 18.6591 46.2486 22.5036 48.4837C23.377 49.0035 24.8246 49.6233 33.3318 49.04C35.4392 48.8944 40.4209 48.2407 40.4209 48.2407Z" fill="#9BB1BC"/>
<path fill-rule="evenodd" clip-rule="evenodd" d="M40.4057 48.2392C40.4057 48.2392 33.9953 45.6136 22.7717 46.2557C22.7717 46.2557 18.7927 46.2587 22.6108 48.4789C23.4782 48.9957 24.9157 49.6111 33.3649 49.0325C35.458 48.888 40.4057 48.2392 40.4057 48.2392Z" fill="#9AB0BC"/>
<path fill-rule="evenodd" clip-rule="evenodd" d="M40.3906 48.2377C40.3906 48.2377 34.0245 45.6293 22.878 46.2665C22.878 46.2665 18.9262 46.2694 22.7179 48.4747C23.5794 48.9875 25.0071 49.5991 33.3982 49.025C35.4769 48.8816 40.3906 48.2377 40.3906 48.2377Z" fill="#99AFBB"/>
<path fill-rule="evenodd" clip-rule="evenodd" d="M40.3753 48.2359C40.3753 48.2359 34.0535 45.6452 22.9839 46.277C22.9839 46.277 19.0597 46.2799 22.8247 48.47C23.6802 48.9795 25.0981 49.5869 33.4312 49.0174C35.4954 48.8754 40.3753 48.2359 40.3753 48.2359Z" fill="#98AEBA"/>
<path fill-rule="evenodd" clip-rule="evenodd" d="M40.3602 48.2345C40.3602 48.2345 34.0826 45.6612 23.0902 46.2881C23.0902 46.2881 19.1931 46.2901 22.932 48.4653C23.7814 48.9714 25.1893 49.575 33.4644 49.01C35.5142 48.8691 40.3602 48.2345 40.3602 48.2345Z" fill="#97ADB9"/>
<path fill-rule="evenodd" clip-rule="evenodd" d="M40.3451 48.2331C40.3451 48.2331 34.1117 45.6775 23.1965 46.2988C23.1965 46.2988 19.3267 46.3009 23.0391 48.4613C23.8824 48.9637 25.2805 49.5626 33.4977 49.0023C35.5332 48.8629 40.3451 48.2331 40.3451 48.2331Z" fill="#96ACB8"/>
<path fill-rule="evenodd" clip-rule="evenodd" d="M40.3299 48.2313C40.3299 48.2313 34.1409 45.6934 23.3027 46.3096C23.3027 46.3096 19.4602 46.3114 23.1462 48.4565C23.9835 48.9555 25.3718 49.5504 33.5308 48.9948C35.5518 48.8563 40.3299 48.2313 40.3299 48.2313Z" fill="#95ABB7"/>
<path fill-rule="evenodd" clip-rule="evenodd" d="M40.3151 48.2299C40.3151 48.2299 34.17 45.7094 23.4089 46.3203C23.4089 46.3203 19.5938 46.3218 23.2535 48.452C24.0848 48.9478 25.463 49.5385 33.5641 48.9875C35.5707 48.85 40.3151 48.2299 40.3151 48.2299Z" fill="#94ABB7"/>
<path fill-rule="evenodd" clip-rule="evenodd" d="M40.2999 48.2286C40.2999 48.2286 34.1992 45.7257 23.5151 46.3313C23.5151 46.3313 19.7274 46.3324 23.3605 48.4474C24.1857 48.9397 25.5542 49.5265 33.5973 48.9802C35.5897 48.8438 40.2999 48.2286 40.2999 48.2286Z" fill="#93AAB6"/>
<path fill-rule="evenodd" clip-rule="evenodd" d="M40.2849 48.2267C40.2849 48.2267 34.2285 45.7416 23.6215 46.3418C23.6215 46.3418 19.8609 46.3425 23.4676 48.443C24.287 48.9319 25.6454 49.5145 33.6306 48.9725C35.6084 48.8372 40.2849 48.2267 40.2849 48.2267Z" fill="#92A9B5"/>
<path fill-rule="evenodd" clip-rule="evenodd" d="M40.2698 48.2253C40.2698 48.2253 34.2576 45.7576 23.7276 46.3529C23.7276 46.3529 19.9944 46.3533 23.5749 48.4385C24.388 48.9238 25.7366 49.5024 33.6638 48.9651C35.6274 48.8309 40.2698 48.2253 40.2698 48.2253Z" fill="#91A8B4"/>
<path fill-rule="evenodd" clip-rule="evenodd" d="M40.2547 48.224C40.2547 48.224 34.2868 45.7739 23.8339 46.3636C23.8339 46.3636 20.1281 46.3639 23.6819 48.434C24.4892 48.9161 25.8278 49.4902 33.697 48.9575C35.6462 48.8247 40.2547 48.224 40.2547 48.224Z" fill="#90A7B3"/>
<path fill-rule="evenodd" clip-rule="evenodd" d="M40.2395 48.2222C40.2395 48.2222 34.3159 45.7899 23.9401 46.3747C23.9401 46.3747 20.2615 46.3747 23.7891 48.4299C24.5904 48.9078 25.9192 49.4781 33.7301 48.9501C35.6651 48.8183 40.2395 48.2222 40.2395 48.2222Z" fill="#8FA6B3"/>
<path fill-rule="evenodd" clip-rule="evenodd" d="M40.2244 48.2207C40.2244 48.2207 34.3449 45.8058 24.0464 46.3855C24.0464 46.3855 20.3952 46.3848 23.8961 48.4251C24.6915 48.9 26.0103 49.4659 33.7632 48.9424C35.6837 48.8118 40.2244 48.2207 40.2244 48.2207Z" fill="#8EA5B2"/>
<path fill-rule="evenodd" clip-rule="evenodd" d="M40.2093 48.2194C40.2093 48.2194 34.3742 45.8221 24.1525 46.3962C24.1525 46.3962 20.5287 46.3954 24.0034 48.4205C24.7926 48.892 26.1015 49.4541 33.7965 48.9351C35.7027 48.8055 40.2093 48.2194 40.2093 48.2194Z" fill="#8DA4B1"/>
<path fill-rule="evenodd" clip-rule="evenodd" d="M40.1943 48.2177C40.1943 48.2177 34.4034 45.8381 24.2589 46.4073C24.2589 46.4073 20.6622 46.4058 24.1105 48.4164C24.8938 48.8842 26.1928 49.442 33.83 48.9277C35.7216 48.7992 40.1943 48.2177 40.1943 48.2177Z" fill="#8CA4B0"/>
<path fill-rule="evenodd" clip-rule="evenodd" d="M40.1793 48.2162C40.1793 48.2162 34.4325 45.854 24.3651 46.4178C24.3651 46.4178 20.7958 46.4163 24.2176 48.4116C24.9947 48.876 26.2841 49.4294 33.8631 48.9202C35.7402 48.7928 40.1793 48.2162 40.1793 48.2162Z" fill="#8BA3B0"/>
<path fill-rule="evenodd" clip-rule="evenodd" d="M40.164 48.2143C40.164 48.2143 34.4615 45.8698 24.471 46.4286C24.471 46.4286 20.9291 46.427 24.3245 48.4069C25.0958 48.868 26.3751 49.4174 33.8962 48.9124C35.7591 48.7862 40.164 48.2143 40.164 48.2143Z" fill="#8AA2AF"/>
<path fill-rule="evenodd" clip-rule="evenodd" d="M40.1491 48.2129C40.1491 48.2129 34.4908 45.8861 24.5776 46.4393C24.5776 46.4393 21.063 46.4371 24.4318 48.4027C25.1972 48.8602 26.4665 49.4053 33.9296 48.9048C35.7782 48.7799 40.1491 48.2129 40.1491 48.2129Z" fill="#89A1AE"/>
<path fill-rule="evenodd" clip-rule="evenodd" d="M40.134 48.2116C40.134 48.2116 34.52 45.9022 24.6838 46.4504C24.6838 46.4504 21.1965 46.4478 24.539 48.3982C25.2982 48.8522 26.5579 49.3935 33.9629 48.8975C35.7969 48.7737 40.134 48.2116 40.134 48.2116Z" fill="#88A0AD"/>
<path fill-rule="evenodd" clip-rule="evenodd" d="M40.1187 48.2098C40.1187 48.2098 34.5489 45.918 24.7899 46.4609C24.7899 46.4609 21.3298 46.4585 24.6459 48.3936C25.3992 48.8444 26.6487 49.3813 33.9957 48.8901C35.8156 48.7672 40.1187 48.2098 40.1187 48.2098Z" fill="#879FAC"/>
<path fill-rule="evenodd" clip-rule="evenodd" d="M40.1036 48.2083C40.1036 48.2083 34.5779 45.9343 24.896 46.4719C24.896 46.4719 21.4634 46.4686 24.7531 48.3893C25.5002 48.8362 26.74 49.3691 34.0289 48.8826C35.8344 48.7608 40.1036 48.2083 40.1036 48.2083Z" fill="#869FAC"/>
<path fill-rule="evenodd" clip-rule="evenodd" d="M40.0885 48.207C40.0885 48.207 34.6074 45.9504 25.0023 46.4826C25.0023 46.4826 21.5969 46.4795 24.8602 48.3847C25.6014 48.8286 26.8313 49.357 34.0622 48.875C35.8531 48.7546 40.0885 48.207 40.0885 48.207Z" fill="#859EAB"/>
<path fill-rule="evenodd" clip-rule="evenodd" d="M40.0734 48.2051C40.0734 48.2051 34.6365 45.9661 25.1086 46.4935C25.1086 46.4935 21.7304 46.4899 24.9674 48.3801C25.7026 48.8203 26.9226 49.3447 34.0954 48.8673C35.872 48.748 40.0734 48.2051 40.0734 48.2051Z" fill="#849DAA"/>
<path fill-rule="evenodd" clip-rule="evenodd" d="M40.0583 48.2037C40.0583 48.2037 34.6658 45.9825 25.2147 46.5045C25.2147 46.5045 21.8641 46.5002 25.0745 48.3758C25.8036 48.8124 27.0136 49.3328 34.1288 48.8599C35.8909 48.7417 40.0583 48.2037 40.0583 48.2037Z" fill="#839CA9"/>
<path fill-rule="evenodd" clip-rule="evenodd" d="M40.0434 48.2022C40.0434 48.2022 34.6948 45.9984 25.321 46.515C25.321 46.515 21.9976 46.5108 25.1817 48.3712C25.9048 48.8042 27.105 49.3206 34.162 48.8525C35.9098 48.7351 40.0434 48.2022 40.0434 48.2022Z" fill="#829BA8"/>
<path fill-rule="evenodd" clip-rule="evenodd" d="M40.0282 48.2005C40.0282 48.2005 34.7239 46.0143 25.4273 46.5261C25.4273 46.5261 22.1312 46.5214 25.2887 48.3666C26.006 48.7965 27.1962 49.3086 34.1952 48.8451C35.9286 48.7289 40.0282 48.2005 40.0282 48.2005Z" fill="#819AA8"/>
<path fill-rule="evenodd" clip-rule="evenodd" d="M40.0131 48.1992C40.0131 48.1992 34.7531 46.0307 25.5336 46.5368C25.5336 46.5368 22.2647 46.5319 25.3959 48.3624C26.107 48.7885 27.2875 49.2967 34.2282 48.8376C35.9475 48.7227 40.0131 48.1992 40.0131 48.1992Z" fill="#809AA7"/>
<path fill-rule="evenodd" clip-rule="evenodd" d="M39.9981 48.1977C39.9981 48.1977 34.7823 46.0466 25.6398 46.5476C25.6398 46.5476 22.3982 46.5423 25.5031 48.3578C26.2082 48.7806 27.3786 49.2842 34.2616 48.8298C35.9664 48.7161 39.9981 48.1977 39.9981 48.1977Z" fill="#7F99A6"/>
<path fill-rule="evenodd" clip-rule="evenodd" d="M39.9829 48.196C39.9829 48.196 34.8113 46.0625 25.746 46.5584C25.746 46.5584 22.5318 46.553 25.6102 48.3532C26.3093 48.7726 27.4699 49.2723 34.2947 48.8225C35.985 48.7099 39.9829 48.196 39.9829 48.196Z" fill="#7E98A5"/>
<path fill-rule="evenodd" clip-rule="evenodd" d="M51.5136 15.3937C50.9517 15.2199 49.0052 15.0869 44.0708 15.2626C39.1383 15.4381 33.8171 15.6135 33.6001 15.5692C33.3847 15.5267 29.4028 11.1857 26.1157 8.4244C22.8266 5.66327 22.5238 5.48773 22.4802 5.61916C22.4802 5.61916 21.2688 15.6135 18.2829 18.332L1.53857 22.4958C1.53857 22.4958 13.3503 28.6335 13.0473 29.3783C12.7443 30.1231 10.4078 34.6379 6.81766 39.0659C6.81766 39.0659 16.3798 39.7239 26.8944 36.7869C26.8944 36.7869 32.303 39.1528 41.2159 47.3509C41.2159 47.3509 43.7261 39.9862 42.6861 34.989C41.6485 29.9917 41.389 29.6851 42.6005 28.5892C43.8117 27.4931 47.4033 24.0741 49.5671 20.2597C51.7304 16.4469 52.0751 15.5692 51.5136 15.3937Z" fill="#22505F"/>
<path fill-rule="evenodd" clip-rule="evenodd" d="M21.5742 30.408C21.5742 30.408 28.8311 32.6563 36.6281 30.7117C36.6281 30.7117 30.0308 37.5172 21.5742 30.408Z" fill="white"/>
<path fill-rule="evenodd" clip-rule="evenodd" d="M32.086 19.3984C31.6767 19.4111 31.2799 19.8149 31.2358 20.2908C31.1923 20.7666 31.3508 23.7131 31.5093 25.1124C31.6682 26.5118 31.971 27.7769 32.7773 27.9245C33.5855 28.0737 34.0891 27.8358 34.0891 26.3477C34.0891 24.8599 33.7861 22.6418 33.4984 21.3769C33.2098 20.1118 32.7566 19.3752 32.086 19.3984Z" fill="white"/>
<path fill-rule="evenodd" clip-rule="evenodd" d="M23.607 20.0806C23.1976 20.0954 22.8009 20.4974 22.7568 20.9748C22.7115 21.4737 22.9659 23.9541 23.1262 25.3701C23.2851 26.7692 23.492 28.4592 24.2986 28.6085C25.105 28.7578 25.6105 28.5199 25.6105 27.0302C25.6105 25.5422 25.3075 23.3257 25.0194 22.0608C24.7308 20.7961 24.2774 20.0595 23.607 20.0806Z" fill="white"/>
</svg>
