<svg width="77" height="30" viewBox="0 0 77 30" fill="none" xmlns="http://www.w3.org/2000/svg">
<g clip-path="url(#clip0_3626_5422)">
<path d="M9.45155 28.4876C9.47911 27.8537 9.57977 27.1382 9.57977 27.1382C9.57977 27.1382 9.42398 26.7859 9.33291 26.539C9.24183 26.2922 9.33291 26.3365 9.36047 26.249C9.37542 26.0378 9.32116 25.8275 9.20588 25.6499C9.01534 25.3694 8.56835 24.4275 8.54079 24.4275C8.51322 24.4275 8.69657 24.1735 8.69657 24.1735L8.31309 23.3226C8.31309 23.3226 6.13685 21.6928 5.2177 20.842C4.29855 19.9912 2.59567 17.127 2.43988 17.1019C2.2775 17.0919 2.11471 17.1134 1.96053 17.1654C1.96053 17.1654 1.86107 16.8838 1.73284 16.4679C1.66933 16.269 1.38771 15.5895 1.12287 14.928C0.86762 14.2941 0.631542 13.6697 0.631542 13.49C0.631542 13.1089 0.631541 12.5756 0.722617 12.1946C0.813693 11.8135 1.36015 11.2526 1.3218 11.2526C1.28345 11.2526 1.19478 11.0633 1.19478 11.0633C1.19478 11.0633 0.784932 11.3341 0.284013 10.9267C-0.216906 10.5192 0.156987 9.35202 1.06775 7.15062C1.97851 4.94921 2.36918 4.52499 2.56092 4.37159C2.64846 4.27693 2.75344 4.20003 2.8701 4.1451L3.81681 4.11754L3.94503 3.96295L4.83662 3.927C4.83662 3.927 5.40944 3.89944 5.18295 2.45181C5.10438 2.26703 5.04067 2.07628 4.99241 1.88138C4.99241 1.79031 5.11944 1.66328 5.147 1.64171C5.45258 1.33612 5.45259 1.39604 5.49213 0.509246L5.91156 0.192879L6.15723 0.00233814H1.90301C1.40135 0.000104862 0.919283 0.196925 0.562535 0.549628C0.205788 0.902332 0.00348543 1.38212 0 1.88378V28.1077C0.00253521 28.6107 0.204187 29.0921 0.560831 29.4467C0.917475 29.8014 1.40007 30.0003 1.90301 29.9999H9.81226C9.81226 29.9999 9.42398 29.5206 9.45155 28.4876Z" fill="#22505F"/>
<path d="M3.5962 28.3918H2.51287L1.85616 25.4126V28.3918H1.14673V24.5881H2.41221L2.87718 27.0604L2.88556 24.5881H3.5962V28.3918Z" fill="white"/>
<path d="M6.01229 25.6475C6.01229 26.007 5.91283 26.273 5.32922 26.3665V26.3845C5.80857 26.4204 6.01229 26.6026 6.01229 27.2089V27.5433C6.01229 28.1952 5.65278 28.3953 4.93376 28.3953H3.86841V24.5869H4.93376C5.49819 24.5869 6.01229 24.7775 6.01229 25.3563V25.6475Z" fill="white"/>
<path d="M7.59296 28.3918L7.49349 27.3588H7.05609L6.91947 28.3918H6.10938L6.79125 24.5881H7.99321L8.53967 28.3918H7.59296Z" fill="white"/>
<path d="M4.89055 25.1334H4.78149V26.176H4.89055C5.03675 26.176 5.10026 26.1125 5.10026 25.9363V25.3851C5.10026 25.1969 5.03315 25.1334 4.89055 25.1334Z" fill="#22505F"/>
<path d="M4.89055 26.647H4.78149V27.8453H4.89055C5.03675 27.8453 5.10026 27.8178 5.10026 27.6644V26.8255C5.10026 26.6745 5.03315 26.647 4.89055 26.647Z" fill="#22505F"/>
<path d="M7.14233 26.8171H7.43354L7.28734 25.2509L7.14233 26.8171Z" fill="#22505F"/>
<path d="M10.4259 17.459C9.88797 17.4607 9.36671 17.2727 8.95375 16.928C8.54078 16.5834 8.26253 16.1042 8.16794 15.5747C8.07334 15.0452 8.16845 14.4993 8.43654 14.0329C8.70463 13.5666 9.12854 13.2097 9.63373 13.0251C9.67788 12.9467 9.7267 12.8711 9.77993 12.7986C9.66354 12.5376 9.52649 12.2863 9.37009 12.0472C9.07889 11.6038 8.66904 10.5349 8.54201 10.1634C8.41499 9.79187 8.19569 8.1441 8.13217 8.11654C8.06866 8.08898 8.0411 8.11654 7.75828 8.24357C7.47547 8.3706 7.22141 8.84276 7.12075 9.05846C7.02008 9.27417 6.52156 10.6343 6.4928 10.6343C6.46404 10.6343 6.61983 10.7877 6.61983 10.7877C6.76872 10.8767 6.90632 10.9833 7.02967 11.1053C7.12075 11.2323 7.88531 13.9934 7.88531 13.9934L7.69477 14.3109C7.69477 14.3109 7.74031 14.5734 7.8146 14.9353C7.89609 15.3163 8.00514 15.8137 8.13337 16.2535C8.38742 17.1307 8.67024 18.5172 8.67024 18.5172C8.67024 18.5172 9.05252 19.1511 9.37129 19.8114C9.69006 20.4717 10.0663 22.8913 10.0663 22.9188C10.0663 22.9464 10.6044 23.8068 10.6655 24.1507C10.7266 24.4947 10.5109 25.282 10.5109 25.282C10.5196 25.5246 10.5408 25.7666 10.5744 26.007C10.5986 26.16 10.651 26.3071 10.729 26.4408C10.8201 26.5678 10.8201 26.8483 10.8201 26.9753C10.8201 27.1023 11.3306 28.7417 11.3306 28.9226C11.3306 29.1036 10.9843 29.6417 10.8573 29.7459C10.8297 29.7651 10.6176 29.9856 10.602 30C11.0939 29.9839 11.5603 29.7777 11.9034 29.4248C12.2464 29.072 12.4393 28.5999 12.4415 28.1078V16.281C12.2418 16.6399 11.9493 16.9385 11.5948 17.1457C11.2402 17.3529 10.8365 17.4611 10.4259 17.459Z" fill="#22505F"/>
<path d="M10.5361 3.81151e-05H7.60367C7.66719 0.0264023 8.30472 0.453022 8.42336 0.599223C8.542 0.745424 8.51444 0.979108 8.45092 1.25953C8.39794 1.47124 8.33394 1.68004 8.25918 1.88508C8.25918 1.88508 8.16811 2.11037 8.19567 2.13793C8.22666 2.1879 8.24819 2.24315 8.25918 2.30091C8.25918 2.30091 7.88529 2.98878 7.84934 3.01993C7.81339 3.05109 7.34003 3.90792 7.18424 3.97024C7.11714 3.99061 7.06441 4.17037 7.12073 4.21591C7.20581 4.28062 7.60008 4.56823 7.60008 4.56823L7.79182 4.59579L8.26517 4.91216C8.31029 5.03572 8.40188 5.13677 8.52043 5.19378C8.89288 5.45681 9.22407 5.77386 9.50309 6.1345C9.7859 6.51558 9.84942 7.36642 9.87698 8.01833C9.90455 8.67025 10.1682 10.1011 10.2233 10.1922C10.2784 10.2833 10.7326 11.3905 10.8225 11.6674C10.9029 11.9674 10.9578 12.2737 10.9867 12.5829L11.4241 13.1162C11.8517 13.3195 12.2073 13.648 12.4439 14.0581V1.88388C12.4423 1.63491 12.3917 1.3887 12.295 1.15928C12.1983 0.929873 12.0573 0.721759 11.8802 0.546827C11.703 0.371896 11.4931 0.233574 11.2625 0.139755C11.0319 0.0459371 10.7851 -0.00154059 10.5361 3.81151e-05Z" fill="#22505F"/>
<path d="M37.4694 30H28.9238L23.754 6.50718V30H18.1541V0.00842285H28.1341L31.7963 19.5035L31.8682 0.00842285H37.4694V30Z" fill="#22505F"/>
<path d="M56.5259 8.36346C56.5259 11.2204 55.7361 13.29 51.1404 14.0042V14.148C54.8745 14.4332 56.5259 15.8617 56.5259 20.6456V23.282C56.5259 28.423 53.6498 29.9928 48.0522 29.9928H39.6516V0.00842285H48.0546C52.5077 0.00842285 56.5283 1.50758 56.5283 6.07817L56.5259 8.36346Z" fill="#22505F"/>
<path d="M68.9877 30L68.198 21.8595H64.7514L63.6741 30H57.2832L62.6699 0.00842285H72.1466L76.4559 30H68.9877Z" fill="#22505F"/>
<path d="M47.6795 4.31299H46.8179V12.5242H47.6795C48.8275 12.5242 49.3309 12.0245 49.3309 10.596V6.23997C49.3309 4.81391 48.8275 4.31299 47.6795 4.31299Z" fill="white"/>
<path d="M47.6795 16.2451H46.8179V25.7422H47.6795C48.8275 25.7422 49.3309 25.5277 49.3309 24.3137V17.6736C49.3309 16.4584 48.8275 16.2451 47.6795 16.2451Z" fill="white"/>
<path d="M65.4309 17.5813H67.7282L66.5801 5.22729L65.4309 17.5813Z" fill="white"/>
</g>
<defs>
<clipPath id="clip0_3626_5422">
<rect width="76.456" height="30" fill="white"/>
</clipPath>
</defs>
</svg>
