<svg width="74" height="60" viewBox="0 0 74 60" fill="none" xmlns="http://www.w3.org/2000/svg">
<g clip-path="url(#clip0_3611_28726)">
<path d="M34.5575 51.3203C34.6886 51.0001 34.5575 50.6564 34.2719 50.5482C34.0051 50.4399 33.6727 50.6047 33.5416 50.9248C33.4293 51.2449 33.5416 51.5933 33.8272 51.7016C34.1174 51.8099 34.4451 51.6404 34.5575 51.3203ZM32.5674 50.8532C32.5674 49.1913 30.7089 47.6424 27.5724 47.4871C24.7168 47.3458 19.8996 48.843 19.8996 52.7882C19.8996 54.7326 21.6692 55.3964 22.8817 55.3964C24.0988 55.3964 25.2036 54.6007 25.2036 53.8145C25.2036 53 24.7402 53.0236 24.6091 53.0236C24.2767 53.0236 23.9677 53.5038 24.1878 54.0829C24.3188 54.4501 23.9677 55.2081 22.8395 55.2081C22.0437 55.2081 20.9389 54.5678 20.9389 52.7882C20.9389 51.018 22.9285 47.7648 27.5724 47.7648C29.2296 47.7648 31.1724 48.6688 31.1724 50.8532C31.1724 52.1291 29.9131 53.9558 28.0125 53.9558C28.0125 53.9558 28.4759 51.4464 29.7165 49.8834C29.8242 49.7563 29.6697 49.6386 29.4965 49.7563C25.536 52.2892 26.0463 59.7418 21.5568 59.7418C21.1168 59.7418 19.4362 59.6382 19.4362 58.3294C19.4362 58.3294 19.3472 58.0234 19.7451 57.7739C19.9418 57.6562 20.0728 57.4349 20.0728 57.2042C20.0728 56.8135 19.7451 56.5027 19.3659 56.5027C18.9914 56.5027 18.8135 56.8323 18.6825 57.2042C18.5701 57.5197 18.528 59.9772 21.5568 60.0007C23.8133 60.029 27.0621 58.4565 27.858 54.3324C27.858 54.3324 32.5674 53.8286 32.5674 50.8532ZM52.4446 55.4802C52.3135 55.9745 52.0701 56.2476 51.8032 56.3606C51.5598 56.4736 51.4053 56.2947 51.5177 56.144C51.6253 55.9933 51.8032 55.6732 51.7798 55.4519C51.7611 55.16 51.4943 54.9906 51.4943 54.9906C51.4943 54.9906 51.3398 54.9011 51.4475 54.7363L52.0233 53.79C52.0233 53.79 52.2246 53.4134 52.2901 53.71C52.379 54.0349 52.5991 54.9811 52.4446 55.4802ZM49.0834 54.0066C49.1723 53.8136 49.3736 53.2816 49.9447 52.7119C50.146 52.5189 50.3427 52.3494 50.5674 52.307C50.8108 52.2647 50.8295 52.5236 50.8108 52.6837C50.764 52.8437 50.675 53.1309 50.455 53.3852C50.2537 53.6394 49.9915 53.9313 49.7715 54.0725C49.5468 54.2043 49.3736 54.2938 49.1957 54.2938C49.0412 54.2938 48.9944 54.1996 49.0834 54.0066ZM53.4183 50.9982C52.9736 51.1301 52.6225 52.1093 52.379 52.5519C52.0233 53.2015 51.1385 54.4633 51.1385 54.4633C51.1385 54.4633 50.0992 56.2334 49.1489 56.111C48.1986 55.9933 48.9055 54.6469 48.9055 54.6469C50.4784 54.3126 51.1385 53.5358 51.3632 53.098C51.6066 52.6696 51.4053 52.0057 50.7406 52.0528C50.675 52.0528 50.5861 52.0622 50.4971 52.0764C50.4316 52.0858 50.3661 52.0999 50.3239 52.114C50.1882 52.147 50.0571 52.1893 49.9026 52.2458C49.7013 52.3259 49.5281 52.42 49.3923 52.5142C49.3268 52.5519 49.2612 52.5942 49.1957 52.646C48.7744 52.9426 48.2641 53.6676 48.0207 53.6253C47.7585 53.5782 48.0675 53.0791 48.222 52.7449C48.3531 52.4106 48.3765 52.2082 48.0909 52.1988C47.8007 52.1941 47.3793 52.5095 47.1827 52.6696L46.738 53.0791L47.1359 52.3871H46.0311C45.0574 54.7363 44.3318 55.3436 44.3318 55.3436C44.3318 55.3436 43.7793 55.9416 43.5359 55.9039C43.2691 55.8615 43.4891 55.3484 43.4891 55.3484L44.7952 52.3871H43.7325L42.8056 54.355C42.8056 54.355 42.0753 55.9133 41.4106 55.9039C41.1016 55.8992 41.3918 55.2401 41.3918 55.2401L42.6699 52.3541H41.6119C41.6119 52.3541 40.6803 54.275 40.3713 54.8022C40.0623 55.3342 39.3133 55.9839 39.0231 55.9039C38.9154 55.8709 38.8452 55.805 38.8452 55.7344C38.803 55.6308 38.8686 55.5084 38.8686 55.5084L40.1279 52.6837H40.9471L41.1016 52.34L40.2824 52.3541L41.0595 50.5887H39.9734L39.1541 52.3541H38.6017L38.4473 52.6837H38.9997L38.363 54.1196C38.1851 54.4774 36.79 56.3841 35.8631 56.224C34.9315 56.0734 35.1328 55.2777 35.175 54.8682C35.2639 54.3314 35.8631 53.2957 36.0176 53.0744C36.1487 52.8532 36.9679 51.9163 37.3893 52.2647C37.7404 52.566 37.3893 53.0462 37.3893 53.0462C37.3893 53.0462 36.7245 53.4793 36.9679 53.936C37.2114 54.4303 37.7872 54.0207 37.9183 53.8089C38.3817 53.1215 38.363 51.6762 36.8369 51.9728C35.0907 52.307 34.2481 54.2938 34.2481 54.2938C34.2481 54.2938 33.3211 55.9933 32.9419 56.0028C32.5253 56.0451 32.7219 55.5367 32.7219 55.5367L34.0936 52.2882H33.0777C33.0777 52.2882 32.7453 53.0038 32.1461 54.3362C31.5516 55.6638 30.4234 56.2994 30.4234 56.2994C30.3578 56.596 30.6902 56.4594 30.6902 56.4594C30.6902 56.4594 31.1771 56.1817 31.5937 55.7438C31.5937 55.7438 31.6405 55.6826 31.6405 55.7156C31.6405 55.7156 31.5048 56.6572 32.324 56.6713C32.3895 56.6713 32.4551 56.6619 32.544 56.6477C32.633 56.6383 32.7875 56.5771 32.9419 56.483C32.9888 56.4641 33.0122 56.4453 33.0543 56.4265C33.4944 56.144 33.8267 55.6167 33.8923 55.532C34.0046 55.386 33.9391 55.3201 34.1591 55.7815C34.3791 56.2994 34.8239 56.6619 35.6197 56.6713C36.4155 56.6854 37.1458 56.1016 37.4314 55.8804L37.6514 55.6967C37.6514 56.7419 38.4941 56.6948 38.4941 56.6948C39.112 56.7042 39.9968 55.8003 40.1513 55.6497C40.1513 55.645 40.1513 55.6355 40.1747 55.6261V55.6214C40.1747 55.6214 39.9968 56.4971 40.5726 56.6383C41.0361 56.7466 41.8974 56.1534 42.3422 55.6402C42.3422 55.6402 42.3422 55.6214 42.3609 55.6167V55.6308C42.3609 55.6308 42.1409 56.1817 42.4967 56.5347C42.8712 56.9161 43.8215 56.3229 44.5518 55.5414C44.5518 55.5414 44.5752 55.5226 44.5752 55.5508L44.1305 56.5818H45.2165L46.1669 54.4633C46.1669 54.4633 46.3635 53.8795 46.6537 53.6535C46.9814 53.3946 46.7614 53.5735 46.9393 53.8889C47.2951 54.4633 47.913 54.0631 47.913 54.0631C47.2248 55.7674 47.6696 56.37 48.4654 56.6148C48.4654 56.6148 49.3736 56.982 50.6516 55.6967C50.6516 55.6967 50.5439 56.1016 50.8108 56.37C51.0542 56.5724 51.5364 56.7937 52.159 56.5865C52.9549 56.3323 53.3528 55.3625 53.4417 54.7222C53.5073 54.0866 53.1983 53.2486 53.1983 53.2486C53.1983 53.2486 52.7114 51.9445 53.1749 51.6573C53.7273 51.309 53.7507 51.1583 53.6383 51.0312C53.5962 50.9653 53.4604 50.9841 53.4183 50.9982ZM21.1369 43.8427C21.3148 43.6402 21.6659 43.2918 21.8017 43.1177C21.9983 42.8022 22.223 42.5621 22.3073 42.4915C22.7941 42.1007 23.061 42.0725 23.2154 41.8512C23.281 41.7429 24.2313 40.3117 24.5637 39.7327C24.8961 39.1865 25.6685 38.1131 25.4719 37.9436C25.3595 37.8542 23.9691 39.2854 23.0376 40.2882C22.7052 40.6319 22.5086 40.9614 22.3728 41.1168C22.3728 41.1168 21.9796 41.79 21.7548 42.0725C21.5348 42.355 21.0058 43.1553 20.7624 43.499C20.6969 43.6167 20.4722 44.1204 20.0555 44.643C19.8542 44.9067 19.6342 45.2456 19.2363 45.7682C18.6839 46.4697 18.2859 47.0441 18.3749 47.1194C18.417 47.1618 19.2363 46.1919 20.0742 45.1515C20.43 44.7136 20.8279 44.2664 21.1369 43.8427ZM43.2246 38.4949C42.939 37.7746 41.5206 35.1806 41.3661 34.9122C41.2771 34.7663 41.015 34.319 40.6592 33.7823C40.3502 33.2833 40.0834 32.7419 39.9289 32.5065C39.6434 32.0357 39.0909 30.9905 38.8007 30.5574C38.4917 30.1243 38.1172 29.1686 37.9627 29.3239C37.8082 29.4699 38.4028 30.9058 38.6696 31.8144C38.9365 32.723 38.7352 33.095 38.5807 33.3586C38.4262 33.6128 38.4262 33.7823 38.5807 34.239C38.7118 34.6533 39.222 37.059 39.3765 37.5581C39.531 38.0571 39.6855 38.0854 39.7744 38.2784C40.0647 39.0269 40.5047 39.0599 40.7247 39.1211C41.324 39.3094 41.3895 40.138 41.7874 40.8819C42.1432 41.5786 42.4943 42.2048 42.8033 42.9581C43.1357 43.716 44.7929 47.826 45.0831 48.4522C45.1721 48.6782 45.9679 48.6782 45.8789 48.4522C45.6776 48.0002 45.2142 46.8656 44.9474 45.7357C44.7741 44.9966 45.4576 45.5192 45.0176 44.3422C44.8163 43.8055 44.4184 43.2641 44.2217 43.0475C43.997 42.8309 43.777 41.8988 43.5991 41.4845C43.4212 41.0749 43.5102 41.0561 43.1591 40.0721C42.8922 39.3612 43.6459 39.5966 43.2246 38.4949ZM52.6431 45.2301C52.4886 44.8252 51.8238 43.8036 51.6038 43.4788C51.4072 43.1539 51.0514 42.4336 50.6535 41.9769C50.2977 41.5767 50.588 41.4638 50.2322 41.1107C50.0121 40.9035 49.3287 40.2915 49.1742 40.1644C49.015 40.0326 48.4626 39.5335 48.1302 39.251C47.8213 38.978 47.0488 38.446 47.0722 38.1023C47.0956 37.7539 46.9177 37.0854 46.6743 36.8641C46.473 36.704 45.944 35.819 45.3027 35.3058C44.9937 35.0374 44.3055 34.336 43.7999 33.7239C43.3131 33.1402 42.9386 32.6082 42.8262 32.6835C42.6717 32.7918 43.402 33.8181 43.4676 33.9405C43.5565 34.0535 44.3945 35.5224 44.4834 35.9084C44.5724 36.2992 46.1453 38.9686 46.473 39.7924C46.6743 40.2774 47.7557 40.9223 48.2004 41.6803C48.6171 42.3771 48.7294 42.2359 48.9073 42.2453C49.3053 42.2594 50.1666 43.2057 50.3445 43.4646C50.5224 43.7283 51.9362 45.1454 52.2873 45.4937C52.4465 45.6444 53.57 47.4664 53.7292 47.3345C53.879 47.2027 53.2844 46.3176 53.1955 46.1246C53.1299 45.9316 52.7976 45.6444 52.6431 45.2301ZM54.1692 42.9289C54.0803 42.7735 53.3968 41.7754 53.1533 41.4506C52.7086 40.8903 53.1065 40.6785 52.8865 40.3348C52.7742 40.1841 52.2218 39.5109 51.5804 38.8377C51.2527 38.5081 50.8735 38.1833 50.5645 37.8961C50.0355 37.4347 49.6564 37.0958 49.5908 37.1522C49.5019 37.2417 49.8108 37.6089 49.9466 37.7784C50.0543 37.9385 50.279 38.2351 50.5411 38.5552C50.9859 39.0825 50.5645 39.478 50.9859 39.9017C51.0748 39.9676 52.2218 41.2717 52.512 41.5118C52.9286 41.8884 54.436 43.6915 54.5437 43.7951C54.7216 43.9599 55.0306 44.3224 55.0774 44.2565C55.1429 44.1906 54.9884 43.9976 54.8995 43.8469C54.8106 43.6915 54.2816 43.0984 54.1692 42.9289ZM26.8192 42.1125C26.6647 42.4844 26.6881 42.9552 26.6413 43.1106C26.5757 43.2565 25.8689 44.7866 25.691 45.1256C25.5599 45.3374 25.602 45.4269 25.5599 45.5446C25.4943 45.6905 25.5786 45.7329 25.691 45.6246C25.822 45.4881 26.5757 44.3252 26.8192 44.184C27.0392 44.038 27.2592 43.8262 27.2826 43.3224C27.3294 42.8234 27.6571 42.6869 27.9006 42.3903C28.144 42.0984 28.4764 41.7076 28.6543 41.3027C28.8322 40.879 29.0288 41.1992 29.4267 40.573C29.8059 39.9375 30.686 38.3791 30.8873 38.0778C31.0652 37.7765 30.9294 37.3387 30.9107 36.9809C30.9107 36.7879 30.9294 36.3265 31.0418 35.8227C31.1541 35.3802 31.3508 34.9282 31.4631 34.6363C31.552 34.4527 31.8142 33.8925 31.7955 33.6712C31.7955 33.6288 31.7065 33.5629 31.6176 33.643C31.2431 34.029 30.4472 35.399 30.157 35.5544C29.4735 35.8886 29.1833 36.6843 28.9867 36.995C28.8322 37.2304 28.6543 37.6023 28.3219 38.0778C28.0363 38.4874 27.7274 39.0947 27.615 39.3113C27.4839 39.5326 27.4371 39.735 27.6571 39.735C27.8818 39.735 27.704 40.0928 27.4371 40.4836C27.2826 40.7096 26.9081 41.8159 26.8192 42.1125ZM5.94723 46.9155L4.53345 45.7527L5.21693 44.0625L3.67208 45.0512L2.23489 43.8883L2.67494 45.6726L1.14881 46.6189L2.94178 46.7413L3.40524 48.5115L4.11213 46.7837L5.94723 46.9155ZM1.8351 41.8324L2.87437 40.2835L4.64393 40.7684L3.47359 39.3513L4.46604 37.8212L2.76202 38.4945L1.56826 37.0821L1.65721 38.9182L0 39.549L1.74616 40.0104L1.8351 41.8324ZM2.67541 28.2289L4.20154 27.1743L5.66213 28.2806L5.10973 26.5387L6.61245 25.4935L4.75395 25.47L4.20154 23.714L3.60232 25.4606L1.81404 25.4229L3.25122 26.4916L2.67541 28.2289ZM4.99691 21.8251L6.70093 21.0672L7.91341 22.4513L7.71679 20.634L9.374 19.8902L7.58571 19.523L7.34228 17.6822L6.43409 19.2782L4.68794 18.8968L5.9051 20.2339L4.99691 21.8251ZM1.59167 34.9974L2.89778 33.6604L4.55499 34.4796L3.69361 32.8694L4.9529 31.5559L3.14121 31.8902L2.23302 30.2707L1.98959 32.0879L0.220025 32.3939L1.8351 33.1802L1.59167 34.9974ZM10.3033 15.5683L11.2302 17.1502L11.3847 15.3376L13.1542 14.9186L11.4549 14.2077L11.586 12.3622L10.3922 13.7652L8.73499 13.0449L9.68531 14.5891L8.49156 15.9732L10.3033 15.5683ZM7.11898 50.0261L5.79415 51.2878L4.15567 50.4309L4.9515 52.0975L3.62667 53.3169L5.41495 53.0862L6.19207 54.7387L6.56658 52.912L8.37827 52.6907L6.7866 51.8151L7.11898 50.0261ZM28.6318 20.2932C28.1449 20.2932 27.6581 20.7687 27.3257 21.15C26.9512 21.6208 26.3098 22.5153 26.2209 23.1603C26.1553 23.504 26.3098 23.6452 26.4877 23.6452C26.9091 23.6452 27.4615 22.9155 27.7938 22.2893C28.1215 21.602 28.276 21.2112 28.6739 20.3403C28.6973 20.2932 28.6552 20.2932 28.6318 20.2932ZM69.9773 50.1461L68.3435 51.0029L67.014 49.713L67.3464 51.5067L65.7547 52.3682L67.5664 52.6083L67.9222 54.435L68.718 52.7778L70.4876 53.0321L69.1815 51.7939L69.9773 50.1461ZM71.8569 43.58L70.4197 44.7428L68.8702 43.7259L69.5349 45.4349L68.1211 46.5836L69.9562 46.4706L70.6631 48.1843L71.1266 46.4047L72.8961 46.32L71.3934 45.3454L71.8569 43.58ZM58.9442 20.5644H58.125C57.6615 21.553 57.287 22.391 56.8657 23.3279C56.7112 23.648 56.5567 24.1847 56.6457 24.5096C56.6878 24.6932 56.9312 24.7356 57.1325 24.6697C57.7505 24.4484 58.1718 23.9164 58.5463 23.342C58.5463 23.2855 58.8787 23.3279 58.8553 23.3703C58.4339 24.2224 57.507 25.084 56.6223 25.0604C56.3554 25.0604 56.0698 24.8956 55.9154 24.6697C55.8264 24.552 55.7843 24.4484 55.7375 24.3072C55.6953 24.0765 55.6953 23.8175 55.7375 23.5727C55.2506 23.9352 54.7871 24.3825 54.1926 24.5096C53.9258 24.552 53.5934 24.4484 53.5279 24.1612C53.481 23.9352 53.5044 23.6951 53.5934 23.4927C53.9679 22.6547 54.3003 21.9014 54.6795 21.0304C54.6982 20.9881 54.6795 20.8421 54.6327 20.8233C54.5671 20.7668 54.3892 20.7668 54.2347 20.8892C53.481 21.4542 53.1065 22.1886 52.7742 22.9419C52.5541 23.4503 52.3107 23.9541 52.0673 24.4484H50.9859C51.117 24.1471 51.2948 23.7375 51.4259 23.4126C51.4259 23.3891 51.4259 23.3891 51.4259 23.4126C50.9859 23.8552 50.4101 24.3542 49.8342 24.5096C49.6142 24.5708 49.3942 24.4908 49.2818 24.2836C49.1508 24.0765 49.104 23.7752 49.2163 23.5068C49.2163 23.4927 49.2163 23.4927 49.1929 23.5068C48.795 23.9164 48.3971 24.2836 47.8681 24.4625C47.2501 24.6555 46.6977 24.2224 47.0956 23.3279C47.1799 23.0878 47.4936 22.4099 47.8213 21.6001C47.5591 21.7178 47.2033 21.7178 47.0254 21.6613C47.0067 21.6613 47.0067 21.6613 47.0067 21.6801C46.7633 22.8147 46.0985 23.8552 45.0592 24.3448C44.549 24.5896 43.9966 24.6555 43.491 24.3072C43.2475 24.1471 43.0931 23.7516 43.0931 23.4126C42.5594 23.9352 41.9648 24.6085 41.169 24.4908C41.0333 24.4625 40.949 24.3542 40.8788 24.2459C40.7056 23.9352 40.8132 23.6104 40.9256 23.342C41.3001 22.537 41.6325 21.7743 42.007 20.8657C42.0725 20.7385 41.8993 20.6444 41.7635 20.7056C41.389 20.8892 41.1456 21.0728 40.949 21.4024C40.8366 21.5813 40.7056 21.7837 40.6166 21.9814C40.2608 22.7582 39.8863 23.5727 39.5773 24.3542H38.4725C38.9547 23.2479 39.4229 22.1698 39.9097 21.0681C39.9518 20.9692 39.9284 20.8233 39.8629 20.7903C39.774 20.7385 39.5961 20.8233 39.4884 20.8892C39.2216 21.0681 39.0015 21.3129 38.8236 21.6189C38.627 21.9249 38.4725 22.2262 38.3368 22.5605L37.5222 24.3542H36.4595C36.5485 24.1188 36.7451 23.648 36.8809 23.4126C36.8809 23.3891 36.8575 23.3703 36.8575 23.3891C36.2582 23.874 35.5279 24.5096 34.9755 24.406C34.8023 24.3825 34.6244 24.2224 34.5776 24.0576C34.5589 23.8552 34.5589 23.6669 34.601 23.4927C34.601 23.4691 34.5776 23.4691 34.5589 23.4927C34.0908 23.9352 33.6741 24.3072 33.0983 24.4484C32.7425 24.5284 32.4335 24.3072 32.3259 24.0576C32.1714 23.7752 32.148 23.3279 32.3914 22.8147C32.5225 22.4899 32.677 22.1462 32.8783 21.8637C32.7659 21.9249 32.5225 21.9438 32.368 21.9249C32.2135 21.9014 32.0824 21.7978 32.0169 21.6943C31.928 21.6001 31.9046 21.4165 31.9046 21.2941C31.928 21.2705 31.8577 21.2705 31.8156 21.2941C31.4832 21.553 31.3522 21.8637 31.1977 22.2074L30.2661 24.326H29.1613L29.5592 23.4268C29.5826 23.4126 29.5592 23.3891 29.5405 23.4126C28.9881 23.9164 28.2999 24.4908 27.7475 24.3825C27.593 24.3542 27.4151 24.1989 27.3917 24.0435C27.3496 23.8552 27.373 23.648 27.3917 23.4691H27.3496C26.9048 23.9164 26.4648 24.2836 25.889 24.406C25.5566 24.5096 25.271 24.3072 25.14 24.02C24.9855 23.6104 25.0276 23.1867 25.1821 22.7959C25.6034 21.6943 26.3758 20.908 27.4151 20.3101C28.1033 19.9288 29.1191 19.8111 29.8494 20.1924C29.3626 21.3317 28.9881 22.1462 28.5199 23.2243C28.4778 23.3279 28.431 23.5068 28.5433 23.5727C28.6323 23.6104 28.7212 23.6104 28.7868 23.5727C29.3626 23.2855 29.8916 22.5935 30.2895 21.7978L31.0198 20.1783H32.059L31.7735 20.7903C31.7501 20.8233 31.7501 20.8421 31.7735 20.8233C32.1012 20.5785 32.4335 20.216 32.8549 19.99C33.0094 19.9147 33.3839 19.9147 33.3417 20.1783C33.3417 20.4137 33.1638 20.5973 33.0515 20.8233C32.986 20.9692 32.9204 21.1528 32.9438 21.2517C32.986 21.3553 33.1217 21.4165 33.2762 21.2941C33.4307 21.1952 33.5618 21.1105 33.6975 20.9881C33.9597 20.7385 34.2921 20.5032 34.6478 20.3101C35.3735 19.9664 36.3706 19.7499 37.1009 20.216C36.5906 21.3553 36.2161 22.2074 35.7292 23.2855C35.6403 23.4691 35.7058 23.5256 35.7527 23.5727C35.8182 23.6104 35.9493 23.6292 36.1038 23.5398C36.5017 23.3703 37.2086 22.5793 37.4988 21.9626C37.761 21.3882 38.0044 20.8233 38.2946 20.1783H39.3573L39.0437 20.8045L39.0905 20.8233C39.376 20.5644 40.1063 19.9664 40.6587 20.0936C40.9677 20.1595 41.1035 20.522 41.0801 20.7903C41.4358 20.5361 41.787 20.2348 42.2972 20.1077C43.0275 19.9288 43.3131 20.4419 43.0931 20.9269C42.8028 21.6001 42.2317 22.9183 41.918 23.5963C41.8759 23.6669 41.8759 23.8175 41.918 23.8552C41.9883 23.9164 42.1427 23.8552 42.2083 23.8175C42.5594 23.5068 42.7607 23.3044 43.0462 22.8995C43.1118 22.1886 43.5097 21.5342 44.0434 20.9881C44.5958 20.3572 45.4806 19.8723 46.3419 20.1595C46.6509 20.2536 46.8522 20.5644 46.9177 20.8657C46.9599 21.0304 47.0067 21.1105 47.0067 21.2941C47.4467 21.6189 48.046 21.0869 48.2894 20.6868C48.3549 20.522 48.4205 20.3384 48.4626 20.216C48.7294 20.2348 49.2163 20.216 49.5253 20.216L48.2004 23.2479C48.1115 23.4268 48.0881 23.5256 48.0881 23.6669C48.0881 23.7752 48.2192 23.7987 48.3549 23.7752C48.706 23.714 49.3053 22.9936 49.5908 22.391C49.9466 21.6331 50.2556 21.0069 50.588 20.2536H51.6459C51.2293 21.2705 50.7424 22.3487 50.4101 23.1396C50.3211 23.3044 50.2322 23.4691 50.279 23.6951C50.3211 23.7987 50.4756 23.7752 50.5411 23.7375C51.0093 23.4691 51.8051 22.5793 52.0907 22.0285C52.3762 21.3741 52.5775 20.8892 52.8865 20.2536H53.9913L53.7245 20.8892C54.1224 20.5644 54.5671 20.216 55.0961 20.1265C55.3396 20.0936 55.6485 20.1077 55.7843 20.3572C55.9388 20.6397 55.8498 20.941 55.7141 21.2093C55.4285 21.9014 55.0774 22.6547 54.7637 23.3279C54.7216 23.4927 54.6982 23.648 54.8106 23.714C54.9884 23.8175 55.7375 23.342 56.1354 22.4899C56.4678 21.7366 56.6878 21.2941 56.9968 20.5644H56.4444L56.5988 20.2348H57.1513L57.9705 18.4646H59.0566L58.2795 20.2348H59.0987L58.9442 20.5644ZM16.03 27.8805C13.0199 27.8569 13.0667 25.3994 13.179 25.084C13.2867 24.712 13.488 24.3825 13.8625 24.3825C14.237 24.3825 14.546 24.6932 14.546 25.084C14.546 25.3146 14.4383 25.5359 14.237 25.6536C13.8391 25.9031 13.928 26.2092 13.928 26.2092C13.928 27.518 15.5853 27.6215 16.03 27.6215C20.5382 27.6215 20.0326 20.1689 23.9883 17.636C24.1662 17.5136 24.2973 17.636 24.1896 17.7584C22.9491 19.3215 22.4856 21.8355 22.4856 21.8355C24.4097 21.8355 25.669 20.0088 25.669 18.733C25.669 16.5532 23.7215 15.6446 22.0409 15.6446C17.4204 15.6446 15.412 18.8978 15.412 20.6679C15.412 22.4475 16.5403 23.0878 17.3361 23.0878C18.4596 23.0878 18.8154 22.3298 18.6609 21.9626C18.4409 21.3835 18.7499 20.9033 19.101 20.9033C19.2367 20.9033 19.7002 20.8798 19.7002 21.6943C19.7002 22.4805 18.5954 23.2761 17.3548 23.2761C16.1377 23.2761 14.3728 22.6123 14.3728 20.6679C14.3728 16.7227 19.2133 15.2256 22.0409 15.3668C25.2055 15.5175 27.0406 17.0711 27.0406 18.733C27.0406 21.7037 22.3545 22.2121 22.3545 22.2121C21.5353 26.3363 18.2864 27.904 16.03 27.8805ZM37.1009 6.28523C20.0981 6.29465 6.34421 20.1454 6.34421 37.2304C6.34421 41.8865 7.56137 47.1264 9.75226 51.4248C13.708 47.7149 24.1007 35.9263 25.2944 34.5516C27.1061 32.4707 27.8786 33.7983 28.8523 32.6308C29.3813 31.9905 29.6949 31.7457 29.915 31.6186C30.2895 31.3973 30.7108 30.8606 30.9308 30.7052C31.1509 30.5451 31.6143 29.9049 31.9935 29.58C32.368 29.2599 33.1217 28.775 33.8707 28.1347C34.601 27.4897 35.8837 25.9926 37.2554 25.9926C38.9126 25.9926 39.5961 27.1131 39.7318 27.2496C39.8629 27.3814 40.8788 28.2806 41.0332 28.4548C41.2345 28.6573 42.3159 29.5188 42.8918 29.5188C43.491 29.5188 43.9076 30.1638 44.2213 30.4792C44.9282 31.1242 47.8025 34.1702 48.7528 34.8152C49.1742 35.1071 49.5674 35.0553 49.8998 35.3001C50.2134 35.5403 50.3679 35.6956 50.5645 35.7521C50.7424 35.8039 51.3604 35.6485 52.0673 36.5477C52.3996 36.7784 52.4886 36.8161 52.4886 36.8161C52.4886 36.8161 53.481 37.7106 53.8368 38.3415C54.1458 38.8876 61.4441 48.633 64.0516 52.1215C66.4859 47.7055 67.8763 42.6257 67.8763 37.221C67.8763 20.1265 54.0803 6.28523 37.1009 6.28523ZM35.8622 20.2932C35.3987 20.2932 34.8885 20.7687 34.5561 21.15C34.1816 21.6208 33.5636 22.5153 33.4513 23.1603C33.3857 23.504 33.5402 23.6452 33.7415 23.6452C34.1394 23.6452 34.7106 22.9155 35.043 22.2893C35.3519 21.602 35.5298 21.2112 35.9277 20.3403C35.9511 20.2932 35.9043 20.2932 35.8622 20.2932ZM45.944 20.3779C45.4806 20.1896 44.8813 21.0888 44.3945 22.0022C43.9076 22.9155 43.5565 24.0595 43.9778 24.262C44.4179 24.4926 44.9937 23.4946 45.4806 22.5812C45.9674 21.6632 46.3419 20.5192 45.944 20.3779ZM32.236 4.73303L33.6076 3.51838L35.1525 4.46468L34.4269 2.76041L35.7938 1.52222L33.9822 1.687L33.2987 0.0298177L32.8773 1.78587L31.0844 1.96477L32.6573 2.92518L32.236 4.73303ZM66.1081 20.3468L65.8881 22.1547L67.1474 20.7894L68.828 21.5427L67.9198 19.9373L69.137 18.6332L67.3908 18.9863L66.4826 17.3809L66.2626 19.2264L64.4743 19.5795L66.1081 20.3468ZM14.8578 10.8547L15.4991 12.592L15.9626 10.8265L17.7977 10.77L16.2528 9.74367L16.735 7.94995L15.2978 9.08456L13.8185 8.08648L14.4364 9.77192L13.0227 10.9018L14.8578 10.8547ZM67.2799 25.1649L68.7826 26.2242L68.2068 27.9661L69.6908 26.8645L71.1935 27.9285L70.6177 26.1724L72.0783 25.1226L70.2853 25.1367L69.7095 23.3995L69.1384 25.1602L67.2799 25.1649ZM71.149 39.9582L72.1462 41.5071L72.2773 39.6757L74 39.2426L72.3428 38.5835L72.4551 36.7521L71.2614 38.1786L69.5574 37.4771L70.5311 39.0119L69.3561 40.4242L71.149 39.9582ZM57.7505 10.6231L58.2139 12.3886L58.8787 10.6608L60.7138 10.7126L59.3 9.56383L59.9414 7.88781L58.4339 8.87647L57.0202 7.73244L57.4836 9.53558L55.9388 10.5431L57.7505 10.6231ZM71.7239 29.9477L70.8157 31.5672L69.004 31.2141L70.2633 32.5465L69.3785 34.1331L71.0404 33.3468L72.3231 34.6745L72.0984 32.8431L73.7369 32.0898L71.9674 31.7603L71.7239 29.9477ZM60.6248 14.6545L62.3944 15.0735L62.5255 16.9002L63.4758 15.323L65.2688 15.7326L64.0984 14.3297L65.0487 12.809L63.3868 13.4916L62.2165 12.1028L62.3289 13.9577L60.6248 14.6545ZM20.2301 7.07898L20.5157 8.91037L21.3349 7.2673L23.1279 7.55919L21.8218 6.25981L22.6176 4.5932L21.0026 5.43592L19.7433 4.16008L20.0335 5.93496L18.4184 6.78238L20.2301 7.07898ZM38.4931 4.42184L40.0614 3.49437L41.4096 4.70431L41.0117 2.90118L42.5847 1.95488L40.7683 1.76657L40.3938 0.00109886L39.6869 1.65358L37.8752 1.47938L39.2468 2.72227L38.4931 4.42184ZM52.3556 7.11476L53.1515 8.74841L53.4605 6.93586L55.2721 6.63927L53.6617 5.78243L53.9707 4.01695L52.688 5.27868L51.0729 4.42654L51.8922 6.10727L50.5627 7.39254L52.3556 7.11476ZM44.6838 5.32011L46.4065 4.70337L47.4926 6.17224L47.4458 4.31261L49.1732 3.68175L47.4271 3.14976L47.4037 1.35133L46.3644 2.83432L44.6417 2.30704L45.7465 3.79945L44.6838 5.32011ZM26.1783 6.25839L27.2597 4.80365L28.9871 5.42509L27.9479 3.89972L29.0527 2.42144L27.2831 2.9299L26.2906 1.44219L26.2438 3.24062L24.4977 3.75378L26.2204 4.40347L26.1783 6.25839Z" fill="#22505F"/>
</g>
<defs>
<clipPath id="clip0_3611_28726">
<rect width="74" height="60" fill="white"/>
</clipPath>
</defs>
</svg>
