<svg width="50" height="27" viewBox="0 0 50 27" fill="none" xmlns="http://www.w3.org/2000/svg">
<path d="M44.3281 22.5604C40.6597 22.5604 37.5966 19.9419 37.0407 16.2612H43.9575C44.7233 16.2612 46.3969 16.4224 46.3969 16.4224V13.3469C46.3969 13.3469 44.7604 13.4685 43.8402 13.4685H37.0469C37.7324 9.8372 40.7276 7.32986 44.3343 7.32986C46.2487 7.32986 48.6017 8.20682 48.6017 8.20682L48.6437 4.97692C48.6437 4.97692 46.9701 4.34082 44.333 4.34082C38.2314 4.34082 32.908 9.00348 32.908 14.963C32.908 21.3858 38.2438 25.7088 44.333 25.7088C47.1986 25.7088 48.9154 24.943 48.9154 24.943L48.8333 21.6019C48.8333 21.6019 46.7212 22.59 44.3373 22.59L44.3281 22.5604Z" fill="#22505F"/>
<path d="M23.5778 25.5865C23.5778 25.5865 23.8093 24.0364 23.8093 22.6778V7.91781H22.8151C21.4564 7.91781 19.3567 7.91781 17.8004 8.06973L17.6682 4.64221H33.8486L33.7701 8.06973C32.1645 7.91781 30.1018 7.91781 28.7061 7.91781H27.4771V22.6778C27.4771 24.0364 27.7482 25.5865 27.7482 25.5865H23.5673H23.5778Z" fill="#22505F"/>
<path d="M48.7129 2.97107C47.521 2.63696 45.9585 2.40784 44.6554 2.40784C41.0982 2.40784 38.0474 3.48242 35.4536 5.76125L35.4925 3.24774C38.1975 1.40738 41.273 0.579834 44.6326 0.579834C46.1024 0.579834 47.3808 0.781162 48.7271 1.13318L48.6888 2.97354L48.7129 2.97107Z" fill="#22505F"/>
<path d="M16.3521 22.7457L10.726 17.3296C14.1906 16.9955 17.087 14.4517 17.087 11.1538C17.087 7.63987 15.0614 4.54584 8.99684 4.29881C8.74548 4.28646 8.48425 4.27966 8.21252 4.27966C4.03156 4.27966 1.17221 4.47976 1.17221 4.47976C1.17221 4.47976 1.36304 6.54244 1.36304 7.57996V22.7722C1.36242 24.1741 1.09131 25.6377 1.09131 25.6377H5.30932C5.30932 25.6377 5.03821 24.1679 5.03821 22.4943V16.3186L9.00301 20.4687L11.0101 22.5437C12.2453 23.8962 14.4006 25.6439 14.4006 25.6439H19.9772C19.9772 25.6439 17.4823 23.8962 16.3212 22.7784L16.3521 22.7457ZM8.07665 14.8407H5.05673V7.24462C5.05673 7.24462 6.52655 7.20324 8.28045 7.20324C8.54292 7.20324 8.79674 7.22486 9.02771 7.23598C11.8377 7.46757 12.9987 8.99605 12.9987 10.8364C12.9987 12.8991 11.3683 14.4616 9.02771 14.795C8.72572 14.8352 8.40397 14.8519 8.08283 14.8519L8.07665 14.8407Z" fill="#22505F"/>
</svg>
