<svg width="120" height="18" viewBox="0 0 120 18" fill="none" xmlns="http://www.w3.org/2000/svg">
<g clip-path="url(#clip0_3626_5412)">
<path d="M40.6272 16.4528H35.6676C35.8449 14.8565 35.9043 12.3195 35.9043 9.84174V7.65425C35.9043 5.19138 35.8449 2.47042 35.5505 1.05552H38.3853C39.4407 1.05552 39.9742 1.40925 40.1523 2.11092C41.5103 1.11077 42.9829 0.694376 44.4604 0.694376C49.7614 0.694376 50.416 3.88284 50.416 6.23936V10.5525C50.416 12.9708 50.5298 15.1493 50.7046 16.4528H47.7594C46.4063 16.4528 45.7566 15.6275 45.7566 14.2703V8.01457C45.7566 5.53933 45.5216 3.65032 42.4494 3.65032C41.7444 3.65032 41.0353 3.76493 40.4466 4.00735V9.55233C40.4466 11.4908 40.4466 14.8565 40.6272 16.4528ZM25.995 1.05552H30.9497C30.7781 2.64192 30.7204 5.19138 30.7204 7.65425V9.84174C30.7204 12.3195 30.8309 15.0379 31.0684 16.4528H28.2419C27.1799 16.4528 26.6481 16.0975 26.4658 15.3917C25.1136 16.3918 23.6369 16.8057 22.1659 16.8057C16.8559 16.8057 16.207 13.6197 16.207 11.2566V6.9534C16.207 4.53835 16.0866 2.35169 15.9151 1.05552H18.8595C20.2134 1.05552 20.8598 1.88253 20.8598 3.23641V9.49379C20.8598 11.9674 21.1023 13.8539 24.1687 13.8539C24.8745 13.8539 25.5803 13.7352 26.1764 13.4994V7.95521C26.1764 6.00436 26.1121 2.64192 25.995 1.05552ZM11.9598 4.71232C11.0735 3.88284 9.48542 3.41286 7.82976 3.41286C6.64903 3.41286 5.23826 3.58848 5.23826 4.94979C5.23826 5.95242 6.41486 6.41746 8.18514 7.07049C10.2514 7.84225 12.6665 8.83828 12.6665 11.7266C12.6665 16.3325 7.77122 16.922 5.47077 16.922C4.17296 16.922 2.76796 16.8057 1.70349 16.5106C0.642313 16.2145 0.399902 15.7437 0.399902 14.3288V12.6221C1.58476 13.4416 3.46799 13.8539 4.99997 13.8539C6.88567 13.8539 7.82976 13.3246 7.82976 12.1463C7.82976 11.0249 6.82713 10.6135 4.17296 9.61004C2.34827 8.90012 0.404847 7.95521 0.404847 5.29774C0.404847 1.40925 4.82269 0.400019 7.48098 0.400019C9.07068 0.400019 10.3701 0.694376 11.1906 1.05552C11.898 1.40925 11.9598 1.81904 11.9598 2.7656V4.71232Z" fill="#22505F"/>
<path d="M72.3555 8.66409C72.3555 12.2046 73.5874 13.7943 76.0107 13.7943C78.3705 13.7943 79.5429 12.2046 79.5429 8.66409C79.5429 5.12767 78.3705 3.47696 76.0107 3.47696C73.5874 3.47696 72.3555 5.12767 72.3555 8.66409ZM84.0894 8.60473C84.0894 13.735 81.1359 16.9226 75.8359 16.9226C70.5234 16.9226 67.8132 14.0252 67.8132 8.78118C67.8132 3.5891 70.7031 0.582851 76.0107 0.582851C81.314 0.582851 84.0894 3.41265 84.0894 8.60473ZM64.6865 1.05613C65.5078 1.05613 66.8072 0.988522 67.4627 0.878859C67.3382 1.35214 66.9911 2.58811 66.7487 3.12324C66.3356 4.00796 65.8054 4.29655 63.7433 4.29655H61.9763V9.55129C61.9763 11.4914 62.0291 14.8563 62.2121 16.4526H57.1973C57.3729 14.8563 57.4331 11.4914 57.4331 9.55129V4.29655H55.8987C54.5407 4.29655 53.364 4.47959 52.7737 4.82672V2.76704C52.7737 1.58631 53.007 1.05613 54.7773 1.05613H64.6865Z" fill="#22505F"/>
<path d="M113.399 11.967V12.3199C113.399 13.499 113.464 15.4507 113.634 16.4525H108.62C108.798 15.4507 108.856 13.4413 108.856 12.3199V11.967C108.856 11.3206 108.685 10.6717 108.154 9.6105C107.029 7.36529 104.555 3.06453 102.433 1.11039C103.257 0.989185 104.792 0.936415 105.735 0.936415C107.68 0.936415 108.272 1.58615 108.742 2.35131C109.151 3.00682 110.804 6.23981 111.336 7.60193C111.984 6.06913 113.286 3.35559 113.869 2.40985C114.344 1.69911 114.992 0.936415 116.646 0.936415C117.411 0.936415 118.652 0.989185 119.6 1.11039C118.064 2.47005 115.171 7.24821 113.996 9.43569C113.464 10.4952 113.399 11.0204 113.399 11.967ZM100.782 17.338C98.8885 17.338 98.4795 16.6289 97.3021 14.9188C96.6482 13.9756 94.5869 10.4952 94.2282 9.78365C94.0551 9.43569 93.9965 9.13227 94.3503 8.96406C95.8831 8.06779 96.2994 7.13195 96.2994 6.06913C96.2994 4.82656 95.7651 3.76539 93.9965 3.76539C93.4639 3.76539 92.6971 3.82475 92.345 3.94926V9.55278C92.345 11.4913 92.406 14.8562 92.5792 16.4525H87.7474C87.9238 14.9188 87.989 12.3199 87.989 9.84219V7.65553C87.989 5.17946 87.9238 2.47005 87.6287 1.05185C89.9316 1.05185 93.2866 0.936415 94.7633 0.936415C97.3557 0.936415 100.835 1.46247 100.835 5.35508C100.835 6.95385 100.072 8.24837 98.7739 9.08032C98.5381 9.25347 98.5381 9.37468 98.7739 9.72346C100.432 12.2045 102.433 14.979 104.259 16.9224C103.61 17.1047 101.898 17.338 100.782 17.338Z" fill="#22505F"/>
</g>
<defs>
<clipPath id="clip0_3626_5412">
<rect width="120" height="17.738" fill="white"/>
</clipPath>
</defs>
</svg>
