<svg width="169" height="40" viewBox="0 0 169 40" fill="none" xmlns="http://www.w3.org/2000/svg">
<path d="M47.5028 15.6914C45.9304 15.654 45.6704 15.654 44.0547 15.654C44.0176 17.5373 44.0176 17.8429 44.0176 19.5204C44.0176 24.2536 44.0919 26.1244 44.1475 27.2531L44.0361 27.384C42.9713 27.384 42.9156 27.384 41.8818 27.4401L41.789 27.3092C41.8818 24.6713 41.9004 22.0272 41.9004 19.3894C41.9004 17.4624 41.8632 16.4647 41.8447 15.654C40.2166 15.6728 40.0309 15.6728 38.3595 15.7288L38.248 15.5979C38.2852 14.9368 38.2852 14.862 38.3224 14.201L38.4152 14.0701C39.7647 14.0701 41.919 14.0701 43.2623 14.0513C44.7047 14.0513 46.1471 14.0327 47.5895 14.0139L47.6823 14.1449C47.6265 14.8059 47.608 15.0117 47.608 15.5605L47.5028 15.6914Z" fill="#22505F"/>
<path d="M56.0452 24.1598C55.841 25.0828 55.4448 25.8186 54.8258 26.4422C54.0024 27.2717 52.8943 27.5896 51.5882 27.5896C49.9043 27.5896 48.8334 26.9473 48.2391 26.3237C46.9639 25.0204 46.9453 23.0997 46.9453 22.4761C46.9453 21.7589 46.9825 19.9131 48.2391 18.6471C48.7653 18.0984 49.8486 17.3251 51.7243 17.3251C52.9995 17.3251 54.25 17.7367 55.0733 18.6845C55.9338 19.6823 56.1753 21.0044 56.2124 22.3264C56.2186 22.9749 56.1753 23.5986 56.0452 24.1598ZM53.631 19.8445C53.2719 19.2582 52.6777 18.7656 51.6253 18.7656C51.2724 18.7656 50.2201 18.803 49.5639 19.8632C49.0562 20.6365 49.0005 21.7277 49.0005 22.5197C49.0005 23.2743 49.0191 25.1825 50.4986 25.9371C50.8329 26.1054 51.229 26.1803 51.6067 26.1803C52.3001 26.1803 53.1977 25.9496 53.7424 24.9144C54.1757 24.0663 54.1943 22.8004 54.1757 22.4075C54.1757 21.9397 54.1015 20.6739 53.631 19.8445Z" fill="#22505F"/>
<path d="M66.6249 17.6368C66.5877 19.071 66.5692 20.4118 66.5692 21.9396C66.5692 24.2594 66.6249 25.6563 66.662 26.467C66.662 26.7289 66.6806 26.997 66.6991 27.259L66.6249 27.3712C65.7272 27.3899 65.5787 27.4087 64.7182 27.446L64.6068 27.3338L64.6253 26.5418C64.2168 26.8474 63.2201 27.6207 61.6849 27.6207C60.9544 27.6207 60.1497 27.4523 59.5492 26.9784C58.3544 25.9992 58.3544 24.3966 58.3297 22.9249V21.7525C58.2925 19.0585 58.2925 18.7529 58.2368 17.7303L58.3297 17.5993C59.2087 17.5806 59.3758 17.5806 60.2611 17.5057L60.3725 17.6368L60.2982 21.765C60.2982 22.2763 60.2797 22.6505 60.2982 23.5547C60.3168 24.3467 60.354 26.0429 62.2482 26.0429C63.3502 26.0429 64.1363 25.4193 64.5882 25.0639C64.6068 24.0474 64.6068 23.1744 64.6068 22.0831C64.6068 19.4639 64.5882 18.9338 64.4768 17.7053L64.5882 17.5744C65.4487 17.5557 65.653 17.5557 66.5197 17.4995L66.6249 17.6368Z" fill="#22505F"/>
<path d="M73.6266 19.5391C73.4408 19.4643 73.1933 19.3708 72.8775 19.3708C72.5185 19.3708 72.2585 19.5017 72.0913 19.614C71.3238 20.1628 71.3238 20.9921 71.3238 22.9502C71.3238 25.0829 71.3795 26.193 71.4537 27.2532L71.3609 27.3841C70.4818 27.3841 70.2775 27.4028 69.3737 27.4402L69.2809 27.328C69.2995 25.8937 69.3181 24.5903 69.3181 22.838C69.3181 19.8197 69.2623 19.0465 69.1509 17.9552L69.2623 17.8242C69.9743 17.6932 70.4262 17.5934 71.2123 17.4438L71.3238 17.5561L71.2309 19.1588C71.4537 18.5538 71.9242 17.3502 73.5151 17.3502C73.7566 17.3502 73.8866 17.369 74.0414 17.4064L74.1157 17.5187C73.9299 18.4228 73.8927 18.61 73.7628 19.4394L73.6266 19.5391Z" fill="#22505F"/>
<path d="M77.564 27.3653C76.5921 27.3841 76.4435 27.3841 75.5212 27.4402L75.4283 27.3092C75.4841 26.3114 75.5398 25.4446 75.5398 23.3493C75.5398 19.7449 75.484 19.0651 75.354 17.9551L75.4469 17.8242C76.2516 17.6932 76.5302 17.6558 77.4712 17.4437L77.6568 17.556C77.6012 18.5351 77.5455 19.5578 77.5455 21.9898C77.5455 25.4945 77.5826 25.9684 77.6568 27.253L77.564 27.3653ZM77.5826 14.8246C76.6293 14.862 76.4188 14.8807 75.5026 14.9743L75.3912 14.862C75.4097 14.6188 75.4097 14.3569 75.4097 14.1074C75.4097 13.7707 75.3912 13.4651 75.3726 13.091L75.5026 12.9787C76.4745 12.9039 76.6417 12.8852 77.5826 12.7916L77.694 12.9039C77.6754 13.6771 77.6754 13.8642 77.694 14.6999L77.5826 14.8246Z" fill="#22505F"/>
<path d="M84.1327 21.653C84.8817 21.8962 86.5841 22.4824 86.5841 24.4841C86.5841 25.2387 86.3056 26.0868 85.5379 26.7104C84.5475 27.5585 83.2165 27.6146 82.5417 27.6146C81.5328 27.6146 80.6847 27.4276 79.9789 27.1408C79.8861 27.1033 79.7932 27.0659 79.7003 27.0285L79.6075 26.8601C79.6817 26.1242 79.6818 26.0307 79.7189 25.2761L79.9047 25.22C80.2389 25.4819 81.0684 26.1242 82.5108 26.1242C83.9904 26.1242 84.5351 25.2948 84.5351 24.7087C84.5351 23.8418 83.7304 23.555 82.5851 23.1808L81.9846 22.9751C81.217 22.7318 79.5332 22.1831 79.5332 20.2436C79.5332 18.298 81.217 17.3376 83.3156 17.3376C84.7023 17.3376 85.6742 17.7305 86.0146 17.8677L86.1074 17.9986C86.0332 18.6971 86.0146 18.772 85.9589 19.4891L85.7918 19.5639C85.3213 19.2646 84.5908 18.8094 83.3775 18.8094C83.1175 18.8094 82.8513 18.828 82.5728 18.9029C82.0094 19.0588 81.5451 19.4517 81.5451 20.0378C81.5451 20.8485 82.3128 21.098 83.4704 21.4535L84.1327 21.653Z" fill="#22505F"/>
<path d="M88.3479 17.824C89.3013 17.6743 89.8089 17.5621 90.3538 17.4436L90.4649 17.5745L90.4098 18.5349C91.0658 18.061 92.112 17.3251 93.5724 17.3251C95.1822 17.3251 95.7271 18.248 95.9867 18.6845C96.4391 18.3478 97.8195 17.3251 99.584 17.3251C100.277 17.3251 101.063 17.5496 101.589 18.0797C102.468 18.9277 102.487 19.6449 102.487 21.2663V22.869C102.487 25.0204 102.506 25.5442 102.598 27.2467L102.487 27.3776C101.589 27.3776 101.441 27.3964 100.58 27.4338L100.468 27.3215C100.506 25.7563 100.524 24.0413 100.524 22.5135C100.524 21.3286 100.524 20.9109 100.432 20.4743C100.265 19.6637 99.8311 19.0026 98.7849 19.0026C98.3147 19.0026 97.4169 19.1335 96.3893 19.9629C96.4453 20.3558 96.464 21.7153 96.464 22.2641V23.3366C96.464 25.2636 96.4818 25.9184 96.5751 27.2405L96.4818 27.3714C95.5102 27.3714 95.3991 27.3901 94.5138 27.4275L94.4018 27.3153C94.4764 25.619 94.4951 23.4489 94.4951 22.2578C94.4951 21.3162 94.4951 20.8422 94.3653 20.3309C94.2169 19.726 93.8942 18.9714 92.7929 18.9714C92.1182 18.9714 91.3129 19.2333 90.4338 19.9317V23.1558C90.4338 25.2511 90.4898 26.1741 90.5644 27.2342L90.4524 27.3652C89.4809 27.3652 89.4062 27.3652 88.5027 27.4213L88.3913 27.3091C88.4284 26.5545 88.4656 25.4819 88.4656 23.5362C88.4656 19.9879 88.3727 18.803 88.2612 17.9362L88.3479 17.824Z" fill="#22505F"/>
<path d="M111.358 14.1262C111.302 16.7266 111.265 19.3333 111.265 21.9337C111.265 24.6651 111.302 25.5382 111.396 27.2718L111.284 27.384C109.73 27.384 109.352 27.384 107.953 27.4401L107.86 27.328C107.935 25.3636 107.972 24.2161 107.972 21.9898C107.972 17.1818 107.916 16.2152 107.804 14.1823L107.879 14.0701C109.228 14.0888 109.656 14.0888 111.265 14.0139L111.358 14.1262Z" fill="#22505F"/>
<path d="M118.903 20.4683C118.643 20.3186 118.451 20.2064 118.136 20.2064C116.86 20.2064 116.86 21.4536 116.86 22.3017C116.86 23.605 116.971 25.7316 117.046 27.2594L116.954 27.3903C115.455 27.3717 115.158 27.3903 113.771 27.4464L113.66 27.3343C113.697 25.7689 113.715 24.2224 113.715 22.6759C113.715 20.0567 113.66 19.2024 113.548 17.793L113.66 17.6808C115.028 17.475 115.381 17.4189 116.768 17.1133L116.916 17.263L116.86 18.9966C117.461 17.5998 118.322 17.1632 119.089 17.1632C119.219 17.1632 119.349 17.1819 119.479 17.1819L119.59 17.3128L119.07 20.3872L118.903 20.4683Z" fill="#22505F"/>
<path d="M129.124 24.6525L128.994 26.779L128.883 26.9286C127.892 27.3214 127.217 27.6084 125.663 27.6084C124.314 27.6084 121.77 27.3839 120.686 24.8333C120.389 24.1723 120.241 23.2494 120.241 22.3638C120.241 19.1023 122.184 17.1567 125.125 17.1567C125.552 17.1567 125.985 17.1942 126.456 17.3251C127.093 17.4748 128.536 17.93 129.192 20.1563C129.452 21.0979 129.47 22.0458 129.489 22.9687L129.378 23.0997L123.33 23.2119C123.404 23.5923 123.46 23.9665 123.744 24.3594C124.197 25.0391 124.964 25.3945 126.085 25.3945C127.453 25.3945 128.294 24.958 129.006 24.5838L129.124 24.6525ZM126.45 21.1415C126.45 20.705 126.431 20.256 126.171 19.8383C125.966 19.4952 125.589 19.1772 124.97 19.1772C124.71 19.1772 124.444 19.2334 124.221 19.383C123.509 19.8382 123.379 20.6302 123.324 21.2102L126.45 21.1415Z" fill="#22505F"/>
<path d="M134.386 27.3902C133.018 27.3715 132.51 27.3902 131.26 27.4463L131.148 27.3153C131.223 25.4508 131.26 24.3158 131.26 22.2828C131.26 21.1666 131.26 20.0566 131.242 18.9403C131.204 15.8847 131.186 15.261 131 12.9599L131.075 12.8477L134.275 12.3363L134.404 12.4672C134.331 14.5064 134.312 15.3546 134.312 17.1443C134.312 23.106 134.404 25.0828 134.498 27.253L134.386 27.3902Z" fill="#22505F"/>
<path d="M144.984 23.1622C144.984 24.9333 144.984 25.4072 145.114 27.2531L145.021 27.3841C143.802 27.3654 143.393 27.3841 142.044 27.4402L141.932 27.3093V26.6108C141.542 26.935 140.731 27.6086 139.332 27.6086C137.5 27.6086 136.057 26.3053 136.057 24.291C136.057 23.4429 136.41 22.3702 137.462 21.7093C138.589 21.0108 139.636 20.805 141.883 20.4995C141.883 20.2189 141.827 19.8758 141.641 19.6887C141.4 19.4455 141.115 19.3334 140.421 19.3334C139.165 19.3334 137.952 19.826 137.295 20.0878L137.147 20.0131L137.24 17.9551L137.351 17.8054C138.416 17.4812 139.412 17.1819 141.022 17.1819C143.418 17.1819 144.167 17.9365 144.544 18.5414C145.034 19.3334 145.034 20.0692 145.015 21.7654L144.984 23.1622ZM141.914 22.4825C140.638 22.6509 139.159 22.863 139.159 24.1039C139.159 24.8959 139.722 25.2513 140.396 25.2513C141.016 25.2513 141.524 24.9894 141.914 24.7587V22.4825Z" fill="#22505F"/>
<path d="M156.238 27.3654C154.74 27.3654 154.424 27.3841 153.187 27.4215L153.075 27.3094C153.075 26.667 153.093 26.006 153.093 25.3637C153.093 24.6527 153.075 22.0648 153.037 21.4412C152.982 20.7614 152.889 19.6452 151.855 19.6452C151.255 19.6452 150.809 19.9694 150.413 20.2314C150.431 23.6051 150.45 24.3409 150.562 27.247L150.45 27.3592C148.952 27.3592 148.674 27.3592 147.323 27.4153L147.212 27.303C147.231 26.0933 147.25 24.8897 147.25 23.6799C147.25 20.6055 147.138 19.4144 146.989 17.7743L147.101 17.6434C148.507 17.4563 148.822 17.4002 150.264 17.0946L150.45 17.2256L150.413 18.2608C151.274 17.7494 152.264 17.1446 153.409 17.1446C154.083 17.1446 155.148 17.2942 155.731 18.2795C156.195 19.0527 156.219 19.9196 156.238 21.7342V23.206C156.275 25.0519 156.275 25.5819 156.368 27.2407L156.238 27.3654Z" fill="#22505F"/>
<path d="M167.585 27.3902C166.181 27.3902 165.828 27.3902 164.533 27.4463L164.441 27.3341L164.477 26.5982C164.026 26.9973 163.333 27.6147 162.008 27.6147C161.389 27.6147 160.38 27.465 159.557 26.7853C158.448 25.8623 158.058 24.3906 158.058 22.9189C158.058 20.9733 158.603 19.4143 159.909 18.3915C161.333 17.2628 163.091 17.294 164.496 17.3376C164.515 15.1862 164.496 14.7185 164.385 12.9412L164.477 12.8289L167.567 12.3363L167.697 12.4486C167.622 14.943 167.549 16.9946 167.549 21.9773C167.549 24.4468 167.604 25.5817 167.678 27.2779L167.585 27.3902ZM163.859 19.539C161.76 19.539 161.351 21.1603 161.351 22.6134C161.351 22.9937 161.351 25.3323 163.165 25.3323C163.692 25.3323 164.063 25.1078 164.441 24.877C164.496 22.5946 164.515 22.102 164.496 19.5951C164.237 19.5576 164.069 19.539 163.859 19.539Z" fill="#22505F"/>
<path d="M24.0534 8.86933C24.2268 8.58871 23.8987 8.29561 23.7501 8.12724C23.1806 7.33526 22.5059 6.57446 21.6887 5.86978C21.5154 5.41456 20.8653 5.34596 20.5372 4.88448C19.5653 4.33571 18.4758 3.68716 17.374 3.78071L17.3244 3.59985C16.8416 3.67469 16.4268 3.67469 15.9192 3.84306C15.3249 3.73081 14.7802 4.06133 14.1612 4.03639C12.9973 4.46667 11.7283 4.80965 10.7564 5.6141C9.8216 5.95709 9.17778 6.81767 8.62685 7.57847C8.22447 7.79672 8.14399 8.35798 8.02019 8.80697C8.09447 8.81944 8.22447 8.75708 8.26162 8.86933C8.28637 8.93168 8.23685 8.95665 8.21209 8.98154C8.15019 8.98154 8.06352 9.00652 8.02019 8.93168V9.66128C8.03257 10.1166 8.28637 10.5531 8.45352 10.8836C8.8992 12.3366 10.0383 13.5215 10.8864 14.7999C9.86498 14.7999 8.45352 14.7999 7.3578 14.7999C5.68639 15.1553 3.97782 15.2426 2.44878 16.153C1.54498 16.7517 0.665935 17.7869 0.319269 18.9718C0.19546 19.8136 0.0530803 20.7366 0.00974718 21.6533C-0.0273955 22.57 0.034509 23.4742 0.319269 24.2911C0.331651 24.5967 0.548315 24.9833 0.368792 25.2079H0.498793C1.39641 27.9891 3.16068 31.3628 6.27448 32.2483C8.15637 32.6662 9.75351 31.5125 10.7687 30.1717C11.1897 29.9036 11.3692 29.3174 11.7406 29.0742C11.5797 28.4505 12.2483 28.3071 12.3473 27.7833C13.4988 26.9352 13.474 25.2889 14.7121 24.4221C14.8792 24.4719 15.1083 24.316 15.2073 24.553C15.133 26.6421 14.4892 28.4943 13.864 30.365C13.2325 32.5351 11.914 34.7428 9.8464 36.2332C9.86498 36.5637 9.32018 36.6135 9.43164 36.8443L10.1497 36.6011C10.7997 36.5138 11.2764 35.6719 11.7964 35.2604H11.9078C14.4644 32.5415 16.4516 29.598 17.442 26.2555C17.7578 24.9085 17.8877 23.0439 17.5659 21.6657C17.6154 21.3664 17.2935 21.0546 17.3244 20.8052L17.5721 19.5642C17.442 19.0279 17.5349 18.4043 17.2625 17.9303C17.5659 17.6996 17.8196 17.4065 18.2344 17.4439C18.5749 17.0012 19.194 17.0885 19.5035 16.6395L19.6954 16.8265C20.2216 16.7517 20.5435 16.5335 20.9706 16.2154C21.732 16.0221 22.7164 15.7166 22.9082 14.7999C24.1092 13.5775 24.3259 12.0497 24.6168 10.4034C24.4249 9.88581 24.5116 9.2747 24.0534 8.86933ZM12.2731 25.7005C10.5768 26.7731 8.4659 28.3009 6.38591 26.9913C5.47591 26.3116 4.66496 25.3949 4.37401 24.3472C5.09211 23.7174 6.05781 23.5552 6.99257 23.6176C7.15971 23.6176 7.35162 23.337 7.47543 23.6176C7.92114 23.3619 8.32352 23.5802 8.81875 23.4243L8.93022 23.5552C9.97022 23.4929 11.2454 23.6176 12.2731 23.9231C12.7064 23.9231 13.2449 23.9606 13.6164 24.2786C13.4988 24.8711 12.7373 25.3076 12.2731 25.7005ZM4.19449 23.2497C4.13259 22.6385 4.00259 22.0648 4.30592 21.5286C6.23115 19.0404 10.0816 19.5642 12.5701 20.3687C12.8859 20.4809 13.1768 20.6617 13.542 20.6742C13.7959 21.4101 14.8978 21.1731 14.8173 22.0898C11.2454 21.6471 7.41971 21.9526 4.19449 23.2497ZM16.043 15.5981C15.6283 15.6105 15.294 15.3175 15.0649 15.0493C14.0868 13.9891 12.923 12.8417 12.2049 11.6818C12.0749 10.9335 11.4683 10.2039 11.784 9.41185C12.3164 8.3268 13.443 7.86533 14.4582 7.57223C14.5944 7.17936 14.8483 7.62835 15.0649 7.39762C16.0802 7.16689 17.1016 6.55576 18.2283 6.96733C17.4792 8.13971 16.953 9.49292 16.5816 10.7651C16.3649 10.7775 16.4454 11.0207 16.3402 11.1268C15.8016 12.6546 15.8511 13.9143 16.043 15.5981ZM20.4135 11.3139C19.4106 13.4154 18.4263 15.5981 17.1944 17.5499C17.182 17.2319 16.7364 17.0012 16.8292 16.7642C16.433 15.9348 16.3092 15.0805 16.4578 14.1887C16.6373 12.9415 16.8107 11.9936 17.2564 10.7713C17.6711 10.1602 17.8011 9.39319 18.1663 8.74461L18.1044 8.67601C18.5068 8.32056 18.5439 7.57847 18.773 7.21054C19.5964 7.3602 20.0978 8.03993 20.6611 8.74461C21.0077 9.63016 20.754 10.4845 20.4135 11.3139Z" fill="#22505F"/>
<path d="M17.4976 20.5617C17.5594 20.9421 17.968 20.992 18.2837 21.0418C19.0823 20.7986 20.0047 20.6489 20.4132 19.7572C22.0104 18.7532 23.5271 17.5497 25.2728 16.9385C26.7894 16.502 29.0241 15.6103 30.3861 17.0009C31.2589 20.0753 29.4265 22.8066 28.0708 25.326C27.1546 26.3238 26.616 28.151 24.9694 27.8392C24.3566 27.5336 23.6261 26.9973 23.5766 26.2427C23.5146 25.9247 23.1184 25.9122 23.4528 25.5692C23.038 25.2013 23.4032 24.5153 23.2732 24.1038C23.4342 23.3367 23.818 22.6757 24.5546 22.2641C25.3408 21.9835 26.2632 22.1768 26.8575 22.7505C27.1546 23.7233 26.9689 24.9331 26.2508 25.6939H26.4427C27.0494 25.0704 27.7736 24.4217 28.2008 23.6173C28.1389 23.3866 28.2936 23.2369 28.3803 23.0624C28.4298 22.8939 28.5722 22.6258 28.3803 22.5136C28.3556 22.4263 28.4546 22.4013 28.5104 22.3327C28.3432 22.2454 28.3061 22.0272 28.3803 21.9025C27.8232 20.9421 27.0494 20.4432 26.0775 20.0628C23.5208 19.1585 21.1499 20.6615 19.3299 22.3327C19.2556 22.2953 19.268 22.208 19.268 22.1394C18.8904 22.4699 19.0946 23.1309 18.7232 23.3617C18.7976 23.8543 18.6613 24.7648 18.5437 25.1452C18.8718 25.3759 18.5808 25.8374 18.7851 26.0618C18.9709 26.3674 18.6489 26.8289 18.9647 27.0347C19.2804 28.2819 20.4194 29.0614 21.3356 29.9781C21.7752 30.2961 22.3942 30.2961 22.7408 30.7077C22.9823 31.2253 23.5394 30.6828 23.8304 31.2004C24.4865 31.2753 25.2851 31.5433 26.0156 31.4436C26.3808 31.4561 26.8389 31.3688 27.167 31.138C27.9408 31.0009 28.5908 30.5145 29.1851 29.9096C29.4637 29.8222 29.5256 29.4294 29.7918 29.3608C30.0332 28.7497 30.5779 28.2881 30.8813 27.7019C30.7017 27.2592 31.3641 27.1657 31.3641 26.7229C31.3146 26.7479 31.2775 26.6979 31.2527 26.673C31.9213 25.6441 32.5837 24.2659 33.2522 23.0561C33.1779 22.788 33.4565 22.5073 33.6175 22.2641C34.2241 20.5929 34.2118 19.0401 33.9208 17.3065C33.4193 16.0405 32.5837 15.0739 31.4322 14.3755C29.3027 13.596 27.0742 13.6458 25.0499 14.7933C24.9136 14.7933 24.7589 14.7683 24.6784 14.918L24.6289 14.8557C22.1342 16.0905 19.5776 17.5809 17.6399 19.751L17.4976 20.5617Z" fill="#22505F"/>
</svg>
