<svg width="80" height="26" viewBox="0 0 80 26" fill="none" xmlns="http://www.w3.org/2000/svg">
<mask id="mask0_3611_28816" style="mask-type:luminance" maskUnits="userSpaceOnUse" x="0" y="0" width="80" height="26">
<path d="M41.3728 8.34643C41.3272 11.9414 44.5767 13.9477 47.0245 15.1404C49.5396 16.3644 50.3843 17.1491 50.3747 18.2435C50.3555 19.9186 48.3684 20.6577 46.5085 20.6865C43.2639 20.7369 41.3776 19.8106 39.8777 19.1098L38.709 24.5791C40.2137 25.2726 42.9999 25.8774 45.8894 25.9038C52.6714 25.9038 57.1087 22.556 57.1327 17.3651C57.1591 10.7775 48.0204 10.4127 48.0828 7.46809C48.1044 6.57534 48.9564 5.62259 50.8235 5.38021C51.7474 5.25781 54.2985 5.16422 57.1903 6.49614L58.3254 1.20445C56.7703 0.638083 54.7713 0.0957131 52.2826 0.0957131C45.899 0.0957131 41.4088 3.48912 41.3728 8.34643ZM69.2328 0.551686C67.9945 0.551686 66.9505 1.27405 66.485 2.38278L56.7967 25.515H63.5739L64.9227 21.788H73.2046L73.9869 25.515H79.9602L74.7477 0.551686H69.2328ZM70.1808 7.29529L72.1366 16.6691H66.7801L70.1808 7.29529ZM33.1557 0.551686L27.8136 25.515H34.2716L39.6113 0.551686H33.1557ZM23.6019 0.551686L16.8799 17.5427L14.1608 3.09554C13.8416 1.48283 12.5817 0.551686 11.1826 0.551686H0.193643L0.0400391 1.27644C2.29591 1.76601 4.85896 2.55557 6.41166 3.40032C7.36201 3.91629 7.63319 4.36746 7.94517 5.59379L13.0953 25.515H19.9205L30.3839 0.551686H23.6019Z" fill="white"/>
</mask>
<g mask="url(#mask0_3611_28816)">
<path d="M-8.3291 3.1779L70.4159 -25.822L88.3301 22.8224L9.58586 51.8223" fill="#22505F"/>
</g>
</svg>
