<svg width="122" height="30" viewBox="0 0 122 30" fill="none" xmlns="http://www.w3.org/2000/svg">
<g clip-path="url(#clip0_3611_28821)">
<path d="M30.0115 15.0001C30.0115 23.2713 23.3086 29.9769 15.0374 29.9769C6.76611 29.9769 0.0605469 23.2713 0.0605469 15.0001C0.0605469 6.72883 6.76611 0.0231934 15.0374 0.0231934C23.3087 0.0231934 30.0115 6.72883 30.0115 15.0001Z" fill="#22505F"/>
<path d="M15.1561 23.3511C11.0425 23.3651 6.7609 19.8538 6.74177 14.2131C6.728 10.4846 8.74213 6.89389 11.3121 4.76414C13.8215 2.68945 17.2582 1.35496 20.373 1.34387C20.7747 1.34387 21.1957 1.37691 21.4516 1.46493C18.7276 2.02901 16.5593 4.566 16.5676 7.44138C16.5676 7.53767 16.5758 7.63946 16.5867 7.68626C21.1461 8.7979 23.2153 11.5495 23.229 15.3549C23.2401 19.1631 20.2356 23.3347 15.1561 23.3511Z" fill="white"/>
<path d="M39.6836 21.2021L35.105 10.2756H38.0961L40.9522 17.5315L43.7203 10.2756H46.5764L42.1326 21.2022L39.6836 21.2021ZM54.5449 15.6824C54.5449 15.2284 54.4927 14.7964 54.3853 14.3864C54.2807 13.9765 54.1212 13.6243 53.9094 13.3298C53.6974 13.0327 53.4416 12.7988 53.1389 12.6254C52.8362 12.4494 52.4813 12.3613 52.074 12.3613C51.6668 12.3613 51.3091 12.4494 51.0091 12.6254C50.7065 12.7988 50.4478 13.0327 50.2387 13.3298C50.0268 13.6243 49.8673 13.9765 49.7627 14.3864C49.6554 14.7965 49.603 15.2284 49.603 15.6825C49.603 16.153 49.6554 16.5905 49.7627 16.9922C49.8673 17.394 50.0213 17.7461 50.2249 18.0488C50.4285 18.3515 50.6872 18.5909 50.9981 18.767C51.3063 18.9403 51.6668 19.0284 52.074 19.0284C52.4813 19.0284 52.8362 18.9403 53.1389 18.767C53.4416 18.5909 53.6974 18.3515 53.9093 18.0488C54.1212 17.7461 54.2808 17.3939 54.3853 16.9922C54.4926 16.5905 54.5449 16.153 54.5449 15.6824ZM57.3103 15.6945C57.3103 16.4071 57.2002 17.106 56.9828 17.7939C56.7627 18.4818 56.438 19.0954 56.006 19.6402C55.5767 20.185 55.0319 20.6225 54.3743 20.9554C53.7167 21.2884 52.949 21.4535 52.074 21.4535C51.1963 21.4535 50.4286 21.2883 49.7737 20.9554C49.1161 20.6225 48.5712 20.185 48.1392 19.6402C47.71 19.0954 47.3853 18.4818 47.1652 17.7939C46.9478 17.106 46.8377 16.4071 46.8377 15.6945C46.8377 14.9845 46.9478 14.2912 47.1652 13.6087C47.3853 12.9291 47.71 12.321 48.1392 11.7845C48.5712 11.2479 49.1161 10.8187 49.7737 10.4939C50.4286 10.1693 51.1963 10.0042 52.074 10.0042C52.949 10.0042 53.714 10.1694 54.3634 10.4939C55.0127 10.8187 55.5575 11.2479 55.995 11.7845C56.4353 12.321 56.7627 12.9291 56.9828 13.6087C57.2002 14.2912 57.3103 14.9845 57.3103 15.6945ZM65.7549 12.6805C65.2128 12.4686 64.7092 12.3613 64.2414 12.3613C63.7627 12.3613 63.3472 12.455 63.0033 12.6364C62.6566 12.8179 62.3704 13.0629 62.1448 13.3739C61.9191 13.6848 61.7513 14.0343 61.6385 14.4222C61.5249 14.8101 61.4675 15.2122 61.4679 15.6164C61.4679 16.0704 61.5174 16.5052 61.6164 16.9234C61.7128 17.3389 61.8641 17.7049 62.0678 18.0158C62.2686 18.3267 62.5245 18.5771 62.8327 18.767C63.1409 18.954 63.5068 19.0504 63.9278 19.0504C64.2746 19.0504 64.6267 18.9541 64.9872 18.767C65.3477 18.5771 65.6035 18.3515 65.7549 18.0956V12.6805ZM65.9805 21.2021L65.8677 20.3656C65.6118 20.6518 65.2733 20.9049 64.8496 21.1223C64.4287 21.3424 63.9306 21.4525 63.3582 21.4525C62.6071 21.4525 61.9412 21.293 61.3716 20.9765C60.7966 20.6601 60.315 20.2363 59.9243 19.708C59.5336 19.1797 59.2336 18.5661 59.03 17.87C58.8292 17.1765 58.7274 16.4502 58.7274 15.6935C58.7269 14.9864 58.8326 14.2834 59.0411 13.6078C59.2529 12.9281 59.5721 12.3201 60.0013 11.7835C60.4333 11.2469 60.9699 10.8176 61.6193 10.493C62.2659 10.1683 63.028 10.0032 63.9003 10.0032C64.4726 10.0032 65.0918 10.1105 65.7549 10.3196V6.08215H68.5642V21.2021H65.9805ZM76.4778 16.0787C76.1751 16.0946 75.8615 16.1229 75.5422 16.1586C75.2367 16.1949 74.9328 16.2445 74.6315 16.3071C74.0206 16.4281 73.5996 16.6346 73.3629 16.929C73.1291 17.2262 73.0108 17.5453 73.0108 17.8947C73.0108 18.2552 73.1428 18.5469 73.4097 18.767C73.6766 18.9843 74.0509 19.0945 74.5379 19.0945C74.9039 19.095 75.2658 19.0181 75.6 18.8689C75.9412 18.7174 76.2356 18.5276 76.4778 18.302V16.0787ZM76.7034 21.1939L76.5933 20.3766C76.288 20.7124 75.9027 20.9765 75.4322 21.1663C74.9616 21.3563 74.4471 21.4525 73.8858 21.4525C73.4152 21.4525 72.9613 21.3727 72.532 21.2131C72.0973 21.0564 71.7148 20.8279 71.3819 20.5335C71.049 20.2391 70.7792 19.8786 70.5756 19.4466C70.3692 19.0146 70.2675 18.5276 70.2675 17.9828C70.2675 17.4408 70.372 16.9591 70.5867 16.5437C70.7985 16.1282 71.0847 15.7787 71.4507 15.4899C71.8139 15.2037 72.2321 14.9698 72.7026 14.7882C73.1704 14.6067 73.6657 14.469 74.1802 14.3782C74.5434 14.3039 74.9424 14.2488 75.3744 14.2103C75.8064 14.1718 76.1669 14.1388 76.4557 14.1084V13.9489C76.4557 13.3435 76.3016 12.9144 75.988 12.6557C75.6771 12.3998 75.2478 12.2704 74.703 12.2704C74.3838 12.2704 74.0784 12.309 73.7894 12.3861C73.5006 12.4603 73.2446 12.554 73.0163 12.6667C72.7879 12.7823 72.587 12.8951 72.411 13.008C72.2376 13.1208 72.0973 13.2225 71.99 13.3133L71.0599 11.3432C71.181 11.236 71.3653 11.1093 71.6157 10.958C71.8662 10.8066 72.166 10.658 72.5238 10.5149C72.8788 10.3718 73.2777 10.2508 73.7235 10.1518C74.1692 10.0527 74.6507 10.0032 75.1625 10.0032C75.7678 10.0032 76.321 10.0831 76.819 10.2426C77.317 10.4021 77.749 10.6498 78.1122 10.991C78.4727 11.3295 78.7561 11.7587 78.9624 12.2815C79.166 12.8016 79.2679 13.4316 79.2679 14.1718V21.1939H76.7034ZM87.9519 8.57516C87.8611 8.53118 87.685 8.46511 87.4208 8.38244C87.1539 8.3 86.8044 8.25863 86.3642 8.25863C85.9734 8.25863 85.6433 8.37708 85.3792 8.61087C85.115 8.84473 84.9829 9.22719 84.9829 9.75555V10.2756H87.341V12.5428H85.0049V21.2021H82.1928V12.5428H80.7427V10.2756H82.1928V9.68672C82.1928 8.97681 82.2836 8.37701 82.4652 7.88444C82.6468 7.39469 82.8999 6.99289 83.2246 6.6847C83.5493 6.37382 83.9318 6.14547 84.3693 6.00238C84.8096 5.85915 85.2856 5.78772 85.8002 5.78772C86.4797 5.78772 87.0411 5.85104 87.4868 5.98043C87.9326 6.10982 88.194 6.19502 88.2683 6.24182L87.9519 8.57516ZM95.615 15.6824C95.615 15.2284 95.56 14.7964 95.4554 14.3864C95.3508 13.9765 95.1913 13.6243 94.9795 13.3298C94.7675 13.0327 94.5117 12.7988 94.209 12.6254C93.9063 12.4494 93.5513 12.3613 93.1441 12.3613C92.7369 12.3613 92.3791 12.4494 92.0792 12.6254C91.7765 12.7988 91.5179 13.0327 91.3061 13.3298C91.0969 13.6243 90.9373 13.9765 90.8301 14.3864C90.7255 14.7965 90.6732 15.2284 90.6732 15.6825C90.6732 16.153 90.7254 16.5905 90.83 16.9922C90.9374 17.394 91.0914 17.7461 91.295 18.0488C91.4986 18.3515 91.7573 18.5909 92.0655 18.767C92.3764 18.9403 92.7368 19.0284 93.1441 19.0284C93.5513 19.0284 93.9062 18.9403 94.209 18.767C94.5117 18.5909 94.7675 18.3515 94.9794 18.0488C95.1913 17.7461 95.3508 17.3939 95.4554 16.9922C95.56 16.5905 95.615 16.153 95.615 15.6824ZM98.3804 15.6945C98.3804 16.4071 98.2703 17.106 98.0502 17.7939C97.8328 18.4818 97.5081 19.0954 97.0761 19.6402C96.6468 20.185 96.102 20.6225 95.4444 20.9554C94.7868 21.2884 94.0191 21.4535 93.1441 21.4535C92.2664 21.4535 91.4986 21.2883 90.8438 20.9554C90.1862 20.6225 89.6413 20.185 89.2093 19.6402C88.7801 19.0954 88.4554 18.4818 88.2353 17.7939C88.0175 17.1154 87.907 16.4071 87.9078 15.6945C87.9078 14.9845 88.0152 14.2912 88.2353 13.6087C88.4554 12.9291 88.7801 12.321 89.2093 11.7845C89.6413 11.2479 90.1862 10.8187 90.8438 10.4939C91.4987 10.1693 92.2664 10.0042 93.1441 10.0042C94.0191 10.0042 94.7841 10.1694 95.4334 10.4939C96.0828 10.8187 96.6276 11.2479 97.0651 11.7845C97.5053 12.321 97.8328 12.9291 98.0502 13.6087C98.2703 14.2912 98.3804 14.9845 98.3804 15.6945ZM107.106 21.2021V14.9698C107.106 14.1388 106.932 13.495 106.586 13.0409C106.236 12.5896 105.755 12.3614 105.133 12.3614C104.695 12.3614 104.291 12.4741 103.922 12.7025C103.551 12.9281 103.229 13.1785 102.956 13.4509V21.2021H100.147V10.2756H102.709L102.843 11.1368C103.286 10.7734 103.789 10.4902 104.329 10.3004C104.88 10.1023 105.435 10.0059 105.994 10.0059C106.569 10.0059 107.097 10.0912 107.582 10.2646C108.066 10.4407 108.481 10.7159 108.828 11.0928C109.178 11.4698 109.444 11.9623 109.634 12.5649C109.821 13.1702 109.918 13.8967 109.918 14.7414V21.2021H107.106ZM118.662 14.425C118.632 14.048 118.552 13.7179 118.423 13.4399C118.294 13.1592 118.134 12.9336 117.944 12.7603C117.754 12.5841 117.551 12.4576 117.33 12.3723C117.108 12.2899 116.885 12.2485 116.656 12.2485C116.169 12.2485 115.707 12.43 115.267 12.7933C114.827 13.1565 114.568 13.6986 114.491 14.425L118.662 14.425ZM114.425 16.4419C114.485 17.3637 114.772 18.0295 115.289 18.4368C115.803 18.844 116.472 19.0504 117.289 19.0504C117.669 19.0504 118.027 19.0146 118.36 18.9485C118.693 18.8799 118.99 18.7944 119.248 18.6872C119.507 18.5825 119.727 18.4753 119.909 18.3707C120.09 18.2635 120.225 18.1644 120.319 18.0736L121.067 20.3656C120.96 20.4399 120.789 20.5417 120.555 20.6711C120.321 20.8005 120.03 20.9187 119.683 21.0342C119.336 21.1471 118.926 21.2434 118.459 21.3287C117.991 21.4111 117.476 21.4525 116.918 21.4525C116.205 21.4525 115.531 21.3397 114.887 21.114C114.246 20.8857 113.682 20.5334 113.2 20.0574C112.716 19.5814 112.331 18.9898 112.045 18.2799C111.756 17.5699 111.613 16.7225 111.613 15.7402C111.613 14.8184 111.745 14.0012 112.009 13.2913C112.273 12.5814 112.636 11.9843 113.096 11.5C113.558 11.0185 114.095 10.647 114.706 10.3884C115.319 10.1325 115.971 10.0032 116.667 10.0032C117.363 10.0032 118.005 10.1188 118.596 10.3444C119.185 10.5699 119.694 10.9222 120.126 11.3982C120.555 11.8742 120.897 12.4906 121.144 13.2473C121.395 14.0012 121.518 14.9009 121.518 15.9438V16.4418L114.425 16.4419Z" fill="#22505F"/>
</g>
<defs>
<clipPath id="clip0_3611_28821">
<rect width="121.579" height="30" fill="white"/>
</clipPath>
</defs>
</svg>
