<svg width="120" height="35" viewBox="0 0 120 35" fill="none" xmlns="http://www.w3.org/2000/svg">
<g clip-path="url(#clip0_2404_16812)">
<path d="M-0.00134277 0.0608826H14.8791C22.7262 0.0608826 27.7847 5.90282 27.7847 12.6879C27.7847 17.5773 25.1531 21.9224 20.7513 23.9682L27.837 34.9999H18.3196L12.0429 25.3149H8.19789V34.9999H-0.00134277M19.4855 12.6879C19.4855 9.44083 17.2584 6.6489 13.8179 6.6489H8.19789V18.7269H13.8179C17.2584 18.7269 19.4855 15.9303 19.4855 12.6879Z" fill="#005862"/>
<path d="M38.7717 6.55033V14.485H52.1817V20.8244H38.7717V28.5104H52.1817V34.9999H30.5677V0.0608521H52.1817V6.55033" fill="#005862"/>
<path d="M69.1373 0.0608521C80.8818 0.0608521 87.563 8.59618 87.563 17.5304C87.563 26.4645 80.9341 34.9999 69.1373 34.9999H56.1271V0.0608521M64.3263 7.04771V28.0083H68.7281C75.357 28.0083 79.2067 22.9171 79.2067 17.5304C79.2067 12.1436 75.3617 7.04771 68.7281 7.04771H64.3263Z" fill="#005862"/>
<path d="M107.773 8.70411L107.383 0.018631C103.3 0.196939 99.5787 1.73133 96.6663 4.18072C96.6521 4.19479 96.633 4.20887 96.6187 4.22295L99.6881 7.67649L102.382 10.7922C103.847 9.55811 105.722 8.79327 107.778 8.70411" fill="#005862"/>
<path d="M108.168 -0.000221012C107.906 -0.000221012 107.64 0.00916362 107.378 0.0185483L107.768 8.70403C107.887 8.69934 108.006 8.68526 108.12 8.68526C109.738 8.67588 111.251 9.09818 112.56 9.83019L116.305 1.94709C113.864 0.703627 111.099 -0.00491333 108.163 -0.00491333" fill="#5DC4B9"/>
<path d="M90.4242 17.4975C90.4242 27.1637 98.3712 34.9952 108.169 34.9952C112.714 34.9952 116.854 33.3059 119.995 30.5375L114.184 23.9964C112.609 25.4181 110.515 26.2956 108.212 26.305C103.277 26.3284 99.2563 22.401 99.2325 17.535C99.2183 14.8323 100.446 12.411 102.378 10.7875L99.6941 7.68118L96.6153 4.21825C92.8273 7.42779 90.4194 12.1811 90.4194 17.4928" fill="#ED1944"/>
</g>
<defs>
<clipPath id="clip0_2404_16812">
<rect width="120" height="35" fill="white"/>
</clipPath>
</defs>
</svg>
