<svg width="120" height="36" viewBox="0 0 120 36" fill="none" xmlns="http://www.w3.org/2000/svg">
<g clip-path="url(#clip0_2404_22547)">
<path d="M-0.00134277 0.0620117H14.8791C22.7262 0.0620117 27.7847 5.98655 27.7847 12.8676C27.7847 17.8309 25.1531 22.2326 20.7466 24.3074L27.8323 35.495H18.3149L12.0382 25.6731H8.19313V35.495H-0.00134277M19.4855 12.8676C19.4855 9.57934 17.2584 6.74318 13.8179 6.74318H8.19789V18.992H13.8179C17.2584 18.992 19.4855 16.1558 19.4855 12.8676Z" fill="white"/>
<path d="M38.7669 6.64324V14.6901H52.1817V21.1191H38.7669V28.9138H52.1817V35.495H30.5677V0.0620117H52.1817V6.64324" fill="white"/>
<path d="M69.1373 0.0620117C80.8818 0.0620117 87.563 8.71802 87.563 17.7785C87.563 26.839 80.9294 35.495 69.1373 35.495H56.1271V0.0620117M64.3263 7.14766V28.4046H68.7281C75.357 28.4046 79.2067 23.2415 79.2067 17.7785C79.2067 12.3156 75.3617 7.14766 68.7281 7.14766H64.3263Z" fill="white"/>
<path d="M107.773 8.82733L107.383 0.019043C103.3 0.195114 99.5787 1.75596 96.6663 4.23998L96.6187 4.28281L99.6881 7.78518L102.382 10.9449C103.847 9.69341 105.722 8.91775 107.778 8.82733" fill="white"/>
<path d="M112.57 9.97429C111.271 9.23669 109.777 8.81317 108.173 8.81317H108.126C108.007 8.81317 107.888 8.82745 107.774 8.83221L107.531 3.38353L107.383 0.0239175C107.645 0.0144001 107.912 0.00488281 108.173 0.00488281C111.109 0.00488281 113.874 0.723441 116.315 1.98449L112.57 9.97904" fill="#C7D0D2"/>
<path d="M108.174 35.4949C98.371 35.4949 90.4287 27.548 90.4287 17.7499C90.4287 12.3631 92.8319 7.54252 96.6245 4.2876L99.6939 7.78998L101.545 9.95993L102.387 10.9497C100.451 12.5962 99.2275 15.0517 99.2418 17.7927C99.2656 22.7131 103.263 26.6866 108.179 26.6866H108.221C110.525 26.6771 112.619 25.7825 114.194 24.3454L120.004 30.9789C116.863 33.7913 112.723 35.4997 108.179 35.4997" fill="#B6C1C5"/>
</g>
<defs>
<clipPath id="clip0_2404_22547">
<rect width="120" height="35.4949" fill="white"/>
</clipPath>
</defs>
</svg>
