<svg width="18" height="18" viewBox="0 0 18 18" fill="none" xmlns="http://www.w3.org/2000/svg">
<g clip-path="url(#clip0_2404_16041)">
<path d="M13.4667 0C15.9667 0 18 2.03333 18 4.53333V13.4667C18 15.9667 15.9667 18 13.4667 18H4.53333C2.03333 18 0 15.9667 0 13.4667V4.53333C0 2.03333 2.03333 0 4.53333 0H13.4667ZM13.4667 1.96667H4.53333C3.1 1.96667 1.96667 3.13333 1.96667 4.53333V13.4667C1.96667 14.9 3.13333 16.0333 4.53333 16.0333H13.4667C14.9 16.0333 16.0333 14.8667 16.0333 13.4667V4.53333C16.0333 3.13333 14.8667 1.96667 13.4667 1.96667ZM9 4.36667C11.5667 4.36667 13.6333 6.43333 13.6333 9C13.6333 11.5667 11.5333 13.6333 9 13.6333C6.43333 13.6333 4.36667 11.5667 4.36667 9C4.36667 6.43333 6.43333 4.36667 9 4.36667ZM9 6.33333C7.53333 6.33333 6.33333 7.53333 6.33333 9C6.33333 10.4667 7.53333 11.6667 9 11.6667C10.4667 11.6667 11.6667 10.4667 11.6667 9C11.6667 7.53333 10.4667 6.33333 9 6.33333ZM13.7667 3.13333C14.3667 3.13333 14.8667 3.63333 14.8667 4.23333C14.8667 4.83333 14.3667 5.33333 13.7667 5.33333C13.1667 5.33333 12.6667 4.83333 12.6667 4.23333C12.6667 3.63333 13.1667 3.13333 13.7667 3.13333Z" fill="#22505F"/>
</g>
<defs>
<clipPath id="clip0_2404_16041">
<rect width="18" height="18" fill="white"/>
</clipPath>
</defs>
</svg>
