<svg width="20" height="20" viewBox="0 0 20 20" fill="none" xmlns="http://www.w3.org/2000/svg">
<g clip-path="url(#clip0_2404_18080)">
<path d="M14.963 0C17.7407 0 20 2.25926 20 5.03704V14.963C20 17.7407 17.7407 20 14.963 20H5.03704C2.25926 20 0 17.7407 0 14.963V5.03704C0 2.25926 2.25926 0 5.03704 0H14.963ZM14.963 2.18519H5.03704C3.44444 2.18519 2.18519 3.48148 2.18519 5.03704V14.963C2.18519 16.5556 3.48148 17.8148 5.03704 17.8148H14.963C16.5556 17.8148 17.8148 16.5185 17.8148 14.963V5.03704C17.8148 3.48148 16.5185 2.18519 14.963 2.18519ZM10 4.85185C12.8519 4.85185 15.1481 7.14815 15.1481 10C15.1481 12.8519 12.8148 15.1481 10 15.1481C7.14815 15.1481 4.85185 12.8519 4.85185 10C4.85185 7.14815 7.14815 4.85185 10 4.85185ZM10 7.03704C8.37037 7.03704 7.03704 8.37037 7.03704 10C7.03704 11.6296 8.37037 12.963 10 12.963C11.6296 12.963 12.963 11.6296 12.963 10C12.963 8.37037 11.6296 7.03704 10 7.03704ZM15.2963 3.48148C15.963 3.48148 16.5185 4.03704 16.5185 4.7037C16.5185 5.37037 15.963 5.92593 15.2963 5.92593C14.6296 5.92593 14.0741 5.37037 14.0741 4.7037C14.0741 4.03704 14.6296 3.48148 15.2963 3.48148Z" fill="white"/>
</g>
<defs>
<clipPath id="clip0_2404_18080">
<rect width="20" height="20" fill="white"/>
</clipPath>
</defs>
</svg>
