<svg width="18" height="18" viewBox="0 0 18 18" fill="none" xmlns="http://www.w3.org/2000/svg">
<path d="M15.4658 6.3375C14.6783 2.8725 11.6558 1.3125 9.0008 1.3125C9.0008 1.3125 9.0008 1.3125 8.9933 1.3125C6.3458 1.3125 3.3158 2.865 2.5283 6.33C1.6508 10.2 4.0208 13.4775 6.1658 15.54C6.9608 16.305 7.9808 16.6875 9.0008 16.6875C10.0208 16.6875 11.0408 16.305 11.8283 15.54C13.9733 13.4775 16.3433 10.2075 15.4658 6.3375ZM9.0008 10.095C7.6958 10.095 6.6383 9.0375 6.6383 7.7325C6.6383 6.4275 7.6958 5.37 9.0008 5.37C10.3058 5.37 11.3633 6.4275 11.3633 7.7325C11.3633 9.0375 10.3058 10.095 9.0008 10.095Z" fill="white"/>
</svg>
