<svg width="20" height="20" viewBox="0 0 20 20" fill="none" xmlns="http://www.w3.org/2000/svg">
<path d="M20 4.33481C19.2649 4.66034 18.4686 4.8675 17.6417 4.95628C18.4992 4.45319 19.1424 3.68375 19.4487 2.76634C18.6524 3.21025 17.7642 3.56538 16.8453 3.74294C16.1103 2.9735 15.0383 2.5 13.8438 2.5C11.5773 2.5 9.73966 4.27563 9.73966 6.46556C9.73966 6.7911 9.77029 7.08703 9.83155 7.38297C6.43185 7.20541 3.39969 5.63694 1.37825 3.23984C1.01072 3.83172 0.826953 4.51238 0.826953 5.22263C0.826953 6.61353 1.56202 7.82688 2.66462 8.53713C1.99081 8.50753 1.34763 8.32997 0.796325 8.03403C0.796325 8.06363 0.796325 8.06363 0.796325 8.09322C0.796325 10.0168 2.20521 11.6149 4.10413 11.97C3.76723 12.0588 3.39969 12.118 3.03216 12.118C2.75651 12.118 2.51149 12.0884 2.26646 12.0588C2.78714 13.6273 4.31853 14.7814 6.09495 14.811C4.68606 15.8764 2.90965 16.4978 0.980092 16.4978C0.643185 16.4978 0.336907 16.4683 0 16.4387C1.80704 17.5632 3.98162 18.2143 6.30934 18.2143C13.8744 18.2143 18.0092 12.1772 18.0092 6.90947C18.0092 6.73191 18.0092 6.55435 18.0092 6.40638C18.7443 5.84409 19.4487 5.13384 20 4.33481Z" fill="white"/>
</svg>
