<svg width="18" height="18" viewBox="0 0 18 18" fill="none" xmlns="http://www.w3.org/2000/svg">
<path d="M18 3.90133C17.3384 4.19431 16.6217 4.38075 15.8775 4.46065C16.6493 4.00787 17.2282 3.31538 17.5038 2.48971C16.7871 2.88923 15.9877 3.20884 15.1608 3.36864C14.4992 2.67615 13.5345 2.25 12.4594 2.25C10.4196 2.25 8.7657 3.84806 8.7657 5.81901C8.7657 6.11199 8.79326 6.37833 8.84839 6.64467C5.78867 6.48487 3.05972 5.07324 1.24043 2.91586C0.909648 3.44855 0.744257 4.06114 0.744257 4.70036C0.744257 5.95218 1.40582 7.04419 2.39816 7.68341C1.79173 7.65678 1.21286 7.49697 0.716692 7.23063C0.716692 7.25726 0.716692 7.25726 0.716692 7.2839C0.716692 9.01513 1.98469 10.4534 3.69372 10.773C3.39051 10.8529 3.05972 10.9062 2.72894 10.9062C2.48086 10.9062 2.26034 10.8795 2.03982 10.8529C2.50842 12.2645 3.88668 13.3033 5.48545 13.3299C4.21746 14.2887 2.61868 14.8481 0.882083 14.8481C0.578867 14.8481 0.303216 14.8214 0 14.7948C1.62634 15.8069 3.58346 16.3929 5.67841 16.3929C12.487 16.3929 16.2083 10.9594 16.2083 6.21852C16.2083 6.05872 16.2083 5.89891 16.2083 5.76574C16.8698 5.25968 17.5038 4.62046 18 3.90133Z" fill="#22505F"/>
</svg>
