<svg width="20" height="15" viewBox="0 0 20 15" fill="none" xmlns="http://www.w3.org/2000/svg">
<path d="M20 7.4358C20 7.4358 20 10.7182 19.5874 12.3056C19.3562 13.172 18.6812 13.8551 17.8249 14.0891C16.2562 14.5002 9.99996 14.5002 9.99996 14.5002C9.99996 14.5002 3.75624 14.5002 2.17499 14.0638C1.31874 13.8298 0.643748 13.1467 0.412498 12.2803C0 10.7182 0 7.41683 0 7.41683C0 7.41683 0 4.13446 0.412498 2.55336C0.643748 1.68692 1.33749 0.98491 2.17499 0.750907C3.74374 0.333496 9.99996 0.333496 9.99996 0.333496C9.99996 0.333496 16.2562 0.333496 17.8249 0.76988C18.6812 1.00388 19.3562 1.68692 19.5874 2.55336C20.0124 4.13446 20 7.4358 20 7.4358ZM8.00622 10.4525L13.2124 7.41683L8.00622 4.38111V10.4525Z" fill="white"/>
</svg>
