<svg width="18" height="18" viewBox="0 0 18 18" fill="none" xmlns="http://www.w3.org/2000/svg">
<path d="M18 9.39208C18 9.39208 18 12.3462 17.6287 13.7749C17.4206 14.5547 16.8131 15.1694 16.0424 15.38C14.6306 15.75 8.99997 15.75 8.99997 15.75C8.99997 15.75 3.38061 15.75 1.95749 15.3573C1.18687 15.1467 0.579373 14.5319 0.371249 13.7521C0 12.3462 0 9.375 0 9.375C0 9.375 0 6.42087 0.371249 4.99788C0.579373 4.21808 1.20375 3.58627 1.95749 3.37567C3.36936 3 8.99997 3 8.99997 3C8.99997 3 14.6306 3 16.0424 3.39275C16.8131 3.60335 17.4206 4.21808 17.6287 4.99788C18.0112 6.42087 18 9.39208 18 9.39208ZM7.2056 12.1071L11.8912 9.375L7.2056 6.64286V12.1071Z" fill="#22505F"/>
</svg>
