<svg width="127" height="116" viewBox="0 0 127 116" fill="none" xmlns="http://www.w3.org/2000/svg">
<path fill-rule="evenodd" clip-rule="evenodd" d="M118.629 0.000140702C121.397 -0.00410124 124.16 0.0875812 126.912 0.274028V59.9275C124.14 59.5487 121.336 59.363 118.519 59.3757C118.125 59.3757 117.73 59.4096 117.336 59.4435L117.335 59.4436C116.94 59.4775 116.545 59.5114 116.151 59.5114C102.016 60.1253 88.5457 65.6827 78.1011 75.2068C67.343 85.0171 60.9615 97.8201 59.066 111.178L58.6165 115.989H0L0.0946286 110.921C2.12323 80.3864 15.8237 50.6249 40.7139 28.8734L41.0392 28.5753C61.2454 11.3424 86.6354 1.3343 113.185 0.136051C115.062 0.000148332 116.86 0.000140702 118.629 0.000140702Z" fill="#D0103A"/>
</svg>
